G04 ================== begin FILE IDENTIFICATION RECORD ==================*
G04 Layout Name:  Sensors_Expo_Demo_LED_MCU_2016-05-12.brd*
G04 Film Name:    L02_BOTTOM*
G04 File Format:  Gerber RS274X*
G04 File Origin:  Cadence Allegro 16.5-S058*
G04 Origin Date:  Thu May 12 16:20:20 2016*
G04 *
G04 Layer:  VIA CLASS/BOTTOM*
G04 Layer:  PIN/BOTTOM*
G04 Layer:  ETCH/BOTTOM*
G04 Layer:  DRAWING FORMAT/BOTTOM*
G04 Layer:  BOARD GEOMETRY/OUTLINE*
G04 Layer:  BOARD GEOMETRY/LOGO_M*
G04 *
G04 Offset:    (0.000 0.000)*
G04 Mirror:    No*
G04 Mode:      Positive*
G04 Rotation:  0*
G04 FullContactRelief:  No*
G04 UndefLineWidth:     5.000*
G04 ================== end FILE IDENTIFICATION RECORD ====================*
%FSLAX55Y55*MOIN*%
%IR0*IPPOS*OFA0.00000B0.00000*MIA0B0*SFA1.00000B1.00000*%
%ADD24R,.026X.008*%
%ADD30R,.008X.026*%
%ADD10C,.125*%
%ADD17R,.059X.118*%
%ADD16R,.118X.059*%
%ADD31R,.184X.184*%
%AMMACRO13*
4,1,36,.001,0.0,
.000985,.000174,
.00094,.000342,
.000866,.0005,
.000766,.000643,
.000643,.000766,
.0005,.000866,
.000342,.00094,
.000174,.000985,
0.0,.001,
-.000174,.000985,
-.000342,.00094,
-.0005,.000866,
-.000643,.000766,
-.000766,.000643,
-.000866,.0005,
-.00094,.000342,
-.000985,.000174,
-.001,0.0,
-.000985,-.000174,
-.00094,-.000342,
-.000866,-.0005,
-.000766,-.000643,
-.000643,-.000766,
-.0005,-.000866,
-.000342,-.00094,
-.000174,-.000985,
0.0,-.001,
.000174,-.000985,
.000342,-.00094,
.0005,-.000866,
.000643,-.000766,
.000766,-.000643,
.000866,-.0005,
.00094,-.000342,
.000985,-.000174,
.001,0.0,
0.0*
%
%ADD13MACRO13*%
%ADD23R,.02X.021*%
%ADD19R,.021X.02*%
%ADD38R,.02X.024*%
%ADD36O,.062X.04*%
%ADD29R,.051X.04*%
%ADD26R,.026X.011*%
%ADD34R,.05X.06*%
%ADD22R,.011X.026*%
%ADD37R,.06X.05*%
%ADD32R,.04X.071*%
%ADD21R,.022X.028*%
%ADD11C,.01*%
%ADD25R,.04X.048*%
%ADD12C,.04*%
%ADD18C,.06*%
%ADD14C,.024*%
%ADD35O,.038X.049*%
%ADD20R,.056X.028*%
%ADD27C,.064*%
%ADD15C,.093*%
%ADD33R,.06X.06*%
%ADD28R,.064X.064*%
%ADD39C,.005*%
%ADD40C,.006*%
%ADD41C,.008*%
%ADD42C,.009*%
%ADD43C,.007098*%
%ADD44C,.02*%
%ADD45C,.015*%
%ADD48R,.062996X.078744*%
%ADD47C,.170004*%
%ADD49C,.040004*%
%ADD50C,.070004*%
%ADD46C,.080004*%
%ADD51C,.074004*%
G75*
%LPD*%
G75*
G36*
G01X46725Y22542D02*
G03X49996Y21131I1275J-1541D01*
G01X49990Y21222D01*
X50568Y21800D01*
X51083D01*
Y21572D01*
X51076Y21545D01*
G03X53131Y19004I1924J-545D01*
G01X53222Y19010D01*
X54982Y17250D01*
X73862D01*
G02X74236Y16708I0J-400D01*
G03X76238Y14004I1871J-708D01*
G01X76328Y14010D01*
X78088Y12250D01*
X98015D01*
G02X98346Y11625I0J-400D01*
G03X101561Y9250I1654J-1125D01*
G01X106439D01*
G03X108083Y8502I1561J1250D01*
G02X108500Y8102I17J-400D01*
G01Y2500D01*
X108000Y2000D01*
X2500D01*
Y234000D01*
X16812D01*
G02X16978Y233236I0J-400D01*
G03X26857Y219857I3523J-7736D01*
G02X27556Y219591I299J-266D01*
G01Y208120D01*
X29856D01*
Y125876D01*
X32250Y123482D01*
Y115484D01*
G02X31567Y115201I-400J0D01*
G01X10356Y136412D01*
Y208120D01*
X12657D01*
Y221121D01*
X5556D01*
Y208120D01*
X7856D01*
Y135376D01*
X30750Y112482D01*
Y77705D01*
G02X30062Y77427I-400J0D01*
G03Y69573I-4062J-3927D01*
G02X30750Y69295I288J-278D01*
G01Y48982D01*
X53299Y26433D01*
G02X53016Y25750I-283J-283D01*
G01X23518D01*
X11250Y38018D01*
Y82376D01*
G02X11792Y82750I400J0D01*
G03X13088Y82709I708J1871D01*
G02X13606Y82326I118J-382D01*
G01Y81070D01*
X26606D01*
Y88171D01*
X13606D01*
Y86914D01*
G02X13088Y86532I-400J0D01*
G03X11792Y86491I-588J-1912D01*
G02X11250Y86865I-142J374D01*
G01Y98946D01*
X15374Y103070D01*
X26606D01*
Y110171D01*
X13606D01*
Y104838D01*
X8750Y99982D01*
Y36982D01*
X22482Y23250D01*
X46471D01*
G02X46725Y22542I0J-400D01*
G37*
G36*
G01X82518Y18250D02*
X80251Y20517D01*
G02X80534Y21200I283J283D01*
G01X84468D01*
X85778Y22510D01*
X85869Y22504D01*
G03X84004Y24369I131J1996D01*
G01X84010Y24278D01*
X83432Y23700D01*
X82917D01*
Y23928D01*
X82924Y23955D01*
G03X80764Y26486I-1924J545D01*
G02X80434Y27166I-47J397D01*
G01X80778Y27510D01*
X80869Y27504D01*
G03X82159Y31130I131J1996D01*
G02X82108Y31739I232J326D01*
G01X84239Y33870D01*
X91056D01*
Y28620D01*
X98156D01*
Y41621D01*
X97937D01*
G02X97710Y42350I0J400D01*
G03X91290I-3210J4650D01*
G02X91063Y41621I-227J-329D01*
G01X91056D01*
Y36371D01*
X83203D01*
X76839Y30007D01*
G02X76156Y30289I-283J283D01*
G01Y41621D01*
X69056D01*
Y36371D01*
X52897D01*
X37700Y51568D01*
Y69633D01*
G02X38167Y70028I400J0D01*
G03X38686Y73992I333J1972D01*
G02X38441Y74673I37J398D01*
G01X43568Y79800D01*
X46133D01*
G02X46528Y79333I0J-400D01*
G03X50472I1972J-333D01*
G02X50867Y79800I394J67D01*
G01X52934D01*
X53512Y79222D01*
X53506Y79131D01*
G03X57138Y77849I1996J-131D01*
G02X57792I327J-230D01*
G03X59296Y80996I1636J1151D01*
G01X59206Y80990D01*
X55945Y84250D01*
X41982D01*
X35433Y77701D01*
G02X34750Y77984I-283J283D01*
G01Y124518D01*
X32356Y126912D01*
Y208120D01*
X34656D01*
Y221121D01*
X28461D01*
G02X28103Y221699I0J400D01*
G03X24022Y233236I-7603J3800D01*
G02X24188Y234000I166J364D01*
G01X170812D01*
G02X170978Y233236I0J-400D01*
G03X180857Y219857I3523J-7736D01*
G02X181556Y219591I299J-266D01*
G01Y208120D01*
X182887D01*
G02X183169Y207438I0J-400D01*
G01X174982Y199250D01*
X171482D01*
X105031Y132799D01*
G02X104392Y132902I-283J283D01*
G03X100610Y131869I-1785J-902D01*
G01X100616Y131778D01*
X92433Y123595D01*
G02X91750Y123878I-283J283D01*
G01Y133982D01*
X164357Y206589D01*
Y208120D01*
X166656D01*
Y221121D01*
X159556D01*
Y208120D01*
X161856D01*
Y207624D01*
X90433Y136201D01*
G02X89750Y136484I-283J283D01*
G01Y141482D01*
X142357Y194088D01*
Y208120D01*
X144656D01*
Y221121D01*
X137556D01*
Y208120D01*
X139856D01*
Y195124D01*
X87250Y142518D01*
Y122121D01*
X79750D01*
Y129376D01*
X80384Y130010D01*
X80475Y130004D01*
G03X78610Y131869I131J1996D01*
G01X78616Y131778D01*
X77683Y130844D01*
G02X77000Y131127I-283J283D01*
G01Y140232D01*
X120356Y183588D01*
Y208120D01*
X122657D01*
Y221121D01*
X115556D01*
Y208120D01*
X117856D01*
Y184624D01*
X82433Y149201D01*
G02X81750Y149484I-283J283D01*
G01Y184982D01*
X98356Y201588D01*
Y208120D01*
X100657D01*
Y221121D01*
X93556D01*
Y208120D01*
X95856D01*
Y202624D01*
X79250Y186018D01*
Y149518D01*
X77039Y147307D01*
G02X76356Y147590I-283J283D01*
G01Y208120D01*
X78656D01*
Y221121D01*
X71556D01*
Y208120D01*
X73856D01*
Y147124D01*
X68433Y141701D01*
G02X67750Y141984I-283J283D01*
G01Y143518D01*
X60000Y151268D01*
Y194768D01*
X54357Y200412D01*
Y208120D01*
X56657D01*
Y221121D01*
X49556D01*
Y208120D01*
X51856D01*
Y199376D01*
X57499Y193733D01*
Y150233D01*
X65250Y142482D01*
Y122121D01*
X58056D01*
Y109120D01*
X60356D01*
Y87876D01*
X63250Y84982D01*
Y76018D01*
X55250Y68018D01*
Y67061D01*
G03X57208Y63629I1250J-1561D01*
G02X57750Y63255I142J-374D01*
G01Y55750D01*
X55511D01*
G03Y53250I-1561J-1250D01*
G01X58027D01*
X60577Y50700D01*
X69367D01*
X81750Y63083D01*
Y69482D01*
X89250Y76982D01*
Y98482D01*
X95250Y104482D01*
Y119482D01*
X172518Y196750D01*
X176018D01*
X186356Y207088D01*
Y208120D01*
X188656D01*
Y221121D01*
X182461D01*
G02X182103Y221699I0J400D01*
G03X178022Y233236I-7603J3800D01*
G02X178188Y234000I166J364D01*
G01X194500D01*
Y75500D01*
X168000D01*
X156500Y64000D01*
X154500D01*
X138000Y47500D01*
X128500D01*
X125500Y50500D01*
Y56232D01*
X157585Y88317D01*
X164439D01*
G03Y90817I1561J1250D01*
G01X156549D01*
X146933Y81201D01*
G02X146250Y81484I-283J283D01*
G01Y84939D01*
G03X143750I-1250J1561D01*
G01Y81018D01*
X123482Y60750D01*
X113482D01*
X108350Y55618D01*
Y19118D01*
X107482Y18250D01*
X82518D01*
G37*
G36*
G01X116000Y2000D02*
Y20677D01*
G03X116225Y23013I-1500J1323D01*
G01X116146Y23146D01*
X121500Y28500D01*
X142000D01*
X142120Y28620D01*
X142157D01*
Y28656D01*
X142500Y29000D01*
Y41500D01*
X140000Y44000D01*
Y47500D01*
X155000Y62500D01*
X157000D01*
X168500Y74000D01*
X194500D01*
Y2000D01*
X189188D01*
G02X189022Y2764I0J400D01*
G03X181978I-3523J7736D01*
G02X181812Y2000I-166J-364D01*
G01X116000D01*
G37*
G36*
G01X219188D02*
G02X219022Y2764I0J400D01*
G03X207764Y14022I-3522J7736D01*
G02X207000Y14188I-364J166D01*
G01Y116000D01*
X345868D01*
G02X346076Y115258I0J-400D01*
G03X354924I4424J-7258D01*
G02X355132Y116000I208J342D01*
G01X360000D01*
Y2000D01*
X354188D01*
G02X354022Y2764I0J400D01*
G03X346978I-3523J7736D01*
G02X346812Y2000I-166J-364D01*
G01X219188D01*
G37*
G36*
G01X236382Y149619D02*
X234865Y148103D01*
G02X234195Y148286I-283J283D01*
G03X234100Y148559I-1695J-435D01*
G01Y149500D01*
X233500D01*
Y150100D01*
X231500D01*
Y149500D01*
X230900D01*
Y148560D01*
X230884Y148523D01*
G03X230750Y147850I1616J-673D01*
G01Y147841D01*
G02X230067Y147558I-400J0D01*
G01X229900Y147725D01*
Y150500D01*
G03X229810Y151053I-1750J0D01*
G01X229800Y151084D01*
Y152100D01*
X228860D01*
X228823Y152116D01*
G03X227477I-673J-1616D01*
G01X227440Y152100D01*
X225018D01*
X224368Y152750D01*
X219252D01*
X218857Y153145D01*
X218863Y153236D01*
G03X214871I-1996J131D01*
G01X214877Y153145D01*
X213250Y151518D01*
Y148982D01*
X214452Y147780D01*
G02X214391Y147164I-283J-283D01*
G03X213834Y144394I1109J-1665D01*
G02X213590Y143783I-333J-221D01*
G03X211006Y142715I1910J-8283D01*
G02X210465Y142828I-212J340D01*
G03X210123Y143002I-330J-227D01*
G02X207500Y143877I-123J3998D01*
G03X207250Y143965I-250J-312D01*
G02X206850Y144365I0J400D01*
G01Y167310D01*
X210348D01*
Y171861D01*
X215953D01*
Y167310D01*
X226536D01*
Y179121D01*
X215926D01*
Y174373D01*
X213722D01*
Y177176D01*
X214332D01*
Y179121D01*
X214131D01*
Y180317D01*
X214331D01*
Y182317D01*
X214131D01*
Y183317D01*
X214036D01*
Y183817D01*
X214131D01*
Y184817D01*
X214331D01*
Y186817D01*
X214131D01*
Y187817D01*
X214038D01*
Y188020D01*
X214038Y188023D01*
G03X214039Y188114I-2999J92D01*
G01Y191574D01*
G02X215039Y192574I1000J0D01*
G01X219952D01*
G03X220334Y192598I0J3000D01*
G01X220347Y192600D01*
X221207D01*
X221897Y193290D01*
X221903Y193295D01*
G03X222188Y193574I-1951J2279D01*
G01X224267D01*
Y193569D01*
X227109D01*
X228109Y192568D01*
X228850D01*
Y192174D01*
X229850D01*
Y191974D01*
X231851D01*
Y192174D01*
X232851D01*
Y192568D01*
X238850D01*
Y192174D01*
X239850D01*
Y191974D01*
X241851D01*
Y192174D01*
X242851D01*
Y192568D01*
X246302D01*
Y188824D01*
X244250D01*
G03X243577Y188690I0J-1750D01*
G01X243540Y188674D01*
X242600D01*
Y188074D01*
X242000D01*
Y186074D01*
X242600D01*
Y185474D01*
X243540D01*
X243577Y185458D01*
G03X244250Y185324I673J1616D01*
G01X249250D01*
Y184674D01*
X247850D01*
Y184074D01*
X247250D01*
Y182074D01*
X247850D01*
Y181474D01*
X250950D01*
Y170218D01*
X241482Y160750D01*
X240227D01*
G03X238279Y156603I-2727J-1250D01*
G02X238666Y155934I104J-386D01*
G01X238544Y155812D01*
G03X236264Y150266I-1044J-2812D01*
G02X236382Y149619I-165J-364D01*
G37*
G36*
G01X206850Y179121D02*
Y209699D01*
G02X207554Y209959I400J0D01*
G03X222499Y215340I6446J5541D01*
G02X223128Y215660I400J-8D01*
G03X227703Y219047I1722J2457D01*
G01X227665Y219163D01*
X229251Y220750D01*
X229786D01*
G02X230088Y220087I0J-400D01*
G03X234613I2263J-1970D01*
G02X234915Y220750I302J263D01*
G01X237286D01*
G02X237588Y220087I0J-400D01*
G03X242113I2263J-1970D01*
G02X242415Y220750I302J263D01*
G01X251809D01*
Y214963D01*
X257010D01*
Y216974D01*
X257750D01*
Y216574D01*
X258350D01*
Y215974D01*
X260155D01*
Y207750D01*
X251142D01*
X250964Y207929D01*
G02X251105Y208270I141J141D01*
G01X251892D01*
Y214271D01*
X246691D01*
Y213174D01*
X245451D01*
Y213574D01*
X244851D01*
Y214174D01*
X242850D01*
Y213574D01*
X242250D01*
Y211044D01*
G02X241567Y210761I-400J0D01*
G01X237968Y214360D01*
X237956Y214418D01*
G03X234000Y214000I-1956J-418D01*
G01Y212672D01*
X242586Y204086D01*
G03X245414Y206914I1414J1414D01*
G01X242738Y209591D01*
G02X243021Y210274I283J283D01*
G01X245451D01*
Y210674D01*
X246691D01*
Y208270D01*
X248041D01*
Y207315D01*
X249600Y205757D01*
Y205074D01*
X249250D01*
Y203074D01*
X249600D01*
Y202586D01*
X251486Y200700D01*
X253086D01*
X255986Y197800D01*
X259514D01*
X260300Y198586D01*
Y201753D01*
X278986D01*
Y182455D01*
X279386D01*
Y182011D01*
X279324Y181952D01*
G03X278734Y180132I1376J-1452D01*
G01X278753Y180028D01*
X278275Y179550D01*
X277687D01*
Y180581D01*
G03X277437Y181331I-1250J0D01*
G01Y182481D01*
X259714D01*
Y191504D01*
X260114D01*
Y195879D01*
X255191D01*
X254702Y196369D01*
X253851D01*
Y197019D01*
X253845D01*
X251265Y197019D01*
X249715Y198569D01*
X228104D01*
X227109Y197574D01*
X222188D01*
G03X221941Y197820I-2236J-2000D01*
G01X221936Y197824D01*
X221260Y198500D01*
X220614D01*
X220593Y198505D01*
G03X219952Y198574I-641J-2931D01*
G01X215039D01*
G03X208039Y191574I0J-7000D01*
G01Y189817D01*
X208036D01*
Y179121D01*
X206850D01*
G37*
G36*
G01X231536Y184121D02*
X214332D01*
Y179121D01*
Y177174D01*
X213728D01*
X213725Y177172D01*
Y174377D01*
X215918D01*
Y177163D01*
X215906Y177174D01*
Y179121D01*
X226536D01*
Y167310D01*
X215906D01*
Y171837D01*
X210395D01*
Y167310D01*
X206851D01*
Y162310D01*
X231536D01*
Y184121D01*
G37*
G36*
G01X206851Y179121D02*
Y184121D01*
X208032D01*
Y179121D01*
X206851D01*
G37*
G36*
G01X213036Y179122D02*
Y188817D01*
X209036D01*
Y179122D01*
X213036D01*
G37*
G36*
G01X210395Y179123D02*
X211969D01*
Y177174D01*
X212577D01*
Y174374D01*
X211969D01*
X210395D01*
Y179123D01*
G37*
G36*
G01X248048Y151780D02*
X250043Y153775D01*
Y155923D01*
X260350Y166231D01*
Y169882D01*
X262467Y171999D01*
G02X263150Y171716I283J-283D01*
G01Y163658D01*
X260459Y160967D01*
Y157773D01*
X262250Y155982D01*
Y155018D01*
X260482Y153250D01*
X253312D01*
X253052Y152990D01*
X252961Y152996D01*
G03X250959Y150292I-131J-1996D01*
G02X250585Y149750I-374J-142D01*
G01X248991D01*
X248958Y149909D01*
G03X248109Y151164I-1958J-409D01*
G02X248048Y151780I222J333D01*
G37*
G36*
G01X247302Y189284D02*
Y192200D01*
X250176D01*
X250650Y192674D01*
X252850D01*
Y190595D01*
X251044D01*
X249733Y189284D01*
X247302D01*
G37*
G36*
G01X249876Y193568D02*
X246954D01*
Y197568D01*
X249301D01*
X250850Y196019D01*
X252844D01*
Y194005D01*
X250312D01*
X249876Y193568D01*
G37*
G36*
G01X224000Y196500D02*
X221846D01*
X220846Y197500D01*
X218511D01*
Y193600D01*
X220793D01*
X221793Y194600D01*
X224000D01*
Y196500D01*
G37*
G36*
G01X235300Y193568D02*
X228523D01*
X227523Y194569D01*
X225267D01*
Y196568D01*
X227517D01*
X228518Y197568D01*
X235300D01*
Y193568D01*
G37*
G36*
G01X250600Y205000D02*
X258800D01*
X259300Y204500D01*
Y199000D01*
X259100Y198800D01*
X256400D01*
X253500Y201700D01*
X251900D01*
X250600Y203000D01*
Y205000D01*
G37*
G36*
G01X262656Y214100D02*
Y218387D01*
X261568Y219474D01*
X260951D01*
Y219874D01*
X257750D01*
Y219474D01*
X257010D01*
Y220750D01*
X263182D01*
X264600Y219332D01*
Y214100D01*
X262656D01*
G37*
G36*
G01X291147Y163971D02*
X290200Y164918D01*
Y177568D01*
X289850Y177918D01*
Y183070D01*
X290090D01*
X290127Y183055D01*
G03X290301Y182992I773J1845D01*
G01X290348Y182977D01*
X291950Y181375D01*
Y181275D01*
X292425Y180800D01*
X291850Y180225D01*
Y177650D01*
G03X291984Y176977I1750J0D01*
G01X292000Y176940D01*
Y176000D01*
X292600D01*
Y175400D01*
X294675D01*
Y167499D01*
X291147Y163971D01*
G37*
G36*
G01X284817Y168451D02*
X283900Y169368D01*
Y175332D01*
X284467Y175899D01*
G02X285150Y175616I283J-283D01*
G01Y175332D01*
X285500Y174982D01*
Y168734D01*
G02X284817Y168451I-400J0D01*
G37*
G36*
G01X293670Y188362D02*
X295775Y186257D01*
Y183465D01*
G02X295093Y183183I-400J0D01*
G01X292823Y185452D01*
X292808Y185499D01*
G03X290358Y186826I-1908J-599D01*
G02X289850Y187211I-108J385D01*
G01Y188362D01*
X293670D01*
G37*
G36*
G01X335598Y190683D02*
X336000Y191086D01*
Y193914D01*
X334654Y195261D01*
X334775Y195402D01*
G03X331734Y198000I-1515J1306D01*
G01X330500D01*
Y204000D01*
X324500D01*
Y198000D01*
X320500D01*
Y198100D01*
X318500D01*
Y198000D01*
X317100D01*
Y200800D01*
X316750D01*
Y202018D01*
X316251Y202517D01*
G02X316534Y203200I283J283D01*
G01X318872D01*
Y203750D01*
X319485D01*
X319530Y203726D01*
G03X319200Y207018I954J1758D01*
G02X318872Y207171I-128J153D01*
G01Y207750D01*
X319518D01*
X320262Y208494D01*
X320352Y208488D01*
G03X318539Y210953I131J1996D01*
G01X318502Y210800D01*
X312750D01*
Y212668D01*
X317118D01*
Y220668D01*
X309118D01*
Y212668D01*
X309250D01*
Y211725D01*
X307750Y210225D01*
Y202834D01*
X307548Y202633D01*
X307368Y202814D01*
X307354Y202868D01*
G03X305626Y198384I-4079J-1003D01*
G02X306250Y198052I224J-332D01*
G01Y195677D01*
G02X305626Y195346I-400J0D01*
G03X300285Y194814I-2350J-3481D01*
G02X299600Y195095I-285J281D01*
G01Y198823D01*
X296750Y201673D01*
Y210793D01*
X294293Y213250D01*
X293451D01*
Y216617D01*
X292851D01*
Y217217D01*
X290850D01*
Y216617D01*
X290250D01*
Y216217D01*
X289372D01*
Y220767D01*
X284172D01*
Y220500D01*
X279529D01*
Y220767D01*
X274329D01*
Y217867D01*
X274132D01*
X273382Y217117D01*
X272851D01*
Y217717D01*
X271152D01*
X270490Y218379D01*
X270496Y218469D01*
G03X267412Y220279I-1996J131D01*
G01X267277Y220192D01*
X265616Y221853D01*
G02X265898Y222535I283J283D01*
G01X342521D01*
G02X342746Y221805I0J-400D01*
G03X347254I2254J-3305D01*
G02X347479Y222535I225J331D01*
G01X352457D01*
Y213263D01*
X350984D01*
X350949Y213277D01*
G03X349845Y213487I-1104J-2790D01*
G01X347645D01*
G03X346506Y213263I0J-3000D01*
G01X344645D01*
Y213000D01*
X339086D01*
X335500Y209414D01*
Y208354D01*
X335481Y208315D01*
G03X335215Y207100I2634J-1215D01*
G01Y206000D01*
G03X335500Y204746I2900J0D01*
G01Y203000D01*
X342000D01*
Y199000D01*
X341400D01*
Y197000D01*
X342000D01*
Y190000D01*
X339430D01*
G03X336841Y190020I-1314J-2585D01*
G01X336800Y190000D01*
X335880D01*
G02X335598Y190683I0J400D01*
G37*
G36*
G01X285750Y197817D02*
X284750Y198817D01*
X284551D01*
X284489Y198879D01*
X283621D01*
X283467Y199033D01*
Y200033D01*
X284550Y201117D01*
X292200D01*
Y197817D01*
X288688D01*
X285750Y197817D01*
G37*
G36*
G01X317173Y128110D02*
G02X316890Y128793I0J400D01*
G01X319500Y131403D01*
G02X320086Y131381I283J-283D01*
G03X319175Y134666I3032J2610D01*
G01X319164Y134603D01*
X317801Y133240D01*
G02X317118Y133523I-283J283D01*
G01Y137991D01*
X312150D01*
Y150800D01*
X317614D01*
X317831Y151017D01*
X318451D01*
Y151617D01*
X324851D01*
Y157617D01*
X322000D01*
Y166000D01*
X321600D01*
Y168300D01*
X320118D01*
X319750Y168668D01*
Y169168D01*
X318300Y170618D01*
Y172100D01*
X314600D01*
Y173330D01*
G03X315061Y173750I-1100J1670D01*
G01X316700D01*
Y173400D01*
X320000D01*
Y174000D01*
X320600D01*
Y176000D01*
X320000D01*
Y176732D01*
X321400Y178132D01*
Y179400D01*
X321800D01*
Y182600D01*
X315200D01*
Y182250D01*
X314600D01*
Y182800D01*
X311398D01*
G02X310717Y182558I-398J41D01*
G01X309750Y183525D01*
Y189370D01*
G02X310433Y189653I400J0D01*
G01X311586Y188500D01*
X320672D01*
X322400Y186772D01*
Y184986D01*
X325000Y182386D01*
Y177086D01*
X327086Y175000D01*
X329350D01*
Y168617D01*
X334500D01*
Y162586D01*
X338086Y159000D01*
X345414D01*
X346090Y159676D01*
X346646D01*
Y160231D01*
X347000Y160586D01*
Y178914D01*
X346598Y179317D01*
G02X346880Y180000I283J283D01*
G01X346991D01*
X347012Y179995D01*
G03X347645Y179928I633J2933D01*
G01X349845D01*
G03X350478Y179995I0J3000D01*
G01X350499Y180000D01*
X352457D01*
Y141424D01*
G02X351740Y141180I-400J0D01*
G03X341473Y143734I-6740J-5180D01*
G02X340915Y144180I-166J364D01*
G03X337356Y141016I-3915J820D01*
G02X337733Y140410I36J-398D01*
G03X336513Y136467I7267J-4410D01*
G02X335806Y136233I-399J22D01*
G03X336394Y132757I-2688J-2242D01*
G02X337138Y132768I374J-141D01*
G03X340408Y128847I7862J3231D01*
G02X340192Y128110I-216J-337D01*
G01X317173D01*
G37*
G36*
G01X312150Y151800D02*
Y164400D01*
X314500D01*
Y165000D01*
X315100D01*
X318400Y165000D01*
X319000Y165000D01*
Y164400D01*
X321000D01*
Y158500D01*
X317600D01*
Y152200D01*
X317200Y151800D01*
X312150D01*
G37*
G36*
G01X338500Y160000D02*
X335730Y162770D01*
X335832Y163017D01*
X335951D01*
Y169217D01*
X335500D01*
Y176000D01*
X327500D01*
X326000Y177500D01*
Y182800D01*
X323400Y185400D01*
Y188000D01*
X333500D01*
X335000Y186500D01*
Y185086D01*
X335000Y184500D01*
X339500Y180000D01*
X340086D01*
X344500Y180000D01*
X346000Y178500D01*
Y167176D01*
X339146D01*
Y160000D01*
X338500D01*
G37*
G36*
G01X325329Y189500D02*
X323414Y191414D01*
G03X320002Y189917I-1414J-1414D01*
G02X319602Y189500I-400J-17D01*
G01X318027D01*
G03X317973I-27J-2000D01*
G01X312000D01*
X310500Y191000D01*
Y196900D01*
X312500D01*
Y197000D01*
X314500D01*
Y196900D01*
X316500D01*
Y197000D01*
X318500D01*
Y196900D01*
X320500D01*
Y197000D01*
X324500D01*
X330500Y197000D01*
X330862Y197000D01*
G02X331262Y196618I0J-400D01*
G03X333634Y194743I1998J90D01*
G01X333738Y194762D01*
X335000Y193500D01*
Y191500D01*
X333000Y189500D01*
X325329D01*
G37*
G36*
G01X351845Y181000D02*
Y212263D01*
X345645D01*
Y212000D01*
X339500D01*
X336500Y209000D01*
Y204000D01*
X343000D01*
Y189500D01*
X342500Y189000D01*
X336000D01*
Y185500D01*
X340500Y181000D01*
X351845D01*
G37*
%LPC*%
G75*
G36*
G01X22202Y59070D02*
G03X21853Y58475I0J-400D01*
G02X18360I-1746J-975D01*
G03X18011Y59070I-349J195D01*
G01X13606D01*
Y66171D01*
X26606D01*
Y59070D01*
X22202D01*
G37*
G36*
G01X26606Y38436D02*
Y37070D01*
X13606D01*
Y44171D01*
X26606D01*
Y42805D01*
G03X27172Y42441I400J0D01*
G02Y38800I828J-1821D01*
G03X26606Y38436I-166J-364D01*
G37*
G36*
G01X175156Y122121D02*
Y109120D01*
X168056D01*
Y114370D01*
X157651D01*
G02X157457Y116871I-1651J1130D01*
G01X168056D01*
Y122121D01*
X175156D01*
G37*
G36*
G01X153156D02*
Y109120D01*
X146056D01*
Y113517D01*
G03X145463Y113868I-400J0D01*
G02Y117373I-963J1753D01*
G03X146056Y117724I193J351D01*
G01Y122121D01*
X153156D01*
G37*
G36*
G01X131156D02*
Y109120D01*
X124056D01*
Y114370D01*
X119061D01*
G02Y116871I-1561J1250D01*
G01X124056D01*
Y122121D01*
X131156D01*
G37*
G36*
G01X109157D02*
Y109120D01*
X102056D01*
Y113517D01*
G03X101463Y113868I-400J0D01*
G02Y117373I-963J1753D01*
G03X102056Y117724I193J351D01*
G01Y122121D01*
X109157D01*
G37*
G36*
G01X172038Y97574D02*
G03X171863Y96905I108J-385D01*
G01X172778Y95990D01*
X172869Y95996D01*
G02X174159Y92370I131J-1996D01*
G03X174108Y91761I232J-326D01*
G01X175052Y90817D01*
X175436D01*
X175496Y90885D01*
G02X175439Y88317I1504J-1318D01*
G01X174016D01*
X168083Y94250D01*
X138518D01*
X131490Y87222D01*
X131496Y87131D01*
G02X130937Y85609I-1996J-131D01*
G01X130801Y85468D01*
X133278Y82990D01*
X133369Y82996D01*
G02X131504Y81131I131J-1996D01*
G01X131510Y81222D01*
X129032Y83700D01*
X128133D01*
X126200Y85633D01*
Y88367D01*
X136083Y98250D01*
X169255D01*
G03X169629Y98792I0J400D01*
G02X172038Y97574I1871J708D01*
G37*
G36*
G01X245318Y5807D02*
G02X245013Y8914I-3818J1193D01*
G03X245670Y8848I351J191D01*
G02X248411Y9153I1531J-1287D01*
G03X248732Y9312I121J159D01*
G01Y9460D01*
X250600D01*
Y10128D01*
X251149Y10677D01*
G03X250866Y11360I-283J283D01*
G01X250700D01*
Y12769D01*
X250686Y12804D01*
G02X250600Y13260I1164J456D01*
G01Y14714D01*
G02X253316Y17337I900J1786D01*
G03X253963Y17222I363J167D01*
G01X257250Y20509D01*
Y32518D01*
X258532Y33800D01*
G03X258250Y34483I-283J283D01*
G01X257049D01*
Y34533D01*
G03X256759Y34712I-200J0D01*
G02X256516Y38380I-908J1782D01*
G03X257049Y38757I133J377D01*
G01Y39230D01*
G03X256516Y39608I-400J0D01*
G02X253942Y40895I-666J1886D01*
G01X253927Y40942D01*
X253616Y41253D01*
Y43649D01*
X253116D01*
Y45650D01*
X253716D01*
Y46250D01*
X252082D01*
X250933Y47399D01*
G03X250250Y47116I-283J-283D01*
G01Y41518D01*
X252250Y39518D01*
Y34018D01*
X253550Y32718D01*
Y31884D01*
X253950D01*
Y28683D01*
X253550D01*
Y25282D01*
X245718Y17450D01*
X238218D01*
X237251Y16482D01*
Y10982D01*
X235428Y9160D01*
X232501D01*
Y8052D01*
X232514Y8016D01*
G02X232601Y7560I-1164J-456D01*
G01Y5333D01*
X231428Y4160D01*
X227482D01*
X225750Y5892D01*
Y21834D01*
X226332Y22416D01*
G03X226266Y23036I-283J283D01*
G02X225680Y23616I1084J1681D01*
G01X219551D01*
G02X218305Y27216I-1200J1600D01*
G03X218500Y27416I-5J200D01*
G01Y27517D01*
G03X218305Y27717I-200J0D01*
G02X219551Y31317I46J2000D01*
G01X226150D01*
G02X229053Y30767I1200J-1600D01*
G01X240444D01*
G03X240727Y31450I0J400D01*
G01X238423Y33753D01*
X238047Y33376D01*
X238032Y33330D01*
G02X234750Y35382I-1908J599D01*
G01Y36716D01*
X234250D01*
Y38717D01*
X234850D01*
Y39317D01*
X235790D01*
X235827Y39332D01*
G02X236344Y39460I673J-1616D01*
G03X236591Y40141I-36J398D01*
G01X234600Y42132D01*
Y44666D01*
X229500D01*
Y43500D01*
X229343D01*
Y43292D01*
X229344Y43283D01*
G02X228150Y41283I-1993J-167D01*
G03Y40550I160J-367D01*
G02X228456Y37050I-800J-1833D01*
G03Y36383I221J-333D01*
G02X226684Y32831I-1106J-1667D01*
G03X226185Y32616I-133J-377D01*
G01X219550D01*
Y33999D01*
X218799Y34750D01*
X216932D01*
X215000Y36682D01*
Y46184D01*
X216999Y48183D01*
X215000Y50182D01*
Y59684D01*
X216999Y61683D01*
X215000Y63682D01*
Y73184D01*
X217066Y75250D01*
X219550D01*
Y76317D01*
X219950D01*
Y77218D01*
X220007Y77275D01*
G03X219865Y77616I-141J141D01*
G01X219552D01*
X219500Y77580D01*
G02X216354Y79348I-1150J1637D01*
G01X216360Y79438D01*
X215050Y80749D01*
Y94518D01*
X216250Y95717D01*
Y106518D01*
X221482Y111750D01*
X273518D01*
X279639Y105629D01*
X286000D01*
G02X286457Y105543I0J-1250D01*
G01X286492Y105529D01*
X287901D01*
Y101260D01*
X286492D01*
X286457Y101246D01*
G02X286000Y101160I-456J1164D01*
G01X280074D01*
G03X279791Y100477I0J-400D01*
G01X282518Y97750D01*
X288541D01*
X289800Y99010D01*
Y103560D01*
X291209D01*
X291244Y103574D01*
G02X291700Y103660I456J-1164D01*
G01X294268D01*
X295750Y102178D01*
Y97982D01*
X292701Y94933D01*
G03X292984Y94250I283J-283D01*
G01X297018D01*
X298750Y92518D01*
Y88982D01*
X297346Y87578D01*
X293601D01*
Y85792D01*
X292951D01*
Y83683D01*
X291201Y81933D01*
X262184D01*
X260951Y80699D01*
Y76500D01*
X261000D01*
Y75317D01*
X261633D01*
X262483Y76167D01*
X264789D01*
G02X267720Y73458I1561J-1250D01*
G03X267993Y72767I274J-292D01*
G01X274692D01*
G03X275052Y73342I0J400D01*
G02X275050Y75088I1799J875D01*
G01Y78817D01*
X281651D01*
Y75616D01*
X281251D01*
Y72750D01*
X287517D01*
Y69323D01*
G02X284489Y66751I-1666J-1107D01*
G03X283817Y66458I-272J-293D01*
G01Y64975D01*
G03X284489Y64682I400J0D01*
G02X287355Y64535I1361J-1465D01*
G01X287414Y64467D01*
X287634D01*
X288717Y63384D01*
X292845D01*
X292868Y63557D01*
G02X296846Y63162I1983J-264D01*
G01X296840Y63072D01*
X297895Y62017D01*
X299317D01*
Y61116D01*
G03X300000Y60834I400J0D01*
G01X304149Y64984D01*
G03X303866Y65666I-283J283D01*
G01X299950D01*
Y72767D01*
X312951D01*
Y65666D01*
X307701D01*
Y65101D01*
X316483D01*
Y65451D01*
X323084D01*
Y65101D01*
X325167D01*
X332250Y58018D01*
Y45518D01*
X333018Y44750D01*
X335250D01*
Y51767D01*
X348250D01*
Y53482D01*
X340500Y61232D01*
Y65666D01*
X335250D01*
Y72767D01*
X348251D01*
Y65666D01*
X343001D01*
Y62267D01*
X350750Y54518D01*
Y51018D01*
X353750Y48018D01*
Y22082D01*
X351118Y19450D01*
X345218D01*
X340699Y14931D01*
Y10518D01*
X341369Y9848D01*
Y8928D01*
X341369Y8927D01*
Y5601D01*
X339518Y3750D01*
X313343D01*
X312100Y4992D01*
Y5660D01*
X310232D01*
Y6310D01*
X305922D01*
X303750Y8482D01*
Y18082D01*
G03X303067Y18365I-400J0D01*
G01X301250Y16548D01*
Y5482D01*
X299518Y3750D01*
X292843D01*
X291600Y4992D01*
Y5660D01*
X289732D01*
Y6310D01*
X279922D01*
X275750Y10482D01*
Y11360D01*
X273374D01*
G03X273091Y10677I0J-400D01*
G01X273601Y10167D01*
Y7560D01*
G02X273514Y7104I-1250J0D01*
G01X273501Y7069D01*
Y5660D01*
X269232D01*
Y6310D01*
X267922D01*
X260250Y13982D01*
Y16016D01*
G03X259567Y16299I-400J0D01*
G01X257000Y13732D01*
Y10732D01*
X255428Y9160D01*
X253168D01*
X253101Y9092D01*
Y7560D01*
G02X253014Y7104I-1250J0D01*
G01X253001Y7069D01*
Y5660D01*
X248732D01*
Y5808D01*
G03X248411Y5967I-200J0D01*
G02X245950Y5999I-1210J1593D01*
G03X245318Y5807I-250J-312D01*
G37*
G54D48*
X172047Y135144D03*
G54D47*
X13000Y13000D03*
G54D49*
X54500Y88500D03*
X129449Y53621D03*
X85500Y61000D03*
X138000Y81000D03*
X124000Y92000D03*
X124606Y132106D03*
X147106Y71894D03*
X140106Y63000D03*
X139500Y102000D03*
X166500Y78000D03*
X175500Y83000D03*
X172094Y143288D03*
X272524Y76728D03*
X294850Y68294D03*
G54D50*
X179606Y35620D03*
X318850Y100910D03*
X333118Y216668D03*
X342646Y153676D03*
G54D46*
X28000Y18000D03*
X174606Y210120D03*
X179606Y25620D03*
X173000Y15500D03*
X350500Y93000D03*
X328850Y100910D03*
X323118Y216668D03*
G54D51*
X303276Y211865D03*
%LPD*%
G75*
G36*
G01X228250Y11212D02*
Y18000D01*
X230182D01*
Y16168D01*
X230100Y16087D01*
Y13260D01*
G03X230186Y12804I1250J0D01*
G01X230200Y12769D01*
Y11660D01*
X229664D01*
X228933Y10929D01*
G02X228250Y11212I-283J283D01*
G37*
G36*
G01X223166Y92250D02*
X218233Y87318D01*
G02X217551Y87600I-283J283D01*
G01Y93482D01*
X218117Y94049D01*
G02X218800Y93766I283J-283D01*
G01Y93216D01*
X225901D01*
Y106217D01*
X224450D01*
G02X224168Y106899I0J400D01*
G01X225018Y107750D01*
X238016D01*
G02X238299Y107067I0J-400D01*
G01X236750Y105518D01*
Y101018D01*
X227982Y92250D01*
X223166D01*
G37*
G36*
G01X231884Y85951D02*
Y89651D01*
X229884D01*
G02X229602Y90333I0J400D01*
G01X239250Y99982D01*
Y104482D01*
X240317Y105549D01*
G02X241000Y105266I283J-283D01*
G01Y93216D01*
X248101D01*
Y98466D01*
X250766D01*
X256420Y92812D01*
G02X256137Y92129I-283J-283D01*
G01X242361D01*
X238954Y88722D01*
G02X238285Y88903I-283J283D01*
G03X236170Y86402I-1934J-509D01*
G01X236242Y86395D01*
X236434Y86202D01*
X236183Y85951D01*
X231884D01*
G37*
G36*
G01X259018Y93750D02*
X251801Y100967D01*
X248101D01*
Y106250D01*
X263200D01*
Y93750D01*
X259018D01*
G37*
G36*
G01X294750Y20482D02*
X299267Y24999D01*
G02X299950Y24716I283J-283D01*
G01Y23666D01*
X303866D01*
G02X304149Y22984I0J-400D01*
G01X298750Y17584D01*
Y6518D01*
X298482Y6250D01*
X294101D01*
Y7560D01*
G03X294014Y8016I-1250J0D01*
G01X294001Y8052D01*
Y9250D01*
X294626D01*
X296069Y10692D01*
Y13260D01*
G03X295983Y13716I-1250J0D01*
G01X295969Y13752D01*
Y15160D01*
X294692D01*
G02X294551Y15502I0J200D01*
G01X294750Y15701D01*
Y20482D01*
G37*
G36*
G01X268518Y11750D02*
X265250Y15018D01*
Y23666D01*
X269900D01*
Y23113D01*
X271182Y21832D01*
Y16168D01*
X271100Y16087D01*
Y13260D01*
G03X271186Y12804I1250J0D01*
G01X271200Y12769D01*
Y11750D01*
X268518D01*
G37*
G36*
G01X282118D02*
X279750Y14118D01*
Y18982D01*
X283250Y22482D01*
Y25482D01*
X288250Y30482D01*
Y41982D01*
X290050Y43782D01*
Y45183D01*
X290450D01*
Y48384D01*
X290050D01*
Y52216D01*
X290850D01*
Y51616D01*
X292851D01*
Y52116D01*
X293289D01*
G02X293549Y51413I0J-400D01*
G03X293399Y48517I1301J-1519D01*
G01Y47584D01*
X293049D01*
Y40983D01*
X293399D01*
Y28667D01*
X287250Y22518D01*
Y19518D01*
X286222Y18490D01*
X286131Y18496D01*
G03X287996Y16631I-131J-1996D01*
G01X287990Y16722D01*
X289750Y18482D01*
Y19255D01*
G02X290292Y19629I400J0D01*
G03X291708I708J1871D01*
G02X292250Y19255I142J-374D01*
G01Y16737D01*
X291600Y16087D01*
Y13260D01*
G03X291686Y12804I1250J0D01*
G01X291700Y12769D01*
Y11750D01*
X282118D01*
G37*
G36*
G01X306958Y8810D02*
X306250Y9518D01*
Y17482D01*
X310018Y21250D01*
X314018D01*
X319250Y26482D01*
Y47700D01*
X319600D01*
Y54300D01*
X316400D01*
Y53700D01*
X309935D01*
X307340Y56295D01*
X307346Y56385D01*
G03X305482Y54521I-1996J131D01*
G01X305572Y54527D01*
X307649Y52450D01*
G02X307366Y51767I-283J-283D01*
G01X301000D01*
G02X300718Y52450I0J400D01*
G01X301750Y53482D01*
Y59048D01*
X303111Y60409D01*
G02X303720Y60358I283J-283D01*
G03X307346Y61648I1631J1159D01*
G01X307340Y61738D01*
X308202Y62600D01*
X309750D01*
Y61576D01*
X309735Y61540D01*
G03Y60193I1616J-673D01*
G01X309750Y60156D01*
Y59216D01*
X310350D01*
Y58616D01*
X312351D01*
Y59116D01*
X314348D01*
X314902Y59671D01*
X314949Y59685D01*
G03X316339Y61808I-599J1908D01*
G02X316737Y62250I398J43D01*
G01X323084D01*
Y62600D01*
X324132D01*
X329750Y56982D01*
Y44482D01*
X331982Y42250D01*
X346982D01*
X348250Y40982D01*
Y30767D01*
X335250D01*
Y28467D01*
X334583D01*
X317866Y11750D01*
X316469D01*
Y12769D01*
X316483Y12804D01*
G03X316569Y13260I-1164J456D01*
G01Y14792D01*
X324250Y22474D01*
Y47700D01*
X324600D01*
Y54300D01*
X324250D01*
Y56018D01*
X321018Y59250D01*
X319561D01*
G03X319504Y56682I-1561J-1250D01*
G01X319564Y56750D01*
X319982D01*
X321750Y54982D01*
Y54300D01*
X321400D01*
Y47700D01*
X321750D01*
Y23509D01*
X314069Y15828D01*
Y15160D01*
X312200D01*
Y13752D01*
X312186Y13716D01*
G03X312100Y13260I1164J-456D01*
G01Y10632D01*
X312589Y10143D01*
G02X312306Y9460I-283J-283D01*
G01X310232D01*
Y8810D01*
X306958D01*
G37*
G36*
G01X278333Y28602D02*
G02X277651Y28884I-283J283D01*
G01Y30767D01*
X266500D01*
G02X266218Y31450I0J400D01*
G01X267018Y32250D01*
X269018D01*
X273250Y36482D01*
Y40482D01*
X274018Y41250D01*
X274105D01*
G02X274479Y40708I0J-400D01*
G03X275400Y38240I1871J-708D01*
G01Y36000D01*
X276000D01*
Y35400D01*
X276940D01*
X276977Y35384D01*
G03X278323I673J1616D01*
G01X278360Y35400D01*
X279700D01*
Y33332D01*
X280932Y32100D01*
X281400D01*
Y31668D01*
X278333Y28602D01*
G37*
G36*
G01X281000Y84433D02*
Y87742D01*
X283351D01*
X283433Y87660D01*
X286000D01*
G03X286457Y87746I0J1250D01*
G01X286492Y87760D01*
X287901D01*
Y91750D01*
X295982D01*
X296250Y91482D01*
Y90079D01*
X292146D01*
X292114Y90090D01*
G03X291244Y90074I-413J-1180D01*
G01X291209Y90060D01*
X289800D01*
Y85792D01*
X290450D01*
Y84718D01*
X290165Y84433D01*
X281000D01*
G37*
G36*
G01X338199Y9482D02*
X338868Y8812D01*
Y7892D01*
X338869Y7892D01*
Y6637D01*
X338482Y6250D01*
X335001D01*
Y7069D01*
X335014Y7104D01*
G03X335101Y7560I-1164J456D01*
G01Y9092D01*
X335258Y9250D01*
X337518D01*
X337952Y9684D01*
X338199Y9582D01*
Y9482D01*
G37*
G36*
G01X318902Y9250D02*
X334567Y24915D01*
G02X335250Y24633I283J-283D01*
G01Y23666D01*
X339933D01*
G02X340215Y22984I0J-400D01*
G01X334569Y17337D01*
Y13260D01*
G03X334655Y12804I1250J0D01*
G01X334669Y12769D01*
Y11750D01*
X334222D01*
X332600Y10128D01*
Y9460D01*
X330732D01*
Y6250D01*
X314601D01*
Y7560D01*
G03X314514Y8016I-1250J0D01*
G01X314501Y8052D01*
Y9250D01*
X318902D01*
G37*
%LPC*%
G75*
G54D46*
X231000Y103000D03*
%LPD*%
G75*
G36*
G01X236431Y193568D02*
Y197568D01*
X245748D01*
Y193568D01*
X236431D01*
G37*
G54D10*
X-3000Y-23000D03*
Y259220D03*
X365331Y-23000D03*
Y259220D03*
G54D20*
X213150Y170459D03*
G54D11*
G01X261850Y192117D02*
Y194527D01*
X260323Y196054D01*
X257814D01*
G01X261850Y199617D02*
Y199074D01*
X260405Y197629D01*
X257814D01*
G01X251500Y188300D02*
X252200D01*
X255230Y191330D01*
X257814D01*
G01X280887Y183456D02*
Y180687D01*
X280700Y180500D01*
X-8000Y59500D03*
Y67500D03*
Y63500D03*
Y176000D03*
Y184000D03*
Y180000D03*
X0Y59500D03*
Y67500D03*
Y63500D03*
Y176000D03*
Y184000D03*
Y180000D03*
X54000Y-8000D03*
X46000D03*
X50000D03*
X54000Y0D03*
X46000D03*
X50000D03*
Y244220D03*
X46000D03*
X54000D03*
X50000Y236220D03*
X46000D03*
X54000D03*
X150500Y-8000D03*
X142500D03*
X146500D03*
X150500Y0D03*
X142500D03*
X146500D03*
Y244220D03*
X142500D03*
X150500D03*
X146500Y236220D03*
X142500D03*
X150500D03*
X204850Y63500D03*
Y67500D03*
Y59500D03*
X196850Y63500D03*
Y67500D03*
Y59500D03*
X204850Y153600D03*
X196850D03*
X204850Y157600D03*
Y161600D03*
X196850Y157600D03*
Y161600D03*
X248000Y-8000D03*
X240000D03*
X244000D03*
X248000Y0D03*
X240000D03*
X244000D03*
Y126110D03*
X240000D03*
X248000D03*
X244000Y118110D03*
X240000D03*
X248000D03*
Y224535D03*
X240000D03*
X244000D03*
X248000Y232535D03*
X240000D03*
X244000D03*
X324000Y0D03*
X320000D03*
X328000D03*
X324000Y-8000D03*
X320000D03*
X328000D03*
X324000Y126110D03*
X320000D03*
X328000D03*
X324000Y118110D03*
X320000D03*
X328000D03*
Y224535D03*
X320000D03*
X324000D03*
X328000Y232535D03*
X320000D03*
X324000D03*
X362331Y59500D03*
Y67500D03*
Y63500D03*
X370331Y59500D03*
Y67500D03*
Y63500D03*
X354457Y153600D03*
X362457D03*
X354457Y161600D03*
Y157600D03*
X362457Y161600D03*
Y157600D03*
G54D12*
G01X219952Y195574D02*
X215039D01*
G03X211039Y191574I0J-4000D01*
G01Y188114D01*
X28000Y18000D03*
X173000Y15500D03*
X174606Y210120D03*
X241500Y7000D03*
X231000Y103000D03*
X242350Y146117D03*
Y136117D03*
X237500Y153000D03*
X255350Y145117D03*
X248850D03*
X252350Y137117D03*
X227000Y132000D03*
X237500Y159500D03*
X224850Y218117D03*
X239850D03*
X232350D03*
X290350Y157617D03*
Y151117D03*
X291850Y143617D03*
X285350D03*
X274850Y145117D03*
X268350D03*
X262350Y137117D03*
X282350D03*
X292350D03*
X272350D03*
X261850Y145117D03*
X273500Y151500D03*
X350500Y93000D03*
X337000Y145000D03*
X345000Y218500D03*
G54D21*
X214824Y175774D03*
X211477D03*
G54D30*
X278012Y180581D03*
X276437D03*
X274862D03*
X273287D03*
X271713D03*
X270138D03*
X268563D03*
X266988D03*
X265413D03*
X263839D03*
X262264D03*
X260689D03*
Y203653D03*
X262264D03*
X263839D03*
X265413D03*
X266988D03*
X268563D03*
X270138D03*
X271713D03*
X273287D03*
X274862D03*
X276437D03*
X278012D03*
G54D40*
G01X13499Y-241079D02*
X14032Y-241279D01*
X14432Y-241779D01*
X14698Y-242379D01*
X14898Y-243179D01*
X14965Y-244079D01*
X14898Y-244979D01*
X14698Y-245779D01*
X14432Y-246379D01*
X14032Y-246879D01*
X13499Y-247079D01*
X12965Y-246879D01*
X12565Y-246379D01*
X12298Y-245779D01*
X12098Y-244979D01*
X12032Y-244079D01*
X12098Y-243179D01*
X12298Y-242379D01*
X12565Y-241779D01*
X12965Y-241279D01*
X13499Y-241079D01*
G01X8698Y-247079D02*
Y-241079D01*
X9498Y-242279D01*
G01Y-247079D02*
X7898D01*
G01X145332Y-199579D02*
Y-193579D01*
X143665D01*
X143132Y-193879D01*
X142798Y-194279D01*
X142665Y-195079D01*
X142798Y-195879D01*
X143198Y-196379D01*
X143665Y-196679D01*
X145332D01*
G01X143665D02*
X142665Y-199579D01*
G01X139198D02*
X139732Y-199479D01*
X140198Y-199079D01*
X140598Y-198479D01*
X140865Y-197779D01*
X140998Y-196979D01*
Y-196179D01*
X140865Y-195379D01*
X140598Y-194679D01*
X140198Y-194079D01*
X139732Y-193679D01*
X139198Y-193579D01*
X138665Y-193679D01*
X138198Y-194079D01*
X137798Y-194679D01*
X137532Y-195379D01*
X137398Y-196179D01*
Y-196979D01*
X137532Y-197779D01*
X137798Y-198479D01*
X138198Y-199079D01*
X138665Y-199479D01*
X139198Y-199579D01*
G01X135798D02*
Y-193579D01*
G01X132998D02*
Y-199579D01*
G01Y-196579D02*
X135798D01*
G01X131332Y-199579D02*
Y-193579D01*
X129598Y-198579D01*
X127865Y-193579D01*
Y-199579D01*
G01X121398Y-198779D02*
X120865Y-199279D01*
X120265Y-199579D01*
X119732D01*
X119198Y-199279D01*
X118798Y-198779D01*
X118598Y-198079D01*
X118732Y-197379D01*
X119065Y-196779D01*
X119665Y-196379D01*
X120465Y-196179D01*
X120932Y-195779D01*
X121132Y-195079D01*
X120998Y-194379D01*
X120665Y-193879D01*
X120198Y-193579D01*
X119732D01*
X119265Y-193779D01*
X118865Y-194279D01*
G01X113865Y-199579D02*
X116532D01*
Y-193579D01*
X113865D01*
G01X114932Y-196479D02*
X116532D01*
G01X112132Y-199579D02*
Y-193579D01*
X110398Y-198579D01*
X108665Y-193579D01*
Y-199579D01*
G01X106398Y-193579D02*
X104798D01*
G01X105598D02*
Y-199579D01*
G01X106398D02*
X104798D01*
G01X99332Y-194079D02*
X99732Y-193779D01*
X100198Y-193579D01*
X100732D01*
X101332Y-193879D01*
X101798Y-194379D01*
X102132Y-194979D01*
X102399Y-195979D01*
X102465Y-196879D01*
X102332Y-197779D01*
X102132Y-198379D01*
X101732Y-198979D01*
X101265Y-199379D01*
X100799Y-199579D01*
X100332D01*
X99865Y-199379D01*
X99465Y-199079D01*
X99132Y-198679D01*
G01X95999Y-199579D02*
X96532Y-199479D01*
X96998Y-199079D01*
X97398Y-198479D01*
X97665Y-197779D01*
X97798Y-196979D01*
Y-196179D01*
X97665Y-195379D01*
X97398Y-194679D01*
X96998Y-194079D01*
X96532Y-193679D01*
X95999Y-193579D01*
X95465Y-193679D01*
X94998Y-194079D01*
X94598Y-194679D01*
X94332Y-195379D01*
X94198Y-196179D01*
Y-196979D01*
X94332Y-197779D01*
X94598Y-198479D01*
X94998Y-199079D01*
X95465Y-199479D01*
X95999Y-199579D01*
G01X92732D02*
Y-193579D01*
X89665Y-199579D01*
Y-193579D01*
G01X87865Y-199579D02*
Y-193579D01*
X86532D01*
X85998Y-193879D01*
X85598Y-194279D01*
X85265Y-194879D01*
X84998Y-195579D01*
X84932Y-196579D01*
X84998Y-197579D01*
X85265Y-198279D01*
X85598Y-198879D01*
X85998Y-199279D01*
X86532Y-199579D01*
X87865D01*
G01X83065Y-193579D02*
Y-197879D01*
X82798Y-198779D01*
X82265Y-199379D01*
X81598Y-199579D01*
X80932Y-199379D01*
X80398Y-198779D01*
X80132Y-197879D01*
Y-193579D01*
G01X75332Y-194079D02*
X75732Y-193779D01*
X76198Y-193579D01*
X76732D01*
X77332Y-193879D01*
X77798Y-194379D01*
X78132Y-194979D01*
X78398Y-195979D01*
X78465Y-196879D01*
X78332Y-197779D01*
X78132Y-198379D01*
X77732Y-198979D01*
X77265Y-199379D01*
X76798Y-199579D01*
X76332D01*
X75865Y-199379D01*
X75465Y-199079D01*
X75132Y-198679D01*
G01X71998Y-193579D02*
Y-199579D01*
G01X73532Y-193579D02*
X70465D01*
G01X67198Y-199579D02*
X67732Y-199479D01*
X68198Y-199079D01*
X68598Y-198479D01*
X68865Y-197779D01*
X68998Y-196979D01*
Y-196179D01*
X68865Y-195379D01*
X68598Y-194679D01*
X68198Y-194079D01*
X67732Y-193679D01*
X67198Y-193579D01*
X66665Y-193679D01*
X66198Y-194079D01*
X65798Y-194679D01*
X65532Y-195379D01*
X65398Y-196179D01*
Y-196979D01*
X65532Y-197779D01*
X65798Y-198479D01*
X66198Y-199079D01*
X66665Y-199479D01*
X67198Y-199579D01*
G01X63732D02*
Y-193579D01*
X62065D01*
X61532Y-193879D01*
X61198Y-194279D01*
X61065Y-195079D01*
X61198Y-195879D01*
X61598Y-196379D01*
X62065Y-196679D01*
X63732D01*
G01X62065D02*
X61065Y-199579D01*
G01X54265Y-193579D02*
Y-197879D01*
X53998Y-198779D01*
X53465Y-199379D01*
X52799Y-199579D01*
X52132Y-199379D01*
X51598Y-198779D01*
X51332Y-197879D01*
Y-193579D01*
G01X49398Y-198779D02*
X48865Y-199279D01*
X48265Y-199579D01*
X47732D01*
X47198Y-199279D01*
X46798Y-198779D01*
X46598Y-198079D01*
X46732Y-197379D01*
X47065Y-196779D01*
X47665Y-196379D01*
X48465Y-196179D01*
X48932Y-195779D01*
X49132Y-195079D01*
X48998Y-194379D01*
X48665Y-193879D01*
X48198Y-193579D01*
X47732D01*
X47265Y-193779D01*
X46865Y-194279D01*
G01X44865Y-199579D02*
X43198Y-193579D01*
X41532Y-199579D01*
G01X42132Y-197479D02*
X44265D01*
G01X124632Y-247079D02*
Y-241079D01*
X121565Y-247079D01*
Y-241079D01*
G01X119765D02*
Y-245379D01*
X119498Y-246279D01*
X118965Y-246879D01*
X118298Y-247079D01*
X117632Y-246879D01*
X117098Y-246279D01*
X116832Y-245379D01*
Y-241079D01*
G01X115232Y-247079D02*
Y-241079D01*
X113498Y-246079D01*
X111765Y-241079D01*
Y-247079D01*
G01X108165Y-243879D02*
X107898Y-243579D01*
X107698Y-243079D01*
X107565Y-242379D01*
X107698Y-241779D01*
X107965Y-241379D01*
X108432Y-241079D01*
X110232D01*
Y-247079D01*
X108032D01*
X107565Y-246679D01*
X107298Y-246079D01*
X107165Y-245379D01*
X107298Y-244679D01*
X107698Y-244079D01*
X108165Y-243879D01*
X110232D01*
G01X102565Y-247079D02*
X105232D01*
Y-241079D01*
X102565D01*
G01X103632Y-243979D02*
X105232D01*
G01X100432Y-247079D02*
Y-241079D01*
X98765D01*
X98232Y-241379D01*
X97898Y-241779D01*
X97765Y-242579D01*
X97898Y-243379D01*
X98298Y-243879D01*
X98765Y-244179D01*
X100432D01*
G01X98765D02*
X97765Y-247079D01*
G54D22*
X229382Y13260D03*
X231350D03*
X233319D03*
X229382Y7560D03*
X231350D03*
X233319D03*
X249882Y13260D03*
X251850D03*
X253819D03*
X249882Y7560D03*
X251850D03*
X253819D03*
X270382Y13260D03*
X272350D03*
X274319D03*
X270382Y7560D03*
X272350D03*
X274319D03*
X290882Y13260D03*
X292850D03*
X294819D03*
X290882Y7560D03*
X292850D03*
X294819D03*
X311382Y13260D03*
X313350D03*
X315319D03*
X311382Y7560D03*
X313350D03*
X315319D03*
X331882Y13260D03*
X333850D03*
X335819D03*
X331882Y7560D03*
X333850D03*
X335819D03*
G54D13*
X13000Y13000D03*
X20500Y225500D03*
X174500D03*
X185500Y10500D03*
X215500D03*
Y135500D03*
X214000Y215500D03*
X350500Y10500D03*
Y108000D03*
X345000Y136000D03*
G54D31*
X269350Y192117D03*
G54D41*
G01X257814Y192904D02*
X254504D01*
X253265Y191665D01*
X251850D01*
G01X257814Y194479D02*
X254611D01*
X254122Y194968D01*
X251850D01*
G01X276850Y184617D02*
X278012Y183456D01*
Y180581D01*
G54D14*
X34000Y13500D03*
X14000Y3500D03*
X24000D03*
X34000D03*
X4000Y22500D03*
Y3500D03*
X28000Y40620D03*
X20106Y57500D03*
X30500Y45500D03*
X28000Y53000D03*
X35500Y40500D03*
X23000Y53000D03*
X4000Y62500D03*
Y52500D03*
Y42500D03*
Y32500D03*
X38500Y63000D03*
X12500Y84621D03*
X38000Y110500D03*
X25500Y97500D03*
X29500Y80500D03*
X4000Y112500D03*
Y102500D03*
Y92500D03*
Y82500D03*
Y72500D03*
X38500Y72000D03*
X25500Y125500D03*
X23000Y132500D03*
Y142500D03*
X18000Y116000D03*
X13000Y152500D03*
X23000D03*
X34000D03*
X4000D03*
Y142500D03*
Y132500D03*
Y122500D03*
X13000Y162500D03*
Y172500D03*
Y182500D03*
Y192500D03*
X23000Y162500D03*
Y172500D03*
Y182500D03*
Y192500D03*
X34000Y172500D03*
Y162500D03*
Y192500D03*
Y182500D03*
X4000Y192500D03*
Y182500D03*
Y172500D03*
Y162500D03*
X13000Y202500D03*
X14500Y212000D03*
X23000Y202500D03*
Y212500D03*
X33000Y222500D03*
X34000Y202500D03*
X4000Y222500D03*
Y212500D03*
Y202500D03*
X33000Y232500D03*
X13000D03*
X4000D03*
X48000Y21000D03*
X53000D03*
X81000Y24500D03*
X76106Y16000D03*
X44000Y12500D03*
X54000D03*
X64000Y13500D03*
X74000Y3500D03*
X84000D03*
X44000D03*
X54000D03*
X64000D03*
X67500Y54000D03*
X81000Y29500D03*
X56500Y65500D03*
X67500Y58500D03*
X63000Y54000D03*
X67500Y63500D03*
X72500Y68000D03*
X53950Y54500D03*
X63000Y58500D03*
X72500Y63500D03*
X53000Y46500D03*
X43000Y33000D03*
X78000Y38000D03*
X73000Y45500D03*
X68000D03*
X72500Y58500D03*
X59428Y79000D03*
X55502D03*
X50500Y105500D03*
X43000Y90500D03*
X42000Y75500D03*
X74000Y85650D03*
X54500Y88500D03*
X65000D03*
X48500Y79000D03*
X75000D03*
X43000Y123000D03*
X53000Y132500D03*
X43000D03*
X53000Y142500D03*
X43000D03*
X83000Y152500D03*
X72500D03*
X63000D03*
X53000D03*
X43000D03*
X58606Y132106D03*
X80606Y132000D03*
X83000Y172500D03*
X72500D03*
X83000Y162500D03*
X72500D03*
X63000Y172500D03*
X53000D03*
X43000D03*
X63000Y162500D03*
X53000D03*
X43000D03*
X72500Y192500D03*
X83000D03*
X72500Y182500D03*
X83000D03*
X43000Y192500D03*
X53000D03*
X63000Y194000D03*
X43000Y182500D03*
X53000D03*
X63000D03*
X73000Y222500D03*
X83000D03*
X43000D03*
X53000D03*
X63000D03*
X83000Y212500D03*
X72500Y202500D03*
X83000D03*
X43000Y212500D03*
X63000D03*
X43000Y202500D03*
X50500D03*
X63000D03*
X83000Y232500D03*
X73000D03*
X63000D03*
X53000D03*
X43000D03*
X108000Y10500D03*
X100000D03*
X86000Y24500D03*
X111673Y8000D03*
X93000Y20500D03*
Y25500D03*
X94000Y3500D03*
X104000D03*
X106500Y19500D03*
X125931Y3500D03*
X114500Y22000D03*
X113000Y53000D03*
Y48000D03*
X88500Y41000D03*
X85500Y66000D03*
X92000Y58121D03*
Y53621D03*
X122500Y26500D03*
X126569D03*
X85500Y61000D03*
X124000Y97000D03*
X91500Y71121D03*
X124000Y92000D03*
X117500Y115620D03*
X100500D03*
X95500Y130500D03*
X113000Y143000D03*
X123000Y152500D03*
X113000D03*
X103000D03*
X93000D03*
X124606Y132106D03*
X102606Y132000D03*
X123000Y172500D03*
X113000D03*
X103000D03*
X93000D03*
X123000Y162500D03*
X113000D03*
X103000D03*
X93000D03*
Y192500D03*
X103000D03*
X113000D03*
X123000D03*
X93000Y182500D03*
X103000D03*
X113000D03*
X123000D03*
X93000Y222500D03*
X103000D03*
X113000D03*
X123000D03*
X91500Y212500D03*
X103000D03*
X113000D03*
X124000D03*
X91500Y202500D03*
X103000D03*
X113000D03*
X123000D03*
Y232500D03*
X113000D03*
X103000D03*
X93000D03*
X165931Y13500D03*
X145931Y3500D03*
X155931D03*
X165931D03*
X135931D03*
X146000Y9069D03*
X155931D03*
X155500Y66000D03*
X129449Y49120D03*
X150000Y45000D03*
X161000Y57000D03*
X139000Y27000D03*
X160984Y38984D03*
Y43484D03*
X144000Y34500D03*
Y37500D03*
X141535Y45000D03*
X155500Y61000D03*
X136000Y27000D03*
X137500Y44500D03*
X133000D03*
Y40000D03*
X140106Y63000D03*
X129449Y53621D03*
X133500Y81000D03*
X129500Y87000D03*
X145000Y86500D03*
X166000Y89567D03*
X145000Y90551D03*
X171500Y83000D03*
X166500Y99500D03*
X144500Y102000D03*
X132456Y102044D03*
X129500Y80970D03*
X169106Y72394D03*
X171500Y99500D03*
X166500Y78000D03*
X139500Y102000D03*
X138000Y81000D03*
X147106Y71894D03*
X172094Y143288D03*
X156000Y115500D03*
X144500Y115620D03*
X163000Y152500D03*
X153000D03*
X143000D03*
X133000D03*
X172094Y126788D03*
X163000Y172500D03*
X153000D03*
X143000D03*
X163000Y162500D03*
X153000D03*
X143000D03*
X133000Y172500D03*
Y162500D03*
X143500Y192500D03*
X153000D03*
X163000D03*
X143000Y182500D03*
X153000D03*
X163000D03*
X133000Y192500D03*
Y182500D03*
X143000Y222500D03*
X153000D03*
X163000D03*
X133000D03*
X153000Y212500D03*
X143500Y202500D03*
X153000D03*
X163000D03*
X133000Y212500D03*
Y202500D03*
X163000Y232500D03*
X153000D03*
X143000D03*
X133000D03*
X208300Y24719D03*
X175931Y3500D03*
X213700Y59891D03*
Y49891D03*
Y39891D03*
X208300Y34719D03*
Y44719D03*
Y54719D03*
Y64719D03*
X193000Y27000D03*
Y37000D03*
Y47000D03*
Y57000D03*
Y67000D03*
X173000Y47000D03*
X183000D03*
Y57000D03*
Y67000D03*
X173000Y94000D03*
X177000Y89567D03*
Y94000D03*
X214950Y99806D03*
X213750Y89878D03*
X214077Y79884D03*
X208300Y84719D03*
Y94719D03*
Y104719D03*
X213700Y69891D03*
X208300Y74719D03*
X175500Y83000D03*
X208100Y155500D03*
X211600D03*
X183000Y152500D03*
X173000D03*
X193000Y157000D03*
X208911Y114700D03*
X215500Y145500D03*
X208100Y166000D03*
Y162500D03*
Y159000D03*
X211600Y166000D03*
Y162500D03*
Y159000D03*
X215100Y166000D03*
Y162500D03*
Y159000D03*
X215500Y188600D03*
X208000Y196900D03*
X213500Y199900D03*
X210000D03*
X183000Y162500D03*
Y172500D03*
Y182500D03*
Y192500D03*
X173000Y162500D03*
Y172500D03*
Y182500D03*
Y192500D03*
X193000Y187000D03*
Y197000D03*
Y167000D03*
Y177000D03*
X208400Y206900D03*
X183000Y202500D03*
X173000D03*
X183000Y232500D03*
X193000D03*
Y217000D03*
Y227000D03*
Y207000D03*
X251500Y16500D03*
X227350Y24716D03*
X247201Y7560D03*
X254450Y24343D03*
X217232Y20222D03*
X229382Y16500D03*
X246500D03*
X233170Y3300D03*
X253170D03*
X236000Y7560D03*
X256500D03*
X218350Y25216D03*
X255850Y63294D03*
X227350Y34716D03*
X255850Y49894D03*
X218350Y29716D03*
Y43216D03*
Y56716D03*
X246850Y68216D03*
Y49816D03*
X227350Y43116D03*
Y52216D03*
X255850Y36494D03*
Y54894D03*
Y41494D03*
X233524Y53043D03*
Y63328D03*
X236124Y33928D03*
X234500Y40500D03*
X227350Y38717D03*
X246850Y40917D03*
X227350Y61516D03*
X246850Y54316D03*
Y63216D03*
X227350Y29716D03*
Y56516D03*
Y48116D03*
Y65716D03*
X246850Y36416D03*
X218350Y65716D03*
Y38717D03*
Y52216D03*
X246850Y76616D03*
X218350Y83716D03*
Y70216D03*
X227350Y69916D03*
X246850Y81616D03*
X227350Y83316D03*
Y88316D03*
X255850Y76694D03*
X236350Y88394D03*
X253024Y83500D03*
X233524Y76728D03*
X255000Y70000D03*
X238211Y94700D03*
X228211D03*
X250411D03*
X260411D03*
X250411Y104700D03*
X260411D03*
X217396Y109503D03*
X227350Y74916D03*
Y79216D03*
X218350D03*
X222100Y155500D03*
X225600D03*
X229100D03*
X252500Y156500D03*
X260000Y157000D03*
X218911Y114700D03*
X228911D03*
X238911D03*
X248911D03*
X258911D03*
X252830Y151000D03*
X216867Y153367D03*
X223500Y142500D03*
X237767Y134000D03*
X247000Y149500D03*
X231500Y144818D03*
X243000Y153500D03*
X227500Y142000D03*
X238000Y138500D03*
X217000Y150000D03*
X225000Y187800D03*
X225100Y180400D03*
Y183900D03*
X239800Y174300D03*
X234900Y175200D03*
X218600Y166000D03*
Y162500D03*
Y159000D03*
X222100Y166000D03*
Y162500D03*
Y159000D03*
X225600Y166000D03*
Y162500D03*
Y159000D03*
X229100D03*
Y162500D03*
Y166000D03*
X228000Y169900D03*
X231300D03*
X228000Y173400D03*
X231500D03*
X228000Y176900D03*
X231500D03*
X247300Y179800D03*
X218600Y180400D03*
X222100D03*
X228000D03*
X231100D03*
X218600Y183900D03*
X222100D03*
X228000D03*
X231100D03*
X231000Y187800D03*
X227900D03*
X222000D03*
X218500D03*
X234500D03*
X238000D03*
X217500Y191300D03*
X217000Y199900D03*
X239500D03*
X236000D03*
X232500D03*
X224500D03*
X253400Y198300D03*
X250000Y199900D03*
X246500D03*
X243000D03*
X221000Y191300D03*
X224500D03*
X228000D03*
X234500D03*
X238000D03*
X244500D03*
X250100Y177600D03*
X259800Y176600D03*
X228000Y208500D03*
X245500Y219500D03*
X258196Y211015D03*
X236000Y214000D03*
X254899Y202574D03*
X244000Y205500D03*
X291000Y21500D03*
X286000Y16500D03*
X302500Y15500D03*
X299500Y21500D03*
X290882Y16500D03*
X270382D03*
X283170Y3300D03*
X300906D03*
X297500Y7560D03*
X273170Y3300D03*
X263170D03*
X277000Y7560D03*
X262000Y59000D03*
X285850Y63216D03*
Y49816D03*
X283000Y39500D03*
X260600Y50000D03*
X266366Y41500D03*
X266500Y54500D03*
X294850Y54894D03*
Y68294D03*
X275350Y62194D03*
X276350Y40000D03*
X290500Y30500D03*
X291850Y47217D03*
X274350Y32500D03*
X294850Y63294D03*
X275350Y56594D03*
X285850Y68216D03*
Y54816D03*
X294850Y49894D03*
X262350Y70866D03*
X276850Y74216D03*
X272524Y76728D03*
X272911Y94700D03*
X298000Y95500D03*
X285735Y106929D03*
X295201Y104820D03*
X282500Y100000D03*
X294940Y90879D03*
X282761Y86942D03*
X276454Y110653D03*
X266350Y74916D03*
X278911Y114700D03*
X288911D03*
X298911D03*
X268911D03*
X282500Y151000D03*
X262000Y165500D03*
X293650Y169000D03*
X290900Y181000D03*
X293600Y187300D03*
X284700Y174300D03*
Y170000D03*
X261850Y170117D03*
Y184617D03*
Y192117D03*
X276850D03*
X269350D03*
X276850Y184617D03*
X269350D03*
X276850Y199617D03*
X269350D03*
X261850D03*
X299300Y176900D03*
X296300Y192400D03*
X294900Y180800D03*
X290900Y184900D03*
X279350Y170500D03*
X290866Y193017D03*
X295700Y162000D03*
X263759Y159600D03*
X288800Y195800D03*
X295200Y197000D03*
X276750Y162000D03*
X280700Y180500D03*
X279900Y165000D03*
X277000Y157900D03*
X279500Y175100D03*
X263000Y219500D03*
X273720Y221500D03*
X265200Y207755D03*
X268500Y218601D03*
X267950Y214616D03*
X283850Y203074D03*
X273104Y212500D03*
X284500Y206500D03*
X328000Y25500D03*
X320500Y16500D03*
X311382D03*
X331882D03*
X310906Y3300D03*
X338069Y7560D03*
X318000D03*
Y58000D03*
X314350Y61594D03*
X315500Y30500D03*
X333000D03*
X328000D03*
X311350Y54500D03*
X305350Y61516D03*
Y56516D03*
X319000Y106000D03*
Y95500D03*
X309000Y106000D03*
Y95500D03*
X337000Y157500D03*
Y152000D03*
X308911Y114700D03*
X318911D03*
X312000Y187000D03*
X318000Y187500D03*
X326000Y163500D03*
X327600Y167400D03*
X321000Y171500D03*
X324000D03*
X313500Y175000D03*
X333600Y182500D03*
X327500Y181000D03*
X322000Y190000D03*
X316500Y178000D03*
X333260Y196708D03*
X316500Y164000D03*
X313000Y160500D03*
X311732Y191268D03*
X333142Y191589D03*
Y201826D03*
X327500Y211000D03*
X320484Y205484D03*
Y210484D03*
X355689Y18814D03*
X358700Y28350D03*
X350500Y170500D03*
Y176500D03*
G54D32*
X286772Y216617D03*
X276929D03*
G54D23*
X243716Y39300D03*
Y36000D03*
X259350Y66566D03*
X246784Y43766D03*
Y47067D03*
X252350Y60066D03*
Y63366D03*
Y55866D03*
Y52566D03*
X258650Y39434D03*
Y36133D03*
X259850Y43566D03*
Y46867D03*
X259350Y69866D03*
Y80866D03*
Y77566D03*
X249784Y78200D03*
Y81500D03*
X230284Y84700D03*
Y88000D03*
X232500Y151150D03*
Y147850D03*
X248350Y190426D03*
Y187122D03*
X251850Y194968D03*
Y191665D03*
X230850Y190924D03*
Y194224D03*
X240850Y190924D03*
Y194224D03*
X243850Y211924D03*
Y215224D03*
X259350Y218224D03*
Y214924D03*
X291850Y53866D03*
Y50566D03*
X266650Y61000D03*
Y57700D03*
X297716Y57066D03*
Y60366D03*
X294650Y42634D03*
Y45934D03*
X283000Y33350D03*
Y36650D03*
X293600Y174350D03*
Y177650D03*
X271850Y215467D03*
Y218767D03*
X291850Y214967D03*
Y218267D03*
X264000Y215150D03*
Y211850D03*
X311350Y60866D03*
Y57566D03*
X318000Y49350D03*
Y52650D03*
X323000Y49350D03*
Y52650D03*
X320000Y166650D03*
Y163350D03*
X319500Y199150D03*
Y195850D03*
X311500D03*
Y199150D03*
X315500Y195850D03*
Y199150D03*
X313000Y177850D03*
Y181150D03*
X313500Y163350D03*
Y166650D03*
G54D42*
G01X229382Y13260D02*
Y16500D01*
G01X249882Y13260D02*
Y14010D01*
X247392Y16500D01*
X246500D01*
G01X233319Y7560D02*
X236000D01*
G01X253819D02*
X256500D01*
G01X290882Y13260D02*
Y16500D01*
G01X270382Y13260D02*
Y16500D01*
G01X294819Y7560D02*
X297500D01*
G01X274319D02*
X277000D01*
G01X295201Y104820D02*
X294759Y104379D01*
X291700D01*
G01X282500Y100000D02*
X282942Y100442D01*
X286000D01*
G01X291700Y90879D02*
X294940D01*
G01X286000Y86942D02*
X282761D01*
G01X280887Y199204D02*
X284297D01*
G01X280887Y200778D02*
X281555D01*
X283850Y203074D01*
G01X311382Y13260D02*
Y16500D01*
G01X331882Y13260D02*
Y16500D01*
G01D02*
X333850Y14532D01*
Y13260D01*
G01X335819Y7560D02*
X338069D01*
G01X315319D02*
X318000D01*
G54D33*
X313118Y133991D03*
X342646Y163676D03*
X313118Y216668D03*
G54D15*
X26000Y73500D03*
X94500Y47000D03*
G54D24*
X257814Y183456D03*
Y185030D03*
Y186605D03*
Y188180D03*
Y189755D03*
Y191330D03*
Y192904D03*
Y194479D03*
Y196054D03*
Y197629D03*
Y199204D03*
Y200778D03*
X280887D03*
Y199204D03*
Y197629D03*
Y196054D03*
Y194479D03*
Y192904D03*
Y191330D03*
Y189755D03*
Y188180D03*
Y186605D03*
Y185030D03*
Y183456D03*
G54D43*
G01X346308Y-225229D02*
X347208Y-223579D01*
G01X346598Y-223509D02*
X346758Y-223559D01*
G01X346448Y-223439D02*
X346598Y-223509D01*
G01X346318Y-223329D02*
X346448Y-223439D01*
G01X346208Y-223199D02*
X346318Y-223329D01*
G01X346139Y-223049D02*
X346208Y-223199D01*
G01X346089Y-222889D02*
X346139Y-223049D01*
G01X346198Y-222279D02*
X346128Y-222409D01*
G01X346298Y-222149D02*
X346198Y-222279D01*
G01X346428Y-222049D02*
X346298Y-222149D01*
G01X346558Y-221979D02*
X346428Y-222049D01*
G01X346708Y-221939D02*
X346558Y-221979D01*
G01X346068Y-222719D02*
X346089Y-222889D01*
G01Y-222559D02*
X346068Y-222719D01*
G01X346128Y-222409D02*
X346089Y-222559D01*
G01X349139Y-209339D02*
X346068D01*
G01Y-208649D02*
X349139D01*
G01Y-207949D02*
X346068D01*
G01X346089Y-207259D02*
X349139D01*
G01X349258Y-206559D02*
X346228D01*
G01X346558Y-205909D02*
X346939Y-205499D01*
G01X346278Y-206389D02*
X346558Y-205909D01*
G01X346118Y-206919D02*
X346278Y-206389D01*
G01X346068Y-217429D02*
Y-207469D01*
G01D02*
X346118Y-206919D01*
G01X349139Y-217429D02*
X346068D01*
G01Y-216979D02*
X349139D01*
G01Y-216279D02*
X346068D01*
G01Y-215589D02*
X349139D01*
G01Y-214889D02*
X346068D01*
G01Y-214199D02*
X349139D01*
G01Y-213499D02*
X346068D01*
G01Y-212809D02*
X349139D01*
G01Y-212119D02*
X346068D01*
G01Y-211419D02*
X349139D01*
G01Y-210729D02*
X346068D01*
G01Y-210029D02*
X349139D01*
G01X346758Y-223559D02*
X346928Y-223579D01*
G01X346868Y-221919D02*
X346708Y-221939D01*
G01X346598Y-205869D02*
X350558D01*
G01X346939Y-205499D02*
X347589Y-205019D01*
G01X390798Y-224969D02*
X390928Y-224839D01*
G01X390648Y-225079D02*
X390798Y-224969D01*
G01X390468Y-225159D02*
X390648Y-225079D01*
G01X391008Y-222399D02*
X390868Y-222239D01*
G01X390708Y-222099D02*
X390518Y-221999D01*
G01X390868Y-222239D02*
X390708Y-222099D01*
G01X390518Y-221999D02*
X390308Y-221939D01*
G01X390289Y-225209D02*
X390468Y-225159D01*
G01X390098Y-225229D02*
X390289Y-225209D01*
G01X388348Y-225229D02*
X390098D01*
G01Y-221919D02*
X388348D01*
G01X390308Y-221939D02*
X390098Y-221919D01*
G01X390668Y-205869D02*
X394518D01*
G01X393689Y-205179D02*
X383808D01*
G01X385378Y-204479D02*
X392328D01*
G01X390568Y-205809D02*
X390018Y-205659D01*
G01X391068Y-206079D02*
X390568Y-205809D01*
G01X390439Y-204209D02*
X391239Y-204239D01*
G01X390018Y-205659D02*
X389448Y-205619D01*
G01X387328Y-204209D02*
X390439D01*
G01X389448Y-205619D02*
X387998D01*
G01X387458Y-205649D02*
X386939Y-205779D01*
G01X387998Y-205619D02*
X387458Y-205649D01*
G01X386468Y-204239D02*
X387328Y-204209D01*
G01X382968Y-205869D02*
X386748D01*
G01X386458Y-206009D02*
X386028Y-206329D01*
G01X386939Y-205779D02*
X386458Y-206009D01*
G01X385618Y-204399D02*
X386468Y-204239D01*
G01X391148Y-217369D02*
X390118Y-217429D01*
G01D02*
X387368D01*
G01D02*
X386458Y-217399D01*
G01D02*
X385558Y-217259D01*
G01X394168Y-216279D02*
X383478D01*
G01X392908Y-216979D02*
X384639D01*
G01X390089Y-215969D02*
X390558Y-215819D01*
G01D02*
X390978Y-215589D01*
G01X389608Y-216019D02*
X390089Y-215969D01*
G01X387998Y-216019D02*
X389608D01*
G01X387398Y-215979D02*
X387998Y-216019D01*
G01X386828Y-215819D02*
X387398Y-215979D01*
G01X386298Y-215559D02*
X386828Y-215819D01*
G01X385828Y-215189D02*
X386298Y-215559D01*
G01X385589Y-225059D02*
X385378Y-225149D01*
G01X385768Y-224929D02*
X385589Y-225059D01*
G01X385928Y-224769D02*
X385768Y-224929D01*
G01X386058Y-224579D02*
X385928Y-224769D01*
G01X386148Y-224379D02*
X386058Y-224579D01*
G01X386208Y-224159D02*
X386148Y-224379D01*
G01X386228Y-223939D02*
X386208Y-224159D01*
G01X386228Y-223189D02*
Y-223939D01*
G01X386208Y-222969D02*
X386228Y-223189D01*
G01X386148Y-222759D02*
X386208Y-222969D01*
G01X386058Y-222549D02*
X386148Y-222759D01*
G01X385928Y-222369D02*
X386058Y-222549D01*
G01X385778Y-222219D02*
X385928Y-222369D01*
G01X385589Y-222089D02*
X385778Y-222219D01*
G01X385389Y-221999D02*
X385589Y-222089D01*
G01X385178Y-221939D02*
X385389Y-221999D01*
G01X384939Y-225229D02*
X384239D01*
G01X385158Y-225209D02*
X384939Y-225229D01*
G01X385378Y-225149D02*
X385158Y-225209D01*
G01X384958Y-221919D02*
X385178Y-221939D01*
G01X384218Y-221919D02*
X384958D01*
G01X383639Y-225089D02*
X383458Y-224979D01*
G01X383828Y-225169D02*
X383639Y-225089D01*
G01X384028Y-225209D02*
X383828Y-225169D01*
G01X384239Y-225229D02*
X384028Y-225209D01*
G01X383989Y-221939D02*
X384218Y-221919D01*
G01X383778Y-221999D02*
X383989Y-221939D01*
G01X383568Y-222089D02*
X383778Y-221999D01*
G01X382978Y-224319D02*
X382939Y-224119D01*
G01X383058Y-224509D02*
X382978Y-224319D01*
G01X383168Y-224689D02*
X383058Y-224509D01*
G01X383308Y-224839D02*
X383168Y-224689D01*
G01X383458Y-224979D02*
X383308Y-224839D01*
G01X382939Y-224119D02*
X382918Y-223909D01*
G01D02*
Y-223219D01*
G01X383089Y-222569D02*
X383218Y-222379D01*
G01X382998Y-222779D02*
X383089Y-222569D01*
G01X382939Y-222989D02*
X382998Y-222779D01*
G01X382918Y-223219D02*
X382939Y-222989D01*
G01X383378Y-222219D02*
X383568Y-222089D01*
G01X383218Y-222379D02*
X383378Y-222219D01*
G01X380558Y-221919D02*
Y-225229D01*
G01X380078Y-221919D02*
X380558D01*
G01X377798Y-225229D02*
X380078Y-221919D01*
G01X377248Y-225229D02*
X377798D01*
G01X377248Y-221919D02*
Y-225229D01*
G01X374889D02*
Y-221919D01*
G01X373128Y-225229D02*
X374889D01*
G01Y-221919D02*
X373108D01*
G01X372928Y-225209D02*
X373128Y-225229D01*
G01X372728Y-225169D02*
X372928Y-225209D01*
G01X372539Y-225089D02*
X372728Y-225169D01*
G01X372358Y-224979D02*
X372539Y-225089D01*
G01X372668Y-221999D02*
X372458Y-222089D01*
G01X372889Y-221939D02*
X372668Y-221999D01*
G01X373108Y-221919D02*
X372889Y-221939D01*
G01X372198Y-224849D02*
X372358Y-224979D01*
G01X372068Y-224689D02*
X372198Y-224849D01*
G01X371958Y-224509D02*
X372068Y-224689D01*
G01X371878Y-224319D02*
X371958Y-224509D01*
G01X371839Y-224119D02*
X371878Y-224319D01*
G01X371818Y-223919D02*
X371839Y-224119D01*
G01X371818Y-223209D02*
Y-223919D01*
G01X371839Y-222989D02*
X371818Y-223209D01*
G01X371898Y-222769D02*
X371839Y-222989D01*
G01X371989Y-222559D02*
X371898Y-222769D01*
G01X372118Y-222379D02*
X371989Y-222559D01*
G01X372278Y-222219D02*
X372118Y-222379D01*
G01X372458Y-222089D02*
X372278Y-222219D01*
G01X369439Y-224209D02*
X369458Y-223989D01*
G01X369389Y-224409D02*
X369439Y-224209D01*
G01X369289Y-224609D02*
X369389Y-224409D01*
G01X369168Y-224789D02*
X369289Y-224609D01*
G01X369018Y-224939D02*
X369168Y-224789D01*
G01X369448Y-223989D02*
Y-221919D01*
G01X368839Y-225059D02*
X369018Y-224939D01*
G01X368639Y-225159D02*
X368839Y-225059D01*
G01X368439Y-225209D02*
X368639Y-225159D01*
G01X368218Y-225229D02*
X368439Y-225209D01*
G01X367698Y-225229D02*
X368218D01*
G01X367468Y-225209D02*
X367698Y-225229D01*
G01X367248Y-225149D02*
X367468Y-225209D01*
G01X367039Y-225049D02*
X367248Y-225149D01*
G01X366858Y-224919D02*
X367039Y-225049D01*
G01X366698Y-224759D02*
X366858Y-224919D01*
G01X366568Y-224569D02*
X366698Y-224759D01*
G01X366468Y-224369D02*
X366568Y-224569D01*
G01X366408Y-224149D02*
X366468Y-224369D01*
G01X366389Y-223919D02*
X366408Y-224149D01*
G01X366378Y-221919D02*
Y-223919D01*
G01X364239Y-224349D02*
X364258Y-224159D01*
G01X364198Y-224529D02*
X364239Y-224349D01*
G01X364118Y-224689D02*
X364198Y-224529D01*
G01X364008Y-224849D02*
X364118Y-224689D01*
G01X363878Y-224979D02*
X364008Y-224849D01*
G01X364258Y-224159D02*
Y-222959D01*
G01X364239Y-222779D02*
X364198Y-222599D01*
G01X364258Y-222959D02*
X364239Y-222779D01*
G01X364018Y-222289D02*
X363889Y-222159D01*
G01X364118Y-222439D02*
X364018Y-222289D01*
G01X364198Y-222599D02*
X364118Y-222439D01*
G01X363728Y-225089D02*
X363878Y-224979D01*
G01X363558Y-225169D02*
X363728Y-225089D01*
G01X363378Y-225209D02*
X363558Y-225169D01*
G01X363189Y-225229D02*
X363378Y-225209D01*
G01X363398Y-221939D02*
X363218Y-221919D01*
G01X363578Y-221979D02*
X363398Y-221939D01*
G01X363739Y-222059D02*
X363578Y-221979D01*
G01X363889Y-222159D02*
X363739Y-222059D01*
G01X361418Y-225229D02*
X363189D01*
G01X363218Y-221919D02*
X361418D01*
G01X385778Y-206559D02*
X382498D01*
G01X385458Y-206999D02*
X385318Y-207419D01*
G01X385698Y-206629D02*
X385458Y-206999D01*
G01X386028Y-206329D02*
X385698Y-206629D01*
G01X384808Y-204679D02*
X385618Y-204399D01*
G01X385278Y-207869D02*
Y-213539D01*
G01Y-209339D02*
X382208D01*
G01Y-208649D02*
X385278D01*
G01X382258Y-207259D02*
X385368D01*
G01X385278Y-207949D02*
X382208D01*
G01X385318Y-207419D02*
X385278Y-207869D01*
G01X384178Y-204949D02*
X384808Y-204679D01*
G01X383598Y-205299D02*
X384178Y-204949D01*
G01X383078Y-205739D02*
X383598Y-205299D01*
G01X382698Y-206189D02*
X383078Y-205739D01*
G01X382208Y-214009D02*
Y-207869D01*
G01X382258Y-207279D02*
X382418Y-206709D01*
G01X382208Y-207869D02*
X382258Y-207279D01*
G01X382418Y-206709D02*
X382698Y-206189D01*
G01X378898Y-204679D02*
Y-217429D01*
G01Y-209339D02*
X375539D01*
G01X375598Y-208649D02*
X378898D01*
G01Y-207949D02*
X375598D01*
G01Y-207259D02*
X378898D01*
G01Y-206559D02*
X375598D01*
G01Y-205869D02*
X378898D01*
G01X375598Y-204679D02*
X378898D01*
G01Y-205179D02*
X375598D01*
G01Y-209069D02*
Y-204679D01*
G01X375568Y-209279D02*
X375598Y-209069D01*
G01X375489Y-209469D02*
X375568Y-209279D01*
G01X375358Y-209639D02*
X375489Y-209469D01*
G01X375189Y-209769D02*
X375358Y-209639D01*
G01X368739Y-209649D02*
X368898Y-209769D01*
G01X368618Y-209479D02*
X368739Y-209649D01*
G01X368558Y-209339D02*
X365198D01*
G01X368539Y-209289D02*
X368618Y-209479D01*
G01X368508Y-209089D02*
X368539Y-209289D01*
G01X368508Y-204679D02*
Y-209089D01*
G01X365198Y-208649D02*
X368508D01*
G01X365198Y-207259D02*
X368508D01*
G01Y-207949D02*
X365198D01*
G01X368508Y-206559D02*
X365198D01*
G01Y-205869D02*
X368508D01*
G01Y-205179D02*
X365198D01*
G01Y-204679D02*
X368508D01*
G01X365198Y-217429D02*
Y-204679D01*
G01X361658D02*
Y-217429D01*
G01Y-209339D02*
X358589D01*
G01Y-208649D02*
X361658D01*
G01X358589Y-207259D02*
X361658D01*
G01Y-207949D02*
X358589D01*
G01X361658Y-206559D02*
X358568D01*
G01X357839Y-205869D02*
X361658D01*
G01X358718Y-204299D02*
X361658Y-204679D01*
G01Y-205179D02*
X347378D01*
G01X382768Y-215589D02*
X386358D01*
G01X385558Y-217259D02*
X384689Y-216999D01*
G01X385658Y-214889D02*
X382378D01*
G01X385528Y-214679D02*
X385828Y-215189D01*
G01X385339Y-214119D02*
X385528Y-214679D01*
G01X384689Y-216999D02*
X384108Y-216729D01*
G01X382228Y-214199D02*
X385368D01*
G01X385278Y-213539D02*
X385339Y-214119D01*
G01X385278Y-213499D02*
X382208D01*
G01Y-212809D02*
X385278D01*
G01X382208Y-211419D02*
X385278D01*
G01Y-212119D02*
X382208D01*
G01X385278Y-210729D02*
X382208D01*
G01Y-210029D02*
X385278D01*
G01X384108Y-216729D02*
X383578Y-216379D01*
G01X383118Y-215939D02*
X382728Y-215549D01*
G01X383578Y-216379D02*
X383118Y-215939D01*
G01X382728Y-215549D02*
X382439Y-215079D01*
G01D02*
X382258Y-214559D01*
G01D02*
X382208Y-214009D01*
G01X378898Y-217429D02*
X375598D01*
G01X368508D02*
X365198D01*
G01X361658D02*
X358589D01*
G01X378898Y-216979D02*
X375598D01*
G01Y-216279D02*
X378898D01*
G01Y-215589D02*
X375598D01*
G01Y-214889D02*
X378898D01*
G01Y-214199D02*
X375598D01*
G01Y-213499D02*
X378898D01*
G01Y-212809D02*
X375598D01*
G01X378898Y-211419D02*
X365198D01*
G01X375568Y-212119D02*
X378898D01*
G01X365198Y-210729D02*
X378898D01*
G01Y-210029D02*
X365198D01*
G01X375598Y-217429D02*
Y-212309D01*
G01D02*
X375568Y-212109D01*
G01X375368Y-211759D02*
X375208Y-211629D01*
G01X375489Y-211919D02*
X375368Y-211759D01*
G01X375568Y-212109D02*
X375489Y-211919D01*
G01X375208Y-211629D02*
X375018Y-211549D01*
G01X374998Y-209849D02*
X375189Y-209769D01*
G01X374818Y-211529D02*
X369339D01*
G01X375018Y-211549D02*
X374818Y-211529D01*
G01X374789Y-209869D02*
X374998Y-209849D01*
G01X369289Y-209869D02*
X374789D01*
G01X369339Y-211529D02*
X369128Y-211559D01*
G01X369089Y-209849D02*
X369289Y-209869D01*
G01X368508Y-212359D02*
Y-217429D01*
G01Y-216979D02*
X365198D01*
G01Y-216279D02*
X368508D01*
G01X365198Y-214889D02*
X368508D01*
G01Y-215589D02*
X365198D01*
G01X368508Y-214199D02*
X365198D01*
G01Y-213499D02*
X368508D01*
G01Y-212809D02*
X365198D01*
G01X368539Y-212139D02*
X368508Y-212359D01*
G01X365198Y-212119D02*
X368548D01*
G01X368618Y-211939D02*
X368539Y-212139D01*
G01X368748Y-211769D02*
X368618Y-211939D01*
G01X368918Y-211639D02*
X368748Y-211769D01*
G01X369128Y-211559D02*
X368918Y-211639D01*
G01X368898Y-209769D02*
X369089Y-209849D01*
G01X358589Y-216979D02*
X361658D01*
G01Y-216279D02*
X358589D01*
G01X361658Y-214889D02*
X358589D01*
G01Y-215589D02*
X361658D01*
G01X358589Y-214199D02*
X361658D01*
G01Y-213499D02*
X358589D01*
G01Y-212809D02*
X361658D01*
G01X358589Y-211419D02*
X361658D01*
G01Y-212119D02*
X358589D01*
G01X361658Y-210729D02*
X358589D01*
G01Y-210029D02*
X361658D01*
G01X353848Y-225089D02*
X353658Y-225169D01*
G01X354028Y-224979D02*
X353848Y-225089D01*
G01X354189Y-224849D02*
X354028Y-224979D01*
G01X354318Y-224689D02*
X354189Y-224849D01*
G01X354118Y-222219D02*
X354278Y-222379D01*
G01X353928Y-222089D02*
X354118Y-222219D01*
G01X353728Y-221999D02*
X353928Y-222089D01*
G01X359528Y-221919D02*
X358118D01*
G01D02*
Y-225229D01*
G01X356698Y-221919D02*
X358118D01*
G01X354428Y-224509D02*
X354318Y-224689D01*
G01X354508Y-224319D02*
X354428Y-224509D01*
G01X354548Y-224119D02*
X354508Y-224319D01*
G01X354568Y-223919D02*
X354548Y-224119D01*
G01X354568Y-223209D02*
Y-223919D01*
G01X354558Y-222989D02*
X354578Y-223209D01*
G01X354498Y-222769D02*
X354558Y-222989D01*
G01X354408Y-222559D02*
X354498Y-222769D01*
G01X354278Y-222379D02*
X354408Y-222559D01*
G01X353258Y-225229D02*
X352568D01*
G01X353458Y-225209D02*
X353258Y-225229D01*
G01X353658Y-225169D02*
X353458Y-225209D01*
G01X353508Y-221939D02*
X353728Y-221999D01*
G01X353289Y-221919D02*
X353508Y-221939D01*
G01X352548Y-221919D02*
X353289D01*
G01X352128Y-225149D02*
X351918Y-225059D01*
G01X352339Y-225209D02*
X352128Y-225149D01*
G01X352568Y-225229D02*
X352339Y-225209D01*
G01X352328Y-221939D02*
X352548Y-221919D01*
G01X352108Y-221999D02*
X352328Y-221939D01*
G01X351908Y-222089D02*
X352108Y-221999D01*
G01X351348Y-224369D02*
X351289Y-224159D01*
G01X351439Y-224579D02*
X351348Y-224369D01*
G01X351568Y-224769D02*
X351439Y-224579D01*
G01X351728Y-224929D02*
X351568Y-224769D01*
G01X351918Y-225059D02*
X351728Y-224929D01*
G01Y-222219D02*
X351908Y-222089D01*
G01X351568Y-222379D02*
X351728Y-222219D01*
G01X351439Y-222559D02*
X351568Y-222379D01*
G01X351348Y-222759D02*
X351439Y-222559D01*
G01X351289Y-222979D02*
X351348Y-222759D01*
G01X351289Y-224159D02*
X351268Y-223929D01*
G01D02*
Y-223199D01*
G01D02*
X351289Y-222979D01*
G01X349139Y-223579D02*
Y-225229D01*
G01Y-221919D02*
Y-223579D01*
G01X347208D02*
X349139D01*
G01Y-221919D02*
X346868D01*
G01X346928Y-223579D02*
X347208D01*
G01X360108Y-204479D02*
X348958D01*
G01X358589Y-217429D02*
Y-206689D01*
G01X358478Y-206269D02*
X358348Y-206099D01*
G01X358558Y-206469D02*
X358478Y-206269D01*
G01X358589Y-206689D02*
X358558Y-206469D01*
G01X358168Y-205969D02*
X357978Y-205889D01*
G01X358348Y-206099D02*
X358168Y-205969D01*
G01X355748Y-204209D02*
X358718Y-204299D01*
G01X357758Y-205859D02*
X356318D01*
G01X357978Y-205889D02*
X357758Y-205859D01*
G01X351478Y-205869D02*
X356239D01*
G01X355628Y-206259D02*
X355539Y-206449D01*
G01X355748Y-206089D02*
X355628Y-206259D01*
G01X355918Y-205969D02*
X355748Y-206089D01*
G01X356108Y-205889D02*
X355918Y-205969D01*
G01X356318Y-205859D02*
X356108Y-205889D01*
G01X351418Y-204209D02*
X355748D01*
G01X355518Y-206659D02*
Y-217429D01*
G01Y-209339D02*
X352208D01*
G01Y-208649D02*
X355518D01*
G01Y-207949D02*
X352208D01*
G01Y-207259D02*
X355518D01*
G01X355528Y-206559D02*
X352198D01*
G01X355539Y-206449D02*
X355518Y-206659D01*
G01X352208Y-217429D02*
Y-206669D01*
G01X352178Y-206459D02*
X352098Y-206259D01*
G01X352208Y-206669D02*
X352178Y-206459D01*
G01X352098Y-206259D02*
X351968Y-206099D01*
G01X351398Y-205859D02*
X350639D01*
G01X351608Y-205889D02*
X351398Y-205859D01*
G01X351798Y-205969D02*
X351608Y-205889D01*
G01X351968Y-206099D02*
X351798Y-205969D01*
G01X350258Y-204269D02*
X351418Y-204209D01*
G01X350639Y-205859D02*
X350128Y-205929D01*
G01X349648Y-206099D02*
X349428Y-206299D01*
G01X350128Y-205929D02*
X349648Y-206099D01*
G01X349098Y-204439D02*
X350258Y-204269D01*
G01X349139Y-207119D02*
Y-217429D01*
G01X349168Y-206819D02*
X349139Y-207119D01*
G01X349268Y-206539D02*
X349168Y-206819D01*
G01X349428Y-206299D02*
X349268Y-206539D01*
G01X348318Y-204659D02*
X349098Y-204439D01*
G01X347589Y-205019D02*
X348318Y-204659D01*
G01X355518Y-217429D02*
X352208D01*
G01Y-216979D02*
X355518D01*
G01Y-216279D02*
X352208D01*
G01Y-215589D02*
X355518D01*
G01Y-214889D02*
X352208D01*
G01Y-214199D02*
X355518D01*
G01Y-213499D02*
X352208D01*
G01Y-212809D02*
X355518D01*
G01Y-212119D02*
X352208D01*
G01Y-211419D02*
X355518D01*
G01Y-210729D02*
X352208D01*
G01Y-210029D02*
X355518D01*
G01X404528Y-225229D02*
X404708Y-225209D01*
G01X402758Y-225229D02*
X404528D01*
G01X404568Y-221919D02*
X404769Y-221939D01*
G01X402758Y-221919D02*
X404568D01*
G01X410958Y-223019D02*
X410878Y-223169D01*
G01X411008Y-222509D02*
X411028Y-222679D01*
G01X411008Y-222849D02*
X410958Y-223019D01*
G01X411028Y-222679D02*
X411008Y-222849D01*
G01X410948Y-222349D02*
X411008Y-222509D01*
G01X410858Y-222209D02*
X410948Y-222349D01*
G01X408578Y-225229D02*
X411028D01*
G01X410308Y-223549D02*
X410139Y-223569D01*
G01X410478Y-223499D02*
X410308Y-223549D01*
G01X410628Y-223419D02*
X410478Y-223499D01*
G01X410769Y-223309D02*
X410628Y-223419D01*
G01X410878Y-223169D02*
X410769Y-223309D01*
G01X410739Y-222089D02*
X410858Y-222209D01*
G01X410598Y-221999D02*
X410739Y-222089D01*
G01X410439Y-221939D02*
X410598Y-221999D01*
G01X410268Y-221919D02*
X410439Y-221939D01*
G01X407718Y-221919D02*
X410268D01*
G01X410139Y-223579D02*
X408518D01*
G01X408408Y-225209D02*
X408578Y-225229D01*
G01X408518Y-223569D02*
X408358Y-223589D01*
G01X408248Y-225159D02*
X408408Y-225209D01*
G01X408098Y-225089D02*
X408248Y-225159D01*
G01X407969Y-224979D02*
X408098Y-225089D01*
G01X407858Y-224849D02*
X407969Y-224979D01*
G01X407789Y-224699D02*
X407858Y-224849D01*
G01X407739Y-224539D02*
X407789Y-224699D01*
G01X407718Y-224369D02*
X407739Y-224539D01*
G01Y-224209D02*
X407718Y-224369D01*
G01X407778Y-224059D02*
X407739Y-224209D01*
G01X407848Y-223929D02*
X407778Y-224059D01*
G01X407948Y-223799D02*
X407848Y-223929D01*
G01X408078Y-223699D02*
X407948Y-223799D01*
G01X408208Y-223629D02*
X408078Y-223699D01*
G01X408358Y-223589D02*
X408208Y-223629D01*
G01X405569Y-224349D02*
X405589Y-224169D01*
G01X405528Y-224529D02*
X405569Y-224349D01*
G01X405448Y-224699D02*
X405528Y-224529D01*
G01X405339Y-224849D02*
X405448Y-224699D01*
G01X405208Y-224979D02*
X405339Y-224849D01*
G01X405058Y-225089D02*
X405208Y-224979D01*
G01X404889Y-225169D02*
X405058Y-225089D01*
G01X405598Y-222939D02*
Y-223579D01*
G01D02*
X402758D01*
G01X405598Y-224169D02*
Y-223579D01*
G01X405569Y-222739D02*
X405589Y-222939D01*
G01X405508Y-222549D02*
X405569Y-222739D01*
G01X405419Y-222369D02*
X405508Y-222549D01*
G01X405289Y-222219D02*
X405419Y-222369D01*
G01X405139Y-222089D02*
X405289Y-222219D01*
G01X404958Y-221999D02*
X405139Y-222089D01*
G01X404708Y-225209D02*
X404889Y-225169D01*
G01X404769Y-221939D02*
X404958Y-221999D01*
G01X401148Y-217429D02*
X405598Y-212239D01*
G01X400398Y-221919D02*
Y-225229D01*
G01X399848Y-221919D02*
X400398D01*
G01X398308Y-225229D02*
X399848Y-221919D01*
G01X396898D02*
X398308Y-225229D01*
G01X396378Y-221919D02*
X396898D01*
G01X396378Y-225229D02*
Y-221919D01*
G01X393789D02*
Y-225229D01*
G01X391168Y-224329D02*
X391189Y-224139D01*
G01X391118Y-224509D02*
X391168Y-224329D01*
G01X391039Y-224679D02*
X391118Y-224509D01*
G01X390928Y-224839D02*
X391039Y-224679D01*
G01X391189Y-224139D02*
Y-223009D01*
G01X391108Y-222589D02*
X391008Y-222399D01*
G01X391168Y-222799D02*
X391108Y-222589D01*
G01X391189Y-223009D02*
X391168Y-222799D01*
G01X401939Y-212549D02*
X397489Y-217429D01*
G01X411028Y-204679D02*
X408789Y-204349D01*
G01X411028Y-217429D02*
Y-204679D01*
G01Y-209339D02*
X407718D01*
G01Y-208649D02*
X411028D01*
G01X407718Y-207259D02*
X411028D01*
G01Y-207949D02*
X407718D01*
G01X411028Y-206559D02*
X407718D01*
G01X407508Y-205869D02*
X411028D01*
G01Y-205179D02*
X399408D01*
G01X409689Y-204479D02*
X401118D01*
G01X408789Y-204349D02*
X406539Y-204209D01*
G01X407718Y-206399D02*
Y-217429D01*
G01X407698Y-206199D02*
X407718Y-206399D01*
G01X407618Y-206009D02*
X407698Y-206199D01*
G01X407498Y-205849D02*
X407618Y-206009D01*
G01X407328Y-205729D02*
X407498Y-205849D01*
G01X407148Y-205649D02*
X407328Y-205729D01*
G01X406948Y-205619D02*
X407148Y-205649D01*
G01X404098Y-205619D02*
X406948D01*
G01X406539Y-204209D02*
X403508D01*
G01X403408Y-205649D02*
X404098Y-205619D01*
G01X402728Y-205809D02*
X403408Y-205649D01*
G01X403508Y-204209D02*
X401839Y-204329D01*
G01X398739Y-205869D02*
X402598D01*
G01X402089Y-206099D02*
X402728Y-205809D01*
G01X401698Y-209989D02*
X401508Y-209589D01*
G01X401678Y-206559D02*
X398368D01*
G01X401778Y-206409D02*
X402089Y-206099D01*
G01X401548Y-206779D02*
X401778Y-206409D01*
G01X401839Y-204329D02*
X400198Y-204679D01*
G01X401439Y-209339D02*
X398278D01*
G01X401389Y-209169D02*
X401339Y-208729D01*
G01X401508Y-209589D02*
X401389Y-209169D01*
G01X398268Y-208649D02*
X401339D01*
G01Y-208729D02*
Y-207629D01*
G01Y-207949D02*
X398268D01*
G01Y-207259D02*
X401389D01*
G01X401398Y-207189D02*
X401548Y-206779D01*
G01X401339Y-207629D02*
X401398Y-207189D01*
G01X400198Y-204679D02*
X399648Y-204979D01*
G01X399158Y-205379D02*
X398748Y-205859D01*
G01X399648Y-204979D02*
X399158Y-205379D01*
G01X398268Y-209279D02*
X398308Y-209759D01*
G01X398268Y-207279D02*
Y-209279D01*
G01X398289Y-206899D02*
X398268Y-207279D01*
G01X398378Y-206519D02*
X398289Y-206899D01*
G01X398528Y-206169D02*
X398378Y-206519D01*
G01X398748Y-205859D02*
X398528Y-206169D01*
G01X395198Y-207589D02*
Y-210349D01*
G01Y-209339D02*
X392128D01*
G01Y-208649D02*
X395198D01*
G01Y-207949D02*
X392128D01*
G01X392018Y-207259D02*
X395168D01*
G01X395158Y-207109D02*
X395198Y-207589D01*
G01X394978Y-206559D02*
X391598D01*
G01X394798Y-206229D02*
X395028Y-206649D01*
G01D02*
X395158Y-207109D01*
G01X394508Y-205849D02*
X394798Y-206229D01*
G01X394139Y-205539D02*
X394508Y-205849D01*
G01X393508Y-205029D02*
X394139Y-205539D01*
G01X392798Y-204639D02*
X393508Y-205029D01*
G01X392039Y-204379D02*
X392798Y-204639D01*
G01X392128Y-210349D02*
Y-207909D01*
G01X391968Y-207109D02*
X391768Y-206759D01*
G01X392089Y-207499D02*
X391968Y-207109D01*
G01X392128Y-207909D02*
X392089Y-207499D01*
G01X391768Y-206759D02*
X391498Y-206449D01*
G01D02*
X391068Y-206079D01*
G01X391239Y-204239D02*
X392039Y-204379D01*
G01X407718Y-217429D02*
X411028D01*
G01X404508Y-213499D02*
X401068D01*
G01X407718Y-216979D02*
X411028D01*
G01Y-216279D02*
X407718D01*
G01X411028Y-214889D02*
X407718D01*
G01Y-215589D02*
X411028D01*
G01X407718Y-214199D02*
X411028D01*
G01Y-213499D02*
X407718D01*
G01Y-212809D02*
X411028D01*
G01X407718Y-211419D02*
X411028D01*
G01Y-212119D02*
X407718D01*
G01X411028Y-210729D02*
X407718D01*
G01Y-210029D02*
X411028D01*
G01X401698Y-212809D02*
X405108D01*
G01X405598Y-212119D02*
X401939D01*
G01X399458Y-211419D02*
X405598D01*
G01Y-212239D02*
Y-210819D01*
G01D02*
X403819D01*
G01X397489Y-217429D02*
X401148D01*
G01X392168Y-217199D02*
X391148Y-217369D01*
G01X400428Y-214199D02*
X403918D01*
G01X403819Y-210819D02*
X403239Y-210779D01*
G01X399168Y-215589D02*
X402728D01*
G01X403319Y-214889D02*
X399798D01*
G01X403048Y-210729D02*
X398708D01*
G01X402678Y-210629D02*
X402158Y-210359D01*
G01X403239Y-210779D02*
X402678Y-210629D01*
G01X402128Y-216279D02*
X398539D01*
G01X401939Y-212039D02*
Y-212549D01*
G01X401239Y-212029D02*
X401939Y-212039D01*
G01X398378Y-210029D02*
X401748D01*
G01X402158Y-210359D02*
X401698Y-209989D01*
G01X397898Y-216979D02*
X401539D01*
G01X400558Y-211909D02*
X401239Y-212029D01*
G01X399898Y-211669D02*
X400558Y-211909D01*
G01X399298Y-211329D02*
X399898Y-211669D01*
G01X398939Y-211019D02*
X399298Y-211329D01*
G01X398648Y-210639D02*
X398939Y-211019D01*
G01X398428Y-210219D02*
X398648Y-210639D01*
G01X398308Y-209759D02*
X398428Y-210219D01*
G01X395128Y-214889D02*
X391708D01*
G01X394798Y-215669D02*
X394489Y-216039D01*
G01X395028Y-215239D02*
X394798Y-215669D01*
G01X395168Y-214769D02*
X395028Y-215239D01*
G01X392039Y-214199D02*
X395198D01*
G01Y-214279D02*
X395168Y-214769D01*
G01X395198Y-210349D02*
Y-214279D01*
G01Y-213499D02*
X392128D01*
G01Y-212809D02*
X395198D01*
G01Y-212119D02*
X392128D01*
G01Y-211419D02*
X395198D01*
G01Y-210729D02*
X392128D01*
G01Y-210029D02*
X395198D01*
G01X392128Y-210349D02*
X395198D01*
G01D02*
X392128D01*
G01X394098Y-216329D02*
X393498Y-216709D01*
G01X394489Y-216039D02*
X394098Y-216329D01*
G01X390968Y-215589D02*
X394848D01*
G01X393498Y-216709D02*
X392848Y-216999D01*
G01D02*
X392168Y-217199D01*
G01X391689Y-214919D02*
X391948Y-214499D01*
G01X391339Y-215269D02*
X391689Y-214919D01*
G01X390978Y-215589D02*
X391339Y-215269D01*
G01X392098Y-214029D02*
X392128Y-213539D01*
G01X391948Y-214499D02*
X392098Y-214029D01*
G01X392128Y-213539D02*
Y-210349D01*
G54D25*
X249291Y211270D03*
Y217963D03*
X254410Y211270D03*
Y217963D03*
G54D34*
X327350Y154617D03*
X315350D03*
G54D16*
X20106Y62620D03*
Y40620D03*
Y106620D03*
Y84621D03*
X235850Y27217D03*
Y69216D03*
Y48216D03*
X306450Y27217D03*
X271150D03*
X306450Y69216D03*
Y48216D03*
X271150Y69216D03*
Y48216D03*
X341750Y27217D03*
Y69216D03*
Y48216D03*
G54D44*
G01X244000Y205500D02*
X236000Y213500D01*
Y214000D01*
G01X295200Y197000D02*
Y196700D01*
X294317Y195817D01*
X289517D01*
X289500Y195800D01*
X288800D01*
G01X327500Y181000D02*
Y184500D01*
G01D02*
X322000Y190000D01*
G54D35*
X338115Y186865D03*
Y206550D03*
G54D26*
X286000Y100442D03*
Y102410D03*
Y104379D03*
X291700Y100442D03*
Y102410D03*
Y104379D03*
X286000Y86942D03*
Y88910D03*
Y90879D03*
X291700Y86942D03*
Y88910D03*
Y90879D03*
G54D17*
X31106Y214620D03*
X9106D03*
X72606Y35120D03*
X83606Y115620D03*
X61606D03*
X53106Y214620D03*
X75106D03*
X94606Y35120D03*
X116606D03*
X127606Y115620D03*
X105606D03*
X119106Y214620D03*
X97106D03*
X138606Y35120D03*
X149606Y115620D03*
X171606D03*
X163106Y214620D03*
X141106D03*
X185106D03*
X244550Y99716D03*
X222350D03*
X266750D03*
G54D45*
G01X50500Y76000D02*
X60500D01*
X62500Y78000D01*
Y84106D01*
X58500Y88106D01*
Y102500D01*
X55500Y105500D01*
Y129000D01*
X58606Y132106D01*
G01X179606Y31920D02*
Y35620D01*
G01D02*
Y39321D01*
G01X175906Y35620D02*
X179606D01*
G01D02*
X183307D01*
G01X255366Y44650D02*
Y41978D01*
X255850Y41494D01*
G01X236500Y37716D02*
Y34305D01*
X236124Y33928D01*
G01X233200Y37716D02*
Y39200D01*
X234500Y40500D01*
G01X232500Y147850D02*
Y145818D01*
X231500Y144818D01*
G01X228150Y147000D02*
X230332Y144818D01*
X231500D01*
G01X228150Y150500D02*
Y147000D01*
G01X231500Y144818D02*
X231150Y144468D01*
Y138500D01*
G01X259800Y176600D02*
X256400Y173200D01*
Y167867D01*
X243000Y154467D01*
Y153500D01*
G01X248350Y187122D02*
X248373Y187100D01*
X250300D01*
X251500Y188300D01*
G01X244250Y187074D02*
X248302D01*
X248350Y187122D01*
G01X254410Y211270D02*
X257941D01*
X258196Y211015D01*
G01X259350Y214924D02*
Y212169D01*
X258196Y211015D01*
G01X291850Y53866D02*
X293823D01*
X294850Y54894D01*
G01X277650Y37000D02*
Y38700D01*
X276350Y40000D01*
G01X291850Y50566D02*
Y47217D01*
G01X274350Y32500D02*
Y37000D01*
G01X284700Y174300D02*
Y170000D01*
G01X290900Y184900D02*
X293700Y182100D01*
Y182000D01*
X294900Y180800D01*
G01X293600Y177650D02*
Y179500D01*
X294900Y180800D01*
G01X276750Y162000D02*
X276500D01*
X275239Y163261D01*
Y174739D01*
X278300Y177800D01*
X279000D01*
X280700Y179500D01*
Y180500D01*
G01X303276Y207965D02*
Y211865D01*
G01D02*
Y215765D01*
G01X299375Y211865D02*
X303276D01*
G01D02*
X307176D01*
G01X284500Y206500D02*
X284600Y206600D01*
X288834D01*
X289850Y207617D01*
G01X311350Y60866D02*
X313623D01*
X314350Y61594D01*
G01X311350Y57566D02*
Y54500D01*
G01X318850Y97210D02*
Y100910D01*
G01D02*
Y104610D01*
G01X315150Y100910D02*
X318850D01*
G01D02*
X322551D01*
G01X342646Y149976D02*
Y153676D01*
G01D02*
Y157376D01*
G01X338946Y153676D02*
X342646D01*
G01D02*
X346346D01*
G01X333118Y130291D02*
Y133991D01*
G01D02*
Y137691D01*
G01X329418Y133991D02*
X333118D01*
G01X313118Y216668D02*
X311000Y214550D01*
Y211000D01*
X309500Y209500D01*
Y202109D01*
X308000Y200609D01*
Y182800D01*
X310400Y180400D01*
Y136709D01*
X313118Y133991D01*
G01X342646Y163676D02*
Y167376D01*
G01X338946Y163676D02*
X342646D01*
G01X327500Y211000D02*
Y206500D01*
G01X333118Y212968D02*
Y216668D01*
G01D02*
Y220368D01*
G01X329418Y216668D02*
X333118D01*
G01D02*
X336818D01*
G54D27*
X303276Y151865D03*
Y201865D03*
Y191865D03*
Y181865D03*
Y171865D03*
Y161865D03*
Y211865D03*
G54D18*
X179606Y25620D03*
Y35620D03*
X328850Y100910D03*
X318850D03*
X342646Y153676D03*
X333118Y133991D03*
X323118D03*
X333118Y216668D03*
X323118D03*
G54D36*
X348745Y182928D03*
Y210487D03*
G54D28*
X303276Y141865D03*
G54D37*
X332350Y166117D03*
Y178117D03*
X327500Y194500D03*
Y206500D03*
G54D19*
X215380Y181317D03*
X212080D03*
X215380Y185817D03*
X212080D03*
X221200Y25216D03*
X224500D03*
X255366Y44650D03*
X252067D03*
X236500Y37716D03*
X233200D03*
X221200Y65716D03*
X224500D03*
X221200Y29716D03*
X224500D03*
X240700Y61216D03*
X244000D03*
X221200Y56716D03*
X224500D03*
X221200Y43216D03*
X224500D03*
X221200Y38717D03*
X224500D03*
X221200Y52216D03*
X224500D03*
X221200Y47716D03*
X224500D03*
X258700Y61716D03*
X248300Y57284D03*
X245000D03*
X252300Y30283D03*
X249000D03*
X221200Y61216D03*
X224500D03*
X221200Y34217D03*
X224500D03*
X221200Y83716D03*
X224500D03*
X241350Y79000D03*
X244650D03*
X221200Y70216D03*
X224500D03*
X221200Y79216D03*
X224500D03*
X256700Y73716D03*
X260000D03*
X250500Y72716D03*
X247200D03*
X221200Y74716D03*
X224500D03*
X228150Y150500D03*
X224850D03*
X228150Y147000D03*
X224850D03*
X231150Y138500D03*
X227850D03*
X234199Y195574D03*
X237502D03*
X244700Y195568D03*
X248000D03*
X246200Y183074D03*
X249500D03*
X240950Y187074D03*
X244250D03*
X223000Y195574D03*
X226300D03*
X248200Y204074D03*
X251500D03*
X277650Y37000D03*
X274350D03*
X291850Y61784D03*
X288550D03*
X288800Y46784D03*
X285500D03*
X269650Y38500D03*
X266350D03*
X278434Y59350D03*
X275134D03*
X282566Y57650D03*
X285866D03*
X262000Y61716D03*
X280000Y77216D03*
X276700D03*
X282566Y71150D03*
X285866D03*
X321434Y63850D03*
X318134D03*
X316850Y181000D03*
X320150D03*
X340350Y198000D03*
X343650D03*
X316650Y170500D03*
X313350D03*
X321650Y175000D03*
X318350D03*
G54D29*
X289850Y199617D03*
Y207617D03*
G54D38*
X317272Y209000D03*
X313728D03*
X317272Y205000D03*
X313728D03*
G54D39*
G01X86000Y24500D02*
X83950Y22450D01*
X57050D01*
X55000Y24500D01*
X23000D01*
X10000Y37500D01*
Y99464D01*
X17156Y106620D01*
X20106D01*
G01Y40620D02*
X28000D01*
G01X20106Y62620D02*
Y57500D01*
G01X81000Y29500D02*
X77500Y26000D01*
X57500D01*
X33500Y50000D01*
Y124000D01*
X31106Y126394D01*
Y214620D01*
G01X94606Y35120D02*
X83721D01*
X75701Y27100D01*
X58400D01*
X35000Y50500D01*
Y75500D01*
X42500Y83000D01*
X55427D01*
X59428Y79000D01*
G01X72606Y35120D02*
X52380D01*
X36450Y51050D01*
Y74450D01*
X43050Y81050D01*
X53452D01*
X55502Y79000D01*
G01X9106Y214620D02*
Y135894D01*
X32000Y113000D01*
Y49500D01*
X57000Y24500D01*
X81000D01*
G01X12500Y84621D02*
X20106D01*
G01X145000Y86500D02*
Y80500D01*
X124000Y59500D01*
X114000D01*
X109600Y55100D01*
Y18600D01*
X108000Y17000D01*
X82000D01*
X78500Y20500D01*
X56550D01*
X54000Y23050D01*
X50050D01*
X48000Y21000D01*
G01X166000Y89567D02*
X157067D01*
X125000Y57500D01*
X114601D01*
X110950Y53849D01*
Y47151D01*
X111500Y46601D01*
Y18000D01*
X108500Y15000D01*
X81000D01*
X77500Y18500D01*
X55500D01*
X53000Y21000D01*
G01X76106Y16000D02*
X78606Y13500D01*
X108173D01*
X111673Y10000D01*
Y8000D01*
G01X67500Y54000D02*
X65250Y56250D01*
X62351D01*
X60472Y58129D01*
Y67472D01*
X68000Y75000D01*
Y80743D01*
X69000Y81743D01*
Y140500D01*
X75106Y146606D01*
Y214620D01*
G01X56500Y65500D02*
Y67500D01*
X64500Y75500D01*
Y85500D01*
X61606Y88394D01*
Y115620D01*
G01X67500Y58500D02*
X65450Y60550D01*
Y66950D01*
X71000Y72500D01*
Y79500D01*
X71950Y80450D01*
Y119500D01*
X75750Y123300D01*
Y140750D01*
X119106Y184106D01*
Y214620D01*
G01X53106D02*
Y199894D01*
X58750Y194250D01*
Y150750D01*
X66500Y143000D01*
Y102000D01*
X67500Y101000D01*
Y85000D01*
X66500Y84000D01*
Y75500D01*
X59000Y68000D01*
Y56050D01*
X61050Y54000D01*
X63000D01*
G01X67500Y63500D02*
X69700Y65700D01*
X73200D01*
X75000Y67500D01*
Y73000D01*
X82500Y80500D01*
Y102500D01*
X88500Y108500D01*
Y142000D01*
X141106Y194606D01*
Y214620D01*
G01X72500Y68000D02*
Y73500D01*
X80000Y81000D01*
Y103000D01*
X83606Y106606D01*
Y115620D01*
G01X53950Y54500D02*
X58545D01*
X61095Y51950D01*
X68849D01*
X80500Y63601D01*
Y70000D01*
X88000Y77500D01*
Y99000D01*
X94000Y105000D01*
Y120000D01*
X172000Y198000D01*
X175500D01*
X185106Y207606D01*
Y214620D01*
G01X63000Y58500D02*
Y68000D01*
X69500Y74500D01*
Y80121D01*
X70500Y81121D01*
Y139000D01*
X80500Y149000D01*
Y185500D01*
X97106Y202106D01*
Y214620D01*
G01X72500Y63500D02*
X73500D01*
X77000Y67000D01*
Y72000D01*
X84500Y79500D01*
Y101500D01*
X90500Y107500D01*
Y134500D01*
X163106Y207106D01*
Y214620D01*
G01X72500Y58500D02*
X79000Y65000D01*
Y71000D01*
X86500Y78500D01*
Y100500D01*
X92500Y106500D01*
Y121894D01*
X102606Y132000D01*
G01X75000Y79000D02*
X78500Y82500D01*
Y129894D01*
X80606Y132000D01*
G01X100000Y10500D02*
X108000D01*
G01X113000Y53000D02*
X130880Y35120D01*
X138606D01*
G01X113000Y48000D02*
X116606Y44394D01*
Y35120D01*
G01X133500Y81000D02*
X129550Y84950D01*
X128651D01*
X127450Y86151D01*
Y87849D01*
X136601Y97000D01*
X170000D01*
X173000Y94000D01*
G01X127606Y115620D02*
X117500D01*
G01X105606D02*
X100500D01*
G01X129500Y87000D02*
X138000Y95500D01*
X168601D01*
X174534Y89567D01*
X177000D01*
G01X156000Y115500D02*
X156120Y115620D01*
X171606D01*
G01X149606D02*
X144500D01*
G01X223500Y142500D02*
X221864D01*
X219164Y145200D01*
X218800D01*
X214500Y149500D01*
Y151000D01*
X216867Y153367D01*
G01X229382Y7560D02*
Y9610D01*
X230182Y10410D01*
X234910D01*
X236000Y11500D01*
Y17000D01*
X237700Y18700D01*
X245200D01*
X252300Y25800D01*
Y30283D01*
G01X251850Y13260D02*
Y16150D01*
X251500Y16500D01*
G01X233319Y13260D02*
Y17810D01*
X235909Y20400D01*
X243409D01*
X245000Y21991D01*
Y31000D01*
X241000Y35000D01*
Y38500D01*
X241800Y39300D01*
X243716D01*
G01X235850Y27217D02*
X232900D01*
X227000Y21316D01*
Y6410D01*
X228000Y5410D01*
X230910D01*
X231350Y5850D01*
Y7560D01*
G01X249882D02*
X247201D01*
G01X251850D02*
Y9610D01*
X252650Y10410D01*
X254910D01*
X255750Y11250D01*
Y14250D01*
X260000Y18500D01*
Y31000D01*
X263550Y34550D01*
Y43566D01*
X268200Y48216D01*
X271150D01*
G01X231350Y13260D02*
Y15569D01*
X231432Y15651D01*
Y18151D01*
X235381Y22100D01*
X242881D01*
X243500Y22719D01*
Y30444D01*
X239500Y34444D01*
Y39000D01*
X235850Y42650D01*
Y48216D01*
G01X253819Y13260D02*
Y15310D01*
X258500Y19991D01*
Y32000D01*
X261500Y35000D01*
Y40117D01*
X259850Y41766D01*
Y43566D01*
G01X250500Y72716D02*
Y68500D01*
X249000Y67000D01*
Y61133D01*
X248300Y60433D01*
Y57284D01*
G01X252300Y30283D02*
Y32200D01*
X251000Y33500D01*
Y39000D01*
X249000Y41000D01*
Y56633D01*
X248350Y57284D01*
X248300D01*
G01X252350Y63366D02*
X255778D01*
X255850Y63294D01*
G01X224500Y34217D02*
X226850D01*
X227350Y34716D01*
G01X252350Y52566D02*
Y50766D01*
X253223Y49894D01*
X255850D01*
G01X221200Y56716D02*
X218350D01*
G01X221200Y43216D02*
X218350D01*
G01X221200Y29716D02*
X218350D01*
G01X240700Y61216D02*
Y56800D01*
X244500Y53000D01*
Y44300D01*
X245034Y43766D01*
X246784D01*
G01X241350Y79000D02*
Y77250D01*
X244000Y74600D01*
Y66266D01*
X240700Y62966D01*
Y61216D01*
G01X243716Y39300D02*
X244500Y40083D01*
Y41465D01*
X246784Y43749D01*
Y43766D01*
G01X252350Y55866D02*
X250600D01*
X250100Y55366D01*
Y50000D01*
X252600Y47500D01*
X255768D01*
X257500Y45768D01*
Y42743D01*
X257900Y42343D01*
Y42264D01*
X258650Y41515D01*
Y39434D01*
G01X252350Y60066D02*
X250600D01*
X250100Y60567D01*
Y66100D01*
X252000Y68000D01*
Y70500D01*
X253000Y71500D01*
Y78000D01*
X255866Y80866D01*
X259350D01*
G01X252350Y55866D02*
Y60066D01*
G01X247200Y72716D02*
Y68566D01*
X246850Y68216D01*
G01X224500Y25216D02*
X226850D01*
X227350Y24716D01*
G01X246784Y47067D02*
Y49750D01*
X246850Y49816D01*
G01X224500Y43216D02*
X227250D01*
X227350Y43116D01*
G01X224500Y52216D02*
X227350D01*
G01X258650Y36133D02*
X256211D01*
X255850Y36494D01*
G01X224500Y38717D02*
X227350D01*
G01X249000Y30283D02*
Y35534D01*
X249000Y38767D01*
X246850Y40917D01*
G01X224500Y61216D02*
X227050D01*
X227350Y61516D01*
G01X245000Y57284D02*
Y55500D01*
X246184Y54316D01*
X246850D01*
G01X244000Y61216D02*
X246000Y63216D01*
X246850D01*
G01X224500Y29716D02*
X227350D01*
G01X224500Y56716D02*
X227150D01*
X227350Y56516D01*
G01X224500Y47716D02*
X226950D01*
X227350Y48116D01*
G01X224500Y65716D02*
X227350D01*
G01X258700Y61716D02*
Y63800D01*
X257050Y65450D01*
Y70849D01*
X256700Y71199D01*
Y73716D01*
G01X259850Y43566D02*
X261600D01*
X262650Y44616D01*
Y50850D01*
X258248Y55252D01*
Y59248D01*
X258700Y59700D01*
Y61716D01*
G01X221200Y47716D02*
X220484Y47000D01*
X217584D01*
X216250Y45667D01*
Y37200D01*
X217450Y36000D01*
X219317D01*
X221100Y34217D01*
X221200D01*
G01Y61216D02*
X220484Y60500D01*
X217584D01*
X216250Y59166D01*
Y50700D01*
X217450Y49500D01*
X219317D01*
X221100Y47716D01*
X221200D01*
G01Y74716D02*
X220484Y74000D01*
X217584D01*
X216250Y72666D01*
Y64200D01*
X217450Y63000D01*
X219317D01*
X221100Y61216D01*
X221200D01*
G01X243716Y36000D02*
X246434D01*
X246850Y36416D01*
G01X221200Y52216D02*
X218350D01*
G01X221200Y38717D02*
X218350D01*
G01X221200Y25216D02*
X218350D01*
G01X221200Y65716D02*
X218350D01*
G01X286000Y102410D02*
X278590D01*
X272000Y109000D01*
X224500D01*
X222350Y106850D01*
Y99716D01*
G01X249784Y78200D02*
Y76400D01*
X250500Y75684D01*
Y72716D01*
G01X244650Y79000D02*
X246450D01*
X246850Y78600D01*
Y76616D01*
G01X291700Y100442D02*
Y99142D01*
X289059Y96500D01*
X282000D01*
X271000Y107500D01*
X240500D01*
X238000Y105000D01*
Y100500D01*
X228500Y91000D01*
X223684D01*
X218350Y85666D01*
Y83716D01*
G01D02*
X221200D01*
G01Y70216D02*
X218350D01*
G01X224500D02*
X227050D01*
X227350Y69916D01*
G01X249784Y81500D02*
X246966D01*
X246850Y81616D01*
G01X244550Y99716D02*
X251284D01*
X258500Y92500D01*
X280000D01*
X280500Y93000D01*
X296500D01*
X297500Y92000D01*
Y89500D01*
X296829Y88829D01*
X291782D01*
X291700Y88910D01*
G01X224500Y83716D02*
X226950D01*
X227350Y83316D01*
G01X230284Y88000D02*
X227666D01*
X227350Y88316D01*
G01X235850Y69216D02*
Y81850D01*
X242992Y88992D01*
X283869D01*
X283950Y88910D01*
X286000D01*
G01X259350Y77566D02*
X256723D01*
X255850Y76694D01*
G01X224500Y74716D02*
X227150D01*
X227350Y74916D01*
G01X224500Y79216D02*
X227350D01*
G01X230284Y84700D02*
Y78784D01*
X228554Y77054D01*
X221554D01*
X221200Y76700D01*
Y74716D01*
G01X230284Y84700D02*
X236700D01*
X242879Y90879D01*
X286000D01*
G01Y104379D02*
X279121D01*
X273000Y110500D01*
X222000D01*
X217500Y106000D01*
Y95200D01*
X216300Y94000D01*
Y81266D01*
X218350Y79216D01*
G01D02*
X221200D01*
G01X252830Y151000D02*
X253830Y152000D01*
X261000D01*
X263500Y154500D01*
Y156500D01*
X261709Y158291D01*
Y160449D01*
X264400Y163140D01*
Y178200D01*
X263839Y178761D01*
Y180581D01*
G01X216867Y153367D02*
X218734Y151500D01*
X223850D01*
X224850Y150500D01*
G01X242350Y136117D02*
X247400Y141167D01*
X276723D01*
X278800Y143245D01*
Y152300D01*
X282000Y155500D01*
Y165799D01*
X279350Y168449D01*
Y170500D01*
G01X237767Y134000D02*
X238500Y133267D01*
X243531D01*
X250331Y140067D01*
X263933D01*
X269733Y134267D01*
X274267D01*
X276000Y136000D01*
Y137333D01*
X281100Y142433D01*
Y149600D01*
X282500Y151000D01*
G01X227850Y138500D02*
X224309D01*
X218809Y144000D01*
X217000D01*
X215500Y145500D01*
G01X270138Y180581D02*
Y178438D01*
X269239Y177539D01*
Y155500D01*
X267750Y154011D01*
Y151750D01*
X264000Y148000D01*
X260500D01*
X257617Y145117D01*
X255350D01*
G01X266988Y180581D02*
Y156988D01*
X265550Y155550D01*
Y153550D01*
X262500Y150500D01*
X258500D01*
X257067Y149067D01*
X253714D01*
X253147Y148500D01*
X248000D01*
X247000Y149500D01*
G01X252350Y137117D02*
X258320D01*
X263370Y132067D01*
X295387D01*
X299101Y135781D01*
Y146620D01*
X299100Y146620D01*
X298953Y146768D01*
Y163453D01*
X299226Y163726D01*
Y173826D01*
X301400Y176000D01*
Y177800D01*
X299226Y179974D01*
Y189700D01*
X298350Y190576D01*
Y198305D01*
X295500Y201155D01*
Y210275D01*
X293775Y212000D01*
X286926D01*
X284576Y209650D01*
X280260D01*
X276437Y205827D01*
Y203653D01*
G01X323118Y133991D02*
X320320D01*
X315079Y128750D01*
X260044D01*
X259044Y129750D01*
X235588D01*
X233250Y132088D01*
Y143750D01*
X234500Y145000D01*
Y145969D01*
X240500Y151969D01*
Y154230D01*
X254500Y168230D01*
Y183800D01*
X255730Y185030D01*
X257814D01*
G01X237500Y153000D02*
X253400Y168900D01*
Y184300D01*
X255705Y186605D01*
X257814D01*
G01X260689Y180581D02*
Y178711D01*
X261900Y177500D01*
Y174900D01*
X258000Y171000D01*
Y167204D01*
X245500Y154704D01*
Y153000D01*
X243500Y151000D01*
X241086D01*
X236028Y145942D01*
Y144972D01*
X234350Y143294D01*
Y132544D01*
X236044Y130850D01*
X259500D01*
X260500Y129850D01*
X300641D01*
X308442Y137651D01*
Y164004D01*
X307326Y165120D01*
Y177815D01*
X303276Y181865D01*
G01X242350Y146117D02*
X246200Y142267D01*
X276267D01*
X277700Y143700D01*
Y157200D01*
X277000Y157900D01*
G01X227500Y142000D02*
X227400Y142100D01*
X226900D01*
X224450Y144550D01*
X221370D01*
X217000Y148920D01*
Y150000D01*
G01D02*
X219500D01*
X222500Y147000D01*
X224850D01*
G01X238000Y138500D02*
Y141766D01*
X242350Y146117D01*
G01X262264Y180581D02*
Y178736D01*
X263000Y178000D01*
Y174300D01*
X259100Y170400D01*
Y166748D01*
X248793Y156441D01*
Y154293D01*
X244000Y149500D01*
X241142D01*
X237571Y145929D01*
Y144929D01*
X235450Y142808D01*
Y133000D01*
X236500Y131950D01*
X260500D01*
X261500Y130950D01*
X300185D01*
X307342Y138107D01*
Y163548D01*
X303276Y167615D01*
Y171865D01*
G01X268563Y180581D02*
Y178663D01*
X268139Y178239D01*
Y156500D01*
X266650Y155011D01*
Y152650D01*
X263400Y149400D01*
X259900D01*
X258467Y147967D01*
X254170D01*
X251320Y145117D01*
X248850D01*
G01X249500Y183074D02*
X250500Y184074D01*
Y184600D01*
X255655Y189755D01*
X257814D01*
G01Y188180D02*
X255680D01*
X252200Y184700D01*
Y169700D01*
X242000Y159500D01*
X237500D01*
G01X224850Y218117D02*
X228734Y222000D01*
X263700D01*
X265850Y219850D01*
Y210650D01*
X267300Y209200D01*
Y206800D01*
X266988Y206488D01*
Y203653D01*
G01X254410Y217963D02*
X254670Y218224D01*
X259350D01*
G01X243850Y211924D02*
X248638D01*
X249291Y211270D01*
G01D02*
Y207833D01*
X250624Y206500D01*
X260000D01*
X260689Y205811D01*
Y203653D01*
G01X271150Y69216D02*
Y65516D01*
X273000Y63667D01*
Y56000D01*
X274500Y54500D01*
X278000D01*
X280900Y51600D01*
Y43900D01*
X279500Y42500D01*
X273500D01*
X272000Y41000D01*
Y37000D01*
X268500Y33500D01*
X266500D01*
X264000Y31000D01*
Y14500D01*
X268000Y10500D01*
X271500D01*
X272350Y9650D01*
Y7560D01*
G01X291000Y21500D02*
X296500Y27000D01*
Y39000D01*
X299000Y41500D01*
Y52500D01*
X300500Y54000D01*
Y59566D01*
X306450Y65516D01*
Y69216D01*
G01X283000Y33350D02*
Y31500D01*
X279000Y27500D01*
Y24000D01*
X274319Y19319D01*
Y13260D01*
G01X272350D02*
Y15569D01*
X272432Y15651D01*
Y22349D01*
X271150Y23631D01*
Y27217D01*
G01X270382Y7560D02*
X268440D01*
X261500Y14500D01*
Y30500D01*
X266334Y35334D01*
X268234D01*
X269650Y36750D01*
Y38500D01*
G01X286000Y16500D02*
X288500Y19000D01*
Y22000D01*
X294650Y28150D01*
Y42634D01*
G01X294819Y13260D02*
Y11210D01*
X294109Y10500D01*
X281600D01*
X278500Y13600D01*
Y19500D01*
X282000Y23000D01*
Y26000D01*
X287000Y31000D01*
Y42500D01*
X288800Y44300D01*
Y46784D01*
G01X290882Y7560D02*
X280440D01*
X277000Y11000D01*
Y20000D01*
X280500Y23500D01*
Y27000D01*
X285500Y32000D01*
Y41500D01*
X283500Y43500D01*
Y54342D01*
X282566Y55275D01*
Y57650D01*
G01X306450Y27217D02*
Y23516D01*
X300000Y17066D01*
Y6000D01*
X299000Y5000D01*
X293361D01*
X292850Y5510D01*
Y7560D01*
G01Y13260D02*
Y15569D01*
X293500Y16219D01*
Y21000D01*
X298500Y26000D01*
Y36500D01*
X306450Y44450D01*
Y48216D01*
G01X262000Y61716D02*
Y59000D01*
G01X288550Y61784D02*
X287117Y63216D01*
X285850D01*
G01X285500Y46784D02*
Y49466D01*
X285850Y49816D01*
G01X283000Y36650D02*
Y39500D01*
G01X278434Y59350D02*
Y56566D01*
X282000Y53000D01*
Y42050D01*
X280950Y41000D01*
Y33850D01*
X281450Y33350D01*
X283000D01*
G01X278434Y59350D02*
Y70800D01*
X280000Y72366D01*
Y77216D01*
G01X266650Y61000D02*
Y61050D01*
X262715Y64986D01*
X260881D01*
X259350Y66516D01*
Y66566D01*
G01X269650Y38500D02*
Y41650D01*
X271600Y43600D01*
X278100D01*
X279000Y44500D01*
Y51000D01*
X277000Y53000D01*
X273000D01*
X271000Y55000D01*
Y59000D01*
X269000Y61000D01*
X266650D01*
G01X294650Y42634D02*
X296400D01*
X297716Y43950D01*
Y57066D01*
G01X259850Y46867D02*
Y49250D01*
X260600Y50000D01*
G01X266350Y38500D02*
Y41484D01*
X266366Y41500D01*
G01X266650Y57700D02*
Y54650D01*
X266500Y54500D01*
G01X297716Y60366D02*
Y60428D01*
X294850Y63294D01*
G01X275134Y59350D02*
Y56811D01*
X275350Y56594D01*
G01X288800Y46784D02*
Y56300D01*
X291850Y59350D01*
Y61784D01*
G01X282566Y71150D02*
Y57650D01*
G01X285866Y71150D02*
Y68233D01*
X285850Y68216D01*
G01X285866Y57650D02*
X285850Y57634D01*
Y54816D01*
G01X294650Y45934D02*
Y47743D01*
X294850Y47944D01*
Y49894D01*
G01X259350Y69866D02*
X261350D01*
X262350Y70866D01*
G01X276700Y77216D02*
Y74366D01*
X276850Y74216D01*
G01X291700Y86942D02*
Y84200D01*
X290683Y83183D01*
X261667D01*
X259350Y80866D01*
G01X291700Y102410D02*
X293750D01*
X294500Y101661D01*
Y98500D01*
X290500Y94500D01*
X280500D01*
X275284Y99716D01*
X266750D01*
G01X260000Y73716D02*
X261800D01*
X263000Y74916D01*
X266350D01*
G01X262350Y137117D02*
X265327D01*
X269277Y133167D01*
X294931D01*
X298000Y136236D01*
Y146165D01*
X297853Y146312D01*
Y164500D01*
X298126Y164773D01*
Y175726D01*
X299300Y176900D01*
G01X280887Y194479D02*
X283744D01*
X288611Y189612D01*
X294188D01*
X297026Y186774D01*
Y179226D01*
X295926Y178126D01*
Y166981D01*
X292275Y163330D01*
Y159825D01*
X293911Y158189D01*
Y145587D01*
X294700Y144797D01*
Y141700D01*
X293233Y140233D01*
X285466D01*
X282350Y137117D01*
G01X282500Y151000D02*
Y141500D01*
X278500Y137500D01*
Y136000D01*
X280233Y134267D01*
X294267D01*
X296900Y136900D01*
Y145709D01*
X296111Y146498D01*
Y161589D01*
X295700Y162000D01*
G01X274862Y180581D02*
Y178362D01*
X272539Y176039D01*
Y161875D01*
X273850Y160564D01*
Y151850D01*
X273500Y151500D01*
G01X280887Y191330D02*
X283782D01*
X287500Y187612D01*
Y176350D01*
X287850Y176000D01*
Y164050D01*
X287300Y163500D01*
Y154167D01*
X290350Y151117D01*
G01X272350Y137117D02*
X274228D01*
X280000Y142888D01*
Y151500D01*
X283500Y155000D01*
Y166110D01*
X281550Y168060D01*
Y176450D01*
X284200Y179100D01*
Y185000D01*
X282595Y186605D01*
X280887D01*
G01X291850Y143617D02*
X286900Y148567D01*
Y152600D01*
X286200Y153300D01*
Y165200D01*
X286750Y165750D01*
Y175500D01*
X286400Y175850D01*
Y187156D01*
X283801Y189755D01*
X280887D01*
G01X261850Y145117D02*
X263163D01*
X269000Y150954D01*
Y152661D01*
X270339Y154000D01*
Y177039D01*
X271713Y178413D01*
Y180581D01*
G01X276437D02*
Y178237D01*
X273639Y175439D01*
Y162331D01*
X274950Y161020D01*
Y154250D01*
X276350Y152850D01*
Y146616D01*
X274850Y145117D01*
G01X280887Y188180D02*
X282920D01*
X285300Y185800D01*
Y178500D01*
X282650Y175850D01*
Y168850D01*
X285000Y166500D01*
Y151850D01*
X285350Y151500D01*
Y143617D01*
G01X273287Y180581D02*
Y178387D01*
X271439Y176539D01*
Y153468D01*
X270500Y152530D01*
Y147266D01*
X268350Y145117D01*
G01X280887Y196054D02*
X283725D01*
X288812Y190967D01*
X294733D01*
X298126Y187574D01*
Y178626D01*
X297026Y177526D01*
Y166526D01*
X293509Y163009D01*
Y160391D01*
X295011Y158889D01*
Y146043D01*
X295800Y145253D01*
Y140567D01*
X292350Y137117D01*
G01X296300Y192400D02*
X297250Y193350D01*
Y197849D01*
X294400Y200699D01*
Y209819D01*
X293319Y210900D01*
X287381D01*
X285031Y208550D01*
X281970D01*
X278012Y204592D01*
Y203653D01*
G01X290866Y193017D02*
X288583D01*
X283971Y197629D01*
X280887D01*
G01X263759Y159600D02*
X265700Y161541D01*
Y178400D01*
X265413Y178687D01*
Y180581D01*
G01X290350Y157617D02*
Y163000D01*
X288950Y164400D01*
Y177050D01*
X288600Y177400D01*
Y188067D01*
X283763Y192904D01*
X280887D01*
G01Y185030D02*
X282570D01*
X283100Y184500D01*
Y179600D01*
X280300Y176800D01*
Y175900D01*
X279500Y175100D01*
G01X279900Y165000D02*
X277300Y167600D01*
Y172900D01*
X279500Y175100D01*
G01X277000Y157900D02*
X279900Y160800D01*
Y165000D01*
G01X276929Y216617D02*
X274650D01*
X273500Y215467D01*
X271850D01*
G01X273287Y203653D02*
Y208117D01*
X276929Y211759D01*
Y216617D01*
G01X263839Y203653D02*
Y206217D01*
X262681Y207374D01*
Y210531D01*
X264000Y211850D01*
G01X265413Y203653D02*
Y207542D01*
X265200Y207755D01*
G01X268500Y218601D02*
X270000Y217101D01*
Y212438D01*
X270138Y212300D01*
Y203653D01*
G01X267950Y214616D02*
Y210550D01*
X268563Y209937D01*
Y203653D01*
G01X274862D02*
Y206762D01*
X279100Y211000D01*
X283500D01*
X285000Y212500D01*
Y214845D01*
X286772Y216617D01*
G01D02*
X288422Y214967D01*
X291850D01*
G01X271713Y203653D02*
Y211109D01*
X273104Y212500D01*
G01X262264Y203653D02*
Y206236D01*
X261405Y207094D01*
Y217869D01*
X261050Y218224D01*
X259350D01*
G01X341750Y69216D02*
Y61750D01*
X349500Y54000D01*
Y50500D01*
X352500Y47500D01*
Y22600D01*
X350600Y20700D01*
X344700D01*
X339449Y15449D01*
Y10000D01*
X340119Y9330D01*
Y8410D01*
X340119Y6119D01*
X339000Y5000D01*
X313861D01*
X313350Y5510D01*
Y7560D01*
G01X341750Y48216D02*
X348400D01*
X351000Y45617D01*
Y23200D01*
X349600Y21800D01*
X343300D01*
X338000Y16500D01*
Y11500D01*
X337000Y10500D01*
X334740D01*
X333850Y9610D01*
Y7560D01*
G01X341750Y27217D02*
X335100D01*
X318384Y10500D01*
X314000D01*
X313350Y11150D01*
Y13260D01*
G01X335819D02*
Y16819D01*
X341900Y22900D01*
X348900D01*
X349500Y23500D01*
Y41500D01*
X347500Y43500D01*
X332500D01*
X331000Y45000D01*
Y57500D01*
X324650Y63850D01*
X321434D01*
G01X318000Y49350D02*
Y27000D01*
X313500Y22500D01*
X309500D01*
X305000Y18000D01*
Y9000D01*
X306440Y7560D01*
X311382D01*
G01X323000Y49350D02*
Y22991D01*
X315319Y15310D01*
Y13260D01*
G01X318000Y58000D02*
X320500D01*
X323000Y55500D01*
Y52650D01*
G01X318134Y63850D02*
X307684D01*
X305350Y61516D01*
G01Y56516D02*
X309417Y52450D01*
X317800D01*
X318000Y52650D01*
G01X313000Y177850D02*
Y175500D01*
X313500Y175000D01*
G01X313350Y170500D02*
Y174850D01*
X313500Y175000D01*
G01Y166650D02*
Y170350D01*
X313350Y170500D01*
G01X318350Y175000D02*
X313500D01*
G01X316500Y178000D02*
X319500D01*
X320150Y178650D01*
Y181000D01*
G01X320000Y166650D02*
X318500Y168150D01*
Y168650D01*
X316650Y170500D01*
G01X313728Y209000D02*
X311500Y206772D01*
Y199150D01*
G01X316850Y181000D02*
X313150D01*
X313000Y181150D01*
G01X313728Y205000D02*
Y203272D01*
X315500Y201500D01*
Y199150D01*
G01X317272Y205000D02*
X320000D01*
X320484Y205484D01*
G01X317272Y209000D02*
X319000D01*
X320484Y210484D01*
G01X-45775Y-237579D02*
Y-233579D01*
X-46902Y-236912D01*
X-48028Y-233579D01*
Y-237579D01*
G01X-49218D02*
X-50302Y-233579D01*
X-51385Y-237579D01*
G01X-50995Y-236179D02*
X-49608D01*
G01X-54655Y-233912D02*
X-54395Y-233712D01*
X-54092Y-233579D01*
X-53745D01*
X-53355Y-233779D01*
X-53052Y-234112D01*
X-52835Y-234512D01*
X-52662Y-235179D01*
X-52618Y-235779D01*
X-52705Y-236379D01*
X-52835Y-236779D01*
X-53095Y-237179D01*
X-53398Y-237446D01*
X-53702Y-237579D01*
X-54005D01*
X-54308Y-237446D01*
X-54568Y-237246D01*
X-54785Y-236979D01*
G01X-56192Y-237579D02*
Y-233579D01*
G01X-58012D02*
Y-237579D01*
G01Y-235579D02*
X-56192D01*
G01X-63078Y-237579D02*
Y-233579D01*
X-64725D01*
G01X-64118Y-235512D02*
X-63078D01*
G01X-66782Y-233579D02*
X-67822D01*
G01X-67302D02*
Y-237579D01*
G01X-66782D02*
X-67822D01*
G01X-69705D02*
Y-233579D01*
X-71698Y-237579D01*
Y-233579D01*
G01X-73582D02*
X-74622D01*
G01X-74102D02*
Y-237579D01*
G01X-73582D02*
X-74622D01*
G01X-76592Y-237046D02*
X-76938Y-237379D01*
X-77328Y-237579D01*
X-77675D01*
X-78022Y-237379D01*
X-78282Y-237046D01*
X-78412Y-236579D01*
X-78325Y-236112D01*
X-78108Y-235712D01*
X-77718Y-235446D01*
X-77198Y-235312D01*
X-76895Y-235046D01*
X-76765Y-234579D01*
X-76852Y-234112D01*
X-77068Y-233779D01*
X-77372Y-233579D01*
X-77675D01*
X-77978Y-233712D01*
X-78238Y-234046D01*
G01X-79992Y-237579D02*
Y-233579D01*
G01X-81812D02*
Y-237579D01*
G01Y-235579D02*
X-79992D01*
G01X461098Y-249579D02*
Y-174579D01*
X-83902D01*
Y-249579D01*
X461098D01*
G01X-66402Y-238579D02*
X-64102Y-243079D01*
X-62602Y-240879D01*
G01X-10192Y-194046D02*
X-10538Y-194379D01*
X-10928Y-194579D01*
X-11275D01*
X-11622Y-194379D01*
X-11882Y-194046D01*
X-12012Y-193579D01*
X-11925Y-193112D01*
X-11708Y-192712D01*
X-11318Y-192446D01*
X-10798Y-192312D01*
X-10495Y-192046D01*
X-10365Y-191579D01*
X-10452Y-191112D01*
X-10668Y-190779D01*
X-10972Y-190579D01*
X-11275D01*
X-11578Y-190712D01*
X-11838Y-191046D01*
G01X-13635Y-194579D02*
Y-190579D01*
X-14675D01*
X-15022Y-190779D01*
X-15282Y-191246D01*
X-15368Y-191779D01*
X-15282Y-192312D01*
X-15065Y-192712D01*
X-14675Y-192912D01*
X-13635D01*
G01X-18768Y-194579D02*
X-17035D01*
Y-190579D01*
X-18768D01*
G01X-18075Y-192512D02*
X-17035D01*
G01X-22255Y-190912D02*
X-21995Y-190712D01*
X-21692Y-190579D01*
X-21345D01*
X-20955Y-190779D01*
X-20652Y-191112D01*
X-20435Y-191512D01*
X-20262Y-192179D01*
X-20218Y-192779D01*
X-20305Y-193379D01*
X-20435Y-193779D01*
X-20695Y-194179D01*
X-20998Y-194446D01*
X-21302Y-194579D01*
X-21605D01*
X-21908Y-194446D01*
X-22168Y-194246D01*
X-22385Y-193979D01*
G01X-24182Y-190579D02*
X-25222D01*
G01X-24702D02*
Y-194579D01*
G01X-24182D02*
X-25222D01*
G01X-27278D02*
Y-190579D01*
X-28925D01*
G01X-28318Y-192512D02*
X-27278D01*
G01X-30982Y-190579D02*
X-32021D01*
G01X-31502D02*
Y-194579D01*
G01X-30982D02*
X-32021D01*
G01X-35768D02*
X-34035D01*
Y-190579D01*
X-35768D01*
G01X-35075Y-192512D02*
X-34035D01*
G01X-37348Y-194579D02*
Y-190579D01*
X-38215D01*
X-38562Y-190779D01*
X-38822Y-191046D01*
X-39038Y-191446D01*
X-39212Y-191912D01*
X-39255Y-192579D01*
X-39212Y-193246D01*
X-39038Y-193712D01*
X-38822Y-194112D01*
X-38562Y-194379D01*
X-38215Y-194579D01*
X-37348D01*
G01X-44148D02*
Y-190579D01*
X-45015D01*
X-45362Y-190779D01*
X-45622Y-191046D01*
X-45838Y-191446D01*
X-46012Y-191912D01*
X-46055Y-192579D01*
X-46012Y-193246D01*
X-45838Y-193712D01*
X-45622Y-194112D01*
X-45362Y-194379D01*
X-45015Y-194579D01*
X-44148D01*
G01X-47982Y-190579D02*
X-49022D01*
G01X-48502D02*
Y-194579D01*
G01X-47982D02*
X-49022D01*
G01X-50775D02*
Y-190579D01*
X-51902Y-193912D01*
X-53028Y-190579D01*
Y-194579D01*
G01X-56168D02*
X-54435D01*
Y-190579D01*
X-56168D01*
G01X-55475Y-192512D02*
X-54435D01*
G01X-57705Y-194579D02*
Y-190579D01*
X-59698Y-194579D01*
Y-190579D01*
G01X-61192Y-194046D02*
X-61538Y-194379D01*
X-61928Y-194579D01*
X-62275D01*
X-62622Y-194379D01*
X-62882Y-194046D01*
X-63012Y-193579D01*
X-62925Y-193112D01*
X-62708Y-192712D01*
X-62318Y-192446D01*
X-61798Y-192312D01*
X-61495Y-192046D01*
X-61365Y-191579D01*
X-61452Y-191112D01*
X-61668Y-190779D01*
X-61972Y-190579D01*
X-62275D01*
X-62578Y-190712D01*
X-62838Y-191046D01*
G01X-64982Y-190579D02*
X-66022D01*
G01X-65502D02*
Y-194579D01*
G01X-64982D02*
X-66022D01*
G01X-68902D02*
X-68555Y-194512D01*
X-68252Y-194246D01*
X-67992Y-193846D01*
X-67818Y-193379D01*
X-67732Y-192846D01*
Y-192312D01*
X-67818Y-191779D01*
X-67992Y-191312D01*
X-68252Y-190912D01*
X-68555Y-190646D01*
X-68902Y-190579D01*
X-69248Y-190646D01*
X-69552Y-190912D01*
X-69812Y-191312D01*
X-69985Y-191779D01*
X-70072Y-192312D01*
Y-192846D01*
X-69985Y-193379D01*
X-69812Y-193846D01*
X-69552Y-194246D01*
X-69248Y-194512D01*
X-68902Y-194579D01*
G01X-71305D02*
Y-190579D01*
X-73298Y-194579D01*
Y-190579D01*
G01X-74792Y-194046D02*
X-75138Y-194379D01*
X-75528Y-194579D01*
X-75875D01*
X-76222Y-194379D01*
X-76482Y-194046D01*
X-76612Y-193579D01*
X-76525Y-193112D01*
X-76308Y-192712D01*
X-75918Y-192446D01*
X-75398Y-192312D01*
X-75095Y-192046D01*
X-74965Y-191579D01*
X-75052Y-191112D01*
X-75268Y-190779D01*
X-75572Y-190579D01*
X-75875D01*
X-76178Y-190712D01*
X-76438Y-191046D01*
G01X-64748Y-230779D02*
X-65008Y-231246D01*
X-65355Y-231512D01*
X-65745Y-231579D01*
X-66092Y-231512D01*
X-66438Y-231179D01*
X-66655Y-230779D01*
X-66698Y-230379D01*
X-66612Y-229912D01*
X-66308Y-229579D01*
X-66005Y-229446D01*
X-65615D01*
G01X-66005D02*
X-66265Y-229246D01*
X-66482Y-228912D01*
X-66568Y-228512D01*
X-66482Y-228112D01*
X-66265Y-227779D01*
X-65875Y-227579D01*
X-65485Y-227646D01*
X-65095Y-227912D01*
G01X-69102Y-227579D02*
X-68755Y-227712D01*
X-68495Y-228046D01*
X-68322Y-228446D01*
X-68192Y-228979D01*
X-68148Y-229579D01*
X-68192Y-230179D01*
X-68322Y-230712D01*
X-68495Y-231112D01*
X-68755Y-231446D01*
X-69102Y-231579D01*
X-69448Y-231446D01*
X-69708Y-231112D01*
X-69882Y-230712D01*
X-70012Y-230179D01*
X-70055Y-229579D01*
X-70012Y-228979D01*
X-69882Y-228446D01*
X-69708Y-228046D01*
X-69448Y-227712D01*
X-69102Y-227579D01*
G01X-53018Y-225579D02*
X-54102Y-221579D01*
X-55185Y-225579D01*
G01X-54795Y-224179D02*
X-53408D01*
G01X-56505Y-225579D02*
Y-221579D01*
X-58498Y-225579D01*
Y-221579D01*
G01X-61162Y-223579D02*
X-62028D01*
Y-224779D01*
X-61768Y-225179D01*
X-61465Y-225446D01*
X-61032Y-225579D01*
X-60598Y-225446D01*
X-60295Y-225179D01*
X-60035Y-224779D01*
X-59862Y-224312D01*
X-59775Y-223779D01*
Y-223312D01*
X-59862Y-222913D01*
X-60035Y-222446D01*
X-60295Y-222046D01*
X-60555Y-221779D01*
X-60902Y-221579D01*
X-61205D01*
X-61552Y-221712D01*
X-61812Y-221979D01*
G01X-63435Y-221579D02*
Y-225579D01*
X-65168D01*
G01X-68568D02*
X-66835D01*
Y-221579D01*
X-68568D01*
G01X-67875Y-223512D02*
X-66835D01*
G01X-21918Y-202079D02*
X-23002Y-198079D01*
X-24085Y-202079D01*
G01X-23695Y-200679D02*
X-22308D01*
G01X-25535Y-202079D02*
Y-198079D01*
X-26618D01*
X-26965Y-198279D01*
X-27182Y-198546D01*
X-27268Y-199079D01*
X-27182Y-199613D01*
X-26922Y-199946D01*
X-26618Y-200146D01*
X-25535D01*
G01X-26618D02*
X-27268Y-202079D01*
G01X-30668D02*
X-28935D01*
Y-198079D01*
X-30668D01*
G01X-29975Y-200012D02*
X-28935D01*
G01X-36082Y-198079D02*
X-37121D01*
G01X-36602D02*
Y-202079D01*
G01X-36082D02*
X-37121D01*
G01X-39005D02*
Y-198079D01*
X-40998Y-202079D01*
Y-198079D01*
G01X-46282D02*
X-47322D01*
G01X-46802D02*
Y-202079D01*
G01X-46282D02*
X-47322D01*
G01X-49205D02*
Y-198079D01*
X-51198Y-202079D01*
Y-198079D01*
G01X-54555Y-198412D02*
X-54295Y-198212D01*
X-53992Y-198079D01*
X-53645D01*
X-53255Y-198279D01*
X-52952Y-198612D01*
X-52735Y-199012D01*
X-52562Y-199679D01*
X-52518Y-200279D01*
X-52605Y-200879D01*
X-52735Y-201279D01*
X-52995Y-201679D01*
X-53298Y-201946D01*
X-53602Y-202079D01*
X-53905D01*
X-54208Y-201946D01*
X-54468Y-201746D01*
X-54685Y-201479D01*
G01X-56092Y-202079D02*
Y-198079D01*
G01X-57912D02*
Y-202079D01*
G01Y-200079D02*
X-56092D01*
G01X-61268Y-202079D02*
X-59535D01*
Y-198079D01*
X-61268D01*
G01X-60575Y-200012D02*
X-59535D01*
G01X-62892Y-201546D02*
X-63238Y-201879D01*
X-63628Y-202079D01*
X-63975D01*
X-64322Y-201879D01*
X-64582Y-201546D01*
X-64712Y-201079D01*
X-64625Y-200612D01*
X-64408Y-200212D01*
X-64018Y-199946D01*
X-63498Y-199812D01*
X-63195Y-199546D01*
X-63065Y-199079D01*
X-63152Y-198612D01*
X-63368Y-198279D01*
X-63672Y-198079D01*
X-63975D01*
X-64278Y-198212D01*
X-64538Y-198546D01*
G01X-28102Y-213079D02*
Y-217079D01*
G01X-27105Y-213079D02*
X-29098D01*
G01X-31502Y-217079D02*
X-31155Y-217012D01*
X-30852Y-216746D01*
X-30592Y-216346D01*
X-30418Y-215879D01*
X-30332Y-215346D01*
Y-214812D01*
X-30418Y-214279D01*
X-30592Y-213812D01*
X-30852Y-213412D01*
X-31155Y-213146D01*
X-31502Y-213079D01*
X-31848Y-213146D01*
X-32152Y-213412D01*
X-32412Y-213812D01*
X-32585Y-214279D01*
X-32672Y-214812D01*
Y-215346D01*
X-32585Y-215879D01*
X-32412Y-216346D01*
X-32152Y-216746D01*
X-31848Y-217012D01*
X-31502Y-217079D01*
G01X-34035Y-213079D02*
Y-217079D01*
X-35768D01*
G01X-39168D02*
X-37435D01*
Y-213079D01*
X-39168D01*
G01X-38475Y-215012D02*
X-37435D01*
G01X-40835Y-217079D02*
Y-213079D01*
X-41918D01*
X-42265Y-213279D01*
X-42482Y-213546D01*
X-42568Y-214079D01*
X-42482Y-214612D01*
X-42222Y-214946D01*
X-41918Y-215146D01*
X-40835D01*
G01X-41918D02*
X-42568Y-217079D01*
G01X-44018D02*
X-45102Y-213079D01*
X-46185Y-217079D01*
G01X-45795Y-215679D02*
X-44408D01*
G01X-47505Y-217079D02*
Y-213079D01*
X-49498Y-217079D01*
Y-213079D01*
G01X-52855Y-213412D02*
X-52595Y-213212D01*
X-52292Y-213079D01*
X-51945D01*
X-51555Y-213279D01*
X-51252Y-213612D01*
X-51035Y-214012D01*
X-50862Y-214679D01*
X-50818Y-215279D01*
X-50905Y-215879D01*
X-51035Y-216279D01*
X-51295Y-216679D01*
X-51598Y-216946D01*
X-51902Y-217079D01*
X-52205D01*
X-52508Y-216946D01*
X-52768Y-216746D01*
X-52985Y-216479D01*
G01X-56168Y-217079D02*
X-54435D01*
Y-213079D01*
X-56168D01*
G01X-55475Y-215012D02*
X-54435D01*
G01X-57792Y-216546D02*
X-58138Y-216879D01*
X-58528Y-217079D01*
X-58875D01*
X-59222Y-216879D01*
X-59482Y-216546D01*
X-59612Y-216079D01*
X-59525Y-215612D01*
X-59308Y-215212D01*
X-58918Y-214946D01*
X-58398Y-214812D01*
X-58095Y-214546D01*
X-57965Y-214079D01*
X-58052Y-213612D01*
X-58268Y-213279D01*
X-58572Y-213079D01*
X-58875D01*
X-59178Y-213212D01*
X-59438Y-213546D01*
G01X-64902Y-238579D02*
X-67902D01*
G01X-59602Y-228879D02*
X-62602D01*
G01X-59602Y-231079D02*
X-62602D01*
G01X-61102Y-227379D02*
Y-230379D01*
G01X-16948Y-183079D02*
Y-185946D01*
X-17122Y-186546D01*
X-17468Y-186946D01*
X-17902Y-187079D01*
X-18335Y-186946D01*
X-18682Y-186546D01*
X-18855Y-185946D01*
Y-183079D01*
G01X-20305Y-187079D02*
Y-183079D01*
X-22298Y-187079D01*
Y-183079D01*
G01X-23835D02*
Y-187079D01*
X-25568D01*
G01X-28968D02*
X-27235D01*
Y-183079D01*
X-28968D01*
G01X-28275Y-185012D02*
X-27235D01*
G01X-30592Y-186546D02*
X-30938Y-186879D01*
X-31328Y-187079D01*
X-31675D01*
X-32022Y-186879D01*
X-32282Y-186546D01*
X-32412Y-186079D01*
X-32325Y-185612D01*
X-32108Y-185212D01*
X-31718Y-184946D01*
X-31198Y-184812D01*
X-30895Y-184546D01*
X-30765Y-184079D01*
X-30852Y-183612D01*
X-31068Y-183279D01*
X-31372Y-183079D01*
X-31675D01*
X-31978Y-183212D01*
X-32238Y-183546D01*
G01X-33992Y-186546D02*
X-34338Y-186879D01*
X-34728Y-187079D01*
X-35075D01*
X-35422Y-186879D01*
X-35682Y-186546D01*
X-35812Y-186079D01*
X-35725Y-185612D01*
X-35508Y-185212D01*
X-35118Y-184946D01*
X-34598Y-184812D01*
X-34295Y-184546D01*
X-34165Y-184079D01*
X-34252Y-183612D01*
X-34468Y-183279D01*
X-34772Y-183079D01*
X-35075D01*
X-35378Y-183212D01*
X-35638Y-183546D01*
G01X-41702Y-187079D02*
X-41355Y-187012D01*
X-41052Y-186746D01*
X-40792Y-186346D01*
X-40618Y-185879D01*
X-40532Y-185346D01*
Y-184812D01*
X-40618Y-184279D01*
X-40792Y-183812D01*
X-41052Y-183412D01*
X-41355Y-183146D01*
X-41702Y-183079D01*
X-42048Y-183146D01*
X-42352Y-183412D01*
X-42612Y-183812D01*
X-42785Y-184279D01*
X-42872Y-184812D01*
Y-185346D01*
X-42785Y-185879D01*
X-42612Y-186346D01*
X-42352Y-186746D01*
X-42048Y-187012D01*
X-41702Y-187079D01*
G01X-45102Y-183079D02*
Y-187079D01*
G01X-44105Y-183079D02*
X-46098D01*
G01X-47592Y-187079D02*
Y-183079D01*
G01X-49412D02*
Y-187079D01*
G01Y-185079D02*
X-47592D01*
G01X-52768Y-187079D02*
X-51035D01*
Y-183079D01*
X-52768D01*
G01X-52075Y-185012D02*
X-51035D01*
G01X-54435Y-187079D02*
Y-183079D01*
X-55518D01*
X-55865Y-183279D01*
X-56082Y-183546D01*
X-56168Y-184079D01*
X-56082Y-184612D01*
X-55822Y-184946D01*
X-55518Y-185146D01*
X-54435D01*
G01X-55518D02*
X-56168Y-187079D01*
G01X-57402Y-183079D02*
X-58008Y-187079D01*
X-58702Y-183079D01*
X-59395Y-187079D01*
X-60002Y-183079D01*
G01X-61582D02*
X-62622D01*
G01X-62102D02*
Y-187079D01*
G01X-61582D02*
X-62622D01*
G01X-64592Y-186546D02*
X-64938Y-186879D01*
X-65328Y-187079D01*
X-65675D01*
X-66022Y-186879D01*
X-66282Y-186546D01*
X-66412Y-186079D01*
X-66325Y-185612D01*
X-66108Y-185212D01*
X-65718Y-184946D01*
X-65198Y-184812D01*
X-64895Y-184546D01*
X-64765Y-184079D01*
X-64852Y-183612D01*
X-65068Y-183279D01*
X-65372Y-183079D01*
X-65675D01*
X-65978Y-183212D01*
X-66238Y-183546D01*
G01X-69768Y-187079D02*
X-68035D01*
Y-183079D01*
X-69768D01*
G01X-69075Y-185012D02*
X-68035D01*
G01X-28202Y-243212D02*
X-28115Y-243146D01*
Y-243012D01*
X-28202Y-242946D01*
X-28288Y-243012D01*
Y-243146D01*
X-28202Y-243212D01*
G01X-31602Y-239079D02*
X-31255Y-239212D01*
X-30995Y-239546D01*
X-30822Y-239946D01*
X-30692Y-240479D01*
X-30648Y-241079D01*
X-30692Y-241679D01*
X-30822Y-242212D01*
X-30995Y-242612D01*
X-31255Y-242946D01*
X-31602Y-243079D01*
X-31948Y-242946D01*
X-32208Y-242612D01*
X-32382Y-242212D01*
X-32512Y-241679D01*
X-32555Y-241079D01*
X-32512Y-240479D01*
X-32382Y-239946D01*
X-32208Y-239546D01*
X-31948Y-239212D01*
X-31602Y-239079D01*
G01X-35002Y-243079D02*
Y-239079D01*
X-34482Y-239879D01*
G01Y-243079D02*
X-35522D01*
G01X-38402Y-239079D02*
X-38055Y-239212D01*
X-37795Y-239546D01*
X-37622Y-239946D01*
X-37492Y-240479D01*
X-37448Y-241079D01*
X-37492Y-241679D01*
X-37622Y-242212D01*
X-37795Y-242612D01*
X-38055Y-242946D01*
X-38402Y-243079D01*
X-38748Y-242946D01*
X-39008Y-242612D01*
X-39182Y-242212D01*
X-39312Y-241679D01*
X-39355Y-241079D01*
X-39312Y-240479D01*
X-39182Y-239946D01*
X-39008Y-239546D01*
X-38748Y-239212D01*
X-38402Y-239079D01*
G01X-11892Y-243079D02*
X-13712Y-239079D01*
G01X-11892D02*
X-13712Y-243079D01*
G01X-15292D02*
X-17112Y-239079D01*
G01X-15292D02*
X-17112Y-243079D01*
G01X-18692D02*
X-20512Y-239079D01*
G01X-18692D02*
X-20512Y-243079D01*
G01X-20902D02*
X-23902D01*
G01X-24402Y-239379D02*
Y-242379D01*
G01X-22902Y-240879D02*
X-25902D01*
G01X-8902Y-174579D02*
Y-249579D01*
G01X-28202Y-237212D02*
X-28115Y-237146D01*
Y-237012D01*
X-28202Y-236946D01*
X-28288Y-237012D01*
Y-237146D01*
X-28202Y-237212D01*
G01X-31602Y-233079D02*
X-31255Y-233212D01*
X-30995Y-233546D01*
X-30822Y-233946D01*
X-30692Y-234479D01*
X-30648Y-235079D01*
X-30692Y-235679D01*
X-30822Y-236213D01*
X-30995Y-236613D01*
X-31255Y-236946D01*
X-31602Y-237079D01*
X-31948Y-236946D01*
X-32208Y-236613D01*
X-32382Y-236213D01*
X-32512Y-235679D01*
X-32555Y-235079D01*
X-32512Y-234479D01*
X-32382Y-233946D01*
X-32208Y-233546D01*
X-31948Y-233212D01*
X-31602Y-233079D01*
G01X-34048Y-236279D02*
X-34308Y-236746D01*
X-34655Y-237012D01*
X-35045Y-237079D01*
X-35392Y-237012D01*
X-35738Y-236679D01*
X-35955Y-236279D01*
X-35998Y-235879D01*
X-35912Y-235413D01*
X-35608Y-235079D01*
X-35305Y-234946D01*
X-34915D01*
G01X-35305D02*
X-35565Y-234746D01*
X-35782Y-234412D01*
X-35868Y-234012D01*
X-35782Y-233612D01*
X-35565Y-233279D01*
X-35175Y-233079D01*
X-34785Y-233146D01*
X-34395Y-233413D01*
G01X-28202Y-231212D02*
X-28115Y-231146D01*
Y-231012D01*
X-28202Y-230946D01*
X-28288Y-231012D01*
Y-231146D01*
X-28202Y-231212D01*
G01X-31602Y-231079D02*
Y-227079D01*
X-31082Y-227879D01*
G01Y-231079D02*
X-32121D01*
G01X-13248Y-225579D02*
Y-221579D01*
X-14115D01*
X-14462Y-221779D01*
X-14722Y-222046D01*
X-14938Y-222446D01*
X-15112Y-222913D01*
X-15155Y-223579D01*
X-15112Y-224246D01*
X-14938Y-224712D01*
X-14722Y-225112D01*
X-14462Y-225379D01*
X-14115Y-225579D01*
X-13248D01*
G01X-18468D02*
X-16735D01*
Y-221579D01*
X-18468D01*
G01X-17775Y-223512D02*
X-16735D01*
G01X-21955Y-221912D02*
X-21695Y-221712D01*
X-21392Y-221579D01*
X-21045D01*
X-20655Y-221779D01*
X-20352Y-222112D01*
X-20135Y-222513D01*
X-19962Y-223179D01*
X-19918Y-223779D01*
X-20005Y-224379D01*
X-20135Y-224779D01*
X-20395Y-225179D01*
X-20698Y-225446D01*
X-21002Y-225579D01*
X-21305D01*
X-21608Y-225446D01*
X-21868Y-225246D01*
X-22085Y-224979D01*
G01X-23882Y-221579D02*
X-24922D01*
G01X-24402D02*
Y-225579D01*
G01X-23882D02*
X-24922D01*
G01X-26675D02*
Y-221579D01*
X-27802Y-224913D01*
X-28928Y-221579D01*
Y-225579D01*
G01X-30118D02*
X-31202Y-221579D01*
X-32285Y-225579D01*
G01X-31895Y-224179D02*
X-30508D01*
G01X-33735Y-221579D02*
Y-225579D01*
X-35468D01*
G01X-15292Y-237079D02*
X-17112Y-233079D01*
G01X-15292D02*
X-17112Y-237079D01*
G01X-18692D02*
X-20512Y-233079D01*
G01X-18692D02*
X-20512Y-237079D01*
G01X-18692Y-231079D02*
X-20512Y-227079D01*
G01X-18692D02*
X-20512Y-231079D01*
G01X-22902Y-228879D02*
X-25902D01*
G01X-22902Y-231079D02*
X-25902D01*
G01X-24402Y-227379D02*
Y-230379D01*
G01X-22902Y-237079D02*
X-25902D01*
G01X-24402Y-233379D02*
Y-236379D01*
G01X-22902Y-234879D02*
X-25902D01*
G01X-8902Y-227079D02*
X193598D01*
G01X-8902Y-204579D02*
X193598D01*
G01X-28000Y-38000D02*
X390331D01*
G01X-28000Y274220D02*
Y-38000D01*
G01X-8000Y244220D02*
Y-8000D01*
G01X370331D02*
X-8000D01*
G01X0Y47100D02*
Y53100D01*
G03X-4000Y57100I-4000J0D01*
G03X-8000Y53100I0J-4000D01*
G01Y47100D01*
G01Y79900D02*
Y73900D01*
G03X-4000Y69900I4000J0D01*
G03X0Y73900I0J4000D01*
G01Y79900D01*
G01Y163600D02*
Y169600D01*
G03X-4000Y173600I-4000J0D01*
G03X-8000Y169600I0J-4000D01*
G01Y163600D01*
G01Y196400D02*
Y190400D01*
G03X-4000Y186400I4000J0D01*
G03X0Y190400I0J4000D01*
G01Y196400D01*
G01X390331Y274220D02*
X-28000D01*
G01X-8000Y244220D02*
X204850D01*
G01X26098Y-227079D02*
Y-249579D01*
G01X20232Y-234579D02*
Y-228579D01*
X18565D01*
X18032Y-228879D01*
X17698Y-229279D01*
X17565Y-230079D01*
X17698Y-230879D01*
X18098Y-231379D01*
X18565Y-231679D01*
X20232D01*
G01X18565D02*
X17565Y-234579D01*
G01X12365D02*
X15032D01*
Y-228579D01*
X12365D01*
G01X13432Y-231479D02*
X15032D01*
G01X10165Y-228579D02*
X8498Y-234579D01*
X6832Y-228579D01*
G01X3298Y-234779D02*
X3432Y-234679D01*
Y-234479D01*
X3298Y-234379D01*
X3165Y-234479D01*
Y-234679D01*
X3298Y-234779D01*
G01X0Y236220D02*
Y0D01*
X196850D01*
Y236220D01*
X0D01*
G01X33600Y-8000D02*
X39600D01*
G03X43600Y-4000I0J4000D01*
G03X39600Y0I-4000J0D01*
G01X33600D01*
G01Y236220D02*
X39600D01*
G03X43600Y240220I0J4000D01*
G03X39600Y244220I-4000J0D01*
G01X33600D01*
G01X143618Y-223913D02*
X143192Y-224329D01*
X142712Y-224579D01*
X142285D01*
X141858Y-224329D01*
X141538Y-223913D01*
X141378Y-223329D01*
X141485Y-222746D01*
X141752Y-222246D01*
X142232Y-221912D01*
X142872Y-221746D01*
X143245Y-221412D01*
X143405Y-220829D01*
X143298Y-220246D01*
X143032Y-219829D01*
X142658Y-219579D01*
X142285D01*
X141912Y-219746D01*
X141592Y-220162D01*
G01X137232Y-224579D02*
X139365D01*
Y-219579D01*
X137232D01*
G01X138085Y-221996D02*
X139365D01*
G01X135325Y-224579D02*
Y-219579D01*
X132872Y-224579D01*
Y-219579D01*
G01X131018Y-223913D02*
X130592Y-224329D01*
X130112Y-224579D01*
X129685D01*
X129258Y-224329D01*
X128938Y-223913D01*
X128778Y-223329D01*
X128885Y-222746D01*
X129152Y-222246D01*
X129632Y-221912D01*
X130272Y-221746D01*
X130645Y-221412D01*
X130805Y-220829D01*
X130698Y-220246D01*
X130432Y-219829D01*
X130058Y-219579D01*
X129685D01*
X129312Y-219746D01*
X128992Y-220162D01*
G01X125698Y-224579D02*
X126125Y-224496D01*
X126498Y-224162D01*
X126818Y-223662D01*
X127032Y-223079D01*
X127138Y-222412D01*
Y-221746D01*
X127032Y-221079D01*
X126818Y-220496D01*
X126498Y-219996D01*
X126125Y-219662D01*
X125698Y-219579D01*
X125272Y-219662D01*
X124898Y-219996D01*
X124578Y-220496D01*
X124365Y-221079D01*
X124258Y-221746D01*
Y-222412D01*
X124365Y-223079D01*
X124578Y-223662D01*
X124898Y-224162D01*
X125272Y-224496D01*
X125698Y-224579D01*
G01X122565D02*
Y-219579D01*
X121232D01*
X120805Y-219829D01*
X120538Y-220162D01*
X120432Y-220829D01*
X120538Y-221496D01*
X120858Y-221912D01*
X121232Y-222162D01*
X122565D01*
G01X121232D02*
X120432Y-224579D01*
G01X118418Y-223913D02*
X117992Y-224329D01*
X117512Y-224579D01*
X117085D01*
X116658Y-224329D01*
X116338Y-223913D01*
X116178Y-223329D01*
X116285Y-222746D01*
X116552Y-222246D01*
X117032Y-221912D01*
X117672Y-221746D01*
X118045Y-221412D01*
X118205Y-220829D01*
X118098Y-220246D01*
X117832Y-219829D01*
X117458Y-219579D01*
X117085D01*
X116712Y-219746D01*
X116392Y-220162D01*
G01X114698Y-226246D02*
X111498D01*
G01X107832Y-224579D02*
X109965D01*
Y-219579D01*
X107832D01*
G01X108685Y-221996D02*
X109965D01*
G01X105818Y-224579D02*
X103578Y-219579D01*
G01X105818D02*
X103578Y-224579D01*
G01X101565D02*
Y-219579D01*
X100285D01*
X99858Y-219829D01*
X99538Y-220412D01*
X99432Y-221079D01*
X99538Y-221746D01*
X99805Y-222246D01*
X100285Y-222496D01*
X101565D01*
G01X96298Y-224579D02*
X96725Y-224496D01*
X97098Y-224162D01*
X97418Y-223662D01*
X97632Y-223079D01*
X97738Y-222412D01*
Y-221746D01*
X97632Y-221079D01*
X97418Y-220496D01*
X97098Y-219996D01*
X96725Y-219662D01*
X96298Y-219579D01*
X95872Y-219662D01*
X95498Y-219996D01*
X95178Y-220496D01*
X94965Y-221079D01*
X94858Y-221746D01*
Y-222412D01*
X94965Y-223079D01*
X95178Y-223662D01*
X95498Y-224162D01*
X95872Y-224496D01*
X96298Y-224579D01*
G01X93698Y-226246D02*
X90498D01*
G01X89072Y-224579D02*
Y-219579D01*
X88005D01*
X87578Y-219829D01*
X87258Y-220162D01*
X86992Y-220662D01*
X86778Y-221246D01*
X86725Y-222079D01*
X86778Y-222913D01*
X86992Y-223496D01*
X87258Y-223996D01*
X87578Y-224329D01*
X88005Y-224579D01*
X89072D01*
G01X82632D02*
X84765D01*
Y-219579D01*
X82632D01*
G01X83485Y-221996D02*
X84765D01*
G01X80885Y-224579D02*
Y-219579D01*
X79498Y-223746D01*
X78112Y-219579D01*
Y-224579D01*
G01X75298D02*
X75725Y-224496D01*
X76098Y-224162D01*
X76418Y-223662D01*
X76632Y-223079D01*
X76738Y-222412D01*
Y-221746D01*
X76632Y-221079D01*
X76418Y-220496D01*
X76098Y-219996D01*
X75725Y-219662D01*
X75298Y-219579D01*
X74872Y-219662D01*
X74498Y-219996D01*
X74178Y-220496D01*
X73965Y-221079D01*
X73858Y-221746D01*
Y-222412D01*
X73965Y-223079D01*
X74178Y-223662D01*
X74498Y-224162D01*
X74872Y-224496D01*
X75298Y-224579D01*
G01X72698Y-226246D02*
X69498D01*
G01X67965Y-219579D02*
Y-224579D01*
X65832D01*
G01X61632D02*
X63765D01*
Y-219579D01*
X61632D01*
G01X62485Y-221996D02*
X63765D01*
G01X59672Y-224579D02*
Y-219579D01*
X58605D01*
X58178Y-219829D01*
X57858Y-220162D01*
X57592Y-220662D01*
X57378Y-221246D01*
X57325Y-222079D01*
X57378Y-222913D01*
X57592Y-223496D01*
X57858Y-223996D01*
X58178Y-224329D01*
X58605Y-224579D01*
X59672D01*
G01X55898Y-226246D02*
X52698D01*
G01X51485Y-224579D02*
Y-219579D01*
X50098Y-223746D01*
X48712Y-219579D01*
Y-224579D01*
G01X44725Y-219996D02*
X45045Y-219746D01*
X45418Y-219579D01*
X45845D01*
X46325Y-219829D01*
X46698Y-220246D01*
X46965Y-220746D01*
X47178Y-221579D01*
X47232Y-222329D01*
X47125Y-223079D01*
X46965Y-223579D01*
X46645Y-224079D01*
X46272Y-224412D01*
X45898Y-224579D01*
X45525D01*
X45152Y-224412D01*
X44832Y-224162D01*
X44565Y-223829D01*
G01X42872Y-219579D02*
Y-223162D01*
X42658Y-223913D01*
X42232Y-224412D01*
X41698Y-224579D01*
X41165Y-224412D01*
X40738Y-223913D01*
X40525Y-223162D01*
Y-219579D01*
G01X66400Y0D02*
X60400D01*
G03X56400Y-4000I0J-4000D01*
G03X60400Y-8000I4000J0D01*
G01X66400D01*
G01Y244220D02*
X60400D01*
G03X56400Y240220I0J-4000D01*
G03X60400Y236220I4000J0D01*
G01X66400D01*
G01X190432Y-234579D02*
Y-228579D01*
X188832D01*
X188298Y-228879D01*
X187898Y-229579D01*
X187765Y-230379D01*
X187898Y-231179D01*
X188232Y-231779D01*
X188832Y-232079D01*
X190432D01*
G01X185232Y-234579D02*
Y-228579D01*
X183565D01*
X183032Y-228879D01*
X182698Y-229279D01*
X182565Y-230079D01*
X182698Y-230879D01*
X183098Y-231379D01*
X183565Y-231679D01*
X185232D01*
G01X183565D02*
X182565Y-234579D01*
G01X178698D02*
X179232Y-234479D01*
X179698Y-234079D01*
X180098Y-233479D01*
X180365Y-232779D01*
X180498Y-231979D01*
Y-231179D01*
X180365Y-230379D01*
X180098Y-229679D01*
X179698Y-229079D01*
X179232Y-228679D01*
X178698Y-228579D01*
X178165Y-228679D01*
X177698Y-229079D01*
X177298Y-229679D01*
X177032Y-230379D01*
X176898Y-231179D01*
Y-231979D01*
X177032Y-232779D01*
X177298Y-233479D01*
X177698Y-234079D01*
X178165Y-234479D01*
X178698Y-234579D01*
G01X174832Y-233379D02*
X174498Y-233979D01*
X174098Y-234379D01*
X173632Y-234579D01*
X173098Y-234379D01*
X172698Y-233979D01*
X172298Y-233379D01*
X172165Y-232579D01*
Y-228579D01*
G01X166965Y-234579D02*
X169632D01*
Y-228579D01*
X166965D01*
G01X168032Y-231479D02*
X169632D01*
G01X161632Y-229079D02*
X162032Y-228779D01*
X162498Y-228579D01*
X163032D01*
X163632Y-228879D01*
X164098Y-229379D01*
X164432Y-229979D01*
X164698Y-230979D01*
X164765Y-231879D01*
X164632Y-232779D01*
X164432Y-233379D01*
X164032Y-233979D01*
X163565Y-234379D01*
X163098Y-234579D01*
X162632D01*
X162165Y-234379D01*
X161765Y-234079D01*
X161432Y-233679D01*
G01X157898Y-228579D02*
Y-234579D01*
G01X159432Y-228579D02*
X156365D01*
G01X149032Y-234579D02*
Y-228579D01*
X145965Y-234579D01*
Y-228579D01*
G01X143765D02*
Y-232879D01*
X143498Y-233779D01*
X142965Y-234379D01*
X142298Y-234579D01*
X141632Y-234379D01*
X141098Y-233779D01*
X140832Y-232879D01*
Y-228579D01*
G01X138832Y-234579D02*
Y-228579D01*
X137098Y-233579D01*
X135365Y-228579D01*
Y-234579D01*
G01X131365Y-231379D02*
X131098Y-231079D01*
X130898Y-230579D01*
X130765Y-229879D01*
X130898Y-229279D01*
X131165Y-228879D01*
X131632Y-228579D01*
X133432D01*
Y-234579D01*
X131232D01*
X130765Y-234179D01*
X130498Y-233579D01*
X130365Y-232879D01*
X130498Y-232179D01*
X130898Y-231579D01*
X131365Y-231379D01*
X133432D01*
G01X125365Y-234579D02*
X128032D01*
Y-228579D01*
X125365D01*
G01X126432Y-231479D02*
X128032D01*
G01X122832Y-234579D02*
Y-228579D01*
X121165D01*
X120632Y-228879D01*
X120298Y-229279D01*
X120165Y-230079D01*
X120298Y-230879D01*
X120698Y-231379D01*
X121165Y-231679D01*
X122832D01*
G01X121165D02*
X120165Y-234579D01*
G01X116298Y-234779D02*
X116432Y-234679D01*
Y-234479D01*
X116298Y-234379D01*
X116165Y-234479D01*
Y-234679D01*
X116298Y-234779D01*
G01Y-232079D02*
X116432Y-231979D01*
Y-231779D01*
X116298Y-231679D01*
X116165Y-231779D01*
Y-231979D01*
X116298Y-232079D01*
G01X190432Y-212079D02*
Y-206079D01*
X188832D01*
X188298Y-206379D01*
X187898Y-207079D01*
X187765Y-207879D01*
X187898Y-208679D01*
X188232Y-209279D01*
X188832Y-209579D01*
X190432D01*
G01X185232Y-212079D02*
Y-206079D01*
X183565D01*
X183032Y-206379D01*
X182698Y-206779D01*
X182565Y-207579D01*
X182698Y-208379D01*
X183098Y-208879D01*
X183565Y-209179D01*
X185232D01*
G01X183565D02*
X182565Y-212079D01*
G01X178698D02*
X179232Y-211979D01*
X179698Y-211579D01*
X180098Y-210979D01*
X180365Y-210279D01*
X180498Y-209479D01*
Y-208679D01*
X180365Y-207879D01*
X180098Y-207179D01*
X179698Y-206579D01*
X179232Y-206179D01*
X178698Y-206079D01*
X178165Y-206179D01*
X177698Y-206579D01*
X177298Y-207179D01*
X177032Y-207879D01*
X176898Y-208679D01*
Y-209479D01*
X177032Y-210279D01*
X177298Y-210979D01*
X177698Y-211579D01*
X178165Y-211979D01*
X178698Y-212079D01*
G01X174832Y-210879D02*
X174498Y-211479D01*
X174098Y-211879D01*
X173632Y-212079D01*
X173098Y-211879D01*
X172698Y-211479D01*
X172298Y-210879D01*
X172165Y-210079D01*
Y-206079D01*
G01X166965Y-212079D02*
X169632D01*
Y-206079D01*
X166965D01*
G01X168032Y-208979D02*
X169632D01*
G01X161632Y-206579D02*
X162032Y-206279D01*
X162498Y-206079D01*
X163032D01*
X163632Y-206379D01*
X164098Y-206879D01*
X164432Y-207479D01*
X164698Y-208479D01*
X164765Y-209379D01*
X164632Y-210279D01*
X164432Y-210879D01*
X164032Y-211479D01*
X163565Y-211879D01*
X163098Y-212079D01*
X162632D01*
X162165Y-211879D01*
X161765Y-211579D01*
X161432Y-211179D01*
G01X157898Y-206079D02*
Y-212079D01*
G01X159432Y-206079D02*
X156365D01*
G01X149032Y-212079D02*
Y-206079D01*
X145965Y-212079D01*
Y-206079D01*
G01X143965Y-212079D02*
X142298Y-206079D01*
X140632Y-212079D01*
G01X141232Y-209979D02*
X143365D01*
G01X138832Y-212079D02*
Y-206079D01*
X137098Y-211079D01*
X135365Y-206079D01*
Y-212079D01*
G01X130565D02*
X133232D01*
Y-206079D01*
X130565D01*
G01X131632Y-208979D02*
X133232D01*
G01X126698Y-212279D02*
X126832Y-212179D01*
Y-211979D01*
X126698Y-211879D01*
X126565Y-211979D01*
Y-212179D01*
X126698Y-212279D01*
G01Y-209579D02*
X126832Y-209479D01*
Y-209279D01*
X126698Y-209179D01*
X126565Y-209279D01*
Y-209479D01*
X126698Y-209579D01*
G01X187632Y-176579D02*
X188032Y-176279D01*
X188498Y-176079D01*
X189032D01*
X189632Y-176379D01*
X190098Y-176879D01*
X190432Y-177479D01*
X190698Y-178479D01*
X190765Y-179379D01*
X190632Y-180279D01*
X190432Y-180879D01*
X190032Y-181479D01*
X189565Y-181879D01*
X189098Y-182079D01*
X188632D01*
X188165Y-181879D01*
X187765Y-181579D01*
X187432Y-181179D01*
G01X183898Y-182079D02*
X184432Y-181979D01*
X184898Y-181579D01*
X185298Y-180979D01*
X185565Y-180279D01*
X185698Y-179479D01*
Y-178679D01*
X185565Y-177879D01*
X185298Y-177179D01*
X184898Y-176579D01*
X184432Y-176179D01*
X183898Y-176079D01*
X183365Y-176179D01*
X182898Y-176579D01*
X182498Y-177179D01*
X182232Y-177879D01*
X182098Y-178679D01*
Y-179479D01*
X182232Y-180279D01*
X182498Y-180979D01*
X182898Y-181579D01*
X183365Y-181979D01*
X183898Y-182079D01*
G01X180432D02*
Y-176079D01*
X178698Y-181079D01*
X176965Y-176079D01*
Y-182079D01*
G01X174832D02*
Y-176079D01*
X173232D01*
X172698Y-176379D01*
X172298Y-177079D01*
X172165Y-177879D01*
X172298Y-178679D01*
X172632Y-179279D01*
X173232Y-179579D01*
X174832D01*
G01X169965Y-182079D02*
X168298Y-176079D01*
X166632Y-182079D01*
G01X167232Y-179979D02*
X169365D01*
G01X164632Y-182079D02*
Y-176079D01*
X161565Y-182079D01*
Y-176079D01*
G01X157898Y-182079D02*
Y-179379D01*
X159232Y-176079D01*
G01X156565D02*
X157898Y-179379D01*
G01X149032Y-182079D02*
Y-176079D01*
X145965Y-182079D01*
Y-176079D01*
G01X143965Y-182079D02*
X142298Y-176079D01*
X140632Y-182079D01*
G01X141232Y-179979D02*
X143365D01*
G01X138832Y-182079D02*
Y-176079D01*
X137098Y-181079D01*
X135365Y-176079D01*
Y-182079D01*
G01X130565D02*
X133232D01*
Y-176079D01*
X130565D01*
G01X131632Y-178979D02*
X133232D01*
G01X126698Y-182279D02*
X126832Y-182179D01*
Y-181979D01*
X126698Y-181879D01*
X126565Y-181979D01*
Y-182179D01*
X126698Y-182279D01*
G01Y-179579D02*
X126832Y-179479D01*
Y-179279D01*
X126698Y-179179D01*
X126565Y-179279D01*
Y-179479D01*
X126698Y-179579D01*
G01X162900Y0D02*
X156900D01*
G03X152900Y-4000I0J-4000D01*
G03X156900Y-8000I4000J0D01*
G01X162900D01*
G01X130100D02*
X136100D01*
G03X140100Y-4000I0J4000D01*
G03X136100Y0I-4000J0D01*
G01X130100D01*
G01Y236220D02*
X136100D01*
G03X140100Y240220I0J4000D01*
G03X136100Y244220I-4000J0D01*
G01X130100D01*
G01X162900D02*
X156900D01*
G03X152900Y240220I0J-4000D01*
G03X156900Y236220I4000J0D01*
G01X162900D01*
G01X193598Y-174579D02*
Y-249579D01*
G01X272065Y-224579D02*
Y-219579D01*
X270732D01*
X270305Y-219829D01*
X270038Y-220162D01*
X269932Y-220829D01*
X270038Y-221496D01*
X270358Y-221912D01*
X270732Y-222162D01*
X272065D01*
G01X270732D02*
X269932Y-224579D01*
G01X266798D02*
X267225Y-224496D01*
X267598Y-224162D01*
X267918Y-223662D01*
X268132Y-223079D01*
X268238Y-222412D01*
Y-221746D01*
X268132Y-221079D01*
X267918Y-220496D01*
X267598Y-219996D01*
X267225Y-219662D01*
X266798Y-219579D01*
X266372Y-219662D01*
X265998Y-219996D01*
X265678Y-220496D01*
X265465Y-221079D01*
X265358Y-221746D01*
Y-222412D01*
X265465Y-223079D01*
X265678Y-223662D01*
X265998Y-224162D01*
X266372Y-224496D01*
X266798Y-224579D01*
G01X263718D02*
Y-219579D01*
G01X261478D02*
Y-224579D01*
G01Y-222079D02*
X263718D01*
G01X259785Y-224579D02*
Y-219579D01*
X258398Y-223746D01*
X257012Y-219579D01*
Y-224579D01*
G01X251118Y-223913D02*
X250692Y-224329D01*
X250212Y-224579D01*
X249785D01*
X249358Y-224329D01*
X249038Y-223913D01*
X248878Y-223329D01*
X248985Y-222746D01*
X249252Y-222246D01*
X249732Y-221912D01*
X250372Y-221746D01*
X250745Y-221412D01*
X250905Y-220829D01*
X250798Y-220246D01*
X250532Y-219829D01*
X250158Y-219579D01*
X249785D01*
X249412Y-219746D01*
X249092Y-220162D01*
G01X244732Y-224579D02*
X246865D01*
Y-219579D01*
X244732D01*
G01X245585Y-221996D02*
X246865D01*
G01X242985Y-224579D02*
Y-219579D01*
X241598Y-223746D01*
X240212Y-219579D01*
Y-224579D01*
G01X238038Y-219579D02*
X236758D01*
G01X237398D02*
Y-224579D01*
G01X238038D02*
X236758D01*
G01X232025Y-219996D02*
X232345Y-219746D01*
X232718Y-219579D01*
X233145D01*
X233625Y-219829D01*
X233998Y-220246D01*
X234265Y-220746D01*
X234478Y-221579D01*
X234532Y-222329D01*
X234425Y-223079D01*
X234265Y-223579D01*
X233945Y-224079D01*
X233572Y-224412D01*
X233198Y-224579D01*
X232825D01*
X232452Y-224412D01*
X232132Y-224162D01*
X231865Y-223829D01*
G01X228998Y-224579D02*
X229425Y-224496D01*
X229798Y-224162D01*
X230118Y-223662D01*
X230332Y-223079D01*
X230438Y-222412D01*
Y-221746D01*
X230332Y-221079D01*
X230118Y-220496D01*
X229798Y-219996D01*
X229425Y-219662D01*
X228998Y-219579D01*
X228572Y-219662D01*
X228198Y-219996D01*
X227878Y-220496D01*
X227665Y-221079D01*
X227558Y-221746D01*
Y-222412D01*
X227665Y-223079D01*
X227878Y-223662D01*
X228198Y-224162D01*
X228572Y-224496D01*
X228998Y-224579D01*
G01X226025D02*
Y-219579D01*
X223572Y-224579D01*
Y-219579D01*
G01X221772Y-224579D02*
Y-219579D01*
X220705D01*
X220278Y-219829D01*
X219958Y-220162D01*
X219692Y-220662D01*
X219478Y-221246D01*
X219425Y-222079D01*
X219478Y-222913D01*
X219692Y-223496D01*
X219958Y-223996D01*
X220278Y-224329D01*
X220705Y-224579D01*
X221772D01*
G01X217572Y-219579D02*
Y-223162D01*
X217358Y-223913D01*
X216932Y-224412D01*
X216398Y-224579D01*
X215865Y-224412D01*
X215438Y-223913D01*
X215225Y-223162D01*
Y-219579D01*
G01X211025Y-219996D02*
X211345Y-219746D01*
X211718Y-219579D01*
X212145D01*
X212625Y-219829D01*
X212998Y-220246D01*
X213265Y-220746D01*
X213478Y-221579D01*
X213532Y-222329D01*
X213425Y-223079D01*
X213265Y-223579D01*
X212945Y-224079D01*
X212572Y-224412D01*
X212198Y-224579D01*
X211825D01*
X211452Y-224412D01*
X211132Y-224162D01*
X210865Y-223829D01*
G01X207998Y-219579D02*
Y-224579D01*
G01X209225Y-219579D02*
X206772D01*
G01X203798Y-224579D02*
X204225Y-224496D01*
X204598Y-224162D01*
X204918Y-223662D01*
X205132Y-223079D01*
X205238Y-222412D01*
Y-221746D01*
X205132Y-221079D01*
X204918Y-220496D01*
X204598Y-219996D01*
X204225Y-219662D01*
X203798Y-219579D01*
X203372Y-219662D01*
X202998Y-219996D01*
X202678Y-220496D01*
X202465Y-221079D01*
X202358Y-221746D01*
Y-222412D01*
X202465Y-223079D01*
X202678Y-223662D01*
X202998Y-224162D01*
X203372Y-224496D01*
X203798Y-224579D01*
G01X200665D02*
Y-219579D01*
X199332D01*
X198905Y-219829D01*
X198638Y-220162D01*
X198532Y-220829D01*
X198638Y-221496D01*
X198958Y-221912D01*
X199332Y-222162D01*
X200665D01*
G01X199332D02*
X198532Y-224579D01*
G01X296348Y-198579D02*
X295682Y-199204D01*
X294932Y-199579D01*
X294265D01*
X293598Y-199204D01*
X293098Y-198579D01*
X292848Y-197704D01*
X293015Y-196829D01*
X293432Y-196079D01*
X294182Y-195579D01*
X295182Y-195329D01*
X295765Y-194829D01*
X296015Y-193954D01*
X295848Y-193079D01*
X295432Y-192454D01*
X294848Y-192079D01*
X294265D01*
X293682Y-192329D01*
X293182Y-192954D01*
G01X286432Y-199579D02*
X289765D01*
Y-192079D01*
X286432D01*
G01X287765Y-195704D02*
X289765D01*
G01X279765Y-192704D02*
X280265Y-192329D01*
X280848Y-192079D01*
X281515D01*
X282265Y-192454D01*
X282848Y-193079D01*
X283265Y-193829D01*
X283598Y-195079D01*
X283682Y-196204D01*
X283515Y-197329D01*
X283265Y-198079D01*
X282765Y-198829D01*
X282182Y-199329D01*
X281599Y-199579D01*
X281015D01*
X280432Y-199329D01*
X279932Y-198954D01*
X279515Y-198454D01*
G01X275098Y-199579D02*
X275765Y-199454D01*
X276348Y-198954D01*
X276848Y-198204D01*
X277182Y-197329D01*
X277348Y-196329D01*
Y-195329D01*
X277182Y-194329D01*
X276848Y-193454D01*
X276348Y-192704D01*
X275765Y-192204D01*
X275098Y-192079D01*
X274432Y-192204D01*
X273848Y-192704D01*
X273348Y-193454D01*
X273015Y-194329D01*
X272848Y-195329D01*
Y-196329D01*
X273015Y-197329D01*
X273348Y-198204D01*
X273848Y-198954D01*
X274432Y-199454D01*
X275098Y-199579D01*
G01X270515D02*
Y-192079D01*
X266682Y-199579D01*
Y-192079D01*
G01X263932Y-199579D02*
Y-192079D01*
X262265D01*
X261598Y-192454D01*
X261098Y-192954D01*
X260682Y-193704D01*
X260348Y-194579D01*
X260265Y-195829D01*
X260348Y-197079D01*
X260682Y-197954D01*
X261098Y-198704D01*
X261598Y-199204D01*
X262265Y-199579D01*
X263932D01*
G01X257682D02*
X255599Y-192079D01*
X253515Y-199579D01*
G01X254265Y-196954D02*
X256932D01*
G01X250765Y-199579D02*
Y-192079D01*
X248682D01*
X248015Y-192454D01*
X247598Y-192954D01*
X247432Y-193954D01*
X247598Y-194954D01*
X248098Y-195579D01*
X248682Y-195954D01*
X250765D01*
G01X248682D02*
X247432Y-199579D01*
G01X242599D02*
Y-196204D01*
X244265Y-192079D01*
G01X240932D02*
X242599Y-196204D01*
G01X237182Y-197079D02*
X235015D01*
G01X231348Y-198579D02*
X230682Y-199204D01*
X229932Y-199579D01*
X229265D01*
X228598Y-199204D01*
X228098Y-198579D01*
X227848Y-197704D01*
X228015Y-196829D01*
X228432Y-196079D01*
X229182Y-195579D01*
X230182Y-195329D01*
X230765Y-194829D01*
X231015Y-193954D01*
X230848Y-193079D01*
X230432Y-192454D01*
X229848Y-192079D01*
X229265D01*
X228682Y-192329D01*
X228182Y-192954D01*
G01X224098Y-192079D02*
X222099D01*
G01X223098D02*
Y-199579D01*
G01X224098D02*
X222099D01*
G01X218432D02*
Y-192079D01*
X216765D01*
X216098Y-192454D01*
X215598Y-192954D01*
X215182Y-193704D01*
X214848Y-194579D01*
X214765Y-195829D01*
X214848Y-197079D01*
X215182Y-197954D01*
X215598Y-198704D01*
X216098Y-199204D01*
X216765Y-199579D01*
X218432D01*
G01X208432D02*
X211765D01*
Y-192079D01*
X208432D01*
G01X209765Y-195704D02*
X211765D01*
G01X193598Y-226579D02*
X311098D01*
G01X193598Y-237579D02*
X311098D01*
G01X193598Y-215579D02*
X311098D01*
G01X193598Y-204579D02*
X311098D01*
G01X204850Y0D02*
X362331D01*
Y118110D01*
X204850D01*
Y0D01*
G01Y47100D02*
Y53100D01*
G03X200850Y57100I-4000J0D01*
G03X196850Y53100I0J-4000D01*
G01Y47100D01*
G01Y79900D02*
Y73900D01*
G03X200850Y69900I4000J0D01*
G03X204850Y73900I0J4000D01*
G01Y79900D01*
G01Y224535D02*
Y126110D01*
G01D02*
X354457D01*
G01X204850Y141200D02*
Y147200D01*
G03X200850Y151200I-4000J0D01*
G03X196850Y147200I0J-4000D01*
G01Y141200D01*
G01Y174000D02*
Y168000D01*
G03X200850Y164000I4000J0D01*
G03X204850Y168000I0J4000D01*
G01Y174000D01*
G01Y232535D02*
X362457D01*
G01X204850Y244220D02*
Y232483D01*
G01X354457Y224535D02*
X204850D01*
G01X265565Y-213579D02*
Y-208579D01*
X264285D01*
X263858Y-208829D01*
X263538Y-209412D01*
X263432Y-210079D01*
X263538Y-210746D01*
X263805Y-211246D01*
X264285Y-211496D01*
X265565D01*
G01X260298Y-208579D02*
Y-213579D01*
G01X261525Y-208579D02*
X259072D01*
G01X255032Y-213579D02*
X257165D01*
Y-208579D01*
X255032D01*
G01X255885Y-210996D02*
X257165D01*
G01X250725Y-208996D02*
X251045Y-208746D01*
X251418Y-208579D01*
X251845D01*
X252325Y-208829D01*
X252698Y-209246D01*
X252965Y-209746D01*
X253178Y-210579D01*
X253232Y-211329D01*
X253125Y-212079D01*
X252965Y-212579D01*
X252645Y-213079D01*
X252272Y-213412D01*
X251898Y-213579D01*
X251525D01*
X251152Y-213412D01*
X250832Y-213162D01*
X250565Y-212829D01*
G01X278512Y-231412D02*
X278192Y-230912D01*
X277818Y-230662D01*
X277392Y-230579D01*
X276858Y-230746D01*
X276485Y-231163D01*
X276378Y-231662D01*
X276432Y-232163D01*
X276645Y-232579D01*
X277712Y-233412D01*
X278192Y-233996D01*
X278512Y-234829D01*
X278618Y-235579D01*
X276378D01*
G01X273298Y-230579D02*
X273725Y-230746D01*
X274045Y-231163D01*
X274258Y-231662D01*
X274418Y-232329D01*
X274472Y-233079D01*
X274418Y-233829D01*
X274258Y-234496D01*
X274045Y-234996D01*
X273725Y-235413D01*
X273298Y-235579D01*
X272872Y-235413D01*
X272552Y-234996D01*
X272338Y-234496D01*
X272178Y-233829D01*
X272125Y-233079D01*
X272178Y-232329D01*
X272338Y-231662D01*
X272552Y-231163D01*
X272872Y-230746D01*
X273298Y-230579D01*
G01X269098Y-235579D02*
Y-230579D01*
X269738Y-231579D01*
G01Y-235579D02*
X268458D01*
G01X265912Y-233496D02*
X265538Y-232912D01*
X265218Y-232579D01*
X264792Y-232412D01*
X264418Y-232579D01*
X264152Y-232912D01*
X263938Y-233412D01*
X263885Y-233996D01*
X263938Y-234496D01*
X264152Y-234996D01*
X264472Y-235413D01*
X264845Y-235579D01*
X265272Y-235413D01*
X265645Y-234913D01*
X265858Y-234162D01*
X265912Y-233329D01*
X265805Y-232246D01*
X265645Y-231662D01*
X265378Y-231079D01*
X265005Y-230662D01*
X264632Y-230579D01*
X264258Y-230746D01*
X263992Y-231163D01*
G01X261392Y-233912D02*
X260005D01*
G01X256498Y-230579D02*
X256925Y-230746D01*
X257245Y-231163D01*
X257458Y-231662D01*
X257618Y-232329D01*
X257672Y-233079D01*
X257618Y-233829D01*
X257458Y-234496D01*
X257245Y-234996D01*
X256925Y-235413D01*
X256498Y-235579D01*
X256072Y-235413D01*
X255752Y-234996D01*
X255538Y-234496D01*
X255378Y-233829D01*
X255325Y-233079D01*
X255378Y-232329D01*
X255538Y-231662D01*
X255752Y-231163D01*
X256072Y-230746D01*
X256498Y-230579D01*
G01X253472Y-234829D02*
X253152Y-235246D01*
X252778Y-235496D01*
X252298Y-235579D01*
X251818Y-235413D01*
X251445Y-235079D01*
X251178Y-234496D01*
X251125Y-233829D01*
X251232Y-233162D01*
X251498Y-232746D01*
X251872Y-232412D01*
X252245Y-232329D01*
X252618Y-232412D01*
X253098Y-232746D01*
X252938Y-230579D01*
X251498D01*
G01X248792Y-233912D02*
X247405D01*
G01X243898Y-235579D02*
Y-230579D01*
X244538Y-231579D01*
G01Y-235579D02*
X243258D01*
G01X240712Y-231412D02*
X240392Y-230912D01*
X240018Y-230662D01*
X239592Y-230579D01*
X239058Y-230746D01*
X238685Y-231163D01*
X238578Y-231662D01*
X238632Y-232163D01*
X238845Y-232579D01*
X239912Y-233412D01*
X240392Y-233996D01*
X240712Y-234829D01*
X240818Y-235579D01*
X238578D01*
G01X258598Y-179079D02*
X259265Y-179329D01*
X259765Y-179954D01*
X260098Y-180704D01*
X260348Y-181704D01*
X260432Y-182829D01*
X260348Y-183954D01*
X260098Y-184954D01*
X259765Y-185704D01*
X259265Y-186329D01*
X258598Y-186579D01*
X257932Y-186329D01*
X257432Y-185704D01*
X257098Y-184954D01*
X256848Y-183954D01*
X256765Y-182829D01*
X256848Y-181704D01*
X257098Y-180704D01*
X257432Y-179954D01*
X257932Y-179329D01*
X258598Y-179079D01*
G01X253682Y-180329D02*
X253182Y-179579D01*
X252598Y-179204D01*
X251932Y-179079D01*
X251098Y-179329D01*
X250515Y-179954D01*
X250348Y-180704D01*
X250432Y-181454D01*
X250765Y-182079D01*
X252432Y-183329D01*
X253182Y-184204D01*
X253682Y-185454D01*
X253848Y-186579D01*
X250348D01*
G01X260400Y0D02*
X254400D01*
G03X250400Y-4000I0J-4000D01*
G03X254400Y-8000I4000J0D01*
G01X260400D01*
G01X227600D02*
X233600D01*
G03X237600Y-4000I0J4000D01*
G03X233600Y0I-4000J0D01*
G01X227600D01*
G01Y118110D02*
X233600D01*
G03X237600Y122110I0J4000D01*
G03X233600Y126110I-4000J0D01*
G01X227600D01*
G01X260400D02*
X254400D01*
G03X250400Y122110I0J-4000D01*
G03X254400Y118110I4000J0D01*
G01X260400D01*
G01Y232535D02*
X254400D01*
G03X250400Y228535I0J-4000D01*
G03X254400Y224535I4000J0D01*
G01X260400D01*
G01X227600D02*
X233600D01*
G03X237600Y228535I0J4000D01*
G03X233600Y232535I-4000J0D01*
G01X227600D01*
G01X305565Y-245579D02*
X305298Y-246079D01*
X304978Y-246412D01*
X304605Y-246579D01*
X304178Y-246412D01*
X303858Y-246079D01*
X303538Y-245579D01*
X303432Y-244912D01*
Y-241579D01*
G01X300298Y-246579D02*
X300725Y-246496D01*
X301098Y-246163D01*
X301418Y-245662D01*
X301632Y-245079D01*
X301738Y-244412D01*
Y-243746D01*
X301632Y-243079D01*
X301418Y-242496D01*
X301098Y-241996D01*
X300725Y-241662D01*
X300298Y-241579D01*
X299872Y-241662D01*
X299498Y-241996D01*
X299178Y-242496D01*
X298965Y-243079D01*
X298858Y-243746D01*
Y-244412D01*
X298965Y-245079D01*
X299178Y-245662D01*
X299498Y-246163D01*
X299872Y-246496D01*
X300298Y-246579D01*
G01X295672Y-243912D02*
X295458Y-243662D01*
X295298Y-243246D01*
X295192Y-242662D01*
X295298Y-242162D01*
X295512Y-241829D01*
X295885Y-241579D01*
X297325D01*
Y-246579D01*
X295565D01*
X295192Y-246246D01*
X294978Y-245746D01*
X294872Y-245162D01*
X294978Y-244579D01*
X295298Y-244079D01*
X295672Y-243912D01*
X297325D01*
G01X292965Y-248246D02*
X291898Y-241579D01*
G01X290832D02*
X291898Y-248246D01*
G01X293498Y-245746D02*
X290298D01*
G01Y-244079D02*
X293498D01*
G01X287698Y-246746D02*
X287805Y-246662D01*
Y-246496D01*
X287698Y-246412D01*
X287592Y-246496D01*
Y-246662D01*
X287698Y-246746D01*
G01Y-244496D02*
X287805Y-244412D01*
Y-244246D01*
X287698Y-244163D01*
X287592Y-244246D01*
Y-244412D01*
X287698Y-244496D01*
G01X305672Y-213579D02*
Y-208579D01*
X304605D01*
X304178Y-208829D01*
X303858Y-209162D01*
X303592Y-209662D01*
X303378Y-210246D01*
X303325Y-211079D01*
X303378Y-211912D01*
X303592Y-212496D01*
X303858Y-212996D01*
X304178Y-213329D01*
X304605Y-213579D01*
X305672D01*
G01X299232D02*
X301365D01*
Y-208579D01*
X299232D01*
G01X300085Y-210996D02*
X301365D01*
G01X297218Y-212913D02*
X296792Y-213329D01*
X296312Y-213579D01*
X295885D01*
X295458Y-213329D01*
X295138Y-212913D01*
X294978Y-212329D01*
X295085Y-211746D01*
X295352Y-211246D01*
X295832Y-210912D01*
X296472Y-210746D01*
X296845Y-210413D01*
X297005Y-209829D01*
X296898Y-209246D01*
X296632Y-208829D01*
X296258Y-208579D01*
X295885D01*
X295512Y-208746D01*
X295192Y-209162D01*
G01X292538Y-208579D02*
X291258D01*
G01X291898D02*
Y-213579D01*
G01X292538D02*
X291258D01*
G01X287378Y-211079D02*
X286312D01*
Y-212579D01*
X286632Y-213079D01*
X287005Y-213412D01*
X287538Y-213579D01*
X288072Y-213412D01*
X288445Y-213079D01*
X288765Y-212579D01*
X288978Y-211996D01*
X289085Y-211329D01*
Y-210746D01*
X288978Y-210246D01*
X288765Y-209662D01*
X288445Y-209162D01*
X288125Y-208829D01*
X287698Y-208579D01*
X287325D01*
X286898Y-208746D01*
X286578Y-209079D01*
G01X284725Y-213579D02*
Y-208579D01*
X282272Y-213579D01*
Y-208579D01*
G01X278232Y-213579D02*
X280365D01*
Y-208579D01*
X278232D01*
G01X279085Y-210996D02*
X280365D01*
G01X276165Y-213579D02*
Y-208579D01*
X274832D01*
X274405Y-208829D01*
X274138Y-209162D01*
X274032Y-209829D01*
X274138Y-210496D01*
X274458Y-210912D01*
X274832Y-211162D01*
X276165D01*
G01X274832D02*
X274032Y-213579D01*
G01X270898Y-213746D02*
X271005Y-213662D01*
Y-213496D01*
X270898Y-213412D01*
X270792Y-213496D01*
Y-213662D01*
X270898Y-213746D01*
G01Y-211496D02*
X271005Y-211412D01*
Y-211246D01*
X270898Y-211162D01*
X270792Y-211246D01*
Y-211412D01*
X270898Y-211496D01*
G01X303325Y-219996D02*
X303645Y-219746D01*
X304018Y-219579D01*
X304445D01*
X304925Y-219829D01*
X305298Y-220246D01*
X305565Y-220746D01*
X305778Y-221579D01*
X305832Y-222329D01*
X305725Y-223079D01*
X305565Y-223579D01*
X305245Y-224079D01*
X304872Y-224412D01*
X304498Y-224579D01*
X304125D01*
X303752Y-224412D01*
X303432Y-224162D01*
X303165Y-223829D01*
G01X301418Y-224579D02*
Y-219579D01*
G01X299178D02*
Y-224579D01*
G01Y-222079D02*
X301418D01*
G01X295032Y-224579D02*
X297165D01*
Y-219579D01*
X295032D01*
G01X295885Y-221996D02*
X297165D01*
G01X290725Y-219996D02*
X291045Y-219746D01*
X291418Y-219579D01*
X291845D01*
X292325Y-219829D01*
X292698Y-220246D01*
X292965Y-220746D01*
X293178Y-221579D01*
X293232Y-222329D01*
X293125Y-223079D01*
X292965Y-223579D01*
X292645Y-224079D01*
X292272Y-224412D01*
X291898Y-224579D01*
X291525D01*
X291152Y-224412D01*
X290832Y-224162D01*
X290565Y-223829D01*
G01X288872Y-224579D02*
Y-219579D01*
G01X286845D02*
X288872Y-222662D01*
G01X286525Y-224579D02*
X287965Y-221246D01*
G01X282432Y-224579D02*
X284565D01*
Y-219579D01*
X282432D01*
G01X283285Y-221996D02*
X284565D01*
G01X280365Y-224579D02*
Y-219579D01*
X279032D01*
X278605Y-219829D01*
X278338Y-220162D01*
X278232Y-220829D01*
X278338Y-221496D01*
X278658Y-221912D01*
X279032Y-222162D01*
X280365D01*
G01X279032D02*
X278232Y-224579D01*
G01X275098Y-224746D02*
X275205Y-224662D01*
Y-224496D01*
X275098Y-224412D01*
X274992Y-224496D01*
Y-224662D01*
X275098Y-224746D01*
G01Y-222496D02*
X275205Y-222412D01*
Y-222246D01*
X275098Y-222162D01*
X274992Y-222246D01*
Y-222412D01*
X275098Y-222496D01*
G01X304672Y-235579D02*
Y-230579D01*
X303605D01*
X303178Y-230829D01*
X302858Y-231163D01*
X302592Y-231662D01*
X302378Y-232246D01*
X302325Y-233079D01*
X302378Y-233912D01*
X302592Y-234496D01*
X302858Y-234996D01*
X303178Y-235329D01*
X303605Y-235579D01*
X304672D01*
G01X300632D02*
X299298Y-230579D01*
X297965Y-235579D01*
G01X298445Y-233829D02*
X300152D01*
G01X295098Y-230579D02*
Y-235579D01*
G01X296325Y-230579D02*
X293872D01*
G01X289832Y-235579D02*
X291965D01*
Y-230579D01*
X289832D01*
G01X290685Y-232996D02*
X291965D01*
G01X286698Y-235746D02*
X286805Y-235662D01*
Y-235496D01*
X286698Y-235413D01*
X286592Y-235496D01*
Y-235662D01*
X286698Y-235746D01*
G01Y-233496D02*
X286805Y-233412D01*
Y-233246D01*
X286698Y-233162D01*
X286592Y-233246D01*
Y-233412D01*
X286698Y-233496D01*
G01X299265Y-179079D02*
Y-186579D01*
X295932D01*
G01X293182D02*
X291098Y-179079D01*
X289015Y-186579D01*
G01X289765Y-183954D02*
X292432D01*
G01X284598Y-186579D02*
Y-183204D01*
X286265Y-179079D01*
G01X282932D02*
X284598Y-183204D01*
G01X276432Y-186579D02*
X279765D01*
Y-179079D01*
X276432D01*
G01X277765Y-182704D02*
X279765D01*
G01X273265Y-186579D02*
Y-179079D01*
X271182D01*
X270515Y-179454D01*
X270098Y-179954D01*
X269932Y-180954D01*
X270098Y-181954D01*
X270598Y-182579D01*
X271182Y-182954D01*
X273265D01*
G01X271182D02*
X269932Y-186579D01*
G01X265099Y-186829D02*
X265265Y-186704D01*
Y-186454D01*
X265099Y-186329D01*
X264932Y-186454D01*
Y-186704D01*
X265099Y-186829D01*
G01Y-183454D02*
X265265Y-183329D01*
Y-183079D01*
X265099Y-182954D01*
X264932Y-183079D01*
Y-183329D01*
X265099Y-183454D01*
G01X311098Y-174579D02*
Y-249579D01*
G01X346663Y-225229D02*
G03I-355J0D01*
G01X346804Y-223439D02*
G03I-355J0D01*
G01X346673Y-223329D02*
G03I-355J0D01*
G01X346654Y-222149D02*
G03I-355J0D01*
G01X346784Y-222049D02*
G03I-355J0D01*
G01X346913Y-221979D02*
G03I-355J0D01*
G01X346563Y-223199D02*
G03I-355J0D01*
G01X346493Y-223049D02*
G03I-355J0D01*
G01X346443Y-222889D02*
G03I-355J0D01*
G01X346424Y-222719D02*
G03I-355J0D01*
G01X346443Y-222559D02*
G03I-355J0D01*
G01X346484Y-222409D02*
G03I-355J0D01*
G01X346554Y-222279D02*
G03I-355J0D01*
G01X346584Y-206559D02*
G03I-355J0D01*
G01X346913Y-205909D02*
G03I-355J0D01*
G01X346634Y-206389D02*
G03I-355J0D01*
G01X346424Y-209339D02*
G03I-355J0D01*
G01Y-208649D02*
G03I-355J0D01*
G01Y-207949D02*
G03I-355J0D01*
G01X346443Y-207259D02*
G03I-355J0D01*
G01X346424Y-207469D02*
G03I-355J0D01*
G01X346473Y-206919D02*
G03I-355J0D01*
G01X346424Y-217429D02*
G03I-355J0D01*
G01Y-216979D02*
G03I-355J0D01*
G01Y-216279D02*
G03I-355J0D01*
G01Y-215589D02*
G03I-355J0D01*
G01Y-214889D02*
G03I-355J0D01*
G01Y-214199D02*
G03I-355J0D01*
G01Y-213499D02*
G03I-355J0D01*
G01Y-212809D02*
G03I-355J0D01*
G01Y-212119D02*
G03I-355J0D01*
G01Y-211419D02*
G03I-355J0D01*
G01Y-210729D02*
G03I-355J0D01*
G01Y-210029D02*
G03I-355J0D01*
G01X347113Y-223559D02*
G03I-355J0D01*
G01X346954Y-223509D02*
G03I-355J0D01*
G01X347063Y-221939D02*
G03I-355J0D01*
G01X346954Y-205869D02*
G03I-355J0D01*
G01X307600Y-8000D02*
X313600D01*
G03X317600Y-4000I0J4000D01*
G03X313600Y0I-4000J0D01*
G01X307600D01*
G01X340400D02*
X334400D01*
G03X330400Y-4000I0J-4000D01*
G03X334400Y-8000I4000J0D01*
G01X340400D01*
G01X307600Y118110D02*
X313600D01*
G03X317600Y122110I0J4000D01*
G03X313600Y126110I-4000J0D01*
G01X307600D01*
G01X340400D02*
X334400D01*
G03X330400Y122110I0J-4000D01*
G03X334400Y118110I4000J0D01*
G01X336000D01*
G01X340400Y232535D02*
X334400D01*
G03X330400Y228535I0J-4000D01*
G03X334400Y224535I4000J0D01*
G01X336000D01*
G01X307600D02*
X313600D01*
G03X317600Y228535I0J4000D01*
G03X313600Y232535I-4000J0D01*
G01X307600D01*
G01X391004Y-225079D02*
G03I-355J0D01*
G01X391063Y-222099D02*
G03I-355J0D01*
G01X390824Y-225159D02*
G03I-355J0D01*
G01X390643Y-225209D02*
G03I-355J0D01*
G01X390454Y-225229D02*
G03I-355J0D01*
G01Y-221919D02*
G03I-355J0D01*
G01X390663Y-221939D02*
G03I-355J0D01*
G01X390873Y-221999D02*
G03I-355J0D01*
G01X388704Y-225229D02*
G03I-355J0D01*
G01Y-221919D02*
G03I-355J0D01*
G01X391024Y-205869D02*
G03I-355J0D01*
G01X390373Y-205659D02*
G03I-355J0D01*
G01X390923Y-205809D02*
G03I-355J0D01*
G01X390793Y-204209D02*
G03I-355J0D01*
G01X389804Y-205619D02*
G03I-355J0D01*
G01X387813Y-205649D02*
G03I-355J0D01*
G01X388354Y-205619D02*
G03I-355J0D01*
G01X387684Y-204209D02*
G03I-355J0D01*
G01X387104Y-205869D02*
G03I-355J0D01*
G01X386813Y-206009D02*
G03I-355J0D01*
G01X387293Y-205779D02*
G03I-355J0D01*
G01X386824Y-204239D02*
G03I-355J0D01*
G01X390473Y-217429D02*
G03I-355J0D01*
G01X387724D02*
G03I-355J0D01*
G01X386813Y-217399D02*
G03I-355J0D01*
G01X390913Y-215819D02*
G03I-355J0D01*
G01X390443Y-215969D02*
G03I-355J0D01*
G01X389963Y-216019D02*
G03I-355J0D01*
G01X388354D02*
G03I-355J0D01*
G01X387754Y-215979D02*
G03I-355J0D01*
G01X387184Y-215819D02*
G03I-355J0D01*
G01X385943Y-225059D02*
G03I-355J0D01*
G01X386123Y-224929D02*
G03I-355J0D01*
G01X386284Y-224769D02*
G03I-355J0D01*
G01X386413Y-224579D02*
G03I-355J0D01*
G01X386504Y-224379D02*
G03I-355J0D01*
G01X386563Y-224159D02*
G03I-355J0D01*
G01X386584Y-223939D02*
G03I-355J0D01*
G01Y-223189D02*
G03I-355J0D01*
G01X386563Y-222969D02*
G03I-355J0D01*
G01X386504Y-222759D02*
G03I-355J0D01*
G01X386413Y-222549D02*
G03I-355J0D01*
G01X386284Y-222369D02*
G03I-355J0D01*
G01X386134Y-222219D02*
G03I-355J0D01*
G01X385943Y-222089D02*
G03I-355J0D01*
G01X385293Y-225229D02*
G03I-355J0D01*
G01X385513Y-225209D02*
G03I-355J0D01*
G01X385734Y-225149D02*
G03I-355J0D01*
G01X385743Y-221999D02*
G03I-355J0D01*
G01X385534Y-221939D02*
G03I-355J0D01*
G01X385313Y-221919D02*
G03I-355J0D01*
G01X384184Y-225169D02*
G03I-355J0D01*
G01X384384Y-225209D02*
G03I-355J0D01*
G01X384593Y-225229D02*
G03I-355J0D01*
G01X384573Y-221919D02*
G03I-355J0D01*
G01X384343Y-221939D02*
G03I-355J0D01*
G01X384134Y-221999D02*
G03I-355J0D01*
G01X383413Y-224509D02*
G03I-355J0D01*
G01X383524Y-224689D02*
G03I-355J0D01*
G01X383663Y-224839D02*
G03I-355J0D01*
G01X383813Y-224979D02*
G03I-355J0D01*
G01X383993Y-225089D02*
G03I-355J0D01*
G01X383273Y-223909D02*
G03I-355J0D01*
G01X383293Y-224119D02*
G03I-355J0D01*
G01X383334Y-224319D02*
G03I-355J0D01*
G01X383273Y-223909D02*
G03I-355J0D01*
G01X383443Y-222569D02*
G03I-355J0D01*
G01X383354Y-222779D02*
G03I-355J0D01*
G01X383293Y-222989D02*
G03I-355J0D01*
G01X383273Y-223219D02*
G03I-355J0D01*
G01X383924Y-222089D02*
G03I-355J0D01*
G01X383734Y-222219D02*
G03I-355J0D01*
G01X383573Y-222379D02*
G03I-355J0D01*
G01X380913Y-225229D02*
G03I-355J0D01*
G01Y-221919D02*
G03I-355J0D01*
G01X380434D02*
G03I-355J0D01*
G01X378154Y-225229D02*
G03I-355J0D01*
G01X377604D02*
G03I-355J0D01*
G01Y-221919D02*
G03I-355J0D01*
G01X375243Y-225229D02*
G03I-355J0D01*
G01Y-221919D02*
G03I-355J0D01*
G01X373484Y-225229D02*
G03I-355J0D01*
G01X373284Y-225209D02*
G03I-355J0D01*
G01X373084Y-225169D02*
G03I-355J0D01*
G01X373023Y-221999D02*
G03I-355J0D01*
G01X373243Y-221939D02*
G03I-355J0D01*
G01X373463Y-221919D02*
G03I-355J0D01*
G01X372893Y-225089D02*
G03I-355J0D01*
G01X372713Y-224979D02*
G03I-355J0D01*
G01X372554Y-224849D02*
G03I-355J0D01*
G01X372423Y-224689D02*
G03I-355J0D01*
G01X372313Y-224509D02*
G03I-355J0D01*
G01X372234Y-224319D02*
G03I-355J0D01*
G01X372193Y-224119D02*
G03I-355J0D01*
G01X372173Y-223919D02*
G03I-355J0D01*
G01Y-223209D02*
G03I-355J0D01*
G01X372193Y-222989D02*
G03I-355J0D01*
G01X372254Y-222769D02*
G03I-355J0D01*
G01X372343Y-222559D02*
G03I-355J0D01*
G01X372173Y-223209D02*
G03I-355J0D01*
G01X372473Y-222379D02*
G03I-355J0D01*
G01X372634Y-222219D02*
G03I-355J0D01*
G01X372813Y-222089D02*
G03I-355J0D01*
G01X369743Y-224409D02*
G03I-355J0D01*
G01X369643Y-224609D02*
G03I-355J0D01*
G01X369804Y-223989D02*
G03I-355J0D01*
G01X369813D02*
G03I-355J0D01*
G01X369793Y-224209D02*
G03I-355J0D01*
G01X369804Y-221919D02*
G03I-355J0D01*
G01X369524Y-224789D02*
G03I-355J0D01*
G01X369373Y-224939D02*
G03I-355J0D01*
G01X369193Y-225059D02*
G03I-355J0D01*
G01X368993Y-225159D02*
G03I-355J0D01*
G01X368793Y-225209D02*
G03I-355J0D01*
G01X368573Y-225229D02*
G03I-355J0D01*
G01X368054D02*
G03I-355J0D01*
G01X367823Y-225209D02*
G03I-355J0D01*
G01X367604Y-225149D02*
G03I-355J0D01*
G01X367393Y-225049D02*
G03I-355J0D01*
G01X367213Y-224919D02*
G03I-355J0D01*
G01X367054Y-224759D02*
G03I-355J0D01*
G01X366924Y-224569D02*
G03I-355J0D01*
G01X366824Y-224369D02*
G03I-355J0D01*
G01X366763Y-224149D02*
G03I-355J0D01*
G01X366743Y-223919D02*
G03I-355J0D01*
G01X366734D02*
G03I-355J0D01*
G01Y-221919D02*
G03I-355J0D01*
G01X364593Y-224349D02*
G03I-355J0D01*
G01X364554Y-224529D02*
G03I-355J0D01*
G01X364613Y-224159D02*
G03I-355J0D01*
G01X364593Y-222779D02*
G03I-355J0D01*
G01X364613Y-222959D02*
G03I-355J0D01*
G01X364554Y-222599D02*
G03I-355J0D01*
G01X364473Y-224689D02*
G03I-355J0D01*
G01X364363Y-224849D02*
G03I-355J0D01*
G01X364234Y-224979D02*
G03I-355J0D01*
G01X364084Y-225089D02*
G03I-355J0D01*
G01X363913Y-225169D02*
G03I-355J0D01*
G01X363734Y-225209D02*
G03I-355J0D01*
G01X363754Y-221939D02*
G03I-355J0D01*
G01X363934Y-221979D02*
G03I-355J0D01*
G01X364093Y-222059D02*
G03I-355J0D01*
G01X364243Y-222159D02*
G03I-355J0D01*
G01X364373Y-222289D02*
G03I-355J0D01*
G01X364473Y-222439D02*
G03I-355J0D01*
G01X363543Y-225229D02*
G03I-355J0D01*
G01X363573Y-221919D02*
G03I-355J0D01*
G01X361773Y-225229D02*
G03I-355J0D01*
G01Y-221919D02*
G03I-355J0D01*
G01X386134Y-206559D02*
G03I-355J0D01*
G01X386054Y-206629D02*
G03I-355J0D01*
G01X386384Y-206329D02*
G03I-355J0D01*
G01X385973Y-204399D02*
G03I-355J0D01*
G01X385634Y-209339D02*
G03I-355J0D01*
G01Y-208649D02*
G03I-355J0D01*
G01X385723Y-207259D02*
G03I-355J0D01*
G01X385634Y-207949D02*
G03I-355J0D01*
G01Y-207869D02*
G03I-355J0D01*
G01X385673Y-207419D02*
G03I-355J0D01*
G01X385813Y-206999D02*
G03I-355J0D01*
G01X385163Y-204679D02*
G03I-355J0D01*
G01X385734Y-204479D02*
G03I-355J0D01*
G01X384163Y-205179D02*
G03I-355J0D01*
G01X384534Y-204949D02*
G03I-355J0D01*
G01X383324Y-205869D02*
G03I-355J0D01*
G01X383434Y-205739D02*
G03I-355J0D01*
G01X383954Y-205299D02*
G03I-355J0D01*
G01X382563Y-209339D02*
G03I-355J0D01*
G01Y-208649D02*
G03I-355J0D01*
G01X382613Y-207259D02*
G03I-355J0D01*
G01X382563Y-207949D02*
G03I-355J0D01*
G01X382613Y-207279D02*
G03I-355J0D01*
G01X382563Y-207869D02*
G03I-355J0D01*
G01X382854Y-206559D02*
G03I-355J0D01*
G01X382773Y-206709D02*
G03I-355J0D01*
G01X383054Y-206189D02*
G03I-355J0D01*
G01X379254Y-209339D02*
G03I-355J0D01*
G01Y-208649D02*
G03I-355J0D01*
G01Y-207949D02*
G03I-355J0D01*
G01Y-207259D02*
G03I-355J0D01*
G01Y-206559D02*
G03I-355J0D01*
G01Y-205869D02*
G03I-355J0D01*
G01Y-204679D02*
G03I-355J0D01*
G01Y-205179D02*
G03I-355J0D01*
G01X375893Y-209339D02*
G03I-355J0D01*
G01X375954Y-209069D02*
G03I-355J0D01*
G01X375923Y-209279D02*
G03I-355J0D01*
G01X375843Y-209469D02*
G03I-355J0D01*
G01X375954Y-208649D02*
G03I-355J0D01*
G01Y-207949D02*
G03I-355J0D01*
G01Y-207259D02*
G03I-355J0D01*
G01Y-206559D02*
G03I-355J0D01*
G01Y-205869D02*
G03I-355J0D01*
G01Y-204679D02*
G03I-355J0D01*
G01D02*
G03I-355J0D01*
G01Y-205179D02*
G03I-355J0D01*
G01X368913Y-209339D02*
G03I-355J0D01*
G01X368973Y-209479D02*
G03I-355J0D01*
G01X368893Y-209289D02*
G03I-355J0D01*
G01X368863Y-209089D02*
G03I-355J0D01*
G01Y-208649D02*
G03I-355J0D01*
G01Y-207259D02*
G03I-355J0D01*
G01Y-207949D02*
G03I-355J0D01*
G01Y-206559D02*
G03I-355J0D01*
G01Y-205869D02*
G03I-355J0D01*
G01Y-205179D02*
G03I-355J0D01*
G01Y-204679D02*
G03I-355J0D01*
G01X365554Y-209339D02*
G03I-355J0D01*
G01Y-208649D02*
G03I-355J0D01*
G01Y-207259D02*
G03I-355J0D01*
G01Y-207949D02*
G03I-355J0D01*
G01Y-206559D02*
G03I-355J0D01*
G01Y-205869D02*
G03I-355J0D01*
G01Y-205179D02*
G03I-355J0D01*
G01Y-204679D02*
G03I-355J0D01*
G01X362013Y-209339D02*
G03I-355J0D01*
G01Y-208649D02*
G03I-355J0D01*
G01Y-207949D02*
G03I-355J0D01*
G01Y-206559D02*
G03I-355J0D01*
G01Y-207259D02*
G03I-355J0D01*
G01Y-205869D02*
G03I-355J0D01*
G01Y-205179D02*
G03I-355J0D01*
G01Y-204679D02*
G03I-355J0D01*
G01X385913Y-217259D02*
G03I-355J0D01*
G01X386713Y-215589D02*
G03I-355J0D01*
G01X386013Y-214889D02*
G03I-355J0D01*
G01X386654Y-215559D02*
G03I-355J0D01*
G01X386184Y-215189D02*
G03I-355J0D01*
G01X385884Y-214679D02*
G03I-355J0D01*
G01X384993Y-216979D02*
G03I-355J0D01*
G01X385043Y-216999D02*
G03I-355J0D01*
G01X385723Y-214199D02*
G03I-355J0D01*
G01X385693Y-214119D02*
G03I-355J0D01*
G01X385634Y-213499D02*
G03I-355J0D01*
G01Y-213539D02*
G03I-355J0D01*
G01Y-212809D02*
G03I-355J0D01*
G01Y-211419D02*
G03I-355J0D01*
G01Y-212119D02*
G03I-355J0D01*
G01Y-210729D02*
G03I-355J0D01*
G01Y-210029D02*
G03I-355J0D01*
G01X384463Y-216729D02*
G03I-355J0D01*
G01X383834Y-216279D02*
G03I-355J0D01*
G01X383473Y-215939D02*
G03I-355J0D01*
G01X383934Y-216379D02*
G03I-355J0D01*
G01X382734Y-214889D02*
G03I-355J0D01*
G01X383124Y-215589D02*
G03I-355J0D01*
G01X382793Y-215079D02*
G03I-355J0D01*
G01X383084Y-215549D02*
G03I-355J0D01*
G01X382584Y-214199D02*
G03I-355J0D01*
G01X382613Y-214559D02*
G03I-355J0D01*
G01X382563Y-213499D02*
G03I-355J0D01*
G01Y-214009D02*
G03I-355J0D01*
G01Y-212809D02*
G03I-355J0D01*
G01Y-212119D02*
G03I-355J0D01*
G01Y-210729D02*
G03I-355J0D01*
G01Y-211419D02*
G03I-355J0D01*
G01Y-210029D02*
G03I-355J0D01*
G01X379254Y-217429D02*
G03I-355J0D01*
G01X375954D02*
G03I-355J0D01*
G01X368863D02*
G03I-355J0D01*
G01X365554D02*
G03I-355J0D01*
G01X362013D02*
G03I-355J0D01*
G01X379254Y-216979D02*
G03I-355J0D01*
G01Y-216279D02*
G03I-355J0D01*
G01Y-215589D02*
G03I-355J0D01*
G01Y-214889D02*
G03I-355J0D01*
G01Y-214199D02*
G03I-355J0D01*
G01Y-213499D02*
G03I-355J0D01*
G01Y-212809D02*
G03I-355J0D01*
G01Y-212119D02*
G03I-355J0D01*
G01Y-210729D02*
G03I-355J0D01*
G01Y-211419D02*
G03I-355J0D01*
G01Y-210029D02*
G03I-355J0D01*
G01X375954Y-216979D02*
G03I-355J0D01*
G01Y-216279D02*
G03I-355J0D01*
G01Y-215589D02*
G03I-355J0D01*
G01Y-214889D02*
G03I-355J0D01*
G01Y-214199D02*
G03I-355J0D01*
G01Y-213499D02*
G03I-355J0D01*
G01Y-212809D02*
G03I-355J0D01*
G01Y-212309D02*
G03I-355J0D01*
G01X375923Y-212119D02*
G03I-355J0D01*
G01X375723Y-211759D02*
G03I-355J0D01*
G01X375843Y-211919D02*
G03I-355J0D01*
G01X375923Y-212109D02*
G03I-355J0D01*
G01X375713Y-209639D02*
G03I-355J0D01*
G01X375173Y-211529D02*
G03I-355J0D01*
G01X375373Y-211549D02*
G03I-355J0D01*
G01X375563Y-211629D02*
G03I-355J0D01*
G01X375543Y-209769D02*
G03I-355J0D01*
G01X375354Y-209849D02*
G03I-355J0D01*
G01X375143Y-209869D02*
G03I-355J0D01*
G01X369693Y-211529D02*
G03I-355J0D01*
G01X369643Y-209869D02*
G03I-355J0D01*
G01X368863Y-216979D02*
G03I-355J0D01*
G01Y-216279D02*
G03I-355J0D01*
G01Y-215589D02*
G03I-355J0D01*
G01Y-214199D02*
G03I-355J0D01*
G01Y-214889D02*
G03I-355J0D01*
G01Y-213499D02*
G03I-355J0D01*
G01Y-212809D02*
G03I-355J0D01*
G01X368904Y-212119D02*
G03I-355J0D01*
G01X368863Y-212359D02*
G03I-355J0D01*
G01X368893Y-212139D02*
G03I-355J0D01*
G01X368973Y-211939D02*
G03I-355J0D01*
G01X369104Y-211769D02*
G03I-355J0D01*
G01X369273Y-211639D02*
G03I-355J0D01*
G01X369484Y-211559D02*
G03I-355J0D01*
G01X369443Y-209849D02*
G03I-355J0D01*
G01X369254Y-209769D02*
G03I-355J0D01*
G01X369093Y-209649D02*
G03I-355J0D01*
G01X365554Y-216979D02*
G03I-355J0D01*
G01Y-216279D02*
G03I-355J0D01*
G01Y-214889D02*
G03I-355J0D01*
G01Y-215589D02*
G03I-355J0D01*
G01Y-214199D02*
G03I-355J0D01*
G01Y-213499D02*
G03I-355J0D01*
G01Y-212809D02*
G03I-355J0D01*
G01Y-212119D02*
G03I-355J0D01*
G01Y-210729D02*
G03I-355J0D01*
G01Y-211419D02*
G03I-355J0D01*
G01Y-210029D02*
G03I-355J0D01*
G01X362013Y-216979D02*
G03I-355J0D01*
G01Y-216279D02*
G03I-355J0D01*
G01Y-215589D02*
G03I-355J0D01*
G01Y-214199D02*
G03I-355J0D01*
G01Y-214889D02*
G03I-355J0D01*
G01Y-213499D02*
G03I-355J0D01*
G01Y-212809D02*
G03I-355J0D01*
G01Y-212119D02*
G03I-355J0D01*
G01Y-210729D02*
G03I-355J0D01*
G01Y-211419D02*
G03I-355J0D01*
G01Y-210029D02*
G03I-355J0D01*
G01X354384Y-224979D02*
G03I-355J0D01*
G01X354543Y-224849D02*
G03I-355J0D01*
G01X354673Y-224689D02*
G03I-355J0D01*
G01X354784Y-224509D02*
G03I-355J0D01*
G01X354763Y-222559D02*
G03I-355J0D01*
G01X354634Y-222379D02*
G03I-355J0D01*
G01X354473Y-222219D02*
G03I-355J0D01*
G01X359884Y-221919D02*
G03I-355J0D01*
G01X358473Y-225229D02*
G03I-355J0D01*
G01Y-221919D02*
G03I-355J0D01*
G01D02*
G03I-355J0D01*
G01X357054D02*
G03I-355J0D01*
G01X354863Y-224319D02*
G03I-355J0D01*
G01X354904Y-224119D02*
G03I-355J0D01*
G01X354923Y-223919D02*
G03I-355J0D01*
G01Y-223209D02*
G03I-355J0D01*
G01X354934D02*
G03I-355J0D01*
G01X354913Y-222989D02*
G03I-355J0D01*
G01X354854Y-222769D02*
G03I-355J0D01*
G01X354284Y-222089D02*
G03I-355J0D01*
G01X353613Y-225229D02*
G03I-355J0D01*
G01X353813Y-225209D02*
G03I-355J0D01*
G01X354013Y-225169D02*
G03I-355J0D01*
G01X354204Y-225089D02*
G03I-355J0D01*
G01X354084Y-221999D02*
G03I-355J0D01*
G01X353863Y-221939D02*
G03I-355J0D01*
G01X353643Y-221919D02*
G03I-355J0D01*
G01X352693Y-225209D02*
G03I-355J0D01*
G01X352924Y-225229D02*
G03I-355J0D01*
G01X352904Y-221919D02*
G03I-355J0D01*
G01X352684Y-221939D02*
G03I-355J0D01*
G01X351793Y-224579D02*
G03I-355J0D01*
G01X351924Y-224769D02*
G03I-355J0D01*
G01X352084Y-224929D02*
G03I-355J0D01*
G01X352273Y-225059D02*
G03I-355J0D01*
G01X352484Y-225149D02*
G03I-355J0D01*
G01X351704Y-224369D02*
G03I-355J0D01*
G01X352463Y-221999D02*
G03I-355J0D01*
G01X352263Y-222089D02*
G03I-355J0D01*
G01X352084Y-222219D02*
G03I-355J0D01*
G01X351924Y-222379D02*
G03I-355J0D01*
G01X351793Y-222559D02*
G03I-355J0D01*
G01X351704Y-222759D02*
G03I-355J0D01*
G01X351624Y-223929D02*
G03I-355J0D01*
G01X351643Y-224159D02*
G03I-355J0D01*
G01X351624Y-223929D02*
G03I-355J0D01*
G01X351643Y-222979D02*
G03I-355J0D01*
G01X351624Y-223199D02*
G03I-355J0D01*
G01X349493Y-225229D02*
G03I-355J0D01*
G01Y-223579D02*
G03I-355J0D01*
G01D02*
G03I-355J0D01*
G01Y-221919D02*
G03I-355J0D01*
G01D02*
G03I-355J0D01*
G01X347563Y-223579D02*
G03I-355J0D01*
G01D02*
G03I-355J0D01*
G01X347284D02*
G03I-355J0D01*
G01X347224Y-221919D02*
G03I-355J0D01*
G01X360463Y-204479D02*
G03I-355J0D01*
G01X358943Y-209339D02*
G03I-355J0D01*
G01Y-208649D02*
G03I-355J0D01*
G01Y-207259D02*
G03I-355J0D01*
G01Y-207949D02*
G03I-355J0D01*
G01X358924Y-206559D02*
G03I-355J0D01*
G01X358913Y-206469D02*
G03I-355J0D01*
G01X358943Y-206689D02*
G03I-355J0D01*
G01X358524Y-205969D02*
G03I-355J0D01*
G01X358704Y-206099D02*
G03I-355J0D01*
G01X358834Y-206269D02*
G03I-355J0D01*
G01X359073Y-204299D02*
G03I-355J0D01*
G01X358193Y-205869D02*
G03I-355J0D01*
G01X358113Y-205859D02*
G03I-355J0D01*
G01X358334Y-205889D02*
G03I-355J0D01*
G01X356593Y-205869D02*
G03I-355J0D01*
G01X355984Y-206259D02*
G03I-355J0D01*
G01X356104Y-206089D02*
G03I-355J0D01*
G01X356273Y-205969D02*
G03I-355J0D01*
G01X356463Y-205889D02*
G03I-355J0D01*
G01X356673Y-205859D02*
G03I-355J0D01*
G01X356104Y-204209D02*
G03I-355J0D01*
G01X355873Y-209339D02*
G03I-355J0D01*
G01Y-208649D02*
G03I-355J0D01*
G01Y-207949D02*
G03I-355J0D01*
G01Y-207259D02*
G03I-355J0D01*
G01X355884Y-206559D02*
G03I-355J0D01*
G01X355873Y-206659D02*
G03I-355J0D01*
G01X355893Y-206449D02*
G03I-355J0D01*
G01X352563Y-209339D02*
G03I-355J0D01*
G01Y-208649D02*
G03I-355J0D01*
G01Y-207949D02*
G03I-355J0D01*
G01Y-207259D02*
G03I-355J0D01*
G01Y-206669D02*
G03I-355J0D01*
G01X352554Y-206559D02*
G03I-355J0D01*
G01X352534Y-206459D02*
G03I-355J0D01*
G01X351834Y-205869D02*
G03I-355J0D01*
G01X351754Y-205859D02*
G03I-355J0D01*
G01X351963Y-205889D02*
G03I-355J0D01*
G01X352154Y-205969D02*
G03I-355J0D01*
G01X352324Y-206099D02*
G03I-355J0D01*
G01X352454Y-206259D02*
G03I-355J0D01*
G01X351773Y-204209D02*
G03I-355J0D01*
G01X350913Y-205869D02*
G03I-355J0D01*
G01X350993Y-205859D02*
G03I-355J0D01*
G01X350004Y-206099D02*
G03I-355J0D01*
G01X350484Y-205929D02*
G03I-355J0D01*
G01X350613Y-204269D02*
G03I-355J0D01*
G01X349493Y-209339D02*
G03I-355J0D01*
G01Y-208649D02*
G03I-355J0D01*
G01Y-207949D02*
G03I-355J0D01*
G01Y-207259D02*
G03I-355J0D01*
G01X349613Y-206559D02*
G03I-355J0D01*
G01X349493Y-207119D02*
G03I-355J0D01*
G01X349524Y-206819D02*
G03I-355J0D01*
G01X349624Y-206539D02*
G03I-355J0D01*
G01X349784Y-206299D02*
G03I-355J0D01*
G01X349313Y-204479D02*
G03I-355J0D01*
G01X349454Y-204439D02*
G03I-355J0D01*
G01X348673Y-204659D02*
G03I-355J0D01*
G01X347943Y-205019D02*
G03I-355J0D01*
G01D02*
G03I-355J0D01*
G01X347734Y-205179D02*
G03I-355J0D01*
G01X347293Y-205499D02*
G03I-355J0D01*
G01X358943Y-217429D02*
G03I-355J0D01*
G01X355873D02*
G03I-355J0D01*
G01X358943Y-216979D02*
G03I-355J0D01*
G01Y-216279D02*
G03I-355J0D01*
G01Y-214889D02*
G03I-355J0D01*
G01Y-215589D02*
G03I-355J0D01*
G01Y-214199D02*
G03I-355J0D01*
G01Y-213499D02*
G03I-355J0D01*
G01Y-212809D02*
G03I-355J0D01*
G01Y-211419D02*
G03I-355J0D01*
G01Y-212119D02*
G03I-355J0D01*
G01Y-210729D02*
G03I-355J0D01*
G01Y-210029D02*
G03I-355J0D01*
G01X355873Y-216979D02*
G03I-355J0D01*
G01Y-216279D02*
G03I-355J0D01*
G01Y-215589D02*
G03I-355J0D01*
G01Y-214889D02*
G03I-355J0D01*
G01Y-214199D02*
G03I-355J0D01*
G01Y-213499D02*
G03I-355J0D01*
G01Y-212809D02*
G03I-355J0D01*
G01Y-212119D02*
G03I-355J0D01*
G01Y-211419D02*
G03I-355J0D01*
G01Y-210729D02*
G03I-355J0D01*
G01Y-210029D02*
G03I-355J0D01*
G01X352563Y-217429D02*
G03I-355J0D01*
G01X349493D02*
G03I-355J0D01*
G01X352563Y-216979D02*
G03I-355J0D01*
G01Y-216279D02*
G03I-355J0D01*
G01Y-215589D02*
G03I-355J0D01*
G01Y-214889D02*
G03I-355J0D01*
G01Y-214199D02*
G03I-355J0D01*
G01Y-213499D02*
G03I-355J0D01*
G01Y-212809D02*
G03I-355J0D01*
G01Y-212119D02*
G03I-355J0D01*
G01Y-211419D02*
G03I-355J0D01*
G01Y-210729D02*
G03I-355J0D01*
G01Y-210029D02*
G03I-355J0D01*
G01X349493Y-216979D02*
G03I-355J0D01*
G01Y-216279D02*
G03I-355J0D01*
G01Y-215589D02*
G03I-355J0D01*
G01Y-214889D02*
G03I-355J0D01*
G01Y-214199D02*
G03I-355J0D01*
G01Y-213499D02*
G03I-355J0D01*
G01Y-212809D02*
G03I-355J0D01*
G01Y-212119D02*
G03I-355J0D01*
G01Y-211419D02*
G03I-355J0D01*
G01Y-210729D02*
G03I-355J0D01*
G01Y-210029D02*
G03I-355J0D01*
G01X390331Y274220D02*
Y-38000D01*
G01X370331Y126110D02*
Y-8000D01*
G01Y47100D02*
Y53100D01*
G03X366331Y57100I-4000J0D01*
G03X362331Y53100I0J-4000D01*
G01Y47100D01*
G01Y79900D02*
Y73900D01*
G03X366331Y69900I4000J0D01*
G03X370331Y73900I0J4000D01*
G01Y79900D01*
G01X362457Y126110D02*
X370331D01*
G01X362457D02*
Y232535D01*
G01X354457Y126110D02*
Y224535D01*
G01X362457Y141200D02*
Y147200D01*
G03X358457Y151200I-4000J0D01*
G03X354457Y147200I0J-4000D01*
G01Y141200D01*
G01Y174000D02*
Y168000D01*
G03X358457Y164000I4000J0D01*
G03X362457Y168000I0J4000D01*
G01Y174000D01*
G01X405243Y-225169D02*
G03I-355J0D01*
G01X405063Y-225209D02*
G03I-355J0D01*
G01X404884Y-225229D02*
G03I-355J0D01*
G01X405123Y-221939D02*
G03I-355J0D01*
G01X404923Y-221919D02*
G03I-355J0D01*
G01X411384Y-225229D02*
G03I-355J0D01*
G01X410663Y-223549D02*
G03I-355J0D01*
G01X410834Y-223499D02*
G03I-355J0D01*
G01X410984Y-223419D02*
G03I-355J0D01*
G01X411123Y-223309D02*
G03I-355J0D01*
G01X411234Y-223169D02*
G03I-355J0D01*
G01X411313Y-223019D02*
G03I-355J0D01*
G01X411363Y-222849D02*
G03I-355J0D01*
G01X411384Y-222679D02*
G03I-355J0D01*
G01X411363Y-222509D02*
G03I-355J0D01*
G01X411304Y-222349D02*
G03I-355J0D01*
G01X411213Y-222209D02*
G03I-355J0D01*
G01X411093Y-222089D02*
G03I-355J0D01*
G01X410954Y-221999D02*
G03I-355J0D01*
G01X410793Y-221939D02*
G03I-355J0D01*
G01X410624Y-221919D02*
G03I-355J0D01*
G01X410493Y-223579D02*
G03I-355J0D01*
G01Y-223569D02*
G03I-355J0D01*
G01X408934Y-225229D02*
G03I-355J0D01*
G01X408873Y-223569D02*
G03I-355J0D01*
G01Y-223579D02*
G03I-355J0D01*
G01X408763Y-225209D02*
G03I-355J0D01*
G01X408604Y-225159D02*
G03I-355J0D01*
G01X408454Y-225089D02*
G03I-355J0D01*
G01X408324Y-224979D02*
G03I-355J0D01*
G01X408213Y-224849D02*
G03I-355J0D01*
G01X408143Y-224699D02*
G03I-355J0D01*
G01X408093Y-224539D02*
G03I-355J0D01*
G01X408073Y-224369D02*
G03I-355J0D01*
G01X408093Y-224209D02*
G03I-355J0D01*
G01X408134Y-224059D02*
G03I-355J0D01*
G01X408204Y-223929D02*
G03I-355J0D01*
G01X408304Y-223799D02*
G03I-355J0D01*
G01X408434Y-223699D02*
G03I-355J0D01*
G01X408563Y-223629D02*
G03I-355J0D01*
G01X408713Y-223589D02*
G03I-355J0D01*
G01X408073Y-221919D02*
G03I-355J0D01*
G01X405923Y-224349D02*
G03I-355J0D01*
G01X405884Y-224529D02*
G03I-355J0D01*
G01X405804Y-224699D02*
G03I-355J0D01*
G01X405693Y-224849D02*
G03I-355J0D01*
G01X405563Y-224979D02*
G03I-355J0D01*
G01X405954Y-223579D02*
G03I-355J0D01*
G01D02*
G03I-355J0D01*
G01Y-224169D02*
G03I-355J0D01*
G01X405943D02*
G03I-355J0D01*
G01X405954Y-222939D02*
G03I-355J0D01*
G01X405943D02*
G03I-355J0D01*
G01X405923Y-222739D02*
G03I-355J0D01*
G01X405863Y-222549D02*
G03I-355J0D01*
G01X405773Y-222369D02*
G03I-355J0D01*
G01X405643Y-222219D02*
G03I-355J0D01*
G01X405493Y-222089D02*
G03I-355J0D01*
G01X405413Y-225089D02*
G03I-355J0D01*
G01X405313Y-221999D02*
G03I-355J0D01*
G01X403113Y-225229D02*
G03I-355J0D01*
G01Y-223579D02*
G03I-355J0D01*
G01Y-221919D02*
G03I-355J0D01*
G01X400754Y-225229D02*
G03I-355J0D01*
G01Y-221919D02*
G03I-355J0D01*
G01X400204D02*
G03I-355J0D01*
G01X398663Y-225229D02*
G03I-355J0D01*
G01X397254Y-221919D02*
G03I-355J0D01*
G01X396734Y-225229D02*
G03I-355J0D01*
G01Y-221919D02*
G03I-355J0D01*
G01X394143Y-225229D02*
G03I-355J0D01*
G01Y-221919D02*
G03I-355J0D01*
G01X391524Y-224329D02*
G03I-355J0D01*
G01X391473Y-224509D02*
G03I-355J0D01*
G01X391393Y-224679D02*
G03I-355J0D01*
G01X391284Y-224839D02*
G03I-355J0D01*
G01X391154Y-224969D02*
G03I-355J0D01*
G01X391543Y-224139D02*
G03I-355J0D01*
G01X391463Y-222589D02*
G03I-355J0D01*
G01X391524Y-222799D02*
G03I-355J0D01*
G01X391543Y-223009D02*
G03I-355J0D01*
G01X391224Y-222239D02*
G03I-355J0D01*
G01X391363Y-222399D02*
G03I-355J0D01*
G01X411384Y-209339D02*
G03I-355J0D01*
G01Y-208649D02*
G03I-355J0D01*
G01Y-207259D02*
G03I-355J0D01*
G01Y-207949D02*
G03I-355J0D01*
G01Y-206559D02*
G03I-355J0D01*
G01Y-205869D02*
G03I-355J0D01*
G01Y-205179D02*
G03I-355J0D01*
G01Y-204679D02*
G03I-355J0D01*
G01D02*
G03I-355J0D01*
G01X410043Y-204479D02*
G03I-355J0D01*
G01X409143Y-204349D02*
G03I-355J0D01*
G01X408073Y-209339D02*
G03I-355J0D01*
G01Y-208649D02*
G03I-355J0D01*
G01Y-207949D02*
G03I-355J0D01*
G01Y-206559D02*
G03I-355J0D01*
G01Y-207259D02*
G03I-355J0D01*
G01Y-206399D02*
G03I-355J0D01*
G01X408054Y-206199D02*
G03I-355J0D01*
G01X407863Y-205869D02*
G03I-355J0D01*
G01X407973Y-206009D02*
G03I-355J0D01*
G01X407853Y-205849D02*
G03I-355J0D01*
G01X407684Y-205729D02*
G03I-355J0D01*
G01X407504Y-205649D02*
G03I-355J0D01*
G01X407304Y-205619D02*
G03I-355J0D01*
G01X406893Y-204209D02*
G03I-355J0D01*
G01X404454Y-205619D02*
G03I-355J0D01*
G01X403763Y-205649D02*
G03I-355J0D01*
G01X403863Y-204209D02*
G03I-355J0D01*
G01X402954Y-205869D02*
G03I-355J0D01*
G01X403084Y-205809D02*
G03I-355J0D01*
G01X402134Y-206409D02*
G03I-355J0D01*
G01X402034Y-206559D02*
G03I-355J0D01*
G01X402443Y-206099D02*
G03I-355J0D01*
G01X402193Y-204329D02*
G03I-355J0D01*
G01X401793Y-209339D02*
G03I-355J0D01*
G01X401743Y-209169D02*
G03I-355J0D01*
G01X401693Y-208649D02*
G03I-355J0D01*
G01Y-208729D02*
G03I-355J0D01*
G01Y-207949D02*
G03I-355J0D01*
G01X401743Y-207259D02*
G03I-355J0D01*
G01X401753Y-207189D02*
G03I-355J0D01*
G01X401693Y-207629D02*
G03I-355J0D01*
G01X401903Y-206779D02*
G03I-355J0D01*
G01X401473Y-204479D02*
G03I-355J0D01*
G01X400554Y-204679D02*
G03I-355J0D01*
G01X399763Y-205179D02*
G03I-355J0D01*
G01X399513Y-205379D02*
G03I-355J0D01*
G01X400003Y-204979D02*
G03I-355J0D01*
G01X398634Y-209339D02*
G03I-355J0D01*
G01X398623Y-209279D02*
G03I-355J0D01*
G01Y-208649D02*
G03I-355J0D01*
G01Y-207949D02*
G03I-355J0D01*
G01Y-207259D02*
G03I-355J0D01*
G01X398724Y-206559D02*
G03I-355J0D01*
G01X398623Y-207279D02*
G03I-355J0D01*
G01X398643Y-206899D02*
G03I-355J0D01*
G01X398734Y-206519D02*
G03I-355J0D01*
G01X399093Y-205869D02*
G03I-355J0D01*
G01X398884Y-206169D02*
G03I-355J0D01*
G01X399104Y-205859D02*
G03I-355J0D01*
G01X395554Y-209339D02*
G03I-355J0D01*
G01Y-208649D02*
G03I-355J0D01*
G01Y-207949D02*
G03I-355J0D01*
G01X395523Y-207259D02*
G03I-355J0D01*
G01X395554Y-207589D02*
G03I-355J0D01*
G01X395334Y-206559D02*
G03I-355J0D01*
G01X395384Y-206649D02*
G03I-355J0D01*
G01X395513Y-207109D02*
G03I-355J0D01*
G01X395384Y-206649D02*
G03I-355J0D01*
G01X394873Y-205869D02*
G03I-355J0D01*
G01X395154Y-206229D02*
G03I-355J0D01*
G01X394863Y-205849D02*
G03I-355J0D01*
G01X394493Y-205539D02*
G03I-355J0D01*
G01X394043Y-205179D02*
G03I-355J0D01*
G01X393863Y-205029D02*
G03I-355J0D01*
G01X393154Y-204639D02*
G03I-355J0D01*
G01X392684Y-204479D02*
G03I-355J0D01*
G01X392484Y-209339D02*
G03I-355J0D01*
G01Y-208649D02*
G03I-355J0D01*
G01Y-207949D02*
G03I-355J0D01*
G01X392373Y-207259D02*
G03I-355J0D01*
G01X392443Y-207499D02*
G03I-355J0D01*
G01X392484Y-207909D02*
G03I-355J0D01*
G01X392124Y-206759D02*
G03I-355J0D01*
G01X392324Y-207109D02*
G03I-355J0D01*
G01X391954Y-206559D02*
G03I-355J0D01*
G01X391854Y-206449D02*
G03I-355J0D01*
G01D02*
G03I-355J0D01*
G01X392393Y-204379D02*
G03I-355J0D01*
G01X391424Y-206079D02*
G03I-355J0D01*
G01X391593Y-204239D02*
G03I-355J0D01*
G01X411384Y-217429D02*
G03I-355J0D01*
G01X408073D02*
G03I-355J0D01*
G01X404863Y-213499D02*
G03I-355J0D01*
G01X411384Y-216979D02*
G03I-355J0D01*
G01Y-216279D02*
G03I-355J0D01*
G01Y-214889D02*
G03I-355J0D01*
G01Y-215589D02*
G03I-355J0D01*
G01Y-214199D02*
G03I-355J0D01*
G01Y-213499D02*
G03I-355J0D01*
G01Y-212809D02*
G03I-355J0D01*
G01Y-211419D02*
G03I-355J0D01*
G01Y-212119D02*
G03I-355J0D01*
G01Y-210729D02*
G03I-355J0D01*
G01Y-210029D02*
G03I-355J0D01*
G01X408073Y-216979D02*
G03I-355J0D01*
G01Y-216279D02*
G03I-355J0D01*
G01Y-215589D02*
G03I-355J0D01*
G01Y-214199D02*
G03I-355J0D01*
G01Y-214889D02*
G03I-355J0D01*
G01Y-213499D02*
G03I-355J0D01*
G01Y-212809D02*
G03I-355J0D01*
G01Y-212119D02*
G03I-355J0D01*
G01Y-210729D02*
G03I-355J0D01*
G01Y-211419D02*
G03I-355J0D01*
G01Y-210029D02*
G03I-355J0D01*
G01X405463Y-212809D02*
G03I-355J0D01*
G01X405954Y-212119D02*
G03I-355J0D01*
G01Y-211419D02*
G03I-355J0D01*
G01Y-212239D02*
G03I-355J0D01*
G01Y-210819D02*
G03I-355J0D01*
G01X401504Y-217429D02*
G03I-355J0D01*
G01X397843D02*
G03I-355J0D01*
G01X392524Y-217199D02*
G03I-355J0D01*
G01X391504Y-217369D02*
G03I-355J0D01*
G01X404273Y-214199D02*
G03I-355J0D01*
G01X404173Y-210819D02*
G03I-355J0D01*
G01X403084Y-215589D02*
G03I-355J0D01*
G01X403673Y-214889D02*
G03I-355J0D01*
G01X403404Y-210729D02*
G03I-355J0D01*
G01X403034Y-210629D02*
G03I-355J0D01*
G01X403593Y-210779D02*
G03I-355J0D01*
G01X402484Y-216279D02*
G03I-355J0D01*
G01X402054Y-212809D02*
G03I-355J0D01*
G01X402293Y-212549D02*
G03I-355J0D01*
G01Y-212119D02*
G03I-355J0D01*
G01Y-212039D02*
G03I-355J0D01*
G01X402104Y-210029D02*
G03I-355J0D01*
G01X402054Y-209989D02*
G03I-355J0D01*
G01X402513Y-210359D02*
G03I-355J0D01*
G01X401893Y-216979D02*
G03I-355J0D01*
G01X401424Y-213499D02*
G03I-355J0D01*
G01X401593Y-212029D02*
G03I-355J0D01*
G01X401863Y-209589D02*
G03I-355J0D01*
G01X400784Y-214199D02*
G03I-355J0D01*
G01X400913Y-211909D02*
G03I-355J0D01*
G01X399524Y-215589D02*
G03I-355J0D01*
G01X400153Y-214889D02*
G03I-355J0D01*
G01X399813Y-211419D02*
G03I-355J0D01*
G01X400254Y-211669D02*
G03I-355J0D01*
G01X399654Y-211329D02*
G03I-355J0D01*
G01X398893Y-216279D02*
G03I-355J0D01*
G01X399063Y-210729D02*
G03I-355J0D01*
G01X399293Y-211019D02*
G03I-355J0D01*
G01X399004Y-210639D02*
G03I-355J0D01*
G01X398734Y-210029D02*
G03I-355J0D01*
G01X398784Y-210219D02*
G03I-355J0D01*
G01X398663Y-209759D02*
G03I-355J0D01*
G01X398254Y-216979D02*
G03I-355J0D01*
G01X395484Y-214889D02*
G03I-355J0D01*
G01X395384Y-215239D02*
G03I-355J0D01*
G01X395554Y-214199D02*
G03I-355J0D01*
G01X395523Y-214769D02*
G03I-355J0D01*
G01X395554Y-214279D02*
G03I-355J0D01*
G01Y-213499D02*
G03I-355J0D01*
G01Y-212809D02*
G03I-355J0D01*
G01Y-212119D02*
G03I-355J0D01*
G01Y-211419D02*
G03I-355J0D01*
G01Y-210729D02*
G03I-355J0D01*
G01Y-210029D02*
G03I-355J0D01*
G01Y-210349D02*
G03I-355J0D01*
G01D02*
G03I-355J0D01*
G01D02*
G03I-355J0D01*
G01X394524Y-216279D02*
G03I-355J0D01*
G01X394454Y-216329D02*
G03I-355J0D01*
G01X394843Y-216039D02*
G03I-355J0D01*
G01X395204Y-215589D02*
G03I-355J0D01*
G01X395154Y-215669D02*
G03I-355J0D01*
G01X393854Y-216709D02*
G03I-355J0D01*
G01X393263Y-216979D02*
G03I-355J0D01*
G01X393204Y-216999D02*
G03I-355J0D01*
G01X392063Y-214889D02*
G03I-355J0D01*
G01X392043Y-214919D02*
G03I-355J0D01*
G01X392393Y-214199D02*
G03I-355J0D01*
G01X392454Y-214029D02*
G03I-355J0D01*
G01X392304Y-214499D02*
G03I-355J0D01*
G01X392484Y-213499D02*
G03I-355J0D01*
G01Y-213539D02*
G03I-355J0D01*
G01Y-212809D02*
G03I-355J0D01*
G01Y-212119D02*
G03I-355J0D01*
G01Y-211419D02*
G03I-355J0D01*
G01Y-210729D02*
G03I-355J0D01*
G01Y-210029D02*
G03I-355J0D01*
G01Y-210349D02*
G03I-355J0D01*
G01D02*
G03I-355J0D01*
G01D02*
G03I-355J0D01*
G01X391323Y-215589D02*
G03I-355J0D01*
G01X391693Y-215269D02*
G03I-355J0D01*
G01X391334Y-215589D02*
G03I-355J0D01*
M02*
