G04 ================== begin FILE IDENTIFICATION RECORD ==================*
G04 Layout Name:  Sensors_Expo_Demo_LED_MCU_2016-05-12.brd*
G04 Film Name:    PASTE_TOP*
G04 File Format:  Gerber RS274X*
G04 File Origin:  Cadence Allegro 16.5-S058*
G04 Origin Date:  Thu May 12 16:20:20 2016*
G04 *
G04 Layer:  PIN/PASTEMASK_TOP*
G04 Layer:  PACKAGE GEOMETRY/PASTEMASK_TOP*
G04 Layer:  DRAWING FORMAT/PASTEMASK_TOP*
G04 Layer:  BOARD GEOMETRY/OUTLINE*
G04 Layer:  BOARD GEOMETRY/LOGO*
G04 *
G04 Offset:    (0.000 0.000)*
G04 Mirror:    No*
G04 Mode:      Positive*
G04 Rotation:  0*
G04 FullContactRelief:  No*
G04 UndefLineWidth:     5.000*
G04 ================== end FILE IDENTIFICATION RECORD ====================*
%FSLAX55Y55*MOIN*%
%IR0*IPPOS*OFA0.00000B0.00000*MIA0B0*SFA1.00000B1.00000*%
%ADD12R,.059X.118*%
%AMMACRO40*
4,1,5,.0125,.007,
-.004264,.007,
-.0125,-.001236,
-.0125,-.007,
.0125,-.007,
.0125,.007,
0.0*
%
%ADD40MACRO40*%
%AMMACRO42*
4,1,5,.007,-.0125,
.007,.004264,
-.001236,.0125,
-.007,.0125,
-.007,-.0125,
.007,-.0125,
0.0*
%
%ADD42MACRO42*%
%AMMACRO43*
4,1,5,.0125,-.007,
-.004264,-.007,
-.0125,.001236,
-.0125,.007,
.0125,.007,
.0125,-.007,
0.0*
%
%ADD43MACRO43*%
%AMMACRO35*
4,1,5,-.007,-.0125,
-.007,.004264,
.001236,.0125,
.007,.0125,
.007,-.0125,
-.007,-.0125,
0.0*
%
%ADD35MACRO35*%
%AMMACRO44*
4,1,18,-.031496,.084646,
.031496,.084646,
.031496,-.084646,
-.031496,-.084646,
-.031496,-.046374,
-.023772,-.041906,
-.016941,-.036165,
-.011211,-.029326,
-.006756,-.021595,
-.003711,-.013207,
-.002168,-.004419,
-.002176,.004504,
-.003732,.01329,
-.006791,.021673,
-.011258,.029396,
-.016999,.036227,
-.023839,.041957,
-.031496,.046378,
-.031496,.084646,
0.0*
%
%ADD44MACRO44*%
%ADD25R,.011X.01*%
%ADD24R,.01X.011*%
%ADD27R,.03X.011*%
%ADD11R,.02X.021*%
%ADD15R,.021X.02*%
%ADD21R,.024X.01*%
%ADD32R,.032X.03*%
%ADD20R,.01X.024*%
%ADD28R,.03X.06*%
%ADD22R,.012X.016*%
%ADD14R,.011X.044*%
%ADD33R,.042X.014*%
%ADD23R,.016X.012*%
%ADD13R,.044X.011*%
%ADD41R,.025X.014*%
%ADD18R,.06X.05*%
%ADD36R,.014X.025*%
%ADD46R,.062X.06*%
%ADD17R,.04X.055*%
%ADD47R,.054X.016*%
%ADD31R,.032X.058*%
%ADD29R,.018X.026*%
%ADD10C,.04*%
%ADD30R,.024X.058*%
%AMMACRO38*
4,1,5,-.007,.0125,
-.007,-.004264,
.001236,-.0125,
.007,-.0125,
.007,.0125,
-.007,.0125,
0.0*
%
%ADD38MACRO38*%
%AMMACRO34*
4,1,5,-.0125,-.007,
.004264,-.007,
.0125,.001236,
.0125,.007,
-.0125,.007,
-.0125,-.007,
0.0*
%
%ADD34MACRO34*%
%ADD26R,.022X.022*%
%AMMACRO45*
4,1,18,.031496,-.084646,
-.031496,-.084646,
-.031496,.084646,
.031496,.084646,
.031496,.046374,
.023772,.041906,
.016941,.036165,
.011211,.029326,
.006756,.021595,
.003711,.013207,
.002168,.004419,
.002176,-.004504,
.003732,-.01329,
.006791,-.021673,
.011258,-.029396,
.016999,-.036227,
.023839,-.041957,
.031496,-.046378,
.031496,-.084646,
0.0*
%
%ADD45MACRO45*%
%ADD19R,.06X.06*%
%ADD49R,.02X.017992*%
%ADD16R,.018X.018*%
%ADD48R,.068X.099016*%
%AMMACRO39*
4,1,5,.007,.0125,
.007,-.004264,
-.001236,-.0125,
-.007,-.0125,
-.007,.0125,
.007,.0125,
0.0*
%
%ADD39MACRO39*%
%AMMACRO37*
4,1,5,-.0125,.007,
.004264,.007,
.0125,-.001236,
.0125,-.007,
-.0125,-.007,
-.0125,.007,
0.0*
%
%ADD37MACRO37*%
%ADD50C,.006*%
%ADD51C,.007098*%
%ADD52C,.005*%
G75*
%LPD*%
G75*
G36*
G01X351845Y181152D02*
X345645D01*
Y187652D01*
X351845D01*
Y181152D01*
G37*
G36*
G01Y205763D02*
X345645D01*
Y212263D01*
X351845D01*
Y205763D01*
G37*
G54D10*
X28000Y18000D03*
X173000Y15500D03*
X174606Y210120D03*
X241000Y13500D03*
X233500Y103500D03*
X227500Y133500D03*
X302000Y132000D03*
X350500Y93000D03*
X344850Y218617D03*
G54D20*
X145472Y41583D03*
X143504D03*
X141535D03*
X139567D03*
Y30559D03*
X141535D03*
X143504D03*
X145472D03*
X325303Y178129D03*
X323335D03*
X321366D03*
X319398D03*
Y167105D03*
X321366D03*
X323335D03*
X325303D03*
G54D11*
X38500Y69150D03*
Y65850D03*
X76106Y32270D03*
Y28970D03*
X71106Y32270D03*
Y28970D03*
X66106Y32270D03*
Y28970D03*
X71000Y82350D03*
Y85650D03*
X54500Y82350D03*
Y85650D03*
X59000Y82350D03*
Y85650D03*
X65000Y82350D03*
Y85650D03*
X127000Y92850D03*
Y96150D03*
X126606Y84270D03*
Y80970D03*
X149106Y48970D03*
Y52271D03*
X140106Y59771D03*
Y56470D03*
X158606Y65271D03*
Y61971D03*
X144606Y48970D03*
Y52271D03*
X140106Y48970D03*
Y52271D03*
X155069Y34634D03*
Y31334D03*
X254850Y166267D03*
Y162967D03*
X250850D03*
Y166267D03*
X258850D03*
Y162967D03*
X230900Y212950D03*
Y209650D03*
X282000Y186650D03*
Y183350D03*
X281000Y199850D03*
X274050Y162967D03*
Y166267D03*
X270050Y162967D03*
Y166267D03*
X286000Y163350D03*
Y166650D03*
X276500Y170350D03*
Y173650D03*
Y181150D03*
Y177850D03*
X281000Y203150D03*
X315000Y183850D03*
Y187150D03*
X329500Y193650D03*
Y190350D03*
Y197350D03*
Y200650D03*
G54D30*
X238957Y181333D03*
Y169326D03*
G54D21*
X148032Y33118D03*
Y35087D03*
Y37055D03*
Y39024D03*
X137008D03*
Y37055D03*
Y35087D03*
Y33118D03*
X316839Y175570D03*
Y173601D03*
Y171633D03*
Y169664D03*
X327862D03*
Y171633D03*
Y173601D03*
Y175570D03*
G54D12*
X36606Y140120D03*
X14606D03*
X58606D03*
X80606D03*
X102606D03*
X124606D03*
X147106Y63620D03*
X169106D03*
G54D31*
X243091Y181333D03*
Y169326D03*
X234823Y181333D03*
Y169326D03*
G54D13*
X44794Y68307D03*
Y66339D03*
Y64370D03*
Y62402D03*
Y60433D03*
Y58465D03*
Y56496D03*
Y54527D03*
Y52559D03*
Y50590D03*
Y48622D03*
Y46654D03*
X78828D03*
Y48622D03*
Y50590D03*
Y52559D03*
Y54527D03*
Y56496D03*
Y58465D03*
Y60433D03*
Y62402D03*
Y64370D03*
Y66339D03*
Y68307D03*
G54D22*
X139256Y83771D03*
X137287D03*
X135319D03*
X139256Y93394D03*
X137287D03*
X135319D03*
G54D40*
X270650Y177495D03*
G54D50*
G01X252565Y-247079D02*
Y-241079D01*
X255632Y-247079D01*
Y-241079D01*
G01X257432D02*
Y-245379D01*
X257698Y-246279D01*
X258232Y-246879D01*
X258898Y-247079D01*
X259565Y-246879D01*
X260098Y-246279D01*
X260365Y-245379D01*
Y-241079D01*
G01X261965Y-247079D02*
Y-241079D01*
X263698Y-246079D01*
X265432Y-241079D01*
Y-247079D01*
G01X269032Y-243879D02*
X269298Y-243579D01*
X269498Y-243079D01*
X269632Y-242379D01*
X269498Y-241779D01*
X269232Y-241379D01*
X268765Y-241079D01*
X266965D01*
Y-247079D01*
X269165D01*
X269632Y-246679D01*
X269898Y-246079D01*
X270032Y-245379D01*
X269898Y-244679D01*
X269498Y-244079D01*
X269032Y-243879D01*
X266965D01*
G01X274632Y-247079D02*
X271965D01*
Y-241079D01*
X274632D01*
G01X273565Y-243979D02*
X271965D01*
G01X276765Y-247079D02*
Y-241079D01*
X278432D01*
X278965Y-241379D01*
X279298Y-241779D01*
X279432Y-242579D01*
X279298Y-243379D01*
X278898Y-243879D01*
X278432Y-244179D01*
X276765D01*
G01X278432D02*
X279432Y-247079D01*
G01X231865Y-199579D02*
Y-193579D01*
X233532D01*
X234065Y-193879D01*
X234398Y-194279D01*
X234532Y-195079D01*
X234398Y-195879D01*
X233998Y-196379D01*
X233532Y-196679D01*
X231865D01*
G01X233532D02*
X234532Y-199579D01*
G01X237998D02*
X237465Y-199479D01*
X236998Y-199079D01*
X236598Y-198479D01*
X236332Y-197779D01*
X236198Y-196979D01*
Y-196179D01*
X236332Y-195379D01*
X236598Y-194679D01*
X236998Y-194079D01*
X237465Y-193679D01*
X237998Y-193579D01*
X238532Y-193679D01*
X238998Y-194079D01*
X239398Y-194679D01*
X239665Y-195379D01*
X239798Y-196179D01*
Y-196979D01*
X239665Y-197779D01*
X239398Y-198479D01*
X238998Y-199079D01*
X238532Y-199479D01*
X237998Y-199579D01*
G01X241398D02*
Y-193579D01*
G01X244198D02*
Y-199579D01*
G01Y-196579D02*
X241398D01*
G01X245865Y-199579D02*
Y-193579D01*
X247598Y-198579D01*
X249332Y-193579D01*
Y-199579D01*
G01X255798Y-198779D02*
X256332Y-199279D01*
X256932Y-199579D01*
X257465D01*
X257998Y-199279D01*
X258398Y-198779D01*
X258598Y-198079D01*
X258465Y-197379D01*
X258132Y-196779D01*
X257532Y-196379D01*
X256732Y-196179D01*
X256265Y-195779D01*
X256065Y-195079D01*
X256198Y-194379D01*
X256532Y-193879D01*
X256998Y-193579D01*
X257465D01*
X257932Y-193779D01*
X258332Y-194279D01*
G01X263332Y-199579D02*
X260665D01*
Y-193579D01*
X263332D01*
G01X262265Y-196479D02*
X260665D01*
G01X265065Y-199579D02*
Y-193579D01*
X266798Y-198579D01*
X268532Y-193579D01*
Y-199579D01*
G01X270798Y-193579D02*
X272398D01*
G01X271598D02*
Y-199579D01*
G01X270798D02*
X272398D01*
G01X277865Y-194079D02*
X277465Y-193779D01*
X276998Y-193579D01*
X276465D01*
X275865Y-193879D01*
X275398Y-194379D01*
X275065Y-194979D01*
X274798Y-195979D01*
X274732Y-196879D01*
X274865Y-197779D01*
X275065Y-198379D01*
X275465Y-198979D01*
X275932Y-199379D01*
X276398Y-199579D01*
X276865D01*
X277332Y-199379D01*
X277732Y-199079D01*
X278065Y-198679D01*
G01X281198Y-199579D02*
X280665Y-199479D01*
X280198Y-199079D01*
X279798Y-198479D01*
X279532Y-197779D01*
X279398Y-196979D01*
Y-196179D01*
X279532Y-195379D01*
X279798Y-194679D01*
X280198Y-194079D01*
X280665Y-193679D01*
X281198Y-193579D01*
X281732Y-193679D01*
X282198Y-194079D01*
X282598Y-194679D01*
X282865Y-195379D01*
X282998Y-196179D01*
Y-196979D01*
X282865Y-197779D01*
X282598Y-198479D01*
X282198Y-199079D01*
X281732Y-199479D01*
X281198Y-199579D01*
G01X284465D02*
Y-193579D01*
X287532Y-199579D01*
Y-193579D01*
G01X289332Y-199579D02*
Y-193579D01*
X290665D01*
X291198Y-193879D01*
X291598Y-194279D01*
X291932Y-194879D01*
X292198Y-195579D01*
X292265Y-196579D01*
X292198Y-197579D01*
X291932Y-198279D01*
X291598Y-198879D01*
X291198Y-199279D01*
X290665Y-199579D01*
X289332D01*
G01X294132Y-193579D02*
Y-197879D01*
X294398Y-198779D01*
X294932Y-199379D01*
X295598Y-199579D01*
X296265Y-199379D01*
X296798Y-198779D01*
X297065Y-197879D01*
Y-193579D01*
G01X301865Y-194079D02*
X301465Y-193779D01*
X300999Y-193579D01*
X300465D01*
X299865Y-193879D01*
X299398Y-194379D01*
X299065Y-194979D01*
X298798Y-195979D01*
X298732Y-196879D01*
X298865Y-197779D01*
X299065Y-198379D01*
X299465Y-198979D01*
X299932Y-199379D01*
X300398Y-199579D01*
X300865D01*
X301332Y-199379D01*
X301732Y-199079D01*
X302065Y-198679D01*
G01X305198Y-193579D02*
Y-199579D01*
G01X303665Y-193579D02*
X306732D01*
G01X309998Y-199579D02*
X309465Y-199479D01*
X308998Y-199079D01*
X308598Y-198479D01*
X308332Y-197779D01*
X308198Y-196979D01*
Y-196179D01*
X308332Y-195379D01*
X308598Y-194679D01*
X308998Y-194079D01*
X309465Y-193679D01*
X309998Y-193579D01*
X310532Y-193679D01*
X310998Y-194079D01*
X311398Y-194679D01*
X311665Y-195379D01*
X311798Y-196179D01*
Y-196979D01*
X311665Y-197779D01*
X311398Y-198479D01*
X310998Y-199079D01*
X310532Y-199479D01*
X309998Y-199579D01*
G01X313465D02*
Y-193579D01*
X315132D01*
X315665Y-193879D01*
X315998Y-194279D01*
X316132Y-195079D01*
X315998Y-195879D01*
X315598Y-196379D01*
X315132Y-196679D01*
X313465D01*
G01X315132D02*
X316132Y-199579D01*
G01X322932Y-193579D02*
Y-197879D01*
X323198Y-198779D01*
X323732Y-199379D01*
X324398Y-199579D01*
X325065Y-199379D01*
X325598Y-198779D01*
X325865Y-197879D01*
Y-193579D01*
G01X327798Y-198779D02*
X328332Y-199279D01*
X328932Y-199579D01*
X329465D01*
X329998Y-199279D01*
X330398Y-198779D01*
X330598Y-198079D01*
X330465Y-197379D01*
X330132Y-196779D01*
X329532Y-196379D01*
X328732Y-196179D01*
X328265Y-195779D01*
X328065Y-195079D01*
X328198Y-194379D01*
X328532Y-193879D01*
X328998Y-193579D01*
X329465D01*
X329932Y-193779D01*
X330332Y-194279D01*
G01X332332Y-199579D02*
X333998Y-193579D01*
X335665Y-199579D01*
G01X335065Y-197479D02*
X332932D01*
G01X363698Y-241079D02*
X363165Y-241279D01*
X362765Y-241779D01*
X362498Y-242379D01*
X362298Y-243179D01*
X362232Y-244079D01*
X362298Y-244979D01*
X362498Y-245779D01*
X362765Y-246379D01*
X363165Y-246879D01*
X363698Y-247079D01*
X364232Y-246879D01*
X364632Y-246379D01*
X364898Y-245779D01*
X365098Y-244979D01*
X365165Y-244079D01*
X365098Y-243179D01*
X364898Y-242379D01*
X364632Y-241779D01*
X364232Y-241279D01*
X363698Y-241079D01*
G01X368498Y-247079D02*
Y-241079D01*
X367698Y-242279D01*
G01Y-247079D02*
X369298D01*
G54D41*
X270650Y175330D03*
G54D23*
X132476Y92520D03*
Y90551D03*
Y88583D03*
Y86614D03*
Y84646D03*
X142099Y92520D03*
Y90551D03*
Y88583D03*
Y86614D03*
Y84646D03*
G54D14*
X50984Y40464D03*
X52953D03*
X54921D03*
X56890D03*
X58858D03*
X60827D03*
X62795D03*
X64764D03*
X66732D03*
X68701D03*
X70669D03*
X72638D03*
Y74497D03*
X70669D03*
X68701D03*
X66732D03*
X64764D03*
X62795D03*
X60827D03*
X58858D03*
X56890D03*
X54921D03*
X52953D03*
X50984D03*
G54D32*
X288500Y199850D03*
Y205150D03*
G54D51*
G01X-36402Y-208819D02*
X-34622D01*
G01X-36402Y-210239D02*
Y-208819D01*
G01X-30261Y-209419D02*
X-36402D01*
G01Y-210119D02*
X-32742D01*
G01X-31952Y-215429D02*
X-36402Y-210239D01*
G01X-32502Y-210809D02*
X-35911D01*
G01X-34902Y-203619D02*
X-37752D01*
G01D02*
X-37952Y-203649D01*
G01D02*
X-38132Y-203729D01*
G01D02*
X-38302Y-203849D01*
G01D02*
X-38422Y-204009D01*
G01D02*
X-38502Y-204199D01*
G01D02*
X-38522Y-204399D01*
G01D02*
Y-215429D01*
G01X-41832Y-203179D02*
X-30211D01*
G01X-38311Y-203869D02*
X-41832D01*
G01Y-204559D02*
X-38522D01*
G01X-41832Y-205949D02*
X-38522D01*
G01Y-205259D02*
X-41832D01*
G01X-38522Y-206649D02*
X-41832D01*
G01Y-207339D02*
X-38522D01*
G01Y-208029D02*
X-41832D01*
G01Y-208729D02*
X-38522D01*
G01X-41832Y-210119D02*
X-38522D01*
G01Y-209419D02*
X-41832D01*
G01X-38522Y-210809D02*
X-41832D01*
G01Y-211499D02*
X-38522D01*
G01Y-212199D02*
X-41832D01*
G01X-38522Y-213589D02*
X-41832D01*
G01Y-212889D02*
X-38522D01*
G01X-41832Y-214279D02*
X-38522D01*
G01Y-214979D02*
X-41832D01*
G01Y-215429D02*
Y-202679D01*
G01X-13222Y-204709D02*
X-13502Y-204189D01*
G01X-13011Y-205869D02*
X-13061Y-205279D01*
G01D02*
X-13222Y-204709D01*
G01X-13061Y-212559D02*
X-13011Y-212009D01*
G01D02*
Y-205869D01*
G01X-13242Y-213079D02*
X-13061Y-212559D01*
G01X-13531Y-213549D02*
X-13242Y-213079D01*
G01X-13502Y-204189D02*
X-13882Y-203739D01*
G01D02*
X-14402Y-203299D01*
G01X-14382Y-214379D02*
X-13922Y-213939D01*
G01D02*
X-13531Y-213549D01*
G01X-14402Y-203299D02*
X-14982Y-202949D01*
G01X-14911Y-214729D02*
X-14382Y-214379D01*
G01X-14982Y-202949D02*
X-15611Y-202679D01*
G01X-16122Y-205419D02*
X-16082Y-205869D01*
G01Y-205949D02*
X-13011D01*
G01X-13061Y-205259D02*
X-16172D01*
G01X-13011Y-206649D02*
X-16082D01*
G01Y-207339D02*
X-13011D01*
G01Y-208029D02*
X-16082D01*
G01Y-208729D02*
X-13011D01*
G01X-16082Y-210119D02*
X-13011D01*
G01Y-209419D02*
X-16082D01*
G01X-13011Y-210809D02*
X-16082D01*
G01Y-205869D02*
Y-211539D01*
G01Y-211499D02*
X-13011D01*
G01X-16082Y-211539D02*
X-16142Y-212119D01*
G01X-13032Y-212199D02*
X-16172D01*
G01X-15492Y-214999D02*
X-14911Y-214729D01*
G01X-16832Y-204329D02*
X-16502Y-204629D01*
G01D02*
X-16261Y-204999D01*
G01D02*
X-16122Y-205419D01*
G01X-16582Y-204559D02*
X-13302D01*
G01X-16142Y-212119D02*
X-16331Y-212679D01*
G01D02*
X-16632Y-213189D01*
G01X-16461Y-212889D02*
X-13181D01*
G01X-16361Y-215259D02*
X-15492Y-214999D01*
G01X-17742Y-203779D02*
X-17261Y-204009D01*
G01D02*
X-16832Y-204329D01*
G01X-13772Y-203869D02*
X-17552D01*
G01X-16632Y-213189D02*
X-17102Y-213559D01*
G01X-13572Y-213589D02*
X-17161D01*
G01X-17102Y-213559D02*
X-17632Y-213819D01*
G01X-18802Y-203619D02*
X-18261Y-203649D01*
G01D02*
X-17742Y-203779D01*
G01X-17632Y-213819D02*
X-18202Y-213979D01*
G01D02*
X-18802Y-214019D01*
G01X-20252Y-203619D02*
X-18802D01*
G01Y-214019D02*
X-20411D01*
G01X-20822Y-203659D02*
X-20252Y-203619D01*
G01X-20411Y-214019D02*
X-20892Y-213969D01*
G01X-21872Y-204079D02*
X-21372Y-203809D01*
G01D02*
X-20822Y-203659D01*
G01X-21361Y-213819D02*
X-21782Y-213589D01*
G01X-20892Y-213969D02*
X-21361Y-213819D01*
G01X-22302Y-204449D02*
X-21872Y-204079D01*
G01X-22572Y-204759D02*
X-22302Y-204449D01*
G01X-22932Y-205909D02*
X-22892Y-205499D01*
G01D02*
X-22772Y-205109D01*
G01D02*
X-22572Y-204759D01*
G01X-22932Y-208349D02*
Y-205909D01*
G01Y-211539D02*
Y-208349D01*
G01X-22752Y-212499D02*
X-22902Y-212029D01*
G01D02*
X-22932Y-211539D01*
G01X-21782Y-213589D02*
X-22142Y-213269D01*
G01D02*
X-22492Y-212919D01*
G01D02*
X-22752Y-212499D01*
G01X-23652Y-214999D02*
X-22972Y-215199D01*
G01X-23711Y-214979D02*
X-15442D01*
G01X-23602Y-202639D02*
X-24311Y-203029D01*
G01X-24492Y-203179D02*
X-14611D01*
G01X-24302Y-214709D02*
X-23652Y-214999D01*
G01X-24311Y-203029D02*
X-24942Y-203539D01*
G01D02*
X-25311Y-203849D01*
G01X-21472Y-203869D02*
X-25322D01*
G01X-21772Y-213589D02*
X-25652D01*
G01X-25292Y-214039D02*
X-24902Y-214329D01*
G01D02*
X-24302Y-214709D01*
G01X-24972Y-214279D02*
X-14282D01*
G01X-25311Y-203849D02*
X-25602Y-204229D01*
G01X-25832Y-204649D02*
X-25961Y-205109D01*
G01X-25602Y-204229D02*
X-25832Y-204649D01*
G01X-25782Y-204559D02*
X-22402D01*
G01X-25961Y-205109D02*
X-26002Y-205589D01*
G01X-22822Y-205259D02*
X-25972D01*
G01X-26002Y-205949D02*
X-22932D01*
G01Y-206649D02*
X-26002D01*
G01Y-207339D02*
X-22932D01*
G01X-26002Y-205589D02*
Y-208349D01*
G01D02*
X-22932D01*
G01D02*
X-26002D01*
G01X-22932Y-208029D02*
X-26002D01*
G01Y-208729D02*
X-22932D01*
G01Y-209419D02*
X-26002D01*
G01Y-210119D02*
X-22932D01*
G01Y-210809D02*
X-26002D01*
G01Y-211499D02*
X-22932D01*
G01X-26002Y-208349D02*
Y-212279D01*
G01D02*
X-25972Y-212769D01*
G01X-22842Y-212199D02*
X-26002D01*
G01X-25972Y-212769D02*
X-25832Y-213239D01*
G01D02*
X-25602Y-213669D01*
G01D02*
X-25292Y-214039D01*
G01X-25932Y-212889D02*
X-22511D01*
G01X-29552Y-203859D02*
X-29332Y-204169D01*
G01D02*
X-29182Y-204519D01*
G01D02*
X-29092Y-204899D01*
G01D02*
X-29072Y-205279D01*
G01D02*
Y-207279D01*
G01D02*
X-29111Y-207759D01*
G01D02*
X-29232Y-208219D01*
G01D02*
X-29452Y-208639D01*
G01D02*
X-29742Y-209019D01*
G01X-30452Y-202979D02*
X-29961Y-203379D01*
G01D02*
X-29552Y-203859D01*
G01X-29742Y-209019D02*
X-30102Y-209329D01*
G01X-31002Y-202679D02*
X-30452Y-202979D01*
G01X-30102Y-209329D02*
X-30702Y-209669D01*
G01D02*
X-31361Y-209909D01*
G01X-32142Y-205629D02*
X-32202Y-205189D01*
G01D02*
X-32352Y-204779D01*
G01X-29072Y-205259D02*
X-32192D01*
G01X-32142Y-205949D02*
X-29072D01*
G01X-32142Y-206729D02*
Y-205629D01*
G01X-29072Y-206649D02*
X-32142D01*
G01X-32311Y-207589D02*
X-32192Y-207169D01*
G01D02*
X-32142Y-206729D01*
G01X-32242Y-207339D02*
X-29082D01*
G01X-31361Y-209909D02*
X-32042Y-210029D01*
G01X-28702Y-214979D02*
X-32342D01*
G01X-32352Y-204779D02*
X-32582Y-204409D01*
G01D02*
X-32892Y-204099D01*
G01X-32482Y-204559D02*
X-29172D01*
G01X-32961Y-208359D02*
X-32502Y-207989D01*
G01D02*
X-32311Y-207589D01*
G01X-29182Y-208029D02*
X-32552D01*
G01X-32042Y-210029D02*
X-32742Y-210039D01*
G01D02*
Y-210549D01*
G01D02*
X-28292Y-215429D01*
G01X-32932Y-214279D02*
X-29342D01*
G01X-32892Y-204099D02*
X-33532Y-203809D01*
G01X-29542Y-203869D02*
X-33402D01*
G01X-34042Y-208779D02*
X-33482Y-208629D01*
G01D02*
X-32961Y-208359D01*
G01X-33852Y-208729D02*
X-29511D01*
G01X-34122Y-212889D02*
X-30602D01*
G01X-29972Y-213589D02*
X-33532D01*
G01Y-203809D02*
X-34211Y-203649D01*
G01D02*
X-34902Y-203619D01*
G01X-34622Y-208819D02*
X-34042Y-208779D01*
G01X-31232Y-212199D02*
X-34722D01*
G01X-35311Y-211499D02*
X-31872D01*
G01X-92Y-207869D02*
X-5592D01*
G01D02*
X-5802Y-207849D01*
G01X-5822Y-209549D02*
X-5622Y-209529D01*
G01D02*
X-142D01*
G01X-5802Y-207849D02*
X-5992Y-207769D01*
G01D02*
X-6161Y-207639D01*
G01D02*
X-6292Y-207469D01*
G01D02*
X-6372Y-207279D01*
G01D02*
X-6402Y-207069D01*
G01D02*
Y-202679D01*
G01X-6011Y-209629D02*
X-5822Y-209549D01*
G01X-6372Y-210109D02*
X-6292Y-209919D01*
G01D02*
X-6172Y-209759D01*
G01D02*
X-6011Y-209629D01*
G01X-6402Y-210309D02*
X-6372Y-210109D01*
G01X-6402Y-215429D02*
Y-210309D01*
G01X-9702Y-203179D02*
X-6402D01*
G01Y-203869D02*
X-9702D01*
G01Y-204559D02*
X-6402D01*
G01Y-205259D02*
X-9702D01*
G01Y-205949D02*
X-6402D01*
G01Y-206649D02*
X-9702D01*
G01Y-207339D02*
X-6342D01*
G01X-9702Y-208029D02*
X3998D01*
G01Y-208729D02*
X-9702D01*
G01X-6372Y-210119D02*
X-9702D01*
G01Y-209419D02*
X3998D01*
G01X-9702Y-210809D02*
X-6402D01*
G01Y-211499D02*
X-9702D01*
G01Y-212199D02*
X-6402D01*
G01Y-212889D02*
X-9702D01*
G01Y-213589D02*
X-6402D01*
G01Y-214279D02*
X-9702D01*
G01Y-214979D02*
X-6402D01*
G01X-9702Y-202679D02*
Y-215429D01*
G01X-35572Y-219939D02*
X-35761Y-219999D01*
G01X-35511Y-223209D02*
X-35692Y-223169D01*
G01X-35761Y-219999D02*
X-35942Y-220089D01*
G01D02*
X-36092Y-220219D01*
G01D02*
X-36222Y-220369D01*
G01D02*
X-36311Y-220549D01*
G01D02*
X-36372Y-220739D01*
G01D02*
X-36392Y-220939D01*
G01X-36402Y-222169D02*
Y-221579D01*
G01D02*
X-33561D01*
G01X-36402Y-220939D02*
Y-221579D01*
G01X-35692Y-223169D02*
X-35861Y-223089D01*
G01D02*
X-36011Y-222979D01*
G01D02*
X-36142Y-222849D01*
G01D02*
X-36252Y-222699D01*
G01D02*
X-36332Y-222529D01*
G01D02*
X-36372Y-222349D01*
G01D02*
X-36392Y-222169D01*
G01X-39161Y-221589D02*
X-39011Y-221629D01*
G01D02*
X-38882Y-221699D01*
G01D02*
X-38752Y-221799D01*
G01D02*
X-38652Y-221929D01*
G01D02*
X-38582Y-222059D01*
G01D02*
X-38542Y-222209D01*
G01D02*
X-38522Y-222369D01*
G01D02*
X-38542Y-222539D01*
G01D02*
X-38592Y-222699D01*
G01D02*
X-38661Y-222849D01*
G01D02*
X-38772Y-222979D01*
G01D02*
X-38902Y-223089D01*
G01D02*
X-39052Y-223159D01*
G01D02*
X-39211Y-223209D01*
G01X-39322Y-221569D02*
X-39161Y-221589D01*
G01X-39211Y-223209D02*
X-39382Y-223229D01*
G01X-40942Y-221579D02*
X-39322D01*
G01X-38522Y-215429D02*
X-41832D01*
G01X-38522Y-219919D02*
X-41072D01*
G01D02*
X-41242Y-219939D01*
G01D02*
X-41402Y-219999D01*
G01D02*
X-41542Y-220089D01*
G01D02*
X-41661Y-220209D01*
G01X-41682Y-221169D02*
X-41572Y-221309D01*
G01D02*
X-41432Y-221419D01*
G01D02*
X-41282Y-221499D01*
G01D02*
X-41111Y-221549D01*
G01D02*
X-40942Y-221569D01*
G01X-39382Y-223229D02*
X-41832D01*
G01X-41661Y-220209D02*
X-41752Y-220349D01*
G01D02*
X-41811Y-220509D01*
G01X-41832Y-220679D02*
X-41811Y-220849D01*
G01D02*
X-41761Y-221019D01*
G01X-41811Y-220509D02*
X-41832Y-220679D01*
G01X-41761Y-221019D02*
X-41682Y-221169D01*
G01X-8602Y-223229D02*
X-10882Y-219919D01*
G01D02*
X-11361D01*
G01D02*
Y-223229D01*
G01X-14022Y-220379D02*
X-14182Y-220219D01*
G01D02*
X-14372Y-220089D01*
G01X-13722Y-221219D02*
X-13742Y-220989D01*
G01D02*
X-13802Y-220779D01*
G01D02*
X-13892Y-220569D01*
G01D02*
X-14022Y-220379D01*
G01X-13722Y-221909D02*
Y-221219D01*
G01X-13742Y-222119D02*
X-13722Y-221909D01*
G01X-14261Y-222979D02*
X-14111Y-222839D01*
G01D02*
X-13972Y-222689D01*
G01D02*
X-13861Y-222509D01*
G01D02*
X-13782Y-222319D01*
G01D02*
X-13742Y-222119D01*
G01X-14372Y-220089D02*
X-14582Y-219999D01*
G01D02*
X-14792Y-219939D01*
G01D02*
X-15022Y-219919D01*
G01X-15042Y-223229D02*
X-14832Y-223209D01*
G01D02*
X-14632Y-223169D01*
G01D02*
X-14442Y-223089D01*
G01D02*
X-14261Y-222979D01*
G01X-15022Y-219919D02*
X-15761D01*
G01D02*
X-15982Y-219939D01*
G01X-16182Y-223149D02*
X-15961Y-223209D01*
G01D02*
X-15742Y-223229D01*
G01D02*
X-15042D01*
G01X-15982Y-219939D02*
X-16192Y-219999D01*
G01D02*
X-16392Y-220089D01*
G01D02*
X-16582Y-220219D01*
G01D02*
X-16732Y-220369D01*
G01D02*
X-16861Y-220549D01*
G01D02*
X-16952Y-220759D01*
G01D02*
X-17011Y-220969D01*
G01D02*
X-17032Y-221189D01*
G01D02*
Y-221939D01*
G01D02*
X-17011Y-222159D01*
G01D02*
X-16952Y-222379D01*
G01D02*
X-16861Y-222579D01*
G01D02*
X-16732Y-222769D01*
G01D02*
X-16572Y-222929D01*
G01D02*
X-16392Y-223059D01*
G01D02*
X-16182Y-223149D01*
G01X-17261Y-215399D02*
X-16361Y-215259D01*
G01X-18172Y-215429D02*
X-17261Y-215399D01*
G01X-20922Y-215429D02*
X-18172D01*
G01X-21111Y-219939D02*
X-20902Y-219919D01*
G01D02*
X-19152D01*
G01Y-223229D02*
X-20902D01*
G01D02*
X-21092Y-223209D01*
G01D02*
X-21272Y-223159D01*
G01X-21952Y-215369D02*
X-20922Y-215429D01*
G01X-21322Y-219999D02*
X-21111Y-219939D01*
G01X-21672Y-220239D02*
X-21511Y-220099D01*
G01D02*
X-21322Y-219999D01*
G01X-21992Y-221009D02*
X-21972Y-220799D01*
G01D02*
X-21911Y-220589D01*
G01D02*
X-21811Y-220399D01*
G01D02*
X-21672Y-220239D01*
G01X-21992Y-222139D02*
Y-221009D01*
G01X-21272Y-223159D02*
X-21452Y-223079D01*
G01D02*
X-21602Y-222969D01*
G01D02*
X-21732Y-222839D01*
G01D02*
X-21842Y-222679D01*
G01D02*
X-21922Y-222509D01*
G01D02*
X-21972Y-222329D01*
G01D02*
X-21992Y-222139D01*
G01X-22972Y-215199D02*
X-21952Y-215369D01*
G01X-24592Y-219919D02*
Y-223229D01*
G01X-27182D02*
Y-219919D01*
G01D02*
X-27702D01*
G01D02*
X-29111Y-223229D01*
G01D02*
X-30652Y-219919D01*
G01D02*
X-31202D01*
G01D02*
Y-223229D01*
G01X-28292Y-215429D02*
X-31952D01*
G01X-33561Y-219919D02*
X-35372D01*
G01D02*
X-35572Y-219939D01*
G01X-33561Y-223229D02*
X-35332D01*
G01D02*
X-35511Y-223209D01*
G01X-5692Y-219919D02*
X-3911D01*
G01X-3931Y-223229D02*
X-5692D01*
G01D02*
Y-219919D01*
G01X-8052D02*
Y-223229D01*
G01D02*
X-8602D01*
G01X-9702Y-215429D02*
X-6402D01*
G01X-37342Y-202209D02*
X-34311D01*
G01X-39592Y-202349D02*
X-37342Y-202209D01*
G01X-40492Y-202479D02*
X-31922D01*
G01X-41832Y-202679D02*
X-39592Y-202349D01*
G01X-15611Y-202679D02*
X-16422Y-202399D01*
G01D02*
X-17272Y-202239D01*
G01D02*
X-18132Y-202209D01*
G01D02*
X-21242D01*
G01D02*
X-22042Y-202239D01*
G01D02*
X-22842Y-202379D01*
G01X-16182Y-202479D02*
X-23132D01*
G01X-22842Y-202379D02*
X-23602Y-202639D01*
G01X-32642Y-202329D02*
X-31002Y-202679D01*
G01X-34311Y-202209D02*
X-32642Y-202329D01*
G01X-6402Y-202679D02*
X-9702D01*
G01X-3261Y-220089D02*
X-3082Y-220219D01*
G01D02*
X-2922Y-220379D01*
G01D02*
X-2792Y-220559D01*
G01D02*
X-2702Y-220769D01*
G01D02*
X-2642Y-220989D01*
G01D02*
X-2622Y-221209D01*
G01D02*
Y-221919D01*
G01D02*
X-2642Y-222119D01*
G01D02*
X-2682Y-222319D01*
G01D02*
X-2761Y-222509D01*
G01D02*
X-2872Y-222689D01*
G01D02*
X-3002Y-222849D01*
G01D02*
X-3161Y-222979D01*
G01X-3911Y-219919D02*
X-3692Y-219939D01*
G01D02*
X-3472Y-219999D01*
G01D02*
X-3261Y-220089D01*
G01X-3161Y-222979D02*
X-3342Y-223089D01*
G01D02*
X-3532Y-223169D01*
G01D02*
X-3732Y-223209D01*
G01D02*
X-3931Y-223229D01*
G01X13658Y-204449D02*
X13678Y-204659D01*
G01X13668Y-204559D02*
X16998D01*
G01X16989Y-205259D02*
X13678D01*
G01Y-205949D02*
X16989D01*
G01Y-206649D02*
X13678D01*
G01Y-207339D02*
X16989D01*
G01Y-208029D02*
X13678D01*
G01Y-208729D02*
X16989D01*
G01Y-209419D02*
X13678D01*
G01Y-210119D02*
X16989D01*
G01Y-210809D02*
X13678D01*
G01Y-211499D02*
X16989D01*
G01Y-212199D02*
X13678D01*
G01Y-212889D02*
X16989D01*
G01Y-213589D02*
X13678D01*
G01Y-214279D02*
X16989D01*
G01Y-214979D02*
X13678D01*
G01Y-204659D02*
Y-215429D01*
G01X12878Y-203859D02*
X13089Y-203889D01*
G01D02*
X13278Y-203969D01*
G01D02*
X13448Y-204089D01*
G01D02*
X13568Y-204259D01*
G01D02*
X13658Y-204449D01*
G01X17718Y-203869D02*
X12958D01*
G01X11218Y-203889D02*
X11439Y-203859D01*
G01D02*
X12878D01*
G01X10848Y-204099D02*
X11028Y-203969D01*
G01D02*
X11218Y-203889D01*
G01X10608Y-204689D02*
X10639Y-204469D01*
G01D02*
X10718Y-204269D01*
G01D02*
X10848Y-204099D01*
G01X10608Y-215429D02*
Y-204689D01*
G01X7539Y-203179D02*
X21818D01*
G01X11358Y-203869D02*
X7539D01*
G01Y-204559D02*
X10628D01*
G01X7539Y-205949D02*
X10608D01*
G01Y-205259D02*
X7539D01*
G01X10608Y-206649D02*
X7539D01*
G01Y-207339D02*
X10608D01*
G01Y-208029D02*
X7539D01*
G01Y-208729D02*
X10608D01*
G01X7539Y-210119D02*
X10608D01*
G01Y-209419D02*
X7539D01*
G01X10608Y-210809D02*
X7539D01*
G01Y-211499D02*
X10608D01*
G01Y-212199D02*
X7539D01*
G01X10608Y-213589D02*
X7539D01*
G01Y-212889D02*
X10608D01*
G01X7539Y-214279D02*
X10608D01*
G01Y-214979D02*
X7539D01*
G01Y-202679D02*
Y-215429D01*
G01X3998D02*
Y-202679D01*
G01X689Y-203179D02*
X3998D01*
G01Y-203869D02*
X689D01*
G01Y-204559D02*
X3998D01*
G01X689Y-205949D02*
X3998D01*
G01Y-205259D02*
X689D01*
G01X3998Y-206649D02*
X689D01*
G01Y-202679D02*
Y-207089D01*
G01D02*
X658Y-207289D01*
G01D02*
X578Y-207479D01*
G01X639Y-207339D02*
X3998D01*
G01X578Y-207479D02*
X458Y-207649D01*
G01D02*
X298Y-207769D01*
G01D02*
X108Y-207849D01*
G01X68Y-209559D02*
X278Y-209639D01*
G01D02*
X448Y-209769D01*
G01D02*
X578Y-209939D01*
G01D02*
X658Y-210139D01*
G01X3998Y-210119D02*
X648D01*
G01X658Y-210139D02*
X689Y-210359D01*
G01Y-210809D02*
X3998D01*
G01Y-211499D02*
X689D01*
G01Y-212199D02*
X3998D01*
G01X689Y-213589D02*
X3998D01*
G01Y-212889D02*
X689D01*
G01X3998Y-214279D02*
X689D01*
G01Y-214979D02*
X3998D01*
G01X689Y-210359D02*
Y-215429D01*
G01X108Y-207849D02*
X-92Y-207869D01*
G01X-142Y-209529D02*
X68Y-209559D01*
G01X23128Y-205469D02*
X23078Y-204919D01*
G01X23128Y-215429D02*
Y-205469D01*
G01X23078Y-204919D02*
X22918Y-204389D01*
G01D02*
X22639Y-203909D01*
G01D02*
X22258Y-203499D01*
G01D02*
X21608Y-203019D01*
G01D02*
X20878Y-202659D01*
G01X19768Y-204299D02*
X19928Y-204539D01*
G01D02*
X20028Y-204819D01*
G01X19939Y-204559D02*
X22968D01*
G01X20028Y-204819D02*
X20058Y-205119D01*
G01X23108Y-205259D02*
X20058D01*
G01Y-205949D02*
X23128D01*
G01Y-206649D02*
X20058D01*
G01Y-207339D02*
X23128D01*
G01Y-208029D02*
X20058D01*
G01Y-208729D02*
X23128D01*
G01Y-209419D02*
X20058D01*
G01Y-210119D02*
X23128D01*
G01Y-210809D02*
X20058D01*
G01Y-211499D02*
X23128D01*
G01Y-212199D02*
X20058D01*
G01Y-212889D02*
X23128D01*
G01Y-213589D02*
X20058D01*
G01Y-214279D02*
X23128D01*
G01Y-214979D02*
X20058D01*
G01Y-205119D02*
Y-215429D01*
G01X19068Y-203929D02*
X19548Y-204099D01*
G01D02*
X19768Y-204299D01*
G01X18558Y-203859D02*
X19068Y-203929D01*
G01X22598Y-203869D02*
X18639D01*
G01X17228Y-204099D02*
X17398Y-203969D01*
G01D02*
X17589Y-203889D01*
G01D02*
X17798Y-203859D01*
G01D02*
X18558D01*
G01X17098Y-204259D02*
X17228Y-204099D01*
G01X16989Y-204669D02*
X17018Y-204459D01*
G01D02*
X17098Y-204259D01*
G01X16989Y-215429D02*
Y-204669D01*
G01X14919Y-220379D02*
X14789Y-220559D01*
G01D02*
X14698Y-220769D01*
G01D02*
X14639Y-220989D01*
G01D02*
X14619Y-221209D01*
G01X14628D02*
Y-221919D01*
G01D02*
X14648Y-222119D01*
G01D02*
X14689Y-222319D01*
G01D02*
X14769Y-222509D01*
G01D02*
X14878Y-222689D01*
G01X13678Y-215429D02*
X16989D01*
G01X12498Y-219919D02*
X11078D01*
G01D02*
Y-223229D01*
G01X9668Y-219919D02*
X11078D01*
G01X7539Y-215429D02*
X10608D01*
G01X5978Y-219919D02*
X7778D01*
G01Y-223229D02*
X6008D01*
G01X5308Y-220159D02*
X5458Y-220059D01*
G01D02*
X5619Y-219979D01*
G01D02*
X5798Y-219939D01*
G01D02*
X5978Y-219919D01*
G01X6008Y-223229D02*
X5818Y-223209D01*
G01D02*
X5639Y-223169D01*
G01D02*
X5468Y-223089D01*
G01D02*
X5318Y-222979D01*
G01X4998Y-220599D02*
X5078Y-220439D01*
G01D02*
X5178Y-220289D01*
G01D02*
X5308Y-220159D01*
G01X4939Y-220959D02*
X4958Y-220779D01*
G01D02*
X4998Y-220599D01*
G01X4939Y-222159D02*
Y-220959D01*
G01X5318Y-222979D02*
X5189Y-222849D01*
G01D02*
X5078Y-222689D01*
G01D02*
X4998Y-222529D01*
G01D02*
X4958Y-222349D01*
G01D02*
X4939Y-222159D01*
G01X2818Y-219919D02*
Y-221919D01*
G01X2808D02*
X2789Y-222149D01*
G01D02*
X2728Y-222369D01*
G01D02*
X2628Y-222569D01*
G01D02*
X2498Y-222759D01*
G01D02*
X2339Y-222919D01*
G01D02*
X2158Y-223049D01*
G01D02*
X1948Y-223149D01*
G01D02*
X1728Y-223209D01*
G01D02*
X1498Y-223229D01*
G01D02*
X978D01*
G01X689Y-215429D02*
X3998D01*
G01X978Y-223229D02*
X758Y-223209D01*
G01D02*
X558Y-223159D01*
G01D02*
X358Y-223059D01*
G01D02*
X178Y-222939D01*
G01X-252Y-221989D02*
Y-219919D01*
G01X178Y-222939D02*
X28Y-222789D01*
G01D02*
X-92Y-222609D01*
G01D02*
X-192Y-222409D01*
G01D02*
X-242Y-222209D01*
G01D02*
X-261Y-221989D01*
G01X23068Y-220409D02*
X23108Y-220559D01*
G01D02*
X23128Y-220719D01*
G01D02*
X23108Y-220889D01*
G01X22328Y-219919D02*
X22489Y-219939D01*
G01D02*
X22639Y-219979D01*
G01D02*
X22768Y-220049D01*
G01D02*
X22898Y-220149D01*
G01D02*
X22998Y-220279D01*
G01D02*
X23068Y-220409D01*
G01X23108Y-220889D02*
X23058Y-221049D01*
G01D02*
X22989Y-221199D01*
G01D02*
X22878Y-221329D01*
G01D02*
X22748Y-221439D01*
G01D02*
X22598Y-221509D01*
G01D02*
X22439Y-221559D01*
G01D02*
X22268Y-221579D01*
G01D02*
X21989D01*
G01X22889Y-223229D02*
X21989Y-221579D01*
G01X20058Y-215429D02*
X23128D01*
G01X20058Y-219919D02*
X22328D01*
G01X21989Y-221579D02*
X20058D01*
G01Y-219919D02*
Y-221579D01*
G01D02*
Y-223229D01*
G01X17928Y-221199D02*
X17908Y-220979D01*
G01X17928Y-221929D02*
Y-221199D01*
G01X17908Y-222159D02*
X17928Y-221929D01*
G01X17908Y-220979D02*
X17848Y-220759D01*
G01D02*
X17758Y-220559D01*
G01D02*
X17628Y-220379D01*
G01D02*
X17468Y-220219D01*
G01D02*
X17289Y-220089D01*
G01X17278Y-223059D02*
X17468Y-222929D01*
G01D02*
X17628Y-222769D01*
G01D02*
X17758Y-222579D01*
G01D02*
X17848Y-222369D01*
G01D02*
X17908Y-222159D01*
G01X17289Y-220089D02*
X17089Y-219999D01*
G01D02*
X16868Y-219939D01*
G01D02*
X16648Y-219919D01*
G01X16628Y-223229D02*
X16858Y-223209D01*
G01D02*
X17068Y-223149D01*
G01D02*
X17278Y-223059D01*
G01X16648Y-219919D02*
X15908D01*
G01D02*
X15689Y-219939D01*
G01D02*
X15469Y-219999D01*
G01X15539Y-223169D02*
X15739Y-223209D01*
G01D02*
X15939Y-223229D01*
G01D02*
X16628D01*
G01X15469Y-219999D02*
X15269Y-220089D01*
G01D02*
X15078Y-220219D01*
G01D02*
X14919Y-220379D01*
G01X14878Y-222689D02*
X15008Y-222849D01*
G01D02*
X15169Y-222979D01*
G01D02*
X15348Y-223089D01*
G01D02*
X15539Y-223169D01*
G01X17778Y-202209D02*
X13448D01*
G01D02*
X10478Y-202299D01*
G01X9089Y-202479D02*
X20239D01*
G01X10478Y-202299D02*
X7539Y-202679D01*
G01X3998D02*
X689D01*
G01X20878Y-202659D02*
X20098Y-202439D01*
G01D02*
X18939Y-202269D01*
G01D02*
X17778Y-202209D01*
G54D33*
X263917Y175330D03*
G54D15*
X44150Y79000D03*
X40850D03*
X111650Y22000D03*
X108350D03*
X85456Y53621D03*
X88756D03*
X85456Y58121D03*
X88756D03*
X84956Y71121D03*
X88256D03*
X154919Y38984D03*
X158219D03*
X135756Y53621D03*
X132456D03*
Y49120D03*
X135756D03*
X154919Y43484D03*
X158219D03*
X170650Y96500D03*
X167350D03*
X168650Y81000D03*
X165350D03*
X140456Y99121D03*
X143756D03*
X135756D03*
X132456D03*
X210350Y203500D03*
X213650D03*
X253700Y179117D03*
X257000D03*
X253700Y175117D03*
X257000D03*
X238650Y204000D03*
X235350D03*
X238650Y208000D03*
X235350D03*
X285650Y156500D03*
X282350D03*
X295650Y166000D03*
X292350D03*
X280350Y196000D03*
X283650D03*
X284350Y192500D03*
X287650D03*
X318651Y184704D03*
X321951D03*
X329451D03*
X326151D03*
X327350Y204500D03*
X330650D03*
G54D24*
X170496Y91587D03*
X168528D03*
X170496Y85579D03*
X168528D03*
X174433Y91587D03*
X172465D03*
X174433Y85579D03*
X172465D03*
X288511Y172326D03*
X290480D03*
X292448D03*
X294417D03*
X288511Y178333D03*
X290480D03*
X292448D03*
X294417D03*
G54D42*
X269024Y171538D03*
G54D52*
G01X-83902Y-249579D02*
Y-174579D01*
X461098D01*
Y-249579D01*
X-83902D01*
G01X-36046Y-208819D02*
G03I-355J0D01*
G01Y-210239D02*
G03I-355J0D01*
G01Y-209419D02*
G03I-355J0D01*
G01Y-210119D02*
G03I-355J0D01*
G01X-35557Y-210809D02*
G03I-355J0D01*
G01X-37396Y-203619D02*
G03I-355J0D01*
G01X-37596Y-203649D02*
G03I-355J0D01*
G01X-37776Y-203729D02*
G03I-355J0D01*
G01X-37946Y-203849D02*
G03I-355J0D01*
G01X-38066Y-204009D02*
G03I-355J0D01*
G01X-37957Y-203869D02*
G03I-355J0D01*
G01X-38146Y-204199D02*
G03I-355J0D01*
G01X-38166Y-204399D02*
G03I-355J0D01*
G01Y-205259D02*
G03I-355J0D01*
G01Y-204559D02*
G03I-355J0D01*
G01Y-205949D02*
G03I-355J0D01*
G01Y-206649D02*
G03I-355J0D01*
G01Y-207339D02*
G03I-355J0D01*
G01Y-208029D02*
G03I-355J0D01*
G01Y-209419D02*
G03I-355J0D01*
G01Y-208729D02*
G03I-355J0D01*
G01Y-210119D02*
G03I-355J0D01*
G01Y-210809D02*
G03I-355J0D01*
G01Y-211499D02*
G03I-355J0D01*
G01Y-212889D02*
G03I-355J0D01*
G01Y-212199D02*
G03I-355J0D01*
G01Y-213589D02*
G03I-355J0D01*
G01Y-214279D02*
G03I-355J0D01*
G01Y-214979D02*
G03I-355J0D01*
G01X-41476Y-203179D02*
G03I-355J0D01*
G01Y-203869D02*
G03I-355J0D01*
G01Y-204559D02*
G03I-355J0D01*
G01Y-205949D02*
G03I-355J0D01*
G01Y-205259D02*
G03I-355J0D01*
G01Y-206649D02*
G03I-355J0D01*
G01Y-207339D02*
G03I-355J0D01*
G01Y-208029D02*
G03I-355J0D01*
G01Y-208729D02*
G03I-355J0D01*
G01Y-210119D02*
G03I-355J0D01*
G01Y-209419D02*
G03I-355J0D01*
G01Y-210809D02*
G03I-355J0D01*
G01Y-211499D02*
G03I-355J0D01*
G01Y-212199D02*
G03I-355J0D01*
G01Y-213589D02*
G03I-355J0D01*
G01Y-212889D02*
G03I-355J0D01*
G01Y-214279D02*
G03I-355J0D01*
G01Y-214979D02*
G03I-355J0D01*
G01X-13146Y-204189D02*
G03I-355J0D01*
G01X-12866Y-204709D02*
G03I-355J0D01*
G01X-12946Y-204559D02*
G03I-355J0D01*
G01X-12657Y-205869D02*
G03I-355J0D01*
G01X-12707Y-205279D02*
G03I-355J0D01*
G01X-12657Y-205949D02*
G03I-355J0D01*
G01X-12707Y-205259D02*
G03I-355J0D01*
G01X-12657Y-206649D02*
G03I-355J0D01*
G01Y-207339D02*
G03I-355J0D01*
G01Y-208029D02*
G03I-355J0D01*
G01Y-209419D02*
G03I-355J0D01*
G01Y-208729D02*
G03I-355J0D01*
G01Y-210119D02*
G03I-355J0D01*
G01Y-210809D02*
G03I-355J0D01*
G01Y-212009D02*
G03I-355J0D01*
G01Y-211499D02*
G03I-355J0D01*
G01X-12707Y-212559D02*
G03I-355J0D01*
G01X-12676Y-212199D02*
G03I-355J0D01*
G01X-13176Y-213549D02*
G03I-355J0D01*
G01X-12887Y-213079D02*
G03I-355J0D01*
G01X-13216Y-213589D02*
G03I-355J0D01*
G01X-12827Y-212889D02*
G03I-355J0D01*
G01X-14046Y-203299D02*
G03I-355J0D01*
G01X-13527Y-203739D02*
G03I-355J0D01*
G01X-13416Y-203869D02*
G03I-355J0D01*
G01X-14027Y-214379D02*
G03I-355J0D01*
G01X-13566Y-213939D02*
G03I-355J0D01*
G01X-13927Y-214279D02*
G03I-355J0D01*
G01X-14627Y-202949D02*
G03I-355J0D01*
G01X-14257Y-203179D02*
G03I-355J0D01*
G01X-14557Y-214729D02*
G03I-355J0D01*
G01X-15907Y-204999D02*
G03I-355J0D01*
G01X-15766Y-205419D02*
G03I-355J0D01*
G01X-15727Y-205869D02*
G03I-355J0D01*
G01Y-205949D02*
G03I-355J0D01*
G01X-15816Y-205259D02*
G03I-355J0D01*
G01X-15727Y-206649D02*
G03I-355J0D01*
G01Y-207339D02*
G03I-355J0D01*
G01Y-208029D02*
G03I-355J0D01*
G01Y-208729D02*
G03I-355J0D01*
G01Y-210119D02*
G03I-355J0D01*
G01Y-209419D02*
G03I-355J0D01*
G01Y-210809D02*
G03I-355J0D01*
G01Y-211539D02*
G03I-355J0D01*
G01Y-211499D02*
G03I-355J0D01*
G01X-15787Y-212119D02*
G03I-355J0D01*
G01X-15816Y-212199D02*
G03I-355J0D01*
G01X-15137Y-214999D02*
G03I-355J0D01*
G01X-15087Y-214979D02*
G03I-355J0D01*
G01X-16476Y-204329D02*
G03I-355J0D01*
G01X-16146Y-204629D02*
G03I-355J0D01*
G01X-16227Y-204559D02*
G03I-355J0D01*
G01X-15976Y-212679D02*
G03I-355J0D01*
G01X-16276Y-213189D02*
G03I-355J0D01*
G01X-16746Y-213559D02*
G03I-355J0D01*
G01X-16107Y-212889D02*
G03I-355J0D01*
G01X-17387Y-203779D02*
G03I-355J0D01*
G01X-16907Y-204009D02*
G03I-355J0D01*
G01X-17196Y-203869D02*
G03I-355J0D01*
G01X-16807Y-213589D02*
G03I-355J0D01*
G01X-17276Y-213819D02*
G03I-355J0D01*
G01X-18446Y-203619D02*
G03I-355J0D01*
G01X-17907Y-203649D02*
G03I-355J0D01*
G01X-17846Y-213979D02*
G03I-355J0D01*
G01X-18446Y-214019D02*
G03I-355J0D01*
G01X-19896Y-203619D02*
G03I-355J0D01*
G01X-20057Y-214019D02*
G03I-355J0D01*
G01X-21016Y-203809D02*
G03I-355J0D01*
G01X-20466Y-203659D02*
G03I-355J0D01*
G01X-20537Y-213969D02*
G03I-355J0D01*
G01X-21007Y-213819D02*
G03I-355J0D01*
G01X-21516Y-204079D02*
G03I-355J0D01*
G01X-21116Y-203869D02*
G03I-355J0D01*
G01X-21427Y-213589D02*
G03I-355J0D01*
G01X-21787Y-213269D02*
G03I-355J0D01*
G01X-21416Y-213589D02*
G03I-355J0D01*
G01X-21947Y-204449D02*
G03I-355J0D01*
G01D02*
G03I-355J0D01*
G01X-22046Y-204559D02*
G03I-355J0D01*
G01X-22416Y-205109D02*
G03I-355J0D01*
G01X-22216Y-204759D02*
G03I-355J0D01*
G01X-22576Y-205909D02*
G03I-355J0D01*
G01X-22537Y-205499D02*
G03I-355J0D01*
G01X-22466Y-205259D02*
G03I-355J0D01*
G01X-22576Y-205949D02*
G03I-355J0D01*
G01Y-206649D02*
G03I-355J0D01*
G01Y-207339D02*
G03I-355J0D01*
G01Y-208349D02*
G03I-355J0D01*
G01D02*
G03I-355J0D01*
G01D02*
G03I-355J0D01*
G01Y-208029D02*
G03I-355J0D01*
G01Y-208729D02*
G03I-355J0D01*
G01Y-209419D02*
G03I-355J0D01*
G01Y-210119D02*
G03I-355J0D01*
G01Y-210809D02*
G03I-355J0D01*
G01Y-211539D02*
G03I-355J0D01*
G01Y-211499D02*
G03I-355J0D01*
G01X-22396Y-212499D02*
G03I-355J0D01*
G01X-22546Y-212029D02*
G03I-355J0D01*
G01X-22487Y-212199D02*
G03I-355J0D01*
G01X-22137Y-212919D02*
G03I-355J0D01*
G01X-22157Y-212889D02*
G03I-355J0D01*
G01X-23296Y-214999D02*
G03I-355J0D01*
G01X-23357Y-214979D02*
G03I-355J0D01*
G01X-23957Y-203029D02*
G03I-355J0D01*
G01X-24137Y-203179D02*
G03I-355J0D01*
G01X-23946Y-214709D02*
G03I-355J0D01*
G01X-24587Y-203539D02*
G03I-355J0D01*
G01X-24957Y-203849D02*
G03I-355J0D01*
G01X-25246Y-204229D02*
G03I-355J0D01*
G01X-24966Y-203869D02*
G03I-355J0D01*
G01X-25246Y-213669D02*
G03I-355J0D01*
G01X-25296Y-213589D02*
G03I-355J0D01*
G01X-24937Y-214039D02*
G03I-355J0D01*
G01X-24546Y-214329D02*
G03I-355J0D01*
G01X-24616Y-214279D02*
G03I-355J0D01*
G01X-25476Y-204649D02*
G03I-355J0D01*
G01X-25607Y-205109D02*
G03I-355J0D01*
G01X-25476Y-204649D02*
G03I-355J0D01*
G01X-25427Y-204559D02*
G03I-355J0D01*
G01X-25646Y-205589D02*
G03I-355J0D01*
G01X-25617Y-205259D02*
G03I-355J0D01*
G01X-25646Y-205949D02*
G03I-355J0D01*
G01Y-206649D02*
G03I-355J0D01*
G01Y-207339D02*
G03I-355J0D01*
G01Y-208349D02*
G03I-355J0D01*
G01D02*
G03I-355J0D01*
G01D02*
G03I-355J0D01*
G01Y-208029D02*
G03I-355J0D01*
G01Y-208729D02*
G03I-355J0D01*
G01Y-209419D02*
G03I-355J0D01*
G01Y-210119D02*
G03I-355J0D01*
G01Y-210809D02*
G03I-355J0D01*
G01Y-211499D02*
G03I-355J0D01*
G01Y-212279D02*
G03I-355J0D01*
G01X-25617Y-212769D02*
G03I-355J0D01*
G01X-25646Y-212199D02*
G03I-355J0D01*
G01X-25476Y-213239D02*
G03I-355J0D01*
G01X-25576Y-212889D02*
G03I-355J0D01*
G01X-28346Y-214979D02*
G03I-355J0D01*
G01X-29196Y-203859D02*
G03I-355J0D01*
G01X-28976Y-204169D02*
G03I-355J0D01*
G01X-29187Y-203869D02*
G03I-355J0D01*
G01X-28827Y-204519D02*
G03I-355J0D01*
G01X-28737Y-204899D02*
G03I-355J0D01*
G01X-28716Y-205279D02*
G03I-355J0D01*
G01X-28816Y-204559D02*
G03I-355J0D01*
G01X-28716Y-205259D02*
G03I-355J0D01*
G01Y-205949D02*
G03I-355J0D01*
G01Y-206649D02*
G03I-355J0D01*
G01Y-207279D02*
G03I-355J0D01*
G01X-28757Y-207759D02*
G03I-355J0D01*
G01X-28727Y-207339D02*
G03I-355J0D01*
G01X-28877Y-208219D02*
G03I-355J0D01*
G01X-28827Y-208029D02*
G03I-355J0D01*
G01X-29096Y-208639D02*
G03I-355J0D01*
G01X-29387Y-209019D02*
G03I-355J0D01*
G01X-29157Y-208729D02*
G03I-355J0D01*
G01X-28987Y-214279D02*
G03I-355J0D01*
G01X-30096Y-202979D02*
G03I-355J0D01*
G01X-29607Y-203379D02*
G03I-355J0D01*
G01X-29857Y-203179D02*
G03I-355J0D01*
G01X-29746Y-209329D02*
G03I-355J0D01*
G01X-30346Y-209669D02*
G03I-355J0D01*
G01X-29907Y-209419D02*
G03I-355J0D01*
G01X-30246Y-212889D02*
G03I-355J0D01*
G01X-29616Y-213589D02*
G03I-355J0D01*
G01X-31007Y-209909D02*
G03I-355J0D01*
G01X-30876Y-212199D02*
G03I-355J0D01*
G01X-31996Y-204779D02*
G03I-355J0D01*
G01X-31787Y-205629D02*
G03I-355J0D01*
G01X-31846Y-205189D02*
G03I-355J0D01*
G01X-31837Y-205259D02*
G03I-355J0D01*
G01X-31787Y-205949D02*
G03I-355J0D01*
G01Y-206729D02*
G03I-355J0D01*
G01Y-206649D02*
G03I-355J0D01*
G01X-31957Y-207589D02*
G03I-355J0D01*
G01X-31837Y-207169D02*
G03I-355J0D01*
G01X-31887Y-207339D02*
G03I-355J0D01*
G01X-31687Y-210029D02*
G03I-355J0D01*
G01X-31517Y-211499D02*
G03I-355J0D01*
G01X-31987Y-214979D02*
G03I-355J0D01*
G01X-32537Y-204099D02*
G03I-355J0D01*
G01X-32127Y-204559D02*
G03I-355J0D01*
G01X-32227Y-204409D02*
G03I-355J0D01*
G01X-32607Y-208359D02*
G03I-355J0D01*
G01X-32146Y-207989D02*
G03I-355J0D01*
G01X-32196Y-208029D02*
G03I-355J0D01*
G01X-32387Y-210039D02*
G03I-355J0D01*
G01Y-210119D02*
G03I-355J0D01*
G01Y-210549D02*
G03I-355J0D01*
G01X-32146Y-210809D02*
G03I-355J0D01*
G01X-32577Y-214279D02*
G03I-355J0D01*
G01X-33177Y-203809D02*
G03I-355J0D01*
G01X-33046Y-203869D02*
G03I-355J0D01*
G01X-33687Y-208779D02*
G03I-355J0D01*
G01X-33127Y-208629D02*
G03I-355J0D01*
G01X-33496Y-208729D02*
G03I-355J0D01*
G01X-33767Y-212889D02*
G03I-355J0D01*
G01X-33177Y-213589D02*
G03I-355J0D01*
G01X-33857Y-203649D02*
G03I-355J0D01*
G01X-34546Y-203619D02*
G03I-355J0D01*
G01X-34267Y-208819D02*
G03I-355J0D01*
G01X-34367Y-212199D02*
G03I-355J0D01*
G01X-34957Y-211499D02*
G03I-355J0D01*
G01X-5237Y-207869D02*
G03I-355J0D01*
G01X-5447Y-207849D02*
G03I-355J0D01*
G01X-5637Y-207769D02*
G03I-355J0D01*
G01X-5657Y-209629D02*
G03I-355J0D01*
G01X-5466Y-209549D02*
G03I-355J0D01*
G01X-5266Y-209529D02*
G03I-355J0D01*
G01X-6047Y-203179D02*
G03I-355J0D01*
G01Y-203869D02*
G03I-355J0D01*
G01Y-204559D02*
G03I-355J0D01*
G01Y-205259D02*
G03I-355J0D01*
G01Y-205949D02*
G03I-355J0D01*
G01Y-206649D02*
G03I-355J0D01*
G01X-5807Y-207639D02*
G03I-355J0D01*
G01X-5937Y-207469D02*
G03I-355J0D01*
G01X-6016Y-207279D02*
G03I-355J0D01*
G01X-6047Y-207069D02*
G03I-355J0D01*
G01X-5987Y-207339D02*
G03I-355J0D01*
G01X-6016Y-210109D02*
G03I-355J0D01*
G01X-5937Y-209919D02*
G03I-355J0D01*
G01X-5816Y-209759D02*
G03I-355J0D01*
G01X-6016Y-210119D02*
G03I-355J0D01*
G01X-6047Y-210309D02*
G03I-355J0D01*
G01Y-210809D02*
G03I-355J0D01*
G01Y-211499D02*
G03I-355J0D01*
G01Y-212199D02*
G03I-355J0D01*
G01Y-212889D02*
G03I-355J0D01*
G01Y-213589D02*
G03I-355J0D01*
G01Y-214279D02*
G03I-355J0D01*
G01Y-214979D02*
G03I-355J0D01*
G01X-9346Y-203179D02*
G03I-355J0D01*
G01Y-203869D02*
G03I-355J0D01*
G01Y-204559D02*
G03I-355J0D01*
G01Y-205259D02*
G03I-355J0D01*
G01Y-205949D02*
G03I-355J0D01*
G01Y-206649D02*
G03I-355J0D01*
G01Y-207339D02*
G03I-355J0D01*
G01Y-208029D02*
G03I-355J0D01*
G01Y-209419D02*
G03I-355J0D01*
G01Y-208729D02*
G03I-355J0D01*
G01Y-210119D02*
G03I-355J0D01*
G01Y-210809D02*
G03I-355J0D01*
G01Y-211499D02*
G03I-355J0D01*
G01Y-212199D02*
G03I-355J0D01*
G01Y-212889D02*
G03I-355J0D01*
G01Y-213589D02*
G03I-355J0D01*
G01Y-214279D02*
G03I-355J0D01*
G01Y-214979D02*
G03I-355J0D01*
G01X-35407Y-219999D02*
G03I-355J0D01*
G01X-35507Y-223089D02*
G03I-355J0D01*
G01X-35587Y-220089D02*
G03I-355J0D01*
G01X-35737Y-220219D02*
G03I-355J0D01*
G01X-35866Y-220369D02*
G03I-355J0D01*
G01X-35957Y-220549D02*
G03I-355J0D01*
G01X-36016Y-220739D02*
G03I-355J0D01*
G01X-36037Y-220939D02*
G03I-355J0D01*
G01X-36046D02*
G03I-355J0D01*
G01X-36037Y-222169D02*
G03I-355J0D01*
G01X-36046D02*
G03I-355J0D01*
G01Y-221579D02*
G03I-355J0D01*
G01D02*
G03I-355J0D01*
G01X-35657Y-222979D02*
G03I-355J0D01*
G01X-35787Y-222849D02*
G03I-355J0D01*
G01X-35896Y-222699D02*
G03I-355J0D01*
G01X-35976Y-222529D02*
G03I-355J0D01*
G01X-36016Y-222349D02*
G03I-355J0D01*
G01X-38166Y-215429D02*
G03I-355J0D01*
G01Y-219919D02*
G03I-355J0D01*
G01X-38807Y-221589D02*
G03I-355J0D01*
G01X-38657Y-221629D02*
G03I-355J0D01*
G01X-38527Y-221699D02*
G03I-355J0D01*
G01X-38396Y-221799D02*
G03I-355J0D01*
G01X-38296Y-221929D02*
G03I-355J0D01*
G01X-38227Y-222059D02*
G03I-355J0D01*
G01X-38187Y-222209D02*
G03I-355J0D01*
G01X-38166Y-222369D02*
G03I-355J0D01*
G01X-38187Y-222539D02*
G03I-355J0D01*
G01X-38237Y-222699D02*
G03I-355J0D01*
G01X-38307Y-222849D02*
G03I-355J0D01*
G01X-38416Y-222979D02*
G03I-355J0D01*
G01X-38546Y-223089D02*
G03I-355J0D01*
G01X-38696Y-223159D02*
G03I-355J0D01*
G01X-38857Y-223209D02*
G03I-355J0D01*
G01X-38967Y-221579D02*
G03I-355J0D01*
G01Y-221569D02*
G03I-355J0D01*
G01X-39027Y-223229D02*
G03I-355J0D01*
G01X-40587Y-221569D02*
G03I-355J0D01*
G01Y-221579D02*
G03I-355J0D01*
G01X-41476Y-215429D02*
G03I-355J0D01*
G01X-40717Y-219919D02*
G03I-355J0D01*
G01X-40887Y-219939D02*
G03I-355J0D01*
G01X-41046Y-219999D02*
G03I-355J0D01*
G01X-41187Y-220089D02*
G03I-355J0D01*
G01X-41307Y-220209D02*
G03I-355J0D01*
G01X-41396Y-220349D02*
G03I-355J0D01*
G01X-41457Y-220509D02*
G03I-355J0D01*
G01X-41476Y-220679D02*
G03I-355J0D01*
G01X-41457Y-220849D02*
G03I-355J0D01*
G01X-41407Y-221019D02*
G03I-355J0D01*
G01X-41327Y-221169D02*
G03I-355J0D01*
G01X-41216Y-221309D02*
G03I-355J0D01*
G01X-41076Y-221419D02*
G03I-355J0D01*
G01X-40927Y-221499D02*
G03I-355J0D01*
G01X-40757Y-221549D02*
G03I-355J0D01*
G01X-41476Y-223229D02*
G03I-355J0D01*
G01X-10527Y-219919D02*
G03I-355J0D01*
G01X-11007D02*
G03I-355J0D01*
G01Y-223229D02*
G03I-355J0D01*
G01X-13666Y-220379D02*
G03I-355J0D01*
G01X-13827Y-220219D02*
G03I-355J0D01*
G01X-14016Y-220089D02*
G03I-355J0D01*
G01X-13366Y-221219D02*
G03I-355J0D01*
G01X-13387Y-220989D02*
G03I-355J0D01*
G01X-13446Y-220779D02*
G03I-355J0D01*
G01X-13537Y-220569D02*
G03I-355J0D01*
G01X-13366Y-221909D02*
G03I-355J0D01*
G01X-13427Y-222319D02*
G03I-355J0D01*
G01X-13387Y-222119D02*
G03I-355J0D01*
G01X-13366Y-221909D02*
G03I-355J0D01*
G01X-14087Y-223089D02*
G03I-355J0D01*
G01X-13907Y-222979D02*
G03I-355J0D01*
G01X-13757Y-222839D02*
G03I-355J0D01*
G01X-13616Y-222689D02*
G03I-355J0D01*
G01X-13507Y-222509D02*
G03I-355J0D01*
G01X-14227Y-219999D02*
G03I-355J0D01*
G01X-14437Y-219939D02*
G03I-355J0D01*
G01X-14666Y-219919D02*
G03I-355J0D01*
G01X-14687Y-223229D02*
G03I-355J0D01*
G01X-14476Y-223209D02*
G03I-355J0D01*
G01X-14277Y-223169D02*
G03I-355J0D01*
G01X-15407Y-219919D02*
G03I-355J0D01*
G01X-15627Y-219939D02*
G03I-355J0D01*
G01X-15837Y-219999D02*
G03I-355J0D01*
G01X-15827Y-223149D02*
G03I-355J0D01*
G01X-15607Y-223209D02*
G03I-355J0D01*
G01X-15387Y-223229D02*
G03I-355J0D01*
G01X-16007Y-215259D02*
G03I-355J0D01*
G01X-16037Y-220089D02*
G03I-355J0D01*
G01X-16227Y-220219D02*
G03I-355J0D01*
G01X-16376Y-220369D02*
G03I-355J0D01*
G01X-16507Y-220549D02*
G03I-355J0D01*
G01X-16596Y-220759D02*
G03I-355J0D01*
G01X-16657Y-220969D02*
G03I-355J0D01*
G01X-16676Y-221189D02*
G03I-355J0D01*
G01Y-221939D02*
G03I-355J0D01*
G01X-16657Y-222159D02*
G03I-355J0D01*
G01X-16596Y-222379D02*
G03I-355J0D01*
G01X-16507Y-222579D02*
G03I-355J0D01*
G01X-16376Y-222769D02*
G03I-355J0D01*
G01X-16216Y-222929D02*
G03I-355J0D01*
G01X-16037Y-223059D02*
G03I-355J0D01*
G01X-16907Y-215399D02*
G03I-355J0D01*
G01X-17816Y-215429D02*
G03I-355J0D01*
G01X-18797Y-219919D02*
G03I-355J0D01*
G01Y-223229D02*
G03I-355J0D01*
G01X-20566Y-215429D02*
G03I-355J0D01*
G01X-20966Y-219999D02*
G03I-355J0D01*
G01X-20757Y-219939D02*
G03I-355J0D01*
G01X-20546Y-219919D02*
G03I-355J0D01*
G01Y-223229D02*
G03I-355J0D01*
G01X-20737Y-223209D02*
G03I-355J0D01*
G01X-20916Y-223159D02*
G03I-355J0D01*
G01X-21596Y-215369D02*
G03I-355J0D01*
G01X-21457Y-220399D02*
G03I-355J0D01*
G01X-21316Y-220239D02*
G03I-355J0D01*
G01X-21157Y-220099D02*
G03I-355J0D01*
G01X-21637Y-221009D02*
G03I-355J0D01*
G01X-21616Y-220799D02*
G03I-355J0D01*
G01X-21557Y-220589D02*
G03I-355J0D01*
G01X-21637Y-222139D02*
G03I-355J0D01*
G01X-21096Y-223079D02*
G03I-355J0D01*
G01X-21246Y-222969D02*
G03I-355J0D01*
G01X-21376Y-222839D02*
G03I-355J0D01*
G01X-21487Y-222679D02*
G03I-355J0D01*
G01X-21566Y-222509D02*
G03I-355J0D01*
G01X-21616Y-222329D02*
G03I-355J0D01*
G01X-22616Y-215199D02*
G03I-355J0D01*
G01X-24237Y-219919D02*
G03I-355J0D01*
G01Y-223229D02*
G03I-355J0D01*
G01X-26827Y-219919D02*
G03I-355J0D01*
G01Y-223229D02*
G03I-355J0D01*
G01X-27346Y-219919D02*
G03I-355J0D01*
G01X-27937Y-215429D02*
G03I-355J0D01*
G01X-28757Y-223229D02*
G03I-355J0D01*
G01X-30296Y-219919D02*
G03I-355J0D01*
G01X-30846D02*
G03I-355J0D01*
G01Y-223229D02*
G03I-355J0D01*
G01X-31596Y-215429D02*
G03I-355J0D01*
G01X-33207Y-219919D02*
G03I-355J0D01*
G01Y-221579D02*
G03I-355J0D01*
G01Y-223229D02*
G03I-355J0D01*
G01X-35016Y-219919D02*
G03I-355J0D01*
G01X-35216Y-219939D02*
G03I-355J0D01*
G01X-34976Y-223229D02*
G03I-355J0D01*
G01X-35157Y-223209D02*
G03I-355J0D01*
G01X-35337Y-223169D02*
G03I-355J0D01*
G01X-5337Y-219919D02*
G03I-355J0D01*
G01Y-223229D02*
G03I-355J0D01*
G01X-6047Y-215429D02*
G03I-355J0D01*
G01X-7697Y-219919D02*
G03I-355J0D01*
G01Y-223229D02*
G03I-355J0D01*
G01X-8247D02*
G03I-355J0D01*
G01X-9346Y-215429D02*
G03I-355J0D01*
G01X-36987Y-202209D02*
G03I-355J0D01*
G01X-39237Y-202349D02*
G03I-355J0D01*
G01X-40137Y-202479D02*
G03I-355J0D01*
G01X-41476Y-202679D02*
G03I-355J0D01*
G01D02*
G03I-355J0D01*
G01X-15827Y-202479D02*
G03I-355J0D01*
G01X-15257Y-202679D02*
G03I-355J0D01*
G01X-16066Y-202399D02*
G03I-355J0D01*
G01X-16916Y-202239D02*
G03I-355J0D01*
G01X-17776Y-202209D02*
G03I-355J0D01*
G01X-20887D02*
G03I-355J0D01*
G01X-21687Y-202239D02*
G03I-355J0D01*
G01X-22487Y-202379D02*
G03I-355J0D01*
G01X-22776Y-202479D02*
G03I-355J0D01*
G01X-23246Y-202639D02*
G03I-355J0D01*
G01X-30646Y-202679D02*
G03I-355J0D01*
G01X-31567Y-202479D02*
G03I-355J0D01*
G01X-32287Y-202329D02*
G03I-355J0D01*
G01X-33957Y-202209D02*
G03I-355J0D01*
G01X-6047Y-202679D02*
G03I-355J0D01*
G01D02*
G03I-355J0D01*
G01X-9346D02*
G03I-355J0D01*
G01X-28000Y-38000D02*
X390331D01*
G01X-28000Y274220D02*
Y-38000D01*
G01X-8000Y244220D02*
Y-8000D01*
G01X370331D02*
X-8000D01*
G01X0Y47100D02*
Y53100D01*
G03X-4000Y57100I-4000J0D01*
G03X-8000Y53100I0J-4000D01*
G01Y47100D01*
G01Y79900D02*
Y73900D01*
G03X-4000Y69900I4000J0D01*
G03X0Y73900I0J4000D01*
G01Y79900D01*
G01Y163600D02*
Y169600D01*
G03X-4000Y173600I-4000J0D01*
G03X-8000Y169600I0J-4000D01*
G01Y163600D01*
G01Y196400D02*
Y190400D01*
G03X-4000Y186400I4000J0D01*
G03X0Y190400I0J4000D01*
G01Y196400D01*
G01X390331Y274220D02*
X-28000D01*
G01X-8000Y244220D02*
X204850D01*
G01X-2907Y-220089D02*
G03I-355J0D01*
G01X-2727Y-220219D02*
G03I-355J0D01*
G01X-2566Y-220379D02*
G03I-355J0D01*
G01X-2266Y-221209D02*
G03I-355J0D01*
G01X-2437Y-220559D02*
G03I-355J0D01*
G01X-2346Y-220769D02*
G03I-355J0D01*
G01X-2287Y-220989D02*
G03I-355J0D01*
G01X-2266Y-221209D02*
G03I-355J0D01*
G01Y-221919D02*
G03I-355J0D01*
G01X-2287Y-222119D02*
G03I-355J0D01*
G01X-2327Y-222319D02*
G03I-355J0D01*
G01X-2407Y-222509D02*
G03I-355J0D01*
G01X-2516Y-222689D02*
G03I-355J0D01*
G01X-2646Y-222849D02*
G03I-355J0D01*
G01X-2807Y-222979D02*
G03I-355J0D01*
G01X-2987Y-223089D02*
G03I-355J0D01*
G01X-3557Y-219919D02*
G03I-355J0D01*
G01X-3337Y-219939D02*
G03I-355J0D01*
G01X-3116Y-219999D02*
G03I-355J0D01*
G01X-3176Y-223169D02*
G03I-355J0D01*
G01X-3376Y-223209D02*
G03I-355J0D01*
G01X-3577Y-223229D02*
G03I-355J0D01*
G01X14013Y-204449D02*
G03I-355J0D01*
G01X14034Y-204659D02*
G03I-355J0D01*
G01X14024Y-204559D02*
G03I-355J0D01*
G01X14034Y-205259D02*
G03I-355J0D01*
G01Y-205949D02*
G03I-355J0D01*
G01Y-206649D02*
G03I-355J0D01*
G01Y-207339D02*
G03I-355J0D01*
G01Y-208029D02*
G03I-355J0D01*
G01Y-208729D02*
G03I-355J0D01*
G01Y-209419D02*
G03I-355J0D01*
G01Y-210119D02*
G03I-355J0D01*
G01Y-210809D02*
G03I-355J0D01*
G01Y-211499D02*
G03I-355J0D01*
G01Y-212199D02*
G03I-355J0D01*
G01Y-212889D02*
G03I-355J0D01*
G01Y-213589D02*
G03I-355J0D01*
G01Y-214279D02*
G03I-355J0D01*
G01Y-214979D02*
G03I-355J0D01*
G01X13234Y-203859D02*
G03I-355J0D01*
G01X13443Y-203889D02*
G03I-355J0D01*
G01X13634Y-203969D02*
G03I-355J0D01*
G01X13804Y-204089D02*
G03I-355J0D01*
G01X13924Y-204259D02*
G03I-355J0D01*
G01X13313Y-203869D02*
G03I-355J0D01*
G01X11573Y-203889D02*
G03I-355J0D01*
G01X11793Y-203859D02*
G03I-355J0D01*
G01X11713Y-203869D02*
G03I-355J0D01*
G01X11073Y-204269D02*
G03I-355J0D01*
G01X11204Y-204099D02*
G03I-355J0D01*
G01X11384Y-203969D02*
G03I-355J0D01*
G01X10963Y-204689D02*
G03I-355J0D01*
G01X10993Y-204469D02*
G03I-355J0D01*
G01X10984Y-204559D02*
G03I-355J0D01*
G01X10963Y-205949D02*
G03I-355J0D01*
G01Y-205259D02*
G03I-355J0D01*
G01Y-206649D02*
G03I-355J0D01*
G01Y-207339D02*
G03I-355J0D01*
G01Y-208029D02*
G03I-355J0D01*
G01Y-208729D02*
G03I-355J0D01*
G01Y-210119D02*
G03I-355J0D01*
G01Y-209419D02*
G03I-355J0D01*
G01Y-210809D02*
G03I-355J0D01*
G01Y-211499D02*
G03I-355J0D01*
G01Y-212199D02*
G03I-355J0D01*
G01Y-213589D02*
G03I-355J0D01*
G01Y-212889D02*
G03I-355J0D01*
G01Y-214279D02*
G03I-355J0D01*
G01Y-214979D02*
G03I-355J0D01*
G01X7893Y-203179D02*
G03I-355J0D01*
G01Y-203869D02*
G03I-355J0D01*
G01Y-205259D02*
G03I-355J0D01*
G01Y-204559D02*
G03I-355J0D01*
G01Y-205949D02*
G03I-355J0D01*
G01Y-206649D02*
G03I-355J0D01*
G01Y-207339D02*
G03I-355J0D01*
G01Y-208029D02*
G03I-355J0D01*
G01Y-209419D02*
G03I-355J0D01*
G01Y-208729D02*
G03I-355J0D01*
G01Y-210119D02*
G03I-355J0D01*
G01Y-210809D02*
G03I-355J0D01*
G01Y-211499D02*
G03I-355J0D01*
G01Y-212889D02*
G03I-355J0D01*
G01Y-212199D02*
G03I-355J0D01*
G01Y-213589D02*
G03I-355J0D01*
G01Y-214279D02*
G03I-355J0D01*
G01Y-214979D02*
G03I-355J0D01*
G01X4354Y-203179D02*
G03I-355J0D01*
G01Y-203869D02*
G03I-355J0D01*
G01Y-204559D02*
G03I-355J0D01*
G01Y-205949D02*
G03I-355J0D01*
G01Y-205259D02*
G03I-355J0D01*
G01Y-206649D02*
G03I-355J0D01*
G01Y-207339D02*
G03I-355J0D01*
G01Y-208029D02*
G03I-355J0D01*
G01Y-209419D02*
G03I-355J0D01*
G01Y-208729D02*
G03I-355J0D01*
G01Y-210119D02*
G03I-355J0D01*
G01Y-210809D02*
G03I-355J0D01*
G01Y-211499D02*
G03I-355J0D01*
G01Y-212199D02*
G03I-355J0D01*
G01Y-213589D02*
G03I-355J0D01*
G01Y-212889D02*
G03I-355J0D01*
G01Y-214279D02*
G03I-355J0D01*
G01Y-214979D02*
G03I-355J0D01*
G01X1043Y-203179D02*
G03I-355J0D01*
G01Y-203869D02*
G03I-355J0D01*
G01Y-204559D02*
G03I-355J0D01*
G01Y-205949D02*
G03I-355J0D01*
G01Y-205259D02*
G03I-355J0D01*
G01Y-206649D02*
G03I-355J0D01*
G01Y-207089D02*
G03I-355J0D01*
G01X1013Y-207289D02*
G03I-355J0D01*
G01X934Y-207479D02*
G03I-355J0D01*
G01X813Y-207649D02*
G03I-355J0D01*
G01X993Y-207339D02*
G03I-355J0D01*
G01X654Y-207769D02*
G03I-355J0D01*
G01X463Y-207849D02*
G03I-355J0D01*
G01X424Y-209559D02*
G03I-355J0D01*
G01X634Y-209639D02*
G03I-355J0D01*
G01X804Y-209769D02*
G03I-355J0D01*
G01X934Y-209939D02*
G03I-355J0D01*
G01X1013Y-210139D02*
G03I-355J0D01*
G01X1043Y-210359D02*
G03I-355J0D01*
G01X1004Y-210119D02*
G03I-355J0D01*
G01X1043Y-210809D02*
G03I-355J0D01*
G01Y-211499D02*
G03I-355J0D01*
G01Y-212889D02*
G03I-355J0D01*
G01Y-212199D02*
G03I-355J0D01*
G01Y-213589D02*
G03I-355J0D01*
G01Y-214279D02*
G03I-355J0D01*
G01Y-214979D02*
G03I-355J0D01*
G01X263Y-207869D02*
G03I-355J0D01*
G01X213Y-209529D02*
G03I-355J0D01*
G01X23434Y-204919D02*
G03I-355J0D01*
G01X23484Y-205469D02*
G03I-355J0D01*
G01X23463Y-205259D02*
G03I-355J0D01*
G01X23484Y-205949D02*
G03I-355J0D01*
G01Y-206649D02*
G03I-355J0D01*
G01Y-207339D02*
G03I-355J0D01*
G01Y-208029D02*
G03I-355J0D01*
G01Y-208729D02*
G03I-355J0D01*
G01Y-209419D02*
G03I-355J0D01*
G01Y-210119D02*
G03I-355J0D01*
G01Y-210809D02*
G03I-355J0D01*
G01Y-211499D02*
G03I-355J0D01*
G01Y-212199D02*
G03I-355J0D01*
G01Y-212889D02*
G03I-355J0D01*
G01Y-213589D02*
G03I-355J0D01*
G01Y-214279D02*
G03I-355J0D01*
G01Y-214979D02*
G03I-355J0D01*
G01X23273Y-204389D02*
G03I-355J0D01*
G01X22993Y-203909D02*
G03I-355J0D01*
G01X22613Y-203499D02*
G03I-355J0D01*
G01X22954Y-203869D02*
G03I-355J0D01*
G01X23324Y-204559D02*
G03I-355J0D01*
G01X22173Y-203179D02*
G03I-355J0D01*
G01X21963Y-203019D02*
G03I-355J0D01*
G01D02*
G03I-355J0D01*
G01X20124Y-204299D02*
G03I-355J0D01*
G01X20284Y-204539D02*
G03I-355J0D01*
G01X20384Y-204819D02*
G03I-355J0D01*
G01X20413Y-205119D02*
G03I-355J0D01*
G01X20293Y-204559D02*
G03I-355J0D01*
G01X20413Y-205259D02*
G03I-355J0D01*
G01Y-205949D02*
G03I-355J0D01*
G01Y-206649D02*
G03I-355J0D01*
G01Y-207339D02*
G03I-355J0D01*
G01Y-208029D02*
G03I-355J0D01*
G01Y-208729D02*
G03I-355J0D01*
G01Y-209419D02*
G03I-355J0D01*
G01Y-210119D02*
G03I-355J0D01*
G01Y-210809D02*
G03I-355J0D01*
G01Y-211499D02*
G03I-355J0D01*
G01Y-212199D02*
G03I-355J0D01*
G01Y-212889D02*
G03I-355J0D01*
G01Y-213589D02*
G03I-355J0D01*
G01Y-214279D02*
G03I-355J0D01*
G01Y-214979D02*
G03I-355J0D01*
G01X19424Y-203929D02*
G03I-355J0D01*
G01X19904Y-204099D02*
G03I-355J0D01*
G01X18913Y-203859D02*
G03I-355J0D01*
G01X18993Y-203869D02*
G03I-355J0D01*
G01X17454Y-204259D02*
G03I-355J0D01*
G01X17584Y-204099D02*
G03I-355J0D01*
G01X17754Y-203969D02*
G03I-355J0D01*
G01X17943Y-203889D02*
G03I-355J0D01*
G01X18154Y-203859D02*
G03I-355J0D01*
G01X18073Y-203869D02*
G03I-355J0D01*
G01X17373Y-204459D02*
G03I-355J0D01*
G01X17354Y-204559D02*
G03I-355J0D01*
G01X17343Y-204669D02*
G03I-355J0D01*
G01Y-205259D02*
G03I-355J0D01*
G01Y-205949D02*
G03I-355J0D01*
G01Y-206649D02*
G03I-355J0D01*
G01Y-207339D02*
G03I-355J0D01*
G01Y-208029D02*
G03I-355J0D01*
G01Y-208729D02*
G03I-355J0D01*
G01Y-209419D02*
G03I-355J0D01*
G01Y-210119D02*
G03I-355J0D01*
G01Y-210809D02*
G03I-355J0D01*
G01Y-211499D02*
G03I-355J0D01*
G01Y-212199D02*
G03I-355J0D01*
G01Y-212889D02*
G03I-355J0D01*
G01Y-213589D02*
G03I-355J0D01*
G01Y-214279D02*
G03I-355J0D01*
G01Y-214979D02*
G03I-355J0D01*
G01X15054Y-220769D02*
G03I-355J0D01*
G01X14993Y-220989D02*
G03I-355J0D01*
G01X14973Y-221209D02*
G03I-355J0D01*
G01X14984D02*
G03I-355J0D01*
G01Y-221919D02*
G03I-355J0D01*
G01X15004Y-222119D02*
G03I-355J0D01*
G01X15043Y-222319D02*
G03I-355J0D01*
G01X14034Y-215429D02*
G03I-355J0D01*
G01X12854Y-219919D02*
G03I-355J0D01*
G01X11434D02*
G03I-355J0D01*
G01D02*
G03I-355J0D01*
G01Y-223229D02*
G03I-355J0D01*
G01X10963Y-215429D02*
G03I-355J0D01*
G01X10024Y-219919D02*
G03I-355J0D01*
G01X8133D02*
G03I-355J0D01*
G01Y-223229D02*
G03I-355J0D01*
G01X7893Y-215429D02*
G03I-355J0D01*
G01X6334Y-219919D02*
G03I-355J0D01*
G01X6363Y-223229D02*
G03I-355J0D01*
G01X5434Y-220439D02*
G03I-355J0D01*
G01X5534Y-220289D02*
G03I-355J0D01*
G01X5663Y-220159D02*
G03I-355J0D01*
G01X5813Y-220059D02*
G03I-355J0D01*
G01X5973Y-219979D02*
G03I-355J0D01*
G01X6154Y-219939D02*
G03I-355J0D01*
G01X6173Y-223209D02*
G03I-355J0D01*
G01X5993Y-223169D02*
G03I-355J0D01*
G01X5824Y-223089D02*
G03I-355J0D01*
G01X5673Y-222979D02*
G03I-355J0D01*
G01X5543Y-222849D02*
G03I-355J0D01*
G01X5434Y-222689D02*
G03I-355J0D01*
G01X5354Y-220599D02*
G03I-355J0D01*
G01X5293Y-220959D02*
G03I-355J0D01*
G01X5313Y-220779D02*
G03I-355J0D01*
G01X5293Y-222159D02*
G03I-355J0D01*
G01X5354Y-222529D02*
G03I-355J0D01*
G01X5313Y-222349D02*
G03I-355J0D01*
G01X4354Y-215429D02*
G03I-355J0D01*
G01X3173Y-219919D02*
G03I-355J0D01*
G01Y-221919D02*
G03I-355J0D01*
G01X3163D02*
G03I-355J0D01*
G01X3143Y-222149D02*
G03I-355J0D01*
G01X3084Y-222369D02*
G03I-355J0D01*
G01X2984Y-222569D02*
G03I-355J0D01*
G01X2854Y-222759D02*
G03I-355J0D01*
G01X2693Y-222919D02*
G03I-355J0D01*
G01X2513Y-223049D02*
G03I-355J0D01*
G01X2304Y-223149D02*
G03I-355J0D01*
G01X2084Y-223209D02*
G03I-355J0D01*
G01X1854Y-223229D02*
G03I-355J0D01*
G01X1334D02*
G03I-355J0D01*
G01X1043Y-215429D02*
G03I-355J0D01*
G01X1113Y-223209D02*
G03I-355J0D01*
G01X913Y-223159D02*
G03I-355J0D01*
G01X713Y-223059D02*
G03I-355J0D01*
G01X534Y-222939D02*
G03I-355J0D01*
G01X384Y-222789D02*
G03I-355J0D01*
G01X103Y-219919D02*
G03I-355J0D01*
G01X113Y-222209D02*
G03I-355J0D01*
G01X93Y-221989D02*
G03I-355J0D01*
G01X103D02*
G03I-355J0D01*
G01X263Y-222609D02*
G03I-355J0D01*
G01X163Y-222409D02*
G03I-355J0D01*
G01X23484Y-215429D02*
G03I-355J0D01*
G01X23354Y-220279D02*
G03I-355J0D01*
G01X23424Y-220409D02*
G03I-355J0D01*
G01X23463Y-220559D02*
G03I-355J0D01*
G01X23484Y-220719D02*
G03I-355J0D01*
G01X23463Y-220889D02*
G03I-355J0D01*
G01X23413Y-221049D02*
G03I-355J0D01*
G01X23343Y-221199D02*
G03I-355J0D01*
G01X22684Y-219919D02*
G03I-355J0D01*
G01X22843Y-219939D02*
G03I-355J0D01*
G01X22993Y-219979D02*
G03I-355J0D01*
G01X23124Y-220049D02*
G03I-355J0D01*
G01X23254Y-220149D02*
G03I-355J0D01*
G01X23234Y-221329D02*
G03I-355J0D01*
G01X23104Y-221439D02*
G03I-355J0D01*
G01X22954Y-221509D02*
G03I-355J0D01*
G01X22793Y-221559D02*
G03I-355J0D01*
G01X22624Y-221579D02*
G03I-355J0D01*
G01X23243Y-223229D02*
G03I-355J0D01*
G01X22343Y-221579D02*
G03I-355J0D01*
G01D02*
G03I-355J0D01*
G01X20413Y-215429D02*
G03I-355J0D01*
G01Y-219919D02*
G03I-355J0D01*
G01D02*
G03I-355J0D01*
G01Y-221579D02*
G03I-355J0D01*
G01D02*
G03I-355J0D01*
G01Y-223229D02*
G03I-355J0D01*
G01X18284Y-221199D02*
G03I-355J0D01*
G01X18263Y-220979D02*
G03I-355J0D01*
G01X18284Y-221929D02*
G03I-355J0D01*
G01X18263Y-222159D02*
G03I-355J0D01*
G01X18284Y-221929D02*
G03I-355J0D01*
G01X18204Y-220759D02*
G03I-355J0D01*
G01X18113Y-220559D02*
G03I-355J0D01*
G01X17984Y-220379D02*
G03I-355J0D01*
G01X17824Y-220219D02*
G03I-355J0D01*
G01X17643Y-220089D02*
G03I-355J0D01*
G01X17443Y-219999D02*
G03I-355J0D01*
G01X18204Y-222369D02*
G03I-355J0D01*
G01X17424Y-223149D02*
G03I-355J0D01*
G01X17634Y-223059D02*
G03I-355J0D01*
G01X17824Y-222929D02*
G03I-355J0D01*
G01X17984Y-222769D02*
G03I-355J0D01*
G01X18113Y-222579D02*
G03I-355J0D01*
G01X17343Y-215429D02*
G03I-355J0D01*
G01X17224Y-219939D02*
G03I-355J0D01*
G01X17004Y-219919D02*
G03I-355J0D01*
G01X16984Y-223229D02*
G03I-355J0D01*
G01X17213Y-223209D02*
G03I-355J0D01*
G01X16263Y-219919D02*
G03I-355J0D01*
G01X16043Y-219939D02*
G03I-355J0D01*
G01X15824Y-219999D02*
G03I-355J0D01*
G01X15704Y-223089D02*
G03I-355J0D01*
G01X15893Y-223169D02*
G03I-355J0D01*
G01X16093Y-223209D02*
G03I-355J0D01*
G01X16293Y-223229D02*
G03I-355J0D01*
G01X15624Y-220089D02*
G03I-355J0D01*
G01X15434Y-220219D02*
G03I-355J0D01*
G01X15273Y-220379D02*
G03I-355J0D01*
G01X15143Y-220559D02*
G03I-355J0D01*
G01X15124Y-222509D02*
G03I-355J0D01*
G01X15234Y-222689D02*
G03I-355J0D01*
G01X15363Y-222849D02*
G03I-355J0D01*
G01X15524Y-222979D02*
G03I-355J0D01*
G01X13804Y-202209D02*
G03I-355J0D01*
G01X10834Y-202299D02*
G03I-355J0D01*
G01X9443Y-202479D02*
G03I-355J0D01*
G01X7893Y-202679D02*
G03I-355J0D01*
G01X4354D02*
G03I-355J0D01*
G01X1043D02*
G03I-355J0D01*
G01X21234Y-202659D02*
G03I-355J0D01*
G01X20454Y-202439D02*
G03I-355J0D01*
G01X20593Y-202479D02*
G03I-355J0D01*
G01X19293Y-202269D02*
G03I-355J0D01*
G01X18134Y-202209D02*
G03I-355J0D01*
G01X0Y236220D02*
Y0D01*
X196850D01*
Y236220D01*
X0D01*
G01X33600Y-8000D02*
X39600D01*
G03X43600Y-4000I0J4000D01*
G03X39600Y0I-4000J0D01*
G01X33600D01*
G01Y236220D02*
X39600D01*
G03X43600Y240220I0J4000D01*
G03X39600Y244220I-4000J0D01*
G01X33600D01*
G01X71632Y-245579D02*
X71898Y-246079D01*
X72218Y-246412D01*
X72592Y-246579D01*
X73018Y-246412D01*
X73338Y-246079D01*
X73658Y-245579D01*
X73765Y-244912D01*
Y-241579D01*
G01X76898Y-246579D02*
X76472Y-246496D01*
X76098Y-246163D01*
X75778Y-245662D01*
X75565Y-245079D01*
X75458Y-244412D01*
Y-243746D01*
X75565Y-243079D01*
X75778Y-242496D01*
X76098Y-241996D01*
X76472Y-241662D01*
X76898Y-241579D01*
X77325Y-241662D01*
X77698Y-241996D01*
X78018Y-242496D01*
X78232Y-243079D01*
X78338Y-243746D01*
Y-244412D01*
X78232Y-245079D01*
X78018Y-245662D01*
X77698Y-246163D01*
X77325Y-246496D01*
X76898Y-246579D01*
G01X81525Y-243912D02*
X81738Y-243662D01*
X81898Y-243246D01*
X82005Y-242662D01*
X81898Y-242162D01*
X81685Y-241829D01*
X81312Y-241579D01*
X79872D01*
Y-246579D01*
X81632D01*
X82005Y-246246D01*
X82218Y-245746D01*
X82325Y-245162D01*
X82218Y-244579D01*
X81898Y-244079D01*
X81525Y-243912D01*
X79872D01*
G01X84232Y-248246D02*
X85298Y-241579D01*
G01X86365D02*
X85298Y-248246D01*
G01X83698Y-245746D02*
X86898D01*
G01Y-244079D02*
X83698D01*
G01X89498Y-246746D02*
X89392Y-246662D01*
Y-246496D01*
X89498Y-246412D01*
X89605Y-246496D01*
Y-246662D01*
X89498Y-246746D01*
G01Y-244496D02*
X89392Y-244412D01*
Y-244246D01*
X89498Y-244163D01*
X89605Y-244246D01*
Y-244412D01*
X89498Y-244496D01*
G01X66098Y-174579D02*
Y-249579D01*
G01X73872Y-219996D02*
X73552Y-219746D01*
X73178Y-219579D01*
X72752D01*
X72272Y-219829D01*
X71898Y-220246D01*
X71632Y-220746D01*
X71418Y-221579D01*
X71365Y-222329D01*
X71472Y-223079D01*
X71632Y-223579D01*
X71952Y-224079D01*
X72325Y-224412D01*
X72698Y-224579D01*
X73072D01*
X73445Y-224412D01*
X73765Y-224162D01*
X74032Y-223829D01*
G01X75778Y-224579D02*
Y-219579D01*
G01X78018D02*
Y-224579D01*
G01Y-222079D02*
X75778D01*
G01X82165Y-224579D02*
X80032D01*
Y-219579D01*
X82165D01*
G01X81312Y-221996D02*
X80032D01*
G01X86472Y-219996D02*
X86152Y-219746D01*
X85778Y-219579D01*
X85352D01*
X84872Y-219829D01*
X84498Y-220246D01*
X84232Y-220746D01*
X84018Y-221579D01*
X83965Y-222329D01*
X84072Y-223079D01*
X84232Y-223579D01*
X84552Y-224079D01*
X84925Y-224412D01*
X85298Y-224579D01*
X85672D01*
X86045Y-224412D01*
X86365Y-224162D01*
X86632Y-223829D01*
G01X88325Y-224579D02*
Y-219579D01*
G01X90352D02*
X88325Y-222662D01*
G01X90672Y-224579D02*
X89232Y-221246D01*
G01X94765Y-224579D02*
X92632D01*
Y-219579D01*
X94765D01*
G01X93912Y-221996D02*
X92632D01*
G01X96832Y-224579D02*
Y-219579D01*
X98165D01*
X98592Y-219829D01*
X98858Y-220162D01*
X98965Y-220829D01*
X98858Y-221496D01*
X98538Y-221912D01*
X98165Y-222162D01*
X96832D01*
G01X98165D02*
X98965Y-224579D01*
G01X102098Y-224746D02*
X101992Y-224662D01*
Y-224496D01*
X102098Y-224412D01*
X102205Y-224496D01*
Y-224662D01*
X102098Y-224746D01*
G01Y-222496D02*
X101992Y-222412D01*
Y-222246D01*
X102098Y-222162D01*
X102205Y-222246D01*
Y-222412D01*
X102098Y-222496D01*
G01X71932Y-199579D02*
Y-192079D01*
X73932D01*
X74598Y-192454D01*
X75098Y-193329D01*
X75265Y-194329D01*
X75098Y-195329D01*
X74682Y-196079D01*
X73932Y-196454D01*
X71932D01*
G01X78432Y-199579D02*
Y-192079D01*
X80515D01*
X81182Y-192454D01*
X81598Y-192954D01*
X81765Y-193954D01*
X81598Y-194954D01*
X81098Y-195579D01*
X80515Y-195954D01*
X78432D01*
G01X80515D02*
X81765Y-199579D01*
G01X85598Y-192079D02*
X87598D01*
G01X86598D02*
Y-199579D01*
G01X85598D02*
X87598D01*
G01X90932D02*
Y-192079D01*
X93098Y-198329D01*
X95265Y-192079D01*
Y-199579D01*
G01X97515D02*
X99598Y-192079D01*
X101682Y-199579D01*
G01X100932Y-196954D02*
X98265D01*
G01X104432Y-199579D02*
Y-192079D01*
X106515D01*
X107182Y-192454D01*
X107598Y-192954D01*
X107765Y-193954D01*
X107598Y-194954D01*
X107098Y-195579D01*
X106515Y-195954D01*
X104432D01*
G01X106515D02*
X107765Y-199579D01*
G01X112598D02*
Y-196204D01*
X110932Y-192079D01*
G01X114265D02*
X112598Y-196204D01*
G01X118015Y-197079D02*
X120182D01*
G01X123848Y-198579D02*
X124515Y-199204D01*
X125265Y-199579D01*
X125932D01*
X126598Y-199204D01*
X127098Y-198579D01*
X127348Y-197704D01*
X127182Y-196829D01*
X126765Y-196079D01*
X126015Y-195579D01*
X125015Y-195329D01*
X124432Y-194829D01*
X124182Y-193954D01*
X124348Y-193079D01*
X124765Y-192454D01*
X125348Y-192079D01*
X125932D01*
X126515Y-192329D01*
X127015Y-192954D01*
G01X131098Y-192079D02*
X133098D01*
G01X132098D02*
Y-199579D01*
G01X131098D02*
X133098D01*
G01X136765D02*
Y-192079D01*
X138432D01*
X139098Y-192454D01*
X139598Y-192954D01*
X140015Y-193704D01*
X140348Y-194579D01*
X140432Y-195829D01*
X140348Y-197079D01*
X140015Y-197954D01*
X139598Y-198704D01*
X139098Y-199204D01*
X138432Y-199579D01*
X136765D01*
G01X146765D02*
X143432D01*
Y-192079D01*
X146765D01*
G01X145432Y-195704D02*
X143432D01*
G01X72525Y-235579D02*
Y-230579D01*
X73592D01*
X74018Y-230829D01*
X74338Y-231163D01*
X74605Y-231662D01*
X74818Y-232246D01*
X74872Y-233079D01*
X74818Y-233912D01*
X74605Y-234496D01*
X74338Y-234996D01*
X74018Y-235329D01*
X73592Y-235579D01*
X72525D01*
G01X76565D02*
X77898Y-230579D01*
X79232Y-235579D01*
G01X78752Y-233829D02*
X77045D01*
G01X82098Y-230579D02*
Y-235579D01*
G01X80872Y-230579D02*
X83325D01*
G01X87365Y-235579D02*
X85232D01*
Y-230579D01*
X87365D01*
G01X86512Y-232996D02*
X85232D01*
G01X90498Y-235746D02*
X90392Y-235662D01*
Y-235496D01*
X90498Y-235413D01*
X90605Y-235496D01*
Y-235662D01*
X90498Y-235746D01*
G01Y-233496D02*
X90392Y-233412D01*
Y-233246D01*
X90498Y-233162D01*
X90605Y-233246D01*
Y-233412D01*
X90498Y-233496D01*
G01X71525Y-213579D02*
Y-208579D01*
X72592D01*
X73018Y-208829D01*
X73338Y-209162D01*
X73605Y-209662D01*
X73818Y-210246D01*
X73872Y-211079D01*
X73818Y-211912D01*
X73605Y-212496D01*
X73338Y-212996D01*
X73018Y-213329D01*
X72592Y-213579D01*
X71525D01*
G01X77965D02*
X75832D01*
Y-208579D01*
X77965D01*
G01X77112Y-210996D02*
X75832D01*
G01X79978Y-212913D02*
X80405Y-213329D01*
X80885Y-213579D01*
X81312D01*
X81738Y-213329D01*
X82058Y-212913D01*
X82218Y-212329D01*
X82112Y-211746D01*
X81845Y-211246D01*
X81365Y-210912D01*
X80725Y-210746D01*
X80352Y-210413D01*
X80192Y-209829D01*
X80298Y-209246D01*
X80565Y-208829D01*
X80938Y-208579D01*
X81312D01*
X81685Y-208746D01*
X82005Y-209162D01*
G01X84658Y-208579D02*
X85938D01*
G01X85298D02*
Y-213579D01*
G01X84658D02*
X85938D01*
G01X89818Y-211079D02*
X90885D01*
Y-212579D01*
X90565Y-213079D01*
X90192Y-213412D01*
X89658Y-213579D01*
X89125Y-213412D01*
X88752Y-213079D01*
X88432Y-212579D01*
X88218Y-211996D01*
X88112Y-211329D01*
Y-210746D01*
X88218Y-210246D01*
X88432Y-209662D01*
X88752Y-209162D01*
X89072Y-208829D01*
X89498Y-208579D01*
X89872D01*
X90298Y-208746D01*
X90618Y-209079D01*
G01X92472Y-213579D02*
Y-208579D01*
X94925Y-213579D01*
Y-208579D01*
G01X98965Y-213579D02*
X96832D01*
Y-208579D01*
X98965D01*
G01X98112Y-210996D02*
X96832D01*
G01X101032Y-213579D02*
Y-208579D01*
X102365D01*
X102792Y-208829D01*
X103058Y-209162D01*
X103165Y-209829D01*
X103058Y-210496D01*
X102738Y-210912D01*
X102365Y-211162D01*
X101032D01*
G01X102365D02*
X103165Y-213579D01*
G01X106298Y-213746D02*
X106192Y-213662D01*
Y-213496D01*
X106298Y-213412D01*
X106405Y-213496D01*
Y-213662D01*
X106298Y-213746D01*
G01Y-211496D02*
X106192Y-211412D01*
Y-211246D01*
X106298Y-211162D01*
X106405Y-211246D01*
Y-211412D01*
X106298Y-211496D01*
G01X183598Y-204579D02*
X66098D01*
G01X183598Y-226579D02*
X66098D01*
G01X183598Y-215579D02*
X66098D01*
G01X183598Y-237579D02*
X66098D01*
G01X71932Y-187079D02*
Y-179579D01*
X73932D01*
X74598Y-179954D01*
X75098Y-180829D01*
X75265Y-181829D01*
X75098Y-182829D01*
X74682Y-183579D01*
X73932Y-183954D01*
X71932D01*
G01X78015Y-187079D02*
X80098Y-179579D01*
X82182Y-187079D01*
G01X81432Y-184454D02*
X78765D01*
G01X84848Y-186079D02*
X85515Y-186704D01*
X86265Y-187079D01*
X86932D01*
X87598Y-186704D01*
X88098Y-186079D01*
X88348Y-185204D01*
X88182Y-184329D01*
X87765Y-183579D01*
X87015Y-183079D01*
X86015Y-182829D01*
X85432Y-182329D01*
X85182Y-181454D01*
X85348Y-180579D01*
X85765Y-179954D01*
X86348Y-179579D01*
X86932D01*
X87515Y-179829D01*
X88015Y-180454D01*
G01X93098Y-179579D02*
Y-187079D01*
G01X91182Y-179579D02*
X95015D01*
G01X101265Y-187079D02*
X97932D01*
Y-179579D01*
X101265D01*
G01X99932Y-183204D02*
X97932D01*
G01X103932Y-187079D02*
Y-179579D01*
X106098Y-185829D01*
X108265Y-179579D01*
Y-187079D01*
G01X110515D02*
X112598Y-179579D01*
X114682Y-187079D01*
G01X113932Y-184454D02*
X111265D01*
G01X117348Y-186079D02*
X118015Y-186704D01*
X118765Y-187079D01*
X119432D01*
X120098Y-186704D01*
X120598Y-186079D01*
X120848Y-185204D01*
X120682Y-184329D01*
X120265Y-183579D01*
X119515Y-183079D01*
X118515Y-182829D01*
X117932Y-182329D01*
X117682Y-181454D01*
X117848Y-180579D01*
X118265Y-179954D01*
X118848Y-179579D01*
X119432D01*
X120015Y-179829D01*
X120515Y-180454D01*
G01X123765Y-187079D02*
Y-179579D01*
G01X126932D02*
X123765Y-184204D01*
G01X127432Y-187079D02*
X125182Y-182079D01*
G01X66400Y0D02*
X60400D01*
G03X56400Y-4000I0J-4000D01*
G03X60400Y-8000I4000J0D01*
G01X66400D01*
G01Y244220D02*
X60400D01*
G03X56400Y240220I0J-4000D01*
G03X60400Y236220I4000J0D01*
G01X66400D01*
G01X107132Y-224579D02*
Y-219579D01*
X108465D01*
X108892Y-219829D01*
X109158Y-220162D01*
X109265Y-220829D01*
X109158Y-221496D01*
X108838Y-221912D01*
X108465Y-222162D01*
X107132D01*
G01X108465D02*
X109265Y-224579D01*
G01X112398D02*
X111972Y-224496D01*
X111598Y-224162D01*
X111278Y-223662D01*
X111065Y-223079D01*
X110958Y-222412D01*
Y-221746D01*
X111065Y-221079D01*
X111278Y-220496D01*
X111598Y-219996D01*
X111972Y-219662D01*
X112398Y-219579D01*
X112825Y-219662D01*
X113198Y-219996D01*
X113518Y-220496D01*
X113732Y-221079D01*
X113838Y-221746D01*
Y-222412D01*
X113732Y-223079D01*
X113518Y-223662D01*
X113198Y-224162D01*
X112825Y-224496D01*
X112398Y-224579D01*
G01X115478D02*
Y-219579D01*
G01X117718D02*
Y-224579D01*
G01Y-222079D02*
X115478D01*
G01X119412Y-224579D02*
Y-219579D01*
X120798Y-223746D01*
X122185Y-219579D01*
Y-224579D01*
G01X128078Y-223913D02*
X128505Y-224329D01*
X128985Y-224579D01*
X129412D01*
X129838Y-224329D01*
X130158Y-223913D01*
X130318Y-223329D01*
X130212Y-222746D01*
X129945Y-222246D01*
X129465Y-221912D01*
X128825Y-221746D01*
X128452Y-221412D01*
X128292Y-220829D01*
X128398Y-220246D01*
X128665Y-219829D01*
X129038Y-219579D01*
X129412D01*
X129785Y-219746D01*
X130105Y-220162D01*
G01X134465Y-224579D02*
X132332D01*
Y-219579D01*
X134465D01*
G01X133612Y-221996D02*
X132332D01*
G01X136212Y-224579D02*
Y-219579D01*
X137598Y-223746D01*
X138985Y-219579D01*
Y-224579D01*
G01X141158Y-219579D02*
X142438D01*
G01X141798D02*
Y-224579D01*
G01X141158D02*
X142438D01*
G01X147172Y-219996D02*
X146852Y-219746D01*
X146478Y-219579D01*
X146052D01*
X145572Y-219829D01*
X145198Y-220246D01*
X144932Y-220746D01*
X144718Y-221579D01*
X144665Y-222329D01*
X144772Y-223079D01*
X144932Y-223579D01*
X145252Y-224079D01*
X145625Y-224412D01*
X145998Y-224579D01*
X146372D01*
X146745Y-224412D01*
X147065Y-224162D01*
X147332Y-223829D01*
G01X150198Y-224579D02*
X149772Y-224496D01*
X149398Y-224162D01*
X149078Y-223662D01*
X148865Y-223079D01*
X148758Y-222412D01*
Y-221746D01*
X148865Y-221079D01*
X149078Y-220496D01*
X149398Y-219996D01*
X149772Y-219662D01*
X150198Y-219579D01*
X150625Y-219662D01*
X150998Y-219996D01*
X151318Y-220496D01*
X151532Y-221079D01*
X151638Y-221746D01*
Y-222412D01*
X151532Y-223079D01*
X151318Y-223662D01*
X150998Y-224162D01*
X150625Y-224496D01*
X150198Y-224579D01*
G01X153172D02*
Y-219579D01*
X155625Y-224579D01*
Y-219579D01*
G01X157425Y-224579D02*
Y-219579D01*
X158492D01*
X158918Y-219829D01*
X159238Y-220162D01*
X159505Y-220662D01*
X159718Y-221246D01*
X159772Y-222079D01*
X159718Y-222913D01*
X159505Y-223496D01*
X159238Y-223996D01*
X158918Y-224329D01*
X158492Y-224579D01*
X157425D01*
G01X161625Y-219579D02*
Y-223162D01*
X161838Y-223913D01*
X162265Y-224412D01*
X162798Y-224579D01*
X163332Y-224412D01*
X163758Y-223913D01*
X163972Y-223162D01*
Y-219579D01*
G01X168172Y-219996D02*
X167852Y-219746D01*
X167478Y-219579D01*
X167052D01*
X166572Y-219829D01*
X166198Y-220246D01*
X165932Y-220746D01*
X165718Y-221579D01*
X165665Y-222329D01*
X165772Y-223079D01*
X165932Y-223579D01*
X166252Y-224079D01*
X166625Y-224412D01*
X166998Y-224579D01*
X167372D01*
X167745Y-224412D01*
X168065Y-224162D01*
X168332Y-223829D01*
G01X171198Y-219579D02*
Y-224579D01*
G01X169972Y-219579D02*
X172425D01*
G01X175398Y-224579D02*
X174972Y-224496D01*
X174598Y-224162D01*
X174278Y-223662D01*
X174065Y-223079D01*
X173958Y-222412D01*
Y-221746D01*
X174065Y-221079D01*
X174278Y-220496D01*
X174598Y-219996D01*
X174972Y-219662D01*
X175398Y-219579D01*
X175825Y-219662D01*
X176198Y-219996D01*
X176518Y-220496D01*
X176732Y-221079D01*
X176838Y-221746D01*
Y-222412D01*
X176732Y-223079D01*
X176518Y-223662D01*
X176198Y-224162D01*
X175825Y-224496D01*
X175398Y-224579D01*
G01X178532D02*
Y-219579D01*
X179865D01*
X180292Y-219829D01*
X180558Y-220162D01*
X180665Y-220829D01*
X180558Y-221496D01*
X180238Y-221912D01*
X179865Y-222162D01*
X178532D01*
G01X179865D02*
X180665Y-224579D01*
G01X98685Y-231412D02*
X99005Y-230912D01*
X99378Y-230662D01*
X99805Y-230579D01*
X100338Y-230746D01*
X100712Y-231163D01*
X100818Y-231662D01*
X100765Y-232163D01*
X100552Y-232579D01*
X99485Y-233412D01*
X99005Y-233996D01*
X98685Y-234829D01*
X98578Y-235579D01*
X100818D01*
G01X103898Y-230579D02*
X103472Y-230746D01*
X103152Y-231163D01*
X102938Y-231662D01*
X102778Y-232329D01*
X102725Y-233079D01*
X102778Y-233829D01*
X102938Y-234496D01*
X103152Y-234996D01*
X103472Y-235413D01*
X103898Y-235579D01*
X104325Y-235413D01*
X104645Y-234996D01*
X104858Y-234496D01*
X105018Y-233829D01*
X105072Y-233079D01*
X105018Y-232329D01*
X104858Y-231662D01*
X104645Y-231163D01*
X104325Y-230746D01*
X103898Y-230579D01*
G01X108098Y-235579D02*
Y-230579D01*
X107458Y-231579D01*
G01Y-235579D02*
X108738D01*
G01X111285Y-233496D02*
X111658Y-232912D01*
X111978Y-232579D01*
X112405Y-232412D01*
X112778Y-232579D01*
X113045Y-232912D01*
X113258Y-233412D01*
X113312Y-233996D01*
X113258Y-234496D01*
X113045Y-234996D01*
X112725Y-235413D01*
X112352Y-235579D01*
X111925Y-235413D01*
X111552Y-234913D01*
X111338Y-234162D01*
X111285Y-233329D01*
X111392Y-232246D01*
X111552Y-231662D01*
X111818Y-231079D01*
X112192Y-230662D01*
X112565Y-230579D01*
X112938Y-230746D01*
X113205Y-231163D01*
G01X115805Y-233912D02*
X117192D01*
G01X120698Y-230579D02*
X120272Y-230746D01*
X119952Y-231163D01*
X119738Y-231662D01*
X119578Y-232329D01*
X119525Y-233079D01*
X119578Y-233829D01*
X119738Y-234496D01*
X119952Y-234996D01*
X120272Y-235413D01*
X120698Y-235579D01*
X121125Y-235413D01*
X121445Y-234996D01*
X121658Y-234496D01*
X121818Y-233829D01*
X121872Y-233079D01*
X121818Y-232329D01*
X121658Y-231662D01*
X121445Y-231163D01*
X121125Y-230746D01*
X120698Y-230579D01*
G01X123725Y-234829D02*
X124045Y-235246D01*
X124418Y-235496D01*
X124898Y-235579D01*
X125378Y-235413D01*
X125752Y-235079D01*
X126018Y-234496D01*
X126072Y-233829D01*
X125965Y-233162D01*
X125698Y-232746D01*
X125325Y-232412D01*
X124952Y-232329D01*
X124578Y-232412D01*
X124098Y-232746D01*
X124258Y-230579D01*
X125698D01*
G01X128405Y-233912D02*
X129792D01*
G01X133298Y-235579D02*
Y-230579D01*
X132658Y-231579D01*
G01Y-235579D02*
X133938D01*
G01X136485Y-231412D02*
X136805Y-230912D01*
X137178Y-230662D01*
X137605Y-230579D01*
X138138Y-230746D01*
X138512Y-231163D01*
X138618Y-231662D01*
X138565Y-232163D01*
X138352Y-232579D01*
X137285Y-233412D01*
X136805Y-233996D01*
X136485Y-234829D01*
X136378Y-235579D01*
X138618D01*
G01X111632Y-213579D02*
Y-208579D01*
X112912D01*
X113338Y-208829D01*
X113658Y-209412D01*
X113765Y-210079D01*
X113658Y-210746D01*
X113392Y-211246D01*
X112912Y-211496D01*
X111632D01*
G01X116898Y-208579D02*
Y-213579D01*
G01X115672Y-208579D02*
X118125D01*
G01X122165Y-213579D02*
X120032D01*
Y-208579D01*
X122165D01*
G01X121312Y-210996D02*
X120032D01*
G01X126472Y-208996D02*
X126152Y-208746D01*
X125778Y-208579D01*
X125352D01*
X124872Y-208829D01*
X124498Y-209246D01*
X124232Y-209746D01*
X124018Y-210579D01*
X123965Y-211329D01*
X124072Y-212079D01*
X124232Y-212579D01*
X124552Y-213079D01*
X124925Y-213412D01*
X125298Y-213579D01*
X125672D01*
X126045Y-213412D01*
X126365Y-213162D01*
X126632Y-212829D01*
G01X162900Y0D02*
X156900D01*
G03X152900Y-4000I0J-4000D01*
G03X156900Y-8000I4000J0D01*
G01X162900D01*
G01X130100D02*
X136100D01*
G03X140100Y-4000I0J4000D01*
G03X136100Y0I-4000J0D01*
G01X130100D01*
G01Y236220D02*
X136100D01*
G03X140100Y240220I0J4000D01*
G03X136100Y244220I-4000J0D01*
G01X130100D01*
G01X162900D02*
X156900D01*
G03X152900Y240220I0J-4000D01*
G03X156900Y236220I4000J0D01*
G01X162900D01*
G01X183598Y-174579D02*
Y-249579D01*
G01X186765Y-234579D02*
Y-228579D01*
X188365D01*
X188898Y-228879D01*
X189298Y-229579D01*
X189432Y-230379D01*
X189298Y-231179D01*
X188965Y-231779D01*
X188365Y-232079D01*
X186765D01*
G01X191965Y-234579D02*
Y-228579D01*
X193632D01*
X194165Y-228879D01*
X194498Y-229279D01*
X194632Y-230079D01*
X194498Y-230879D01*
X194098Y-231379D01*
X193632Y-231679D01*
X191965D01*
G01X193632D02*
X194632Y-234579D01*
G01X198498D02*
X197965Y-234479D01*
X197498Y-234079D01*
X197098Y-233479D01*
X196832Y-232779D01*
X196698Y-231979D01*
Y-231179D01*
X196832Y-230379D01*
X197098Y-229679D01*
X197498Y-229079D01*
X197965Y-228679D01*
X198498Y-228579D01*
X199032Y-228679D01*
X199498Y-229079D01*
X199898Y-229679D01*
X200165Y-230379D01*
X200298Y-231179D01*
Y-231979D01*
X200165Y-232779D01*
X199898Y-233479D01*
X199498Y-234079D01*
X199032Y-234479D01*
X198498Y-234579D01*
G01X202365Y-233379D02*
X202698Y-233979D01*
X203098Y-234379D01*
X203565Y-234579D01*
X204098Y-234379D01*
X204498Y-233979D01*
X204898Y-233379D01*
X205032Y-232579D01*
Y-228579D01*
G01X210232Y-234579D02*
X207565D01*
Y-228579D01*
X210232D01*
G01X209165Y-231479D02*
X207565D01*
G01X215565Y-229079D02*
X215165Y-228779D01*
X214699Y-228579D01*
X214165D01*
X213565Y-228879D01*
X213098Y-229379D01*
X212765Y-229979D01*
X212498Y-230979D01*
X212432Y-231879D01*
X212565Y-232779D01*
X212765Y-233379D01*
X213165Y-233979D01*
X213632Y-234379D01*
X214098Y-234579D01*
X214565D01*
X215032Y-234379D01*
X215432Y-234079D01*
X215765Y-233679D01*
G01X219298Y-228579D02*
Y-234579D01*
G01X217765Y-228579D02*
X220832D01*
G01X228165Y-234579D02*
Y-228579D01*
X231232Y-234579D01*
Y-228579D01*
G01X233432D02*
Y-232879D01*
X233698Y-233779D01*
X234232Y-234379D01*
X234898Y-234579D01*
X235565Y-234379D01*
X236098Y-233779D01*
X236365Y-232879D01*
Y-228579D01*
G01X238365Y-234579D02*
Y-228579D01*
X240098Y-233579D01*
X241832Y-228579D01*
Y-234579D01*
G01X245832Y-231379D02*
X246098Y-231079D01*
X246298Y-230579D01*
X246432Y-229879D01*
X246298Y-229279D01*
X246032Y-228879D01*
X245565Y-228579D01*
X243765D01*
Y-234579D01*
X245965D01*
X246432Y-234179D01*
X246698Y-233579D01*
X246832Y-232879D01*
X246698Y-232179D01*
X246298Y-231579D01*
X245832Y-231379D01*
X243765D01*
G01X251832Y-234579D02*
X249165D01*
Y-228579D01*
X251832D01*
G01X250765Y-231479D02*
X249165D01*
G01X254365Y-234579D02*
Y-228579D01*
X256032D01*
X256565Y-228879D01*
X256898Y-229279D01*
X257032Y-230079D01*
X256898Y-230879D01*
X256498Y-231379D01*
X256032Y-231679D01*
X254365D01*
G01X256032D02*
X257032Y-234579D01*
G01X260898Y-234779D02*
X260765Y-234679D01*
Y-234479D01*
X260898Y-234379D01*
X261032Y-234479D01*
Y-234679D01*
X260898Y-234779D01*
G01Y-232079D02*
X260765Y-231979D01*
Y-231779D01*
X260898Y-231679D01*
X261032Y-231779D01*
Y-231979D01*
X260898Y-232079D01*
G01X186765Y-212079D02*
Y-206079D01*
X188365D01*
X188898Y-206379D01*
X189298Y-207079D01*
X189432Y-207879D01*
X189298Y-208679D01*
X188965Y-209279D01*
X188365Y-209579D01*
X186765D01*
G01X191965Y-212079D02*
Y-206079D01*
X193632D01*
X194165Y-206379D01*
X194498Y-206779D01*
X194632Y-207579D01*
X194498Y-208379D01*
X194098Y-208879D01*
X193632Y-209179D01*
X191965D01*
G01X193632D02*
X194632Y-212079D01*
G01X198498D02*
X197965Y-211979D01*
X197498Y-211579D01*
X197098Y-210979D01*
X196832Y-210279D01*
X196698Y-209479D01*
Y-208679D01*
X196832Y-207879D01*
X197098Y-207179D01*
X197498Y-206579D01*
X197965Y-206179D01*
X198498Y-206079D01*
X199032Y-206179D01*
X199498Y-206579D01*
X199898Y-207179D01*
X200165Y-207879D01*
X200298Y-208679D01*
Y-209479D01*
X200165Y-210279D01*
X199898Y-210979D01*
X199498Y-211579D01*
X199032Y-211979D01*
X198498Y-212079D01*
G01X202365Y-210879D02*
X202698Y-211479D01*
X203098Y-211879D01*
X203565Y-212079D01*
X204098Y-211879D01*
X204498Y-211479D01*
X204898Y-210879D01*
X205032Y-210079D01*
Y-206079D01*
G01X210232Y-212079D02*
X207565D01*
Y-206079D01*
X210232D01*
G01X209165Y-208979D02*
X207565D01*
G01X215565Y-206579D02*
X215165Y-206279D01*
X214699Y-206079D01*
X214165D01*
X213565Y-206379D01*
X213098Y-206879D01*
X212765Y-207479D01*
X212498Y-208479D01*
X212432Y-209379D01*
X212565Y-210279D01*
X212765Y-210879D01*
X213165Y-211479D01*
X213632Y-211879D01*
X214098Y-212079D01*
X214565D01*
X215032Y-211879D01*
X215432Y-211579D01*
X215765Y-211179D01*
G01X219298Y-206079D02*
Y-212079D01*
G01X217765Y-206079D02*
X220832D01*
G01X228165Y-212079D02*
Y-206079D01*
X231232Y-212079D01*
Y-206079D01*
G01X233232Y-212079D02*
X234898Y-206079D01*
X236565Y-212079D01*
G01X235965Y-209979D02*
X233832D01*
G01X238365Y-212079D02*
Y-206079D01*
X240098Y-211079D01*
X241832Y-206079D01*
Y-212079D01*
G01X246632D02*
X243965D01*
Y-206079D01*
X246632D01*
G01X245565Y-208979D02*
X243965D01*
G01X250498Y-212279D02*
X250365Y-212179D01*
Y-211979D01*
X250498Y-211879D01*
X250632Y-211979D01*
Y-212179D01*
X250498Y-212279D01*
G01Y-209579D02*
X250365Y-209479D01*
Y-209279D01*
X250498Y-209179D01*
X250632Y-209279D01*
Y-209479D01*
X250498Y-209579D01*
G01X386098Y-227079D02*
X183598D01*
G01X386098Y-204579D02*
X183598D01*
G01X189565Y-176579D02*
X189165Y-176279D01*
X188698Y-176079D01*
X188165D01*
X187565Y-176379D01*
X187098Y-176879D01*
X186765Y-177479D01*
X186498Y-178479D01*
X186432Y-179379D01*
X186565Y-180279D01*
X186765Y-180879D01*
X187165Y-181479D01*
X187632Y-181879D01*
X188098Y-182079D01*
X188565D01*
X189032Y-181879D01*
X189432Y-181579D01*
X189765Y-181179D01*
G01X193298Y-182079D02*
X192765Y-181979D01*
X192298Y-181579D01*
X191898Y-180979D01*
X191632Y-180279D01*
X191498Y-179479D01*
Y-178679D01*
X191632Y-177879D01*
X191898Y-177179D01*
X192298Y-176579D01*
X192765Y-176179D01*
X193298Y-176079D01*
X193832Y-176179D01*
X194298Y-176579D01*
X194698Y-177179D01*
X194965Y-177879D01*
X195098Y-178679D01*
Y-179479D01*
X194965Y-180279D01*
X194698Y-180979D01*
X194298Y-181579D01*
X193832Y-181979D01*
X193298Y-182079D01*
G01X196765D02*
Y-176079D01*
X198498Y-181079D01*
X200232Y-176079D01*
Y-182079D01*
G01X202365D02*
Y-176079D01*
X203965D01*
X204498Y-176379D01*
X204898Y-177079D01*
X205032Y-177879D01*
X204898Y-178679D01*
X204565Y-179279D01*
X203965Y-179579D01*
X202365D01*
G01X207232Y-182079D02*
X208898Y-176079D01*
X210565Y-182079D01*
G01X209965Y-179979D02*
X207832D01*
G01X212565Y-182079D02*
Y-176079D01*
X215632Y-182079D01*
Y-176079D01*
G01X219298Y-182079D02*
Y-179379D01*
X217965Y-176079D01*
G01X220632D02*
X219298Y-179379D01*
G01X228165Y-182079D02*
Y-176079D01*
X231232Y-182079D01*
Y-176079D01*
G01X233232Y-182079D02*
X234898Y-176079D01*
X236565Y-182079D01*
G01X235965Y-179979D02*
X233832D01*
G01X238365Y-182079D02*
Y-176079D01*
X240098Y-181079D01*
X241832Y-176079D01*
Y-182079D01*
G01X246632D02*
X243965D01*
Y-176079D01*
X246632D01*
G01X245565Y-178979D02*
X243965D01*
G01X250498Y-182279D02*
X250365Y-182179D01*
Y-181979D01*
X250498Y-181879D01*
X250632Y-181979D01*
Y-182179D01*
X250498Y-182279D01*
G01Y-179579D02*
X250365Y-179479D01*
Y-179279D01*
X250498Y-179179D01*
X250632Y-179279D01*
Y-179479D01*
X250498Y-179579D01*
G01X204850Y0D02*
X362331D01*
Y118110D01*
X204850D01*
Y0D01*
G01Y47100D02*
Y53100D01*
G03X200850Y57100I-4000J0D01*
G03X196850Y53100I0J-4000D01*
G01Y47100D01*
G01Y79900D02*
Y73900D01*
G03X200850Y69900I4000J0D01*
G03X204850Y73900I0J4000D01*
G01Y79900D01*
G01Y224535D02*
Y126110D01*
G01D02*
X354457D01*
G01X204850Y141200D02*
Y147200D01*
G03X200850Y151200I-4000J0D01*
G03X196850Y147200I0J-4000D01*
G01Y141200D01*
G01Y174000D02*
Y168000D01*
G03X200850Y164000I4000J0D01*
G03X204850Y168000I0J4000D01*
G01Y174000D01*
G01Y232535D02*
X362457D01*
G01X204850Y244220D02*
Y232483D01*
G01X354457Y224535D02*
X204850D01*
G01X233578Y-223913D02*
X234005Y-224329D01*
X234485Y-224579D01*
X234912D01*
X235338Y-224329D01*
X235658Y-223913D01*
X235818Y-223329D01*
X235712Y-222746D01*
X235445Y-222246D01*
X234965Y-221912D01*
X234325Y-221746D01*
X233952Y-221412D01*
X233792Y-220829D01*
X233898Y-220246D01*
X234165Y-219829D01*
X234538Y-219579D01*
X234912D01*
X235285Y-219746D01*
X235605Y-220162D01*
G01X239965Y-224579D02*
X237832D01*
Y-219579D01*
X239965D01*
G01X239112Y-221996D02*
X237832D01*
G01X241872Y-224579D02*
Y-219579D01*
X244325Y-224579D01*
Y-219579D01*
G01X246178Y-223913D02*
X246605Y-224329D01*
X247085Y-224579D01*
X247512D01*
X247938Y-224329D01*
X248258Y-223913D01*
X248418Y-223329D01*
X248312Y-222746D01*
X248045Y-222246D01*
X247565Y-221912D01*
X246925Y-221746D01*
X246552Y-221412D01*
X246392Y-220829D01*
X246498Y-220246D01*
X246765Y-219829D01*
X247138Y-219579D01*
X247512D01*
X247885Y-219746D01*
X248205Y-220162D01*
G01X251498Y-224579D02*
X251072Y-224496D01*
X250698Y-224162D01*
X250378Y-223662D01*
X250165Y-223079D01*
X250058Y-222412D01*
Y-221746D01*
X250165Y-221079D01*
X250378Y-220496D01*
X250698Y-219996D01*
X251072Y-219662D01*
X251498Y-219579D01*
X251925Y-219662D01*
X252298Y-219996D01*
X252618Y-220496D01*
X252832Y-221079D01*
X252938Y-221746D01*
Y-222412D01*
X252832Y-223079D01*
X252618Y-223662D01*
X252298Y-224162D01*
X251925Y-224496D01*
X251498Y-224579D01*
G01X254632D02*
Y-219579D01*
X255965D01*
X256392Y-219829D01*
X256658Y-220162D01*
X256765Y-220829D01*
X256658Y-221496D01*
X256338Y-221912D01*
X255965Y-222162D01*
X254632D01*
G01X255965D02*
X256765Y-224579D01*
G01X258778Y-223913D02*
X259205Y-224329D01*
X259685Y-224579D01*
X260112D01*
X260538Y-224329D01*
X260858Y-223913D01*
X261018Y-223329D01*
X260912Y-222746D01*
X260645Y-222246D01*
X260165Y-221912D01*
X259525Y-221746D01*
X259152Y-221412D01*
X258992Y-220829D01*
X259098Y-220246D01*
X259365Y-219829D01*
X259738Y-219579D01*
X260112D01*
X260485Y-219746D01*
X260805Y-220162D01*
G01X262498Y-226246D02*
X265698D01*
G01X269365Y-224579D02*
X267232D01*
Y-219579D01*
X269365D01*
G01X268512Y-221996D02*
X267232D01*
G01X271378Y-224579D02*
X273618Y-219579D01*
G01X271378D02*
X273618Y-224579D01*
G01X275632D02*
Y-219579D01*
X276912D01*
X277338Y-219829D01*
X277658Y-220412D01*
X277765Y-221079D01*
X277658Y-221746D01*
X277392Y-222246D01*
X276912Y-222496D01*
X275632D01*
G01X280898Y-224579D02*
X280472Y-224496D01*
X280098Y-224162D01*
X279778Y-223662D01*
X279565Y-223079D01*
X279458Y-222412D01*
Y-221746D01*
X279565Y-221079D01*
X279778Y-220496D01*
X280098Y-219996D01*
X280472Y-219662D01*
X280898Y-219579D01*
X281325Y-219662D01*
X281698Y-219996D01*
X282018Y-220496D01*
X282232Y-221079D01*
X282338Y-221746D01*
Y-222412D01*
X282232Y-223079D01*
X282018Y-223662D01*
X281698Y-224162D01*
X281325Y-224496D01*
X280898Y-224579D01*
G01X283498Y-226246D02*
X286698D01*
G01X288125Y-224579D02*
Y-219579D01*
X289192D01*
X289618Y-219829D01*
X289938Y-220162D01*
X290205Y-220662D01*
X290418Y-221246D01*
X290472Y-222079D01*
X290418Y-222913D01*
X290205Y-223496D01*
X289938Y-223996D01*
X289618Y-224329D01*
X289192Y-224579D01*
X288125D01*
G01X294565D02*
X292432D01*
Y-219579D01*
X294565D01*
G01X293712Y-221996D02*
X292432D01*
G01X296312Y-224579D02*
Y-219579D01*
X297698Y-223746D01*
X299085Y-219579D01*
Y-224579D01*
G01X301898D02*
X301472Y-224496D01*
X301098Y-224162D01*
X300778Y-223662D01*
X300565Y-223079D01*
X300458Y-222412D01*
Y-221746D01*
X300565Y-221079D01*
X300778Y-220496D01*
X301098Y-219996D01*
X301472Y-219662D01*
X301898Y-219579D01*
X302325Y-219662D01*
X302698Y-219996D01*
X303018Y-220496D01*
X303232Y-221079D01*
X303338Y-221746D01*
Y-222412D01*
X303232Y-223079D01*
X303018Y-223662D01*
X302698Y-224162D01*
X302325Y-224496D01*
X301898Y-224579D01*
G01X304498Y-226246D02*
X307698D01*
G01X309232Y-219579D02*
Y-224579D01*
X311365D01*
G01X315565D02*
X313432D01*
Y-219579D01*
X315565D01*
G01X314712Y-221996D02*
X313432D01*
G01X317525Y-224579D02*
Y-219579D01*
X318592D01*
X319018Y-219829D01*
X319338Y-220162D01*
X319605Y-220662D01*
X319818Y-221246D01*
X319872Y-222079D01*
X319818Y-222913D01*
X319605Y-223496D01*
X319338Y-223996D01*
X319018Y-224329D01*
X318592Y-224579D01*
X317525D01*
G01X321298Y-226246D02*
X324498D01*
G01X325712Y-224579D02*
Y-219579D01*
X327098Y-223746D01*
X328485Y-219579D01*
Y-224579D01*
G01X332472Y-219996D02*
X332152Y-219746D01*
X331778Y-219579D01*
X331352D01*
X330872Y-219829D01*
X330498Y-220246D01*
X330232Y-220746D01*
X330018Y-221579D01*
X329965Y-222329D01*
X330072Y-223079D01*
X330232Y-223579D01*
X330552Y-224079D01*
X330925Y-224412D01*
X331298Y-224579D01*
X331672D01*
X332045Y-224412D01*
X332365Y-224162D01*
X332632Y-223829D01*
G01X334325Y-219579D02*
Y-223162D01*
X334538Y-223913D01*
X334965Y-224412D01*
X335498Y-224579D01*
X336032Y-224412D01*
X336458Y-223913D01*
X336672Y-223162D01*
Y-219579D01*
G01X260400Y0D02*
X254400D01*
G03X250400Y-4000I0J-4000D01*
G03X254400Y-8000I4000J0D01*
G01X260400D01*
G01X227600D02*
X233600D01*
G03X237600Y-4000I0J4000D01*
G03X233600Y0I-4000J0D01*
G01X227600D01*
G01Y118110D02*
X233600D01*
G03X237600Y122110I0J4000D01*
G03X233600Y126110I-4000J0D01*
G01X227600D01*
G01X260400D02*
X254400D01*
G03X250400Y122110I0J-4000D01*
G03X254400Y118110I4000J0D01*
G01X260400D01*
G01Y232535D02*
X254400D01*
G03X250400Y228535I0J-4000D01*
G03X254400Y224535I4000J0D01*
G01X260400D01*
G01X227600D02*
X233600D01*
G03X237600Y228535I0J4000D01*
G03X233600Y232535I-4000J0D01*
G01X227600D01*
G01X307600Y-8000D02*
X313600D01*
G03X317600Y-4000I0J4000D01*
G03X313600Y0I-4000J0D01*
G01X307600D01*
G01X340400D02*
X334400D01*
G03X330400Y-4000I0J-4000D01*
G03X334400Y-8000I4000J0D01*
G01X340400D01*
G01X307600Y118110D02*
X313600D01*
G03X317600Y122110I0J4000D01*
G03X313600Y126110I-4000J0D01*
G01X307600D01*
G01X340400D02*
X334400D01*
G03X330400Y122110I0J-4000D01*
G03X334400Y118110I4000J0D01*
G01X336000D01*
G01X340400Y232535D02*
X334400D01*
G03X330400Y228535I0J-4000D01*
G03X334400Y224535I4000J0D01*
G01X336000D01*
G01X307600D02*
X313600D01*
G03X317600Y228535I0J4000D01*
G03X313600Y232535I-4000J0D01*
G01X307600D01*
G01X389088Y-243079D02*
X390908Y-239079D01*
G01X389088D02*
X390908Y-243079D01*
G01X392488D02*
X394308Y-239079D01*
G01X392488D02*
X394308Y-243079D01*
G01X395888D02*
X397708Y-239079D01*
G01X395888D02*
X397708Y-243079D01*
G01X351098Y-227079D02*
Y-249579D01*
G01X386098Y-174579D02*
Y-249579D01*
G01X356965Y-234579D02*
Y-228579D01*
X358632D01*
X359165Y-228879D01*
X359498Y-229279D01*
X359632Y-230079D01*
X359498Y-230879D01*
X359098Y-231379D01*
X358632Y-231679D01*
X356965D01*
G01X358632D02*
X359632Y-234579D01*
G01X364832D02*
X362165D01*
Y-228579D01*
X364832D01*
G01X363765Y-231479D02*
X362165D01*
G01X367032Y-228579D02*
X368698Y-234579D01*
X370365Y-228579D01*
G01X373898Y-234779D02*
X373765Y-234679D01*
Y-234479D01*
X373898Y-234379D01*
X374032Y-234479D01*
Y-234679D01*
X373898Y-234779D01*
G01X390445Y-225579D02*
Y-221579D01*
X391312D01*
X391658Y-221779D01*
X391918Y-222046D01*
X392135Y-222446D01*
X392308Y-222913D01*
X392352Y-223579D01*
X392308Y-224246D01*
X392135Y-224712D01*
X391918Y-225112D01*
X391658Y-225379D01*
X391312Y-225579D01*
X390445D01*
G01X395665D02*
X393932D01*
Y-221579D01*
X395665D01*
G01X394972Y-223512D02*
X393932D01*
G01X399152Y-221912D02*
X398892Y-221712D01*
X398588Y-221579D01*
X398242D01*
X397852Y-221779D01*
X397548Y-222112D01*
X397332Y-222513D01*
X397158Y-223179D01*
X397115Y-223779D01*
X397202Y-224379D01*
X397332Y-224779D01*
X397592Y-225179D01*
X397895Y-225446D01*
X398198Y-225579D01*
X398502D01*
X398805Y-225446D01*
X399065Y-225246D01*
X399282Y-224979D01*
G01X401078Y-221579D02*
X402118D01*
G01X401598D02*
Y-225579D01*
G01X401078D02*
X402118D01*
G01X403872D02*
Y-221579D01*
X404998Y-224913D01*
X406125Y-221579D01*
Y-225579D01*
G01X407315D02*
X408398Y-221579D01*
X409482Y-225579D01*
G01X409092Y-224179D02*
X407705D01*
G01X410932Y-221579D02*
Y-225579D01*
X412665D01*
G01X387388Y-194046D02*
X387735Y-194379D01*
X388125Y-194579D01*
X388472D01*
X388818Y-194379D01*
X389078Y-194046D01*
X389208Y-193579D01*
X389122Y-193112D01*
X388905Y-192712D01*
X388515Y-192446D01*
X387995Y-192312D01*
X387692Y-192046D01*
X387562Y-191579D01*
X387648Y-191112D01*
X387865Y-190779D01*
X388168Y-190579D01*
X388472D01*
X388775Y-190712D01*
X389035Y-191046D01*
G01X390832Y-194579D02*
Y-190579D01*
X391872D01*
X392218Y-190779D01*
X392478Y-191246D01*
X392565Y-191779D01*
X392478Y-192312D01*
X392262Y-192712D01*
X391872Y-192912D01*
X390832D01*
G01X395965Y-194579D02*
X394232D01*
Y-190579D01*
X395965D01*
G01X395272Y-192512D02*
X394232D01*
G01X399452Y-190912D02*
X399192Y-190712D01*
X398888Y-190579D01*
X398542D01*
X398152Y-190779D01*
X397848Y-191112D01*
X397632Y-191512D01*
X397458Y-192179D01*
X397415Y-192779D01*
X397502Y-193379D01*
X397632Y-193779D01*
X397892Y-194179D01*
X398195Y-194446D01*
X398498Y-194579D01*
X398802D01*
X399105Y-194446D01*
X399365Y-194246D01*
X399582Y-193979D01*
G01X401378Y-190579D02*
X402418D01*
G01X401898D02*
Y-194579D01*
G01X401378D02*
X402418D01*
G01X404475D02*
Y-190579D01*
X406122D01*
G01X405515Y-192512D02*
X404475D01*
G01X408178Y-190579D02*
X409218D01*
G01X408698D02*
Y-194579D01*
G01X408178D02*
X409218D01*
G01X412965D02*
X411232D01*
Y-190579D01*
X412965D01*
G01X412272Y-192512D02*
X411232D01*
G01X414545Y-194579D02*
Y-190579D01*
X415412D01*
X415758Y-190779D01*
X416018Y-191046D01*
X416235Y-191446D01*
X416408Y-191912D01*
X416452Y-192579D01*
X416408Y-193246D01*
X416235Y-193712D01*
X416018Y-194112D01*
X415758Y-194379D01*
X415412Y-194579D01*
X414545D01*
G01X421345D02*
Y-190579D01*
X422212D01*
X422558Y-190779D01*
X422818Y-191046D01*
X423035Y-191446D01*
X423208Y-191912D01*
X423252Y-192579D01*
X423208Y-193246D01*
X423035Y-193712D01*
X422818Y-194112D01*
X422558Y-194379D01*
X422212Y-194579D01*
X421345D01*
G01X425178Y-190579D02*
X426218D01*
G01X425698D02*
Y-194579D01*
G01X425178D02*
X426218D01*
G01X427972D02*
Y-190579D01*
X429098Y-193912D01*
X430225Y-190579D01*
Y-194579D01*
G01X433365D02*
X431632D01*
Y-190579D01*
X433365D01*
G01X432672Y-192512D02*
X431632D01*
G01X434902Y-194579D02*
Y-190579D01*
X436895Y-194579D01*
Y-190579D01*
G01X438388Y-194046D02*
X438735Y-194379D01*
X439125Y-194579D01*
X439472D01*
X439818Y-194379D01*
X440078Y-194046D01*
X440208Y-193579D01*
X440122Y-193112D01*
X439905Y-192712D01*
X439515Y-192446D01*
X438995Y-192312D01*
X438692Y-192046D01*
X438562Y-191579D01*
X438648Y-191112D01*
X438865Y-190779D01*
X439168Y-190579D01*
X439472D01*
X439775Y-190712D01*
X440035Y-191046D01*
G01X442178Y-190579D02*
X443218D01*
G01X442698D02*
Y-194579D01*
G01X442178D02*
X443218D01*
G01X446098D02*
X445752Y-194512D01*
X445448Y-194246D01*
X445188Y-193846D01*
X445015Y-193379D01*
X444928Y-192846D01*
Y-192312D01*
X445015Y-191779D01*
X445188Y-191312D01*
X445448Y-190912D01*
X445752Y-190646D01*
X446098Y-190579D01*
X446445Y-190646D01*
X446748Y-190912D01*
X447008Y-191312D01*
X447182Y-191779D01*
X447268Y-192312D01*
Y-192846D01*
X447182Y-193379D01*
X447008Y-193846D01*
X446748Y-194246D01*
X446445Y-194512D01*
X446098Y-194579D01*
G01X448502D02*
Y-190579D01*
X450495Y-194579D01*
Y-190579D01*
G01X451988Y-194046D02*
X452335Y-194379D01*
X452725Y-194579D01*
X453072D01*
X453418Y-194379D01*
X453678Y-194046D01*
X453808Y-193579D01*
X453722Y-193112D01*
X453505Y-192712D01*
X453115Y-192446D01*
X452595Y-192312D01*
X452292Y-192046D01*
X452162Y-191579D01*
X452248Y-191112D01*
X452465Y-190779D01*
X452768Y-190579D01*
X453072D01*
X453375Y-190712D01*
X453635Y-191046D01*
G01X390331Y274220D02*
Y-38000D01*
G01X370331Y126110D02*
Y-8000D01*
G01Y47100D02*
Y53100D01*
G03X366331Y57100I-4000J0D01*
G03X362331Y53100I0J-4000D01*
G01Y47100D01*
G01Y79900D02*
Y73900D01*
G03X366331Y69900I4000J0D01*
G03X370331Y73900I0J4000D01*
G01Y79900D01*
G01X362457Y126110D02*
X370331D01*
G01X362457D02*
Y232535D01*
G01X354457Y126110D02*
Y224535D01*
G01X362457Y141200D02*
Y147200D01*
G03X358457Y151200I-4000J0D01*
G03X354457Y147200I0J-4000D01*
G01Y141200D01*
G01Y174000D02*
Y168000D01*
G03X358457Y164000I4000J0D01*
G03X362457Y168000I0J4000D01*
G01Y174000D01*
G01X405398Y-243212D02*
X405312Y-243146D01*
Y-243012D01*
X405398Y-242946D01*
X405485Y-243012D01*
Y-243146D01*
X405398Y-243212D01*
G01X408798Y-239079D02*
X408452Y-239212D01*
X408192Y-239546D01*
X408018Y-239946D01*
X407888Y-240479D01*
X407845Y-241079D01*
X407888Y-241679D01*
X408018Y-242212D01*
X408192Y-242612D01*
X408452Y-242946D01*
X408798Y-243079D01*
X409145Y-242946D01*
X409405Y-242612D01*
X409578Y-242212D01*
X409708Y-241679D01*
X409752Y-241079D01*
X409708Y-240479D01*
X409578Y-239946D01*
X409405Y-239546D01*
X409145Y-239212D01*
X408798Y-239079D01*
G01X412198Y-243079D02*
Y-239079D01*
X411678Y-239879D01*
G01Y-243079D02*
X412718D01*
G01X415598Y-239079D02*
X415252Y-239212D01*
X414992Y-239546D01*
X414818Y-239946D01*
X414688Y-240479D01*
X414645Y-241079D01*
X414688Y-241679D01*
X414818Y-242212D01*
X414992Y-242612D01*
X415252Y-242946D01*
X415598Y-243079D01*
X415945Y-242946D01*
X416205Y-242612D01*
X416378Y-242212D01*
X416508Y-241679D01*
X416552Y-241079D01*
X416508Y-240479D01*
X416378Y-239946D01*
X416205Y-239546D01*
X415945Y-239212D01*
X415598Y-239079D01*
G01X422972Y-237579D02*
Y-233579D01*
X424098Y-236912D01*
X425225Y-233579D01*
Y-237579D01*
G01X426415D02*
X427498Y-233579D01*
X428582Y-237579D01*
G01X428192Y-236179D02*
X426805D01*
G01X431852Y-233912D02*
X431592Y-233712D01*
X431288Y-233579D01*
X430942D01*
X430552Y-233779D01*
X430248Y-234112D01*
X430032Y-234512D01*
X429858Y-235179D01*
X429815Y-235779D01*
X429902Y-236379D01*
X430032Y-236779D01*
X430292Y-237179D01*
X430595Y-237446D01*
X430898Y-237579D01*
X431202D01*
X431505Y-237446D01*
X431765Y-237246D01*
X431982Y-236979D01*
G01X433388Y-237579D02*
Y-233579D01*
G01X435208D02*
Y-237579D01*
G01Y-235579D02*
X433388D01*
G01X440275Y-237579D02*
Y-233579D01*
X441922D01*
G01X441315Y-235512D02*
X440275D01*
G01X443978Y-233579D02*
X445018D01*
G01X444498D02*
Y-237579D01*
G01X443978D02*
X445018D01*
G01X446902D02*
Y-233579D01*
X448895Y-237579D01*
Y-233579D01*
G01X450778D02*
X451818D01*
G01X451298D02*
Y-237579D01*
G01X450778D02*
X451818D01*
G01X453788Y-237046D02*
X454135Y-237379D01*
X454525Y-237579D01*
X454872D01*
X455218Y-237379D01*
X455478Y-237046D01*
X455608Y-236579D01*
X455522Y-236112D01*
X455305Y-235712D01*
X454915Y-235446D01*
X454395Y-235312D01*
X454092Y-235046D01*
X453962Y-234579D01*
X454048Y-234112D01*
X454265Y-233779D01*
X454568Y-233579D01*
X454872D01*
X455175Y-233712D01*
X455435Y-234046D01*
G01X457188Y-237579D02*
Y-233579D01*
G01X459008D02*
Y-237579D01*
G01Y-235579D02*
X457188D01*
G01X400098Y-243079D02*
X403098D01*
G01X401598Y-239379D02*
Y-242379D01*
G01X400098Y-240879D02*
X403098D01*
G01X399115Y-202079D02*
X400198Y-198079D01*
X401282Y-202079D01*
G01X400892Y-200679D02*
X399505D01*
G01X402732Y-202079D02*
Y-198079D01*
X403815D01*
X404162Y-198279D01*
X404378Y-198546D01*
X404465Y-199079D01*
X404378Y-199613D01*
X404118Y-199946D01*
X403815Y-200146D01*
X402732D01*
G01X403815D02*
X404465Y-202079D01*
G01X407865D02*
X406132D01*
Y-198079D01*
X407865D01*
G01X407172Y-200012D02*
X406132D01*
G01X413278Y-198079D02*
X414318D01*
G01X413798D02*
Y-202079D01*
G01X413278D02*
X414318D01*
G01X416202D02*
Y-198079D01*
X418195Y-202079D01*
Y-198079D01*
G01X423478D02*
X424518D01*
G01X423998D02*
Y-202079D01*
G01X423478D02*
X424518D01*
G01X426402D02*
Y-198079D01*
X428395Y-202079D01*
Y-198079D01*
G01X431752Y-198412D02*
X431492Y-198212D01*
X431188Y-198079D01*
X430842D01*
X430452Y-198279D01*
X430148Y-198612D01*
X429932Y-199012D01*
X429758Y-199679D01*
X429715Y-200279D01*
X429802Y-200879D01*
X429932Y-201279D01*
X430192Y-201679D01*
X430495Y-201946D01*
X430798Y-202079D01*
X431102D01*
X431405Y-201946D01*
X431665Y-201746D01*
X431882Y-201479D01*
G01X433288Y-202079D02*
Y-198079D01*
G01X435108D02*
Y-202079D01*
G01Y-200079D02*
X433288D01*
G01X438465Y-202079D02*
X436732D01*
Y-198079D01*
X438465D01*
G01X437772Y-200012D02*
X436732D01*
G01X440088Y-201546D02*
X440435Y-201879D01*
X440825Y-202079D01*
X441172D01*
X441518Y-201879D01*
X441778Y-201546D01*
X441908Y-201079D01*
X441822Y-200612D01*
X441605Y-200212D01*
X441215Y-199946D01*
X440695Y-199812D01*
X440392Y-199546D01*
X440262Y-199079D01*
X440348Y-198612D01*
X440565Y-198279D01*
X440868Y-198079D01*
X441172D01*
X441475Y-198212D01*
X441735Y-198546D01*
G01X405298Y-213079D02*
Y-217079D01*
G01X404302Y-213079D02*
X406295D01*
G01X408698Y-217079D02*
X408352Y-217012D01*
X408048Y-216746D01*
X407788Y-216346D01*
X407615Y-215879D01*
X407528Y-215346D01*
Y-214812D01*
X407615Y-214279D01*
X407788Y-213812D01*
X408048Y-213412D01*
X408352Y-213146D01*
X408698Y-213079D01*
X409045Y-213146D01*
X409348Y-213412D01*
X409608Y-213812D01*
X409782Y-214279D01*
X409868Y-214812D01*
Y-215346D01*
X409782Y-215879D01*
X409608Y-216346D01*
X409348Y-216746D01*
X409045Y-217012D01*
X408698Y-217079D01*
G01X411232Y-213079D02*
Y-217079D01*
X412965D01*
G01X416365D02*
X414632D01*
Y-213079D01*
X416365D01*
G01X415672Y-215012D02*
X414632D01*
G01X418032Y-217079D02*
Y-213079D01*
X419115D01*
X419462Y-213279D01*
X419678Y-213546D01*
X419765Y-214079D01*
X419678Y-214612D01*
X419418Y-214946D01*
X419115Y-215146D01*
X418032D01*
G01X419115D02*
X419765Y-217079D01*
G01X421215D02*
X422298Y-213079D01*
X423382Y-217079D01*
G01X422992Y-215679D02*
X421605D01*
G01X424702Y-217079D02*
Y-213079D01*
X426695Y-217079D01*
Y-213079D01*
G01X430052Y-213412D02*
X429792Y-213212D01*
X429488Y-213079D01*
X429142D01*
X428752Y-213279D01*
X428448Y-213612D01*
X428232Y-214012D01*
X428058Y-214679D01*
X428015Y-215279D01*
X428102Y-215879D01*
X428232Y-216279D01*
X428492Y-216679D01*
X428795Y-216946D01*
X429098Y-217079D01*
X429402D01*
X429705Y-216946D01*
X429965Y-216746D01*
X430182Y-216479D01*
G01X433365Y-217079D02*
X431632D01*
Y-213079D01*
X433365D01*
G01X432672Y-215012D02*
X431632D01*
G01X434988Y-216546D02*
X435335Y-216879D01*
X435725Y-217079D01*
X436072D01*
X436418Y-216879D01*
X436678Y-216546D01*
X436808Y-216079D01*
X436722Y-215612D01*
X436505Y-215212D01*
X436115Y-214946D01*
X435595Y-214812D01*
X435292Y-214546D01*
X435162Y-214079D01*
X435248Y-213612D01*
X435465Y-213279D01*
X435768Y-213079D01*
X436072D01*
X436375Y-213212D01*
X436635Y-213546D01*
G01X405398Y-231212D02*
X405312Y-231146D01*
Y-231012D01*
X405398Y-230946D01*
X405485Y-231012D01*
Y-231146D01*
X405398Y-231212D01*
G01X408798Y-231079D02*
Y-227079D01*
X408278Y-227879D01*
G01Y-231079D02*
X409318D01*
G01X405398Y-237212D02*
X405312Y-237146D01*
Y-237012D01*
X405398Y-236946D01*
X405485Y-237012D01*
Y-237146D01*
X405398Y-237212D01*
G01X408798Y-233079D02*
X408452Y-233212D01*
X408192Y-233546D01*
X408018Y-233946D01*
X407888Y-234479D01*
X407845Y-235079D01*
X407888Y-235679D01*
X408018Y-236213D01*
X408192Y-236613D01*
X408452Y-236946D01*
X408798Y-237079D01*
X409145Y-236946D01*
X409405Y-236613D01*
X409578Y-236213D01*
X409708Y-235679D01*
X409752Y-235079D01*
X409708Y-234479D01*
X409578Y-233946D01*
X409405Y-233546D01*
X409145Y-233212D01*
X408798Y-233079D01*
G01X411245Y-236279D02*
X411505Y-236746D01*
X411852Y-237012D01*
X412242Y-237079D01*
X412588Y-237012D01*
X412935Y-236679D01*
X413152Y-236279D01*
X413195Y-235879D01*
X413108Y-235413D01*
X412805Y-235079D01*
X412502Y-234946D01*
X412112D01*
G01X412502D02*
X412762Y-234746D01*
X412978Y-234412D01*
X413065Y-234012D01*
X412978Y-233612D01*
X412762Y-233279D01*
X412372Y-233079D01*
X411982Y-233146D01*
X411592Y-233413D01*
G01X395888Y-231079D02*
X397708Y-227079D01*
G01X395888D02*
X397708Y-231079D01*
G01X392488Y-237079D02*
X394308Y-233079D01*
G01X392488D02*
X394308Y-237079D01*
G01X395888D02*
X397708Y-233079D01*
G01X395888D02*
X397708Y-237079D01*
G01X430215Y-225579D02*
X431298Y-221579D01*
X432382Y-225579D01*
G01X431992Y-224179D02*
X430605D01*
G01X433702Y-225579D02*
Y-221579D01*
X435695Y-225579D01*
Y-221579D01*
G01X438358Y-223579D02*
X439225D01*
Y-224779D01*
X438965Y-225179D01*
X438662Y-225446D01*
X438228Y-225579D01*
X437795Y-225446D01*
X437492Y-225179D01*
X437232Y-224779D01*
X437058Y-224312D01*
X436972Y-223779D01*
Y-223312D01*
X437058Y-222913D01*
X437232Y-222446D01*
X437492Y-222046D01*
X437752Y-221779D01*
X438098Y-221579D01*
X438402D01*
X438748Y-221712D01*
X439008Y-221979D01*
G01X440632Y-221579D02*
Y-225579D01*
X442365D01*
G01X445765D02*
X444032D01*
Y-221579D01*
X445765D01*
G01X445072Y-223512D02*
X444032D01*
G01X400098Y-228879D02*
X403098D01*
G01X400098Y-231079D02*
X403098D01*
G01X401598Y-227379D02*
Y-230379D01*
G01X400098Y-237079D02*
X403098D01*
G01X401598Y-233379D02*
Y-236379D01*
G01X400098Y-234879D02*
X403098D01*
G01X394145Y-183079D02*
Y-185946D01*
X394318Y-186546D01*
X394665Y-186946D01*
X395098Y-187079D01*
X395532Y-186946D01*
X395878Y-186546D01*
X396052Y-185946D01*
Y-183079D01*
G01X397502Y-187079D02*
Y-183079D01*
X399495Y-187079D01*
Y-183079D01*
G01X401032D02*
Y-187079D01*
X402765D01*
G01X406165D02*
X404432D01*
Y-183079D01*
X406165D01*
G01X405472Y-185012D02*
X404432D01*
G01X407788Y-186546D02*
X408135Y-186879D01*
X408525Y-187079D01*
X408872D01*
X409218Y-186879D01*
X409478Y-186546D01*
X409608Y-186079D01*
X409522Y-185612D01*
X409305Y-185212D01*
X408915Y-184946D01*
X408395Y-184812D01*
X408092Y-184546D01*
X407962Y-184079D01*
X408048Y-183612D01*
X408265Y-183279D01*
X408568Y-183079D01*
X408872D01*
X409175Y-183212D01*
X409435Y-183546D01*
G01X411188Y-186546D02*
X411535Y-186879D01*
X411925Y-187079D01*
X412272D01*
X412618Y-186879D01*
X412878Y-186546D01*
X413008Y-186079D01*
X412922Y-185612D01*
X412705Y-185212D01*
X412315Y-184946D01*
X411795Y-184812D01*
X411492Y-184546D01*
X411362Y-184079D01*
X411448Y-183612D01*
X411665Y-183279D01*
X411968Y-183079D01*
X412272D01*
X412575Y-183212D01*
X412835Y-183546D01*
G01X418898Y-187079D02*
X418552Y-187012D01*
X418248Y-186746D01*
X417988Y-186346D01*
X417815Y-185879D01*
X417728Y-185346D01*
Y-184812D01*
X417815Y-184279D01*
X417988Y-183812D01*
X418248Y-183412D01*
X418552Y-183146D01*
X418898Y-183079D01*
X419245Y-183146D01*
X419548Y-183412D01*
X419808Y-183812D01*
X419982Y-184279D01*
X420068Y-184812D01*
Y-185346D01*
X419982Y-185879D01*
X419808Y-186346D01*
X419548Y-186746D01*
X419245Y-187012D01*
X418898Y-187079D01*
G01X422298Y-183079D02*
Y-187079D01*
G01X421302Y-183079D02*
X423295D01*
G01X424788Y-187079D02*
Y-183079D01*
G01X426608D02*
Y-187079D01*
G01Y-185079D02*
X424788D01*
G01X429965Y-187079D02*
X428232D01*
Y-183079D01*
X429965D01*
G01X429272Y-185012D02*
X428232D01*
G01X431632Y-187079D02*
Y-183079D01*
X432715D01*
X433062Y-183279D01*
X433278Y-183546D01*
X433365Y-184079D01*
X433278Y-184612D01*
X433018Y-184946D01*
X432715Y-185146D01*
X431632D01*
G01X432715D02*
X433365Y-187079D01*
G01X434598Y-183079D02*
X435205Y-187079D01*
X435898Y-183079D01*
X436592Y-187079D01*
X437198Y-183079D01*
G01X438778D02*
X439818D01*
G01X439298D02*
Y-187079D01*
G01X438778D02*
X439818D01*
G01X441788Y-186546D02*
X442135Y-186879D01*
X442525Y-187079D01*
X442872D01*
X443218Y-186879D01*
X443478Y-186546D01*
X443608Y-186079D01*
X443522Y-185612D01*
X443305Y-185212D01*
X442915Y-184946D01*
X442395Y-184812D01*
X442092Y-184546D01*
X441962Y-184079D01*
X442048Y-183612D01*
X442265Y-183279D01*
X442568Y-183079D01*
X442872D01*
X443175Y-183212D01*
X443435Y-183546D01*
G01X446965Y-187079D02*
X445232D01*
Y-183079D01*
X446965D01*
G01X446272Y-185012D02*
X445232D01*
G01X443598Y-238579D02*
X441298Y-243079D01*
X439798Y-240879D01*
G01X441945Y-230779D02*
X442205Y-231246D01*
X442552Y-231512D01*
X442942Y-231579D01*
X443288Y-231512D01*
X443635Y-231179D01*
X443852Y-230779D01*
X443895Y-230379D01*
X443808Y-229912D01*
X443505Y-229579D01*
X443202Y-229446D01*
X442812D01*
G01X443202D02*
X443462Y-229246D01*
X443678Y-228912D01*
X443765Y-228512D01*
X443678Y-228112D01*
X443462Y-227779D01*
X443072Y-227579D01*
X442682Y-227646D01*
X442292Y-227912D01*
G01X446298Y-227579D02*
X445952Y-227712D01*
X445692Y-228046D01*
X445518Y-228446D01*
X445388Y-228979D01*
X445345Y-229579D01*
X445388Y-230179D01*
X445518Y-230712D01*
X445692Y-231112D01*
X445952Y-231446D01*
X446298Y-231579D01*
X446645Y-231446D01*
X446905Y-231112D01*
X447078Y-230712D01*
X447208Y-230179D01*
X447252Y-229579D01*
X447208Y-228979D01*
X447078Y-228446D01*
X446905Y-228046D01*
X446645Y-227712D01*
X446298Y-227579D01*
G01X436798Y-228879D02*
X439798D01*
G01X436798Y-231079D02*
X439798D01*
G01X438298Y-227379D02*
Y-230379D01*
G01X442098Y-238579D02*
X445098D01*
G54D16*
X108327Y13327D03*
X111673D03*
X108327Y16673D03*
X111673D03*
X230177Y43982D03*
X233524D03*
X230177Y47328D03*
X233524D03*
X249677Y64082D03*
X253024D03*
X249677Y67428D03*
X253024D03*
X249677Y50682D03*
X253024D03*
X249677Y54028D03*
X253024D03*
X249677Y37282D03*
X253024D03*
X249677Y40628D03*
X253024D03*
X230177Y57382D03*
X233524D03*
X230177Y60728D03*
X233524D03*
X230177Y30582D03*
X233524D03*
X230177Y33928D03*
X233524D03*
X249677Y77482D03*
X253024D03*
X249677Y80828D03*
X253024D03*
X230177Y84182D03*
X233524D03*
X230177Y87528D03*
X233524D03*
X230177Y70782D03*
X233524D03*
X230177Y74128D03*
X233524D03*
X269177Y57382D03*
X272524D03*
X269177Y60728D03*
X272524D03*
X269177Y43982D03*
X272524D03*
X269177Y47328D03*
X272524D03*
X288677Y64082D03*
X292024D03*
X288677Y67428D03*
X292024D03*
X288677Y50682D03*
X292024D03*
X288677Y54028D03*
X292024D03*
X269177Y70782D03*
X272524D03*
X269177Y74128D03*
X272524D03*
X308177Y57382D03*
X311524D03*
X308177Y60728D03*
X311524D03*
G54D34*
X263067Y173164D03*
G54D25*
X168528Y89567D03*
Y87598D03*
X174433Y89567D03*
Y87598D03*
X288511Y174345D03*
X294417D03*
X288511Y176314D03*
X294417D03*
G54D43*
X270650Y173164D03*
G54D26*
X170571Y129928D03*
Y140361D03*
X173524Y129928D03*
Y140361D03*
G54D17*
X129004Y17500D03*
X141996D03*
G54D44*
X330116Y151704D03*
G54D35*
X264693Y171538D03*
G54D45*
X319486Y151704D03*
G54D36*
X266858Y171538D03*
Y179121D03*
G54D18*
X126569Y42984D03*
Y30984D03*
X151016Y21069D03*
Y9069D03*
G54D27*
X220494Y150723D03*
Y148755D03*
Y146786D03*
Y144818D03*
X228184Y150723D03*
Y148755D03*
Y146786D03*
Y144818D03*
Y199936D03*
X220494D03*
X228184Y201904D03*
Y203873D03*
Y205841D03*
X220494Y201904D03*
Y203873D03*
Y205841D03*
G54D37*
X263067Y177495D03*
G54D19*
X142520Y36071D03*
X322350Y172617D03*
G54D46*
X348745Y192770D03*
Y200644D03*
G54D28*
X224339Y147770D03*
Y202889D03*
G54D38*
X264693Y179121D03*
G54D29*
X247850Y157884D03*
X245882Y153750D03*
X249819D03*
X256850Y157684D03*
X254882Y153550D03*
X258819D03*
X266350Y157684D03*
X264382Y153550D03*
X268319D03*
G54D47*
X338115Y196708D03*
Y191589D03*
Y194148D03*
Y199267D03*
Y201826D03*
G54D39*
X269024Y179121D03*
G54D48*
X316850Y198117D03*
G54D49*
X311732D03*
Y194377D03*
X321968Y198117D03*
Y194377D03*
X311732Y201857D03*
X321968D03*
M02*
