G04 ================== begin FILE IDENTIFICATION RECORD ==================*
G04 Layout Name:  Sensors_Expo_Demo_LED_MCU_2016-05-12.brd*
G04 Film Name:    SMASK_BOTTOM*
G04 File Format:  Gerber RS274X*
G04 File Origin:  Cadence Allegro 16.5-S058*
G04 Origin Date:  Thu May 12 16:20:20 2016*
G04 *
G04 Layer:  VIA CLASS/SOLDERMASK_BOTTOM*
G04 Layer:  PIN/SOLDERMASK_BOTTOM*
G04 Layer:  PACKAGE GEOMETRY/SOLDERMASK_BOTTOM*
G04 Layer:  DRAWING FORMAT/SOLDERMASK_BOTTOM*
G04 Layer:  BOARD GEOMETRY/OUTLINE*
G04 Layer:  BOARD GEOMETRY/SOLDERMASK_BOTTOM*
G04 Layer:  BOARD GEOMETRY/LOGO_M*
G04 *
G04 Offset:    (0.000 0.000)*
G04 Mirror:    No*
G04 Mode:      Positive*
G04 Rotation:  0*
G04 FullContactRelief:  No*
G04 UndefLineWidth:     5.000*
G04 ================== end FILE IDENTIFICATION RECORD ====================*
%FSLAX55Y55*MOIN*%
%IR0*IPPOS*OFA0.00000B0.00000*MIA0B0*SFA1.00000B1.00000*%
%ADD17R,.064X.123*%
%ADD16R,.123X.064*%
%ADD10C,.135*%
%ADD13C,.155*%
%ADD32R,.189X.189*%
%ADD25R,.031X.013*%
%ADD31R,.013X.031*%
%ADD27R,.031X.016*%
%ADD22R,.016X.031*%
%ADD36O,.043X.054*%
%ADD20R,.061X.033*%
%ADD23R,.025X.026*%
%ADD21R,.027X.033*%
%ADD19R,.026X.025*%
%ADD26R,.045X.053*%
%ADD30R,.055X.044*%
%ADD39R,.025X.029*%
%ADD37O,.067X.045*%
%ADD35R,.055X.065*%
%ADD11C,.025*%
%ADD38R,.065X.055*%
%ADD24C,.026*%
%ADD12C,.08*%
%ADD33R,.045X.076*%
%ADD14C,.018*%
%ADD18C,.065*%
%ADD28C,.069*%
%ADD15C,.098*%
%ADD34R,.065X.065*%
%ADD29R,.069X.069*%
%ADD40C,.006*%
%ADD41C,.007098*%
%ADD42C,.005*%
G75*
%LPD*%
G75*
G54D10*
X-3000Y-23000D03*
Y259220D03*
X365331Y-23000D03*
Y259220D03*
G54D11*
X-8000Y59500D03*
Y67500D03*
Y63500D03*
Y176000D03*
Y184000D03*
Y180000D03*
X0Y59500D03*
Y67500D03*
Y63500D03*
Y176000D03*
Y184000D03*
Y180000D03*
X54000Y-8000D03*
X46000D03*
X50000D03*
X54000Y0D03*
X46000D03*
X50000D03*
Y244220D03*
X46000D03*
X54000D03*
X50000Y236220D03*
X46000D03*
X54000D03*
X150500Y-8000D03*
X142500D03*
X146500D03*
X150500Y0D03*
X142500D03*
X146500D03*
Y244220D03*
X142500D03*
X150500D03*
X146500Y236220D03*
X142500D03*
X150500D03*
X204850Y63500D03*
Y67500D03*
Y59500D03*
X196850Y63500D03*
Y67500D03*
Y59500D03*
X204850Y153600D03*
X196850D03*
X204850Y157600D03*
Y161600D03*
X196850Y157600D03*
Y161600D03*
X248000Y-8000D03*
X240000D03*
X244000D03*
X248000Y0D03*
X240000D03*
X244000D03*
Y126110D03*
X240000D03*
X248000D03*
X244000Y118110D03*
X240000D03*
X248000D03*
Y224535D03*
X240000D03*
X244000D03*
X248000Y232535D03*
X240000D03*
X244000D03*
X324000Y0D03*
X320000D03*
X328000D03*
X324000Y-8000D03*
X320000D03*
X328000D03*
X324000Y126110D03*
X320000D03*
X328000D03*
X324000Y118110D03*
X320000D03*
X328000D03*
Y224535D03*
X320000D03*
X324000D03*
X328000Y232535D03*
X320000D03*
X324000D03*
X362331Y59500D03*
Y67500D03*
Y63500D03*
X370331Y59500D03*
Y67500D03*
Y63500D03*
X354457Y153600D03*
X362457D03*
X354457Y161600D03*
Y157600D03*
X362457Y161600D03*
Y157600D03*
G54D20*
X213150Y170459D03*
G54D12*
X28000Y18000D03*
X173000Y15500D03*
X174606Y210120D03*
X241500Y7000D03*
X231000Y103000D03*
X227000Y132000D03*
X350500Y93000D03*
X337000Y145000D03*
X345000Y218500D03*
G54D30*
X289850Y199617D03*
Y207617D03*
G54D21*
X214824Y175774D03*
X211477D03*
G54D40*
G01X13499Y-241079D02*
X14032Y-241279D01*
X14432Y-241779D01*
X14698Y-242379D01*
X14898Y-243179D01*
X14965Y-244079D01*
X14898Y-244979D01*
X14698Y-245779D01*
X14432Y-246379D01*
X14032Y-246879D01*
X13499Y-247079D01*
X12965Y-246879D01*
X12565Y-246379D01*
X12298Y-245779D01*
X12098Y-244979D01*
X12032Y-244079D01*
X12098Y-243179D01*
X12298Y-242379D01*
X12565Y-241779D01*
X12965Y-241279D01*
X13499Y-241079D01*
G01X8698Y-247079D02*
Y-241079D01*
X9498Y-242279D01*
G01Y-247079D02*
X7898D01*
G01X145332Y-199579D02*
Y-193579D01*
X143665D01*
X143132Y-193879D01*
X142798Y-194279D01*
X142665Y-195079D01*
X142798Y-195879D01*
X143198Y-196379D01*
X143665Y-196679D01*
X145332D01*
G01X143665D02*
X142665Y-199579D01*
G01X139198D02*
X139732Y-199479D01*
X140198Y-199079D01*
X140598Y-198479D01*
X140865Y-197779D01*
X140998Y-196979D01*
Y-196179D01*
X140865Y-195379D01*
X140598Y-194679D01*
X140198Y-194079D01*
X139732Y-193679D01*
X139198Y-193579D01*
X138665Y-193679D01*
X138198Y-194079D01*
X137798Y-194679D01*
X137532Y-195379D01*
X137398Y-196179D01*
Y-196979D01*
X137532Y-197779D01*
X137798Y-198479D01*
X138198Y-199079D01*
X138665Y-199479D01*
X139198Y-199579D01*
G01X135798D02*
Y-193579D01*
G01X132998D02*
Y-199579D01*
G01Y-196579D02*
X135798D01*
G01X131332Y-199579D02*
Y-193579D01*
X129598Y-198579D01*
X127865Y-193579D01*
Y-199579D01*
G01X121398Y-198779D02*
X120865Y-199279D01*
X120265Y-199579D01*
X119732D01*
X119198Y-199279D01*
X118798Y-198779D01*
X118598Y-198079D01*
X118732Y-197379D01*
X119065Y-196779D01*
X119665Y-196379D01*
X120465Y-196179D01*
X120932Y-195779D01*
X121132Y-195079D01*
X120998Y-194379D01*
X120665Y-193879D01*
X120198Y-193579D01*
X119732D01*
X119265Y-193779D01*
X118865Y-194279D01*
G01X113865Y-199579D02*
X116532D01*
Y-193579D01*
X113865D01*
G01X114932Y-196479D02*
X116532D01*
G01X112132Y-199579D02*
Y-193579D01*
X110398Y-198579D01*
X108665Y-193579D01*
Y-199579D01*
G01X106398Y-193579D02*
X104798D01*
G01X105598D02*
Y-199579D01*
G01X106398D02*
X104798D01*
G01X99332Y-194079D02*
X99732Y-193779D01*
X100198Y-193579D01*
X100732D01*
X101332Y-193879D01*
X101798Y-194379D01*
X102132Y-194979D01*
X102399Y-195979D01*
X102465Y-196879D01*
X102332Y-197779D01*
X102132Y-198379D01*
X101732Y-198979D01*
X101265Y-199379D01*
X100799Y-199579D01*
X100332D01*
X99865Y-199379D01*
X99465Y-199079D01*
X99132Y-198679D01*
G01X95999Y-199579D02*
X96532Y-199479D01*
X96998Y-199079D01*
X97398Y-198479D01*
X97665Y-197779D01*
X97798Y-196979D01*
Y-196179D01*
X97665Y-195379D01*
X97398Y-194679D01*
X96998Y-194079D01*
X96532Y-193679D01*
X95999Y-193579D01*
X95465Y-193679D01*
X94998Y-194079D01*
X94598Y-194679D01*
X94332Y-195379D01*
X94198Y-196179D01*
Y-196979D01*
X94332Y-197779D01*
X94598Y-198479D01*
X94998Y-199079D01*
X95465Y-199479D01*
X95999Y-199579D01*
G01X92732D02*
Y-193579D01*
X89665Y-199579D01*
Y-193579D01*
G01X87865Y-199579D02*
Y-193579D01*
X86532D01*
X85998Y-193879D01*
X85598Y-194279D01*
X85265Y-194879D01*
X84998Y-195579D01*
X84932Y-196579D01*
X84998Y-197579D01*
X85265Y-198279D01*
X85598Y-198879D01*
X85998Y-199279D01*
X86532Y-199579D01*
X87865D01*
G01X83065Y-193579D02*
Y-197879D01*
X82798Y-198779D01*
X82265Y-199379D01*
X81598Y-199579D01*
X80932Y-199379D01*
X80398Y-198779D01*
X80132Y-197879D01*
Y-193579D01*
G01X75332Y-194079D02*
X75732Y-193779D01*
X76198Y-193579D01*
X76732D01*
X77332Y-193879D01*
X77798Y-194379D01*
X78132Y-194979D01*
X78398Y-195979D01*
X78465Y-196879D01*
X78332Y-197779D01*
X78132Y-198379D01*
X77732Y-198979D01*
X77265Y-199379D01*
X76798Y-199579D01*
X76332D01*
X75865Y-199379D01*
X75465Y-199079D01*
X75132Y-198679D01*
G01X71998Y-193579D02*
Y-199579D01*
G01X73532Y-193579D02*
X70465D01*
G01X67198Y-199579D02*
X67732Y-199479D01*
X68198Y-199079D01*
X68598Y-198479D01*
X68865Y-197779D01*
X68998Y-196979D01*
Y-196179D01*
X68865Y-195379D01*
X68598Y-194679D01*
X68198Y-194079D01*
X67732Y-193679D01*
X67198Y-193579D01*
X66665Y-193679D01*
X66198Y-194079D01*
X65798Y-194679D01*
X65532Y-195379D01*
X65398Y-196179D01*
Y-196979D01*
X65532Y-197779D01*
X65798Y-198479D01*
X66198Y-199079D01*
X66665Y-199479D01*
X67198Y-199579D01*
G01X63732D02*
Y-193579D01*
X62065D01*
X61532Y-193879D01*
X61198Y-194279D01*
X61065Y-195079D01*
X61198Y-195879D01*
X61598Y-196379D01*
X62065Y-196679D01*
X63732D01*
G01X62065D02*
X61065Y-199579D01*
G01X54265Y-193579D02*
Y-197879D01*
X53998Y-198779D01*
X53465Y-199379D01*
X52799Y-199579D01*
X52132Y-199379D01*
X51598Y-198779D01*
X51332Y-197879D01*
Y-193579D01*
G01X49398Y-198779D02*
X48865Y-199279D01*
X48265Y-199579D01*
X47732D01*
X47198Y-199279D01*
X46798Y-198779D01*
X46598Y-198079D01*
X46732Y-197379D01*
X47065Y-196779D01*
X47665Y-196379D01*
X48465Y-196179D01*
X48932Y-195779D01*
X49132Y-195079D01*
X48998Y-194379D01*
X48665Y-193879D01*
X48198Y-193579D01*
X47732D01*
X47265Y-193779D01*
X46865Y-194279D01*
G01X44865Y-199579D02*
X43198Y-193579D01*
X41532Y-199579D01*
G01X42132Y-197479D02*
X44265D01*
G01X124632Y-247079D02*
Y-241079D01*
X121565Y-247079D01*
Y-241079D01*
G01X119765D02*
Y-245379D01*
X119498Y-246279D01*
X118965Y-246879D01*
X118298Y-247079D01*
X117632Y-246879D01*
X117098Y-246279D01*
X116832Y-245379D01*
Y-241079D01*
G01X115232Y-247079D02*
Y-241079D01*
X113498Y-246079D01*
X111765Y-241079D01*
Y-247079D01*
G01X108165Y-243879D02*
X107898Y-243579D01*
X107698Y-243079D01*
X107565Y-242379D01*
X107698Y-241779D01*
X107965Y-241379D01*
X108432Y-241079D01*
X110232D01*
Y-247079D01*
X108032D01*
X107565Y-246679D01*
X107298Y-246079D01*
X107165Y-245379D01*
X107298Y-244679D01*
X107698Y-244079D01*
X108165Y-243879D01*
X110232D01*
G01X102565Y-247079D02*
X105232D01*
Y-241079D01*
X102565D01*
G01X103632Y-243979D02*
X105232D01*
G01X100432Y-247079D02*
Y-241079D01*
X98765D01*
X98232Y-241379D01*
X97898Y-241779D01*
X97765Y-242579D01*
X97898Y-243379D01*
X98298Y-243879D01*
X98765Y-244179D01*
X100432D01*
G01X98765D02*
X97765Y-247079D01*
G54D22*
X229382Y13260D03*
X231350D03*
X233319D03*
X229382Y7560D03*
X231350D03*
X233319D03*
X249882Y13260D03*
X251850D03*
X253819D03*
X249882Y7560D03*
X251850D03*
X253819D03*
X270382Y13260D03*
X272350D03*
X274319D03*
X270382Y7560D03*
X272350D03*
X274319D03*
X290882Y13260D03*
X292850D03*
X294819D03*
X290882Y7560D03*
X292850D03*
X294819D03*
X311382Y13260D03*
X313350D03*
X315319D03*
X311382Y7560D03*
X313350D03*
X315319D03*
X331882Y13260D03*
X333850D03*
X335819D03*
X331882Y7560D03*
X333850D03*
X335819D03*
G54D31*
X278012Y180581D03*
X276437D03*
X274862D03*
X273287D03*
X271713D03*
X270138D03*
X268563D03*
X266988D03*
X265413D03*
X263839D03*
X262264D03*
X260689D03*
Y203653D03*
X262264D03*
X263839D03*
X265413D03*
X266988D03*
X268563D03*
X270138D03*
X271713D03*
X273287D03*
X274862D03*
X276437D03*
X278012D03*
G54D13*
X13000Y13000D03*
X20500Y225500D03*
X174500D03*
X185500Y10500D03*
X215500D03*
Y135500D03*
X214000Y215500D03*
X350500Y10500D03*
Y108000D03*
X345000Y136000D03*
G54D41*
G01X346308Y-225229D02*
X347208Y-223579D01*
G01X346598Y-223509D02*
X346758Y-223559D01*
G01X346448Y-223439D02*
X346598Y-223509D01*
G01X346318Y-223329D02*
X346448Y-223439D01*
G01X346208Y-223199D02*
X346318Y-223329D01*
G01X346139Y-223049D02*
X346208Y-223199D01*
G01X346089Y-222889D02*
X346139Y-223049D01*
G01X346198Y-222279D02*
X346128Y-222409D01*
G01X346298Y-222149D02*
X346198Y-222279D01*
G01X346428Y-222049D02*
X346298Y-222149D01*
G01X346558Y-221979D02*
X346428Y-222049D01*
G01X346708Y-221939D02*
X346558Y-221979D01*
G01X346068Y-222719D02*
X346089Y-222889D01*
G01Y-222559D02*
X346068Y-222719D01*
G01X346128Y-222409D02*
X346089Y-222559D01*
G01X349139Y-209339D02*
X346068D01*
G01Y-208649D02*
X349139D01*
G01Y-207949D02*
X346068D01*
G01X346089Y-207259D02*
X349139D01*
G01X349258Y-206559D02*
X346228D01*
G01X346558Y-205909D02*
X346939Y-205499D01*
G01X346278Y-206389D02*
X346558Y-205909D01*
G01X346118Y-206919D02*
X346278Y-206389D01*
G01X346068Y-217429D02*
Y-207469D01*
G01D02*
X346118Y-206919D01*
G01X349139Y-217429D02*
X346068D01*
G01Y-216979D02*
X349139D01*
G01Y-216279D02*
X346068D01*
G01Y-215589D02*
X349139D01*
G01Y-214889D02*
X346068D01*
G01Y-214199D02*
X349139D01*
G01Y-213499D02*
X346068D01*
G01Y-212809D02*
X349139D01*
G01Y-212119D02*
X346068D01*
G01Y-211419D02*
X349139D01*
G01Y-210729D02*
X346068D01*
G01Y-210029D02*
X349139D01*
G01X346758Y-223559D02*
X346928Y-223579D01*
G01X346868Y-221919D02*
X346708Y-221939D01*
G01X346598Y-205869D02*
X350558D01*
G01X346939Y-205499D02*
X347589Y-205019D01*
G01X390798Y-224969D02*
X390928Y-224839D01*
G01X390648Y-225079D02*
X390798Y-224969D01*
G01X390468Y-225159D02*
X390648Y-225079D01*
G01X391008Y-222399D02*
X390868Y-222239D01*
G01X390708Y-222099D02*
X390518Y-221999D01*
G01X390868Y-222239D02*
X390708Y-222099D01*
G01X390518Y-221999D02*
X390308Y-221939D01*
G01X390289Y-225209D02*
X390468Y-225159D01*
G01X390098Y-225229D02*
X390289Y-225209D01*
G01X388348Y-225229D02*
X390098D01*
G01Y-221919D02*
X388348D01*
G01X390308Y-221939D02*
X390098Y-221919D01*
G01X390668Y-205869D02*
X394518D01*
G01X393689Y-205179D02*
X383808D01*
G01X385378Y-204479D02*
X392328D01*
G01X390568Y-205809D02*
X390018Y-205659D01*
G01X391068Y-206079D02*
X390568Y-205809D01*
G01X390439Y-204209D02*
X391239Y-204239D01*
G01X390018Y-205659D02*
X389448Y-205619D01*
G01X387328Y-204209D02*
X390439D01*
G01X389448Y-205619D02*
X387998D01*
G01X387458Y-205649D02*
X386939Y-205779D01*
G01X387998Y-205619D02*
X387458Y-205649D01*
G01X386468Y-204239D02*
X387328Y-204209D01*
G01X382968Y-205869D02*
X386748D01*
G01X386458Y-206009D02*
X386028Y-206329D01*
G01X386939Y-205779D02*
X386458Y-206009D01*
G01X385618Y-204399D02*
X386468Y-204239D01*
G01X391148Y-217369D02*
X390118Y-217429D01*
G01D02*
X387368D01*
G01D02*
X386458Y-217399D01*
G01D02*
X385558Y-217259D01*
G01X394168Y-216279D02*
X383478D01*
G01X392908Y-216979D02*
X384639D01*
G01X390089Y-215969D02*
X390558Y-215819D01*
G01D02*
X390978Y-215589D01*
G01X389608Y-216019D02*
X390089Y-215969D01*
G01X387998Y-216019D02*
X389608D01*
G01X387398Y-215979D02*
X387998Y-216019D01*
G01X386828Y-215819D02*
X387398Y-215979D01*
G01X386298Y-215559D02*
X386828Y-215819D01*
G01X385828Y-215189D02*
X386298Y-215559D01*
G01X385589Y-225059D02*
X385378Y-225149D01*
G01X385768Y-224929D02*
X385589Y-225059D01*
G01X385928Y-224769D02*
X385768Y-224929D01*
G01X386058Y-224579D02*
X385928Y-224769D01*
G01X386148Y-224379D02*
X386058Y-224579D01*
G01X386208Y-224159D02*
X386148Y-224379D01*
G01X386228Y-223939D02*
X386208Y-224159D01*
G01X386228Y-223189D02*
Y-223939D01*
G01X386208Y-222969D02*
X386228Y-223189D01*
G01X386148Y-222759D02*
X386208Y-222969D01*
G01X386058Y-222549D02*
X386148Y-222759D01*
G01X385928Y-222369D02*
X386058Y-222549D01*
G01X385778Y-222219D02*
X385928Y-222369D01*
G01X385589Y-222089D02*
X385778Y-222219D01*
G01X385389Y-221999D02*
X385589Y-222089D01*
G01X385178Y-221939D02*
X385389Y-221999D01*
G01X384939Y-225229D02*
X384239D01*
G01X385158Y-225209D02*
X384939Y-225229D01*
G01X385378Y-225149D02*
X385158Y-225209D01*
G01X384958Y-221919D02*
X385178Y-221939D01*
G01X384218Y-221919D02*
X384958D01*
G01X383639Y-225089D02*
X383458Y-224979D01*
G01X383828Y-225169D02*
X383639Y-225089D01*
G01X384028Y-225209D02*
X383828Y-225169D01*
G01X384239Y-225229D02*
X384028Y-225209D01*
G01X383989Y-221939D02*
X384218Y-221919D01*
G01X383778Y-221999D02*
X383989Y-221939D01*
G01X383568Y-222089D02*
X383778Y-221999D01*
G01X382978Y-224319D02*
X382939Y-224119D01*
G01X383058Y-224509D02*
X382978Y-224319D01*
G01X383168Y-224689D02*
X383058Y-224509D01*
G01X383308Y-224839D02*
X383168Y-224689D01*
G01X383458Y-224979D02*
X383308Y-224839D01*
G01X382939Y-224119D02*
X382918Y-223909D01*
G01D02*
Y-223219D01*
G01X383089Y-222569D02*
X383218Y-222379D01*
G01X382998Y-222779D02*
X383089Y-222569D01*
G01X382939Y-222989D02*
X382998Y-222779D01*
G01X382918Y-223219D02*
X382939Y-222989D01*
G01X383378Y-222219D02*
X383568Y-222089D01*
G01X383218Y-222379D02*
X383378Y-222219D01*
G01X380558Y-221919D02*
Y-225229D01*
G01X380078Y-221919D02*
X380558D01*
G01X377798Y-225229D02*
X380078Y-221919D01*
G01X377248Y-225229D02*
X377798D01*
G01X377248Y-221919D02*
Y-225229D01*
G01X374889D02*
Y-221919D01*
G01X373128Y-225229D02*
X374889D01*
G01Y-221919D02*
X373108D01*
G01X372928Y-225209D02*
X373128Y-225229D01*
G01X372728Y-225169D02*
X372928Y-225209D01*
G01X372539Y-225089D02*
X372728Y-225169D01*
G01X372358Y-224979D02*
X372539Y-225089D01*
G01X372668Y-221999D02*
X372458Y-222089D01*
G01X372889Y-221939D02*
X372668Y-221999D01*
G01X373108Y-221919D02*
X372889Y-221939D01*
G01X372198Y-224849D02*
X372358Y-224979D01*
G01X372068Y-224689D02*
X372198Y-224849D01*
G01X371958Y-224509D02*
X372068Y-224689D01*
G01X371878Y-224319D02*
X371958Y-224509D01*
G01X371839Y-224119D02*
X371878Y-224319D01*
G01X371818Y-223919D02*
X371839Y-224119D01*
G01X371818Y-223209D02*
Y-223919D01*
G01X371839Y-222989D02*
X371818Y-223209D01*
G01X371898Y-222769D02*
X371839Y-222989D01*
G01X371989Y-222559D02*
X371898Y-222769D01*
G01X372118Y-222379D02*
X371989Y-222559D01*
G01X372278Y-222219D02*
X372118Y-222379D01*
G01X372458Y-222089D02*
X372278Y-222219D01*
G01X369439Y-224209D02*
X369458Y-223989D01*
G01X369389Y-224409D02*
X369439Y-224209D01*
G01X369289Y-224609D02*
X369389Y-224409D01*
G01X369168Y-224789D02*
X369289Y-224609D01*
G01X369018Y-224939D02*
X369168Y-224789D01*
G01X369448Y-223989D02*
Y-221919D01*
G01X368839Y-225059D02*
X369018Y-224939D01*
G01X368639Y-225159D02*
X368839Y-225059D01*
G01X368439Y-225209D02*
X368639Y-225159D01*
G01X368218Y-225229D02*
X368439Y-225209D01*
G01X367698Y-225229D02*
X368218D01*
G01X367468Y-225209D02*
X367698Y-225229D01*
G01X367248Y-225149D02*
X367468Y-225209D01*
G01X367039Y-225049D02*
X367248Y-225149D01*
G01X366858Y-224919D02*
X367039Y-225049D01*
G01X366698Y-224759D02*
X366858Y-224919D01*
G01X366568Y-224569D02*
X366698Y-224759D01*
G01X366468Y-224369D02*
X366568Y-224569D01*
G01X366408Y-224149D02*
X366468Y-224369D01*
G01X366389Y-223919D02*
X366408Y-224149D01*
G01X366378Y-221919D02*
Y-223919D01*
G01X364239Y-224349D02*
X364258Y-224159D01*
G01X364198Y-224529D02*
X364239Y-224349D01*
G01X364118Y-224689D02*
X364198Y-224529D01*
G01X364008Y-224849D02*
X364118Y-224689D01*
G01X363878Y-224979D02*
X364008Y-224849D01*
G01X364258Y-224159D02*
Y-222959D01*
G01X364239Y-222779D02*
X364198Y-222599D01*
G01X364258Y-222959D02*
X364239Y-222779D01*
G01X364018Y-222289D02*
X363889Y-222159D01*
G01X364118Y-222439D02*
X364018Y-222289D01*
G01X364198Y-222599D02*
X364118Y-222439D01*
G01X363728Y-225089D02*
X363878Y-224979D01*
G01X363558Y-225169D02*
X363728Y-225089D01*
G01X363378Y-225209D02*
X363558Y-225169D01*
G01X363189Y-225229D02*
X363378Y-225209D01*
G01X363398Y-221939D02*
X363218Y-221919D01*
G01X363578Y-221979D02*
X363398Y-221939D01*
G01X363739Y-222059D02*
X363578Y-221979D01*
G01X363889Y-222159D02*
X363739Y-222059D01*
G01X361418Y-225229D02*
X363189D01*
G01X363218Y-221919D02*
X361418D01*
G01X385778Y-206559D02*
X382498D01*
G01X385458Y-206999D02*
X385318Y-207419D01*
G01X385698Y-206629D02*
X385458Y-206999D01*
G01X386028Y-206329D02*
X385698Y-206629D01*
G01X384808Y-204679D02*
X385618Y-204399D01*
G01X385278Y-207869D02*
Y-213539D01*
G01Y-209339D02*
X382208D01*
G01Y-208649D02*
X385278D01*
G01X382258Y-207259D02*
X385368D01*
G01X385278Y-207949D02*
X382208D01*
G01X385318Y-207419D02*
X385278Y-207869D01*
G01X384178Y-204949D02*
X384808Y-204679D01*
G01X383598Y-205299D02*
X384178Y-204949D01*
G01X383078Y-205739D02*
X383598Y-205299D01*
G01X382698Y-206189D02*
X383078Y-205739D01*
G01X382208Y-214009D02*
Y-207869D01*
G01X382258Y-207279D02*
X382418Y-206709D01*
G01X382208Y-207869D02*
X382258Y-207279D01*
G01X382418Y-206709D02*
X382698Y-206189D01*
G01X378898Y-204679D02*
Y-217429D01*
G01Y-209339D02*
X375539D01*
G01X375598Y-208649D02*
X378898D01*
G01Y-207949D02*
X375598D01*
G01Y-207259D02*
X378898D01*
G01Y-206559D02*
X375598D01*
G01Y-205869D02*
X378898D01*
G01X375598Y-204679D02*
X378898D01*
G01Y-205179D02*
X375598D01*
G01Y-209069D02*
Y-204679D01*
G01X375568Y-209279D02*
X375598Y-209069D01*
G01X375489Y-209469D02*
X375568Y-209279D01*
G01X375358Y-209639D02*
X375489Y-209469D01*
G01X375189Y-209769D02*
X375358Y-209639D01*
G01X368739Y-209649D02*
X368898Y-209769D01*
G01X368618Y-209479D02*
X368739Y-209649D01*
G01X368558Y-209339D02*
X365198D01*
G01X368539Y-209289D02*
X368618Y-209479D01*
G01X368508Y-209089D02*
X368539Y-209289D01*
G01X368508Y-204679D02*
Y-209089D01*
G01X365198Y-208649D02*
X368508D01*
G01X365198Y-207259D02*
X368508D01*
G01Y-207949D02*
X365198D01*
G01X368508Y-206559D02*
X365198D01*
G01Y-205869D02*
X368508D01*
G01Y-205179D02*
X365198D01*
G01Y-204679D02*
X368508D01*
G01X365198Y-217429D02*
Y-204679D01*
G01X361658D02*
Y-217429D01*
G01Y-209339D02*
X358589D01*
G01Y-208649D02*
X361658D01*
G01X358589Y-207259D02*
X361658D01*
G01Y-207949D02*
X358589D01*
G01X361658Y-206559D02*
X358568D01*
G01X357839Y-205869D02*
X361658D01*
G01X358718Y-204299D02*
X361658Y-204679D01*
G01Y-205179D02*
X347378D01*
G01X382768Y-215589D02*
X386358D01*
G01X385558Y-217259D02*
X384689Y-216999D01*
G01X385658Y-214889D02*
X382378D01*
G01X385528Y-214679D02*
X385828Y-215189D01*
G01X385339Y-214119D02*
X385528Y-214679D01*
G01X384689Y-216999D02*
X384108Y-216729D01*
G01X382228Y-214199D02*
X385368D01*
G01X385278Y-213539D02*
X385339Y-214119D01*
G01X385278Y-213499D02*
X382208D01*
G01Y-212809D02*
X385278D01*
G01X382208Y-211419D02*
X385278D01*
G01Y-212119D02*
X382208D01*
G01X385278Y-210729D02*
X382208D01*
G01Y-210029D02*
X385278D01*
G01X384108Y-216729D02*
X383578Y-216379D01*
G01X383118Y-215939D02*
X382728Y-215549D01*
G01X383578Y-216379D02*
X383118Y-215939D01*
G01X382728Y-215549D02*
X382439Y-215079D01*
G01D02*
X382258Y-214559D01*
G01D02*
X382208Y-214009D01*
G01X378898Y-217429D02*
X375598D01*
G01X368508D02*
X365198D01*
G01X361658D02*
X358589D01*
G01X378898Y-216979D02*
X375598D01*
G01Y-216279D02*
X378898D01*
G01Y-215589D02*
X375598D01*
G01Y-214889D02*
X378898D01*
G01Y-214199D02*
X375598D01*
G01Y-213499D02*
X378898D01*
G01Y-212809D02*
X375598D01*
G01X378898Y-211419D02*
X365198D01*
G01X375568Y-212119D02*
X378898D01*
G01X365198Y-210729D02*
X378898D01*
G01Y-210029D02*
X365198D01*
G01X375598Y-217429D02*
Y-212309D01*
G01D02*
X375568Y-212109D01*
G01X375368Y-211759D02*
X375208Y-211629D01*
G01X375489Y-211919D02*
X375368Y-211759D01*
G01X375568Y-212109D02*
X375489Y-211919D01*
G01X375208Y-211629D02*
X375018Y-211549D01*
G01X374998Y-209849D02*
X375189Y-209769D01*
G01X374818Y-211529D02*
X369339D01*
G01X375018Y-211549D02*
X374818Y-211529D01*
G01X374789Y-209869D02*
X374998Y-209849D01*
G01X369289Y-209869D02*
X374789D01*
G01X369339Y-211529D02*
X369128Y-211559D01*
G01X369089Y-209849D02*
X369289Y-209869D01*
G01X368508Y-212359D02*
Y-217429D01*
G01Y-216979D02*
X365198D01*
G01Y-216279D02*
X368508D01*
G01X365198Y-214889D02*
X368508D01*
G01Y-215589D02*
X365198D01*
G01X368508Y-214199D02*
X365198D01*
G01Y-213499D02*
X368508D01*
G01Y-212809D02*
X365198D01*
G01X368539Y-212139D02*
X368508Y-212359D01*
G01X365198Y-212119D02*
X368548D01*
G01X368618Y-211939D02*
X368539Y-212139D01*
G01X368748Y-211769D02*
X368618Y-211939D01*
G01X368918Y-211639D02*
X368748Y-211769D01*
G01X369128Y-211559D02*
X368918Y-211639D01*
G01X368898Y-209769D02*
X369089Y-209849D01*
G01X358589Y-216979D02*
X361658D01*
G01Y-216279D02*
X358589D01*
G01X361658Y-214889D02*
X358589D01*
G01Y-215589D02*
X361658D01*
G01X358589Y-214199D02*
X361658D01*
G01Y-213499D02*
X358589D01*
G01Y-212809D02*
X361658D01*
G01X358589Y-211419D02*
X361658D01*
G01Y-212119D02*
X358589D01*
G01X361658Y-210729D02*
X358589D01*
G01Y-210029D02*
X361658D01*
G01X353848Y-225089D02*
X353658Y-225169D01*
G01X354028Y-224979D02*
X353848Y-225089D01*
G01X354189Y-224849D02*
X354028Y-224979D01*
G01X354318Y-224689D02*
X354189Y-224849D01*
G01X354118Y-222219D02*
X354278Y-222379D01*
G01X353928Y-222089D02*
X354118Y-222219D01*
G01X353728Y-221999D02*
X353928Y-222089D01*
G01X359528Y-221919D02*
X358118D01*
G01D02*
Y-225229D01*
G01X356698Y-221919D02*
X358118D01*
G01X354428Y-224509D02*
X354318Y-224689D01*
G01X354508Y-224319D02*
X354428Y-224509D01*
G01X354548Y-224119D02*
X354508Y-224319D01*
G01X354568Y-223919D02*
X354548Y-224119D01*
G01X354568Y-223209D02*
Y-223919D01*
G01X354558Y-222989D02*
X354578Y-223209D01*
G01X354498Y-222769D02*
X354558Y-222989D01*
G01X354408Y-222559D02*
X354498Y-222769D01*
G01X354278Y-222379D02*
X354408Y-222559D01*
G01X353258Y-225229D02*
X352568D01*
G01X353458Y-225209D02*
X353258Y-225229D01*
G01X353658Y-225169D02*
X353458Y-225209D01*
G01X353508Y-221939D02*
X353728Y-221999D01*
G01X353289Y-221919D02*
X353508Y-221939D01*
G01X352548Y-221919D02*
X353289D01*
G01X352128Y-225149D02*
X351918Y-225059D01*
G01X352339Y-225209D02*
X352128Y-225149D01*
G01X352568Y-225229D02*
X352339Y-225209D01*
G01X352328Y-221939D02*
X352548Y-221919D01*
G01X352108Y-221999D02*
X352328Y-221939D01*
G01X351908Y-222089D02*
X352108Y-221999D01*
G01X351348Y-224369D02*
X351289Y-224159D01*
G01X351439Y-224579D02*
X351348Y-224369D01*
G01X351568Y-224769D02*
X351439Y-224579D01*
G01X351728Y-224929D02*
X351568Y-224769D01*
G01X351918Y-225059D02*
X351728Y-224929D01*
G01Y-222219D02*
X351908Y-222089D01*
G01X351568Y-222379D02*
X351728Y-222219D01*
G01X351439Y-222559D02*
X351568Y-222379D01*
G01X351348Y-222759D02*
X351439Y-222559D01*
G01X351289Y-222979D02*
X351348Y-222759D01*
G01X351289Y-224159D02*
X351268Y-223929D01*
G01D02*
Y-223199D01*
G01D02*
X351289Y-222979D01*
G01X349139Y-223579D02*
Y-225229D01*
G01Y-221919D02*
Y-223579D01*
G01X347208D02*
X349139D01*
G01Y-221919D02*
X346868D01*
G01X346928Y-223579D02*
X347208D01*
G01X360108Y-204479D02*
X348958D01*
G01X358589Y-217429D02*
Y-206689D01*
G01X358478Y-206269D02*
X358348Y-206099D01*
G01X358558Y-206469D02*
X358478Y-206269D01*
G01X358589Y-206689D02*
X358558Y-206469D01*
G01X358168Y-205969D02*
X357978Y-205889D01*
G01X358348Y-206099D02*
X358168Y-205969D01*
G01X355748Y-204209D02*
X358718Y-204299D01*
G01X357758Y-205859D02*
X356318D01*
G01X357978Y-205889D02*
X357758Y-205859D01*
G01X351478Y-205869D02*
X356239D01*
G01X355628Y-206259D02*
X355539Y-206449D01*
G01X355748Y-206089D02*
X355628Y-206259D01*
G01X355918Y-205969D02*
X355748Y-206089D01*
G01X356108Y-205889D02*
X355918Y-205969D01*
G01X356318Y-205859D02*
X356108Y-205889D01*
G01X351418Y-204209D02*
X355748D01*
G01X355518Y-206659D02*
Y-217429D01*
G01Y-209339D02*
X352208D01*
G01Y-208649D02*
X355518D01*
G01Y-207949D02*
X352208D01*
G01Y-207259D02*
X355518D01*
G01X355528Y-206559D02*
X352198D01*
G01X355539Y-206449D02*
X355518Y-206659D01*
G01X352208Y-217429D02*
Y-206669D01*
G01X352178Y-206459D02*
X352098Y-206259D01*
G01X352208Y-206669D02*
X352178Y-206459D01*
G01X352098Y-206259D02*
X351968Y-206099D01*
G01X351398Y-205859D02*
X350639D01*
G01X351608Y-205889D02*
X351398Y-205859D01*
G01X351798Y-205969D02*
X351608Y-205889D01*
G01X351968Y-206099D02*
X351798Y-205969D01*
G01X350258Y-204269D02*
X351418Y-204209D01*
G01X350639Y-205859D02*
X350128Y-205929D01*
G01X349648Y-206099D02*
X349428Y-206299D01*
G01X350128Y-205929D02*
X349648Y-206099D01*
G01X349098Y-204439D02*
X350258Y-204269D01*
G01X349139Y-207119D02*
Y-217429D01*
G01X349168Y-206819D02*
X349139Y-207119D01*
G01X349268Y-206539D02*
X349168Y-206819D01*
G01X349428Y-206299D02*
X349268Y-206539D01*
G01X348318Y-204659D02*
X349098Y-204439D01*
G01X347589Y-205019D02*
X348318Y-204659D01*
G01X355518Y-217429D02*
X352208D01*
G01Y-216979D02*
X355518D01*
G01Y-216279D02*
X352208D01*
G01Y-215589D02*
X355518D01*
G01Y-214889D02*
X352208D01*
G01Y-214199D02*
X355518D01*
G01Y-213499D02*
X352208D01*
G01Y-212809D02*
X355518D01*
G01Y-212119D02*
X352208D01*
G01Y-211419D02*
X355518D01*
G01Y-210729D02*
X352208D01*
G01Y-210029D02*
X355518D01*
G01X404528Y-225229D02*
X404708Y-225209D01*
G01X402758Y-225229D02*
X404528D01*
G01X404568Y-221919D02*
X404769Y-221939D01*
G01X402758Y-221919D02*
X404568D01*
G01X410958Y-223019D02*
X410878Y-223169D01*
G01X411008Y-222509D02*
X411028Y-222679D01*
G01X411008Y-222849D02*
X410958Y-223019D01*
G01X411028Y-222679D02*
X411008Y-222849D01*
G01X410948Y-222349D02*
X411008Y-222509D01*
G01X410858Y-222209D02*
X410948Y-222349D01*
G01X408578Y-225229D02*
X411028D01*
G01X410308Y-223549D02*
X410139Y-223569D01*
G01X410478Y-223499D02*
X410308Y-223549D01*
G01X410628Y-223419D02*
X410478Y-223499D01*
G01X410769Y-223309D02*
X410628Y-223419D01*
G01X410878Y-223169D02*
X410769Y-223309D01*
G01X410739Y-222089D02*
X410858Y-222209D01*
G01X410598Y-221999D02*
X410739Y-222089D01*
G01X410439Y-221939D02*
X410598Y-221999D01*
G01X410268Y-221919D02*
X410439Y-221939D01*
G01X407718Y-221919D02*
X410268D01*
G01X410139Y-223579D02*
X408518D01*
G01X408408Y-225209D02*
X408578Y-225229D01*
G01X408518Y-223569D02*
X408358Y-223589D01*
G01X408248Y-225159D02*
X408408Y-225209D01*
G01X408098Y-225089D02*
X408248Y-225159D01*
G01X407969Y-224979D02*
X408098Y-225089D01*
G01X407858Y-224849D02*
X407969Y-224979D01*
G01X407789Y-224699D02*
X407858Y-224849D01*
G01X407739Y-224539D02*
X407789Y-224699D01*
G01X407718Y-224369D02*
X407739Y-224539D01*
G01Y-224209D02*
X407718Y-224369D01*
G01X407778Y-224059D02*
X407739Y-224209D01*
G01X407848Y-223929D02*
X407778Y-224059D01*
G01X407948Y-223799D02*
X407848Y-223929D01*
G01X408078Y-223699D02*
X407948Y-223799D01*
G01X408208Y-223629D02*
X408078Y-223699D01*
G01X408358Y-223589D02*
X408208Y-223629D01*
G01X405569Y-224349D02*
X405589Y-224169D01*
G01X405528Y-224529D02*
X405569Y-224349D01*
G01X405448Y-224699D02*
X405528Y-224529D01*
G01X405339Y-224849D02*
X405448Y-224699D01*
G01X405208Y-224979D02*
X405339Y-224849D01*
G01X405058Y-225089D02*
X405208Y-224979D01*
G01X404889Y-225169D02*
X405058Y-225089D01*
G01X405598Y-222939D02*
Y-223579D01*
G01D02*
X402758D01*
G01X405598Y-224169D02*
Y-223579D01*
G01X405569Y-222739D02*
X405589Y-222939D01*
G01X405508Y-222549D02*
X405569Y-222739D01*
G01X405419Y-222369D02*
X405508Y-222549D01*
G01X405289Y-222219D02*
X405419Y-222369D01*
G01X405139Y-222089D02*
X405289Y-222219D01*
G01X404958Y-221999D02*
X405139Y-222089D01*
G01X404708Y-225209D02*
X404889Y-225169D01*
G01X404769Y-221939D02*
X404958Y-221999D01*
G01X401148Y-217429D02*
X405598Y-212239D01*
G01X400398Y-221919D02*
Y-225229D01*
G01X399848Y-221919D02*
X400398D01*
G01X398308Y-225229D02*
X399848Y-221919D01*
G01X396898D02*
X398308Y-225229D01*
G01X396378Y-221919D02*
X396898D01*
G01X396378Y-225229D02*
Y-221919D01*
G01X393789D02*
Y-225229D01*
G01X391168Y-224329D02*
X391189Y-224139D01*
G01X391118Y-224509D02*
X391168Y-224329D01*
G01X391039Y-224679D02*
X391118Y-224509D01*
G01X390928Y-224839D02*
X391039Y-224679D01*
G01X391189Y-224139D02*
Y-223009D01*
G01X391108Y-222589D02*
X391008Y-222399D01*
G01X391168Y-222799D02*
X391108Y-222589D01*
G01X391189Y-223009D02*
X391168Y-222799D01*
G01X401939Y-212549D02*
X397489Y-217429D01*
G01X411028Y-204679D02*
X408789Y-204349D01*
G01X411028Y-217429D02*
Y-204679D01*
G01Y-209339D02*
X407718D01*
G01Y-208649D02*
X411028D01*
G01X407718Y-207259D02*
X411028D01*
G01Y-207949D02*
X407718D01*
G01X411028Y-206559D02*
X407718D01*
G01X407508Y-205869D02*
X411028D01*
G01Y-205179D02*
X399408D01*
G01X409689Y-204479D02*
X401118D01*
G01X408789Y-204349D02*
X406539Y-204209D01*
G01X407718Y-206399D02*
Y-217429D01*
G01X407698Y-206199D02*
X407718Y-206399D01*
G01X407618Y-206009D02*
X407698Y-206199D01*
G01X407498Y-205849D02*
X407618Y-206009D01*
G01X407328Y-205729D02*
X407498Y-205849D01*
G01X407148Y-205649D02*
X407328Y-205729D01*
G01X406948Y-205619D02*
X407148Y-205649D01*
G01X404098Y-205619D02*
X406948D01*
G01X406539Y-204209D02*
X403508D01*
G01X403408Y-205649D02*
X404098Y-205619D01*
G01X402728Y-205809D02*
X403408Y-205649D01*
G01X403508Y-204209D02*
X401839Y-204329D01*
G01X398739Y-205869D02*
X402598D01*
G01X402089Y-206099D02*
X402728Y-205809D01*
G01X401698Y-209989D02*
X401508Y-209589D01*
G01X401678Y-206559D02*
X398368D01*
G01X401778Y-206409D02*
X402089Y-206099D01*
G01X401548Y-206779D02*
X401778Y-206409D01*
G01X401839Y-204329D02*
X400198Y-204679D01*
G01X401439Y-209339D02*
X398278D01*
G01X401389Y-209169D02*
X401339Y-208729D01*
G01X401508Y-209589D02*
X401389Y-209169D01*
G01X398268Y-208649D02*
X401339D01*
G01Y-208729D02*
Y-207629D01*
G01Y-207949D02*
X398268D01*
G01Y-207259D02*
X401389D01*
G01X401398Y-207189D02*
X401548Y-206779D01*
G01X401339Y-207629D02*
X401398Y-207189D01*
G01X400198Y-204679D02*
X399648Y-204979D01*
G01X399158Y-205379D02*
X398748Y-205859D01*
G01X399648Y-204979D02*
X399158Y-205379D01*
G01X398268Y-209279D02*
X398308Y-209759D01*
G01X398268Y-207279D02*
Y-209279D01*
G01X398289Y-206899D02*
X398268Y-207279D01*
G01X398378Y-206519D02*
X398289Y-206899D01*
G01X398528Y-206169D02*
X398378Y-206519D01*
G01X398748Y-205859D02*
X398528Y-206169D01*
G01X395198Y-207589D02*
Y-210349D01*
G01Y-209339D02*
X392128D01*
G01Y-208649D02*
X395198D01*
G01Y-207949D02*
X392128D01*
G01X392018Y-207259D02*
X395168D01*
G01X395158Y-207109D02*
X395198Y-207589D01*
G01X394978Y-206559D02*
X391598D01*
G01X394798Y-206229D02*
X395028Y-206649D01*
G01D02*
X395158Y-207109D01*
G01X394508Y-205849D02*
X394798Y-206229D01*
G01X394139Y-205539D02*
X394508Y-205849D01*
G01X393508Y-205029D02*
X394139Y-205539D01*
G01X392798Y-204639D02*
X393508Y-205029D01*
G01X392039Y-204379D02*
X392798Y-204639D01*
G01X392128Y-210349D02*
Y-207909D01*
G01X391968Y-207109D02*
X391768Y-206759D01*
G01X392089Y-207499D02*
X391968Y-207109D01*
G01X392128Y-207909D02*
X392089Y-207499D01*
G01X391768Y-206759D02*
X391498Y-206449D01*
G01D02*
X391068Y-206079D01*
G01X391239Y-204239D02*
X392039Y-204379D01*
G01X407718Y-217429D02*
X411028D01*
G01X404508Y-213499D02*
X401068D01*
G01X407718Y-216979D02*
X411028D01*
G01Y-216279D02*
X407718D01*
G01X411028Y-214889D02*
X407718D01*
G01Y-215589D02*
X411028D01*
G01X407718Y-214199D02*
X411028D01*
G01Y-213499D02*
X407718D01*
G01Y-212809D02*
X411028D01*
G01X407718Y-211419D02*
X411028D01*
G01Y-212119D02*
X407718D01*
G01X411028Y-210729D02*
X407718D01*
G01Y-210029D02*
X411028D01*
G01X401698Y-212809D02*
X405108D01*
G01X405598Y-212119D02*
X401939D01*
G01X399458Y-211419D02*
X405598D01*
G01Y-212239D02*
Y-210819D01*
G01D02*
X403819D01*
G01X397489Y-217429D02*
X401148D01*
G01X392168Y-217199D02*
X391148Y-217369D01*
G01X400428Y-214199D02*
X403918D01*
G01X403819Y-210819D02*
X403239Y-210779D01*
G01X399168Y-215589D02*
X402728D01*
G01X403319Y-214889D02*
X399798D01*
G01X403048Y-210729D02*
X398708D01*
G01X402678Y-210629D02*
X402158Y-210359D01*
G01X403239Y-210779D02*
X402678Y-210629D01*
G01X402128Y-216279D02*
X398539D01*
G01X401939Y-212039D02*
Y-212549D01*
G01X401239Y-212029D02*
X401939Y-212039D01*
G01X398378Y-210029D02*
X401748D01*
G01X402158Y-210359D02*
X401698Y-209989D01*
G01X397898Y-216979D02*
X401539D01*
G01X400558Y-211909D02*
X401239Y-212029D01*
G01X399898Y-211669D02*
X400558Y-211909D01*
G01X399298Y-211329D02*
X399898Y-211669D01*
G01X398939Y-211019D02*
X399298Y-211329D01*
G01X398648Y-210639D02*
X398939Y-211019D01*
G01X398428Y-210219D02*
X398648Y-210639D01*
G01X398308Y-209759D02*
X398428Y-210219D01*
G01X395128Y-214889D02*
X391708D01*
G01X394798Y-215669D02*
X394489Y-216039D01*
G01X395028Y-215239D02*
X394798Y-215669D01*
G01X395168Y-214769D02*
X395028Y-215239D01*
G01X392039Y-214199D02*
X395198D01*
G01Y-214279D02*
X395168Y-214769D01*
G01X395198Y-210349D02*
Y-214279D01*
G01Y-213499D02*
X392128D01*
G01Y-212809D02*
X395198D01*
G01Y-212119D02*
X392128D01*
G01Y-211419D02*
X395198D01*
G01Y-210729D02*
X392128D01*
G01Y-210029D02*
X395198D01*
G01X392128Y-210349D02*
X395198D01*
G01D02*
X392128D01*
G01X394098Y-216329D02*
X393498Y-216709D01*
G01X394489Y-216039D02*
X394098Y-216329D01*
G01X390968Y-215589D02*
X394848D01*
G01X393498Y-216709D02*
X392848Y-216999D01*
G01D02*
X392168Y-217199D01*
G01X391689Y-214919D02*
X391948Y-214499D01*
G01X391339Y-215269D02*
X391689Y-214919D01*
G01X390978Y-215589D02*
X391339Y-215269D01*
G01X392098Y-214029D02*
X392128Y-213539D01*
G01X391948Y-214499D02*
X392098Y-214029D01*
G01X392128Y-213539D02*
Y-210349D01*
G54D14*
X34000Y13500D03*
X14000Y3500D03*
X24000D03*
X34000D03*
X4000Y22500D03*
Y3500D03*
X28000Y40620D03*
X20106Y57500D03*
X30500Y45500D03*
X28000Y53000D03*
X35500Y40500D03*
X23000Y53000D03*
X4000Y62500D03*
Y52500D03*
Y42500D03*
Y32500D03*
X38500Y63000D03*
X12500Y84621D03*
X38000Y110500D03*
X25500Y97500D03*
X29500Y80500D03*
X4000Y112500D03*
Y102500D03*
Y92500D03*
Y82500D03*
Y72500D03*
X38500Y72000D03*
X25500Y125500D03*
X23000Y132500D03*
Y142500D03*
X18000Y116000D03*
X13000Y152500D03*
X23000D03*
X34000D03*
X4000D03*
Y142500D03*
Y132500D03*
Y122500D03*
X13000Y162500D03*
Y172500D03*
Y182500D03*
Y192500D03*
X23000Y162500D03*
Y172500D03*
Y182500D03*
Y192500D03*
X34000Y172500D03*
Y162500D03*
Y192500D03*
Y182500D03*
X4000Y192500D03*
Y182500D03*
Y172500D03*
Y162500D03*
X13000Y202500D03*
X14500Y212000D03*
X23000Y202500D03*
Y212500D03*
X33000Y222500D03*
X34000Y202500D03*
X4000Y222500D03*
Y212500D03*
Y202500D03*
X33000Y232500D03*
X13000D03*
X4000D03*
X48000Y21000D03*
X53000D03*
X81000Y24500D03*
X76106Y16000D03*
X44000Y12500D03*
X54000D03*
X64000Y13500D03*
X74000Y3500D03*
X84000D03*
X44000D03*
X54000D03*
X64000D03*
X67500Y54000D03*
X81000Y29500D03*
X56500Y65500D03*
X67500Y58500D03*
X63000Y54000D03*
X67500Y63500D03*
X72500Y68000D03*
X53950Y54500D03*
X63000Y58500D03*
X72500Y63500D03*
X53000Y46500D03*
X43000Y33000D03*
X78000Y38000D03*
X73000Y45500D03*
X68000D03*
X72500Y58500D03*
X59428Y79000D03*
X55502D03*
X50500Y105500D03*
X43000Y90500D03*
X42000Y75500D03*
X74000Y85650D03*
X54500Y88500D03*
X65000D03*
X48500Y79000D03*
X75000D03*
X43000Y123000D03*
X53000Y132500D03*
X43000D03*
X53000Y142500D03*
X43000D03*
X83000Y152500D03*
X72500D03*
X63000D03*
X53000D03*
X43000D03*
X58606Y132106D03*
X80606Y132000D03*
X83000Y172500D03*
X72500D03*
X83000Y162500D03*
X72500D03*
X63000Y172500D03*
X53000D03*
X43000D03*
X63000Y162500D03*
X53000D03*
X43000D03*
X72500Y192500D03*
X83000D03*
X72500Y182500D03*
X83000D03*
X43000Y192500D03*
X53000D03*
X63000Y194000D03*
X43000Y182500D03*
X53000D03*
X63000D03*
X73000Y222500D03*
X83000D03*
X43000D03*
X53000D03*
X63000D03*
X83000Y212500D03*
X72500Y202500D03*
X83000D03*
X43000Y212500D03*
X63000D03*
X43000Y202500D03*
X50500D03*
X63000D03*
X83000Y232500D03*
X73000D03*
X63000D03*
X53000D03*
X43000D03*
X108000Y10500D03*
X100000D03*
X86000Y24500D03*
X111673Y8000D03*
X93000Y20500D03*
Y25500D03*
X94000Y3500D03*
X104000D03*
X106500Y19500D03*
X125931Y3500D03*
X114500Y22000D03*
X113000Y53000D03*
Y48000D03*
X88500Y41000D03*
X85500Y66000D03*
X92000Y58121D03*
Y53621D03*
X122500Y26500D03*
X126569D03*
X85500Y61000D03*
X124000Y97000D03*
X91500Y71121D03*
X124000Y92000D03*
X117500Y115620D03*
X100500D03*
X95500Y130500D03*
X113000Y143000D03*
X123000Y152500D03*
X113000D03*
X103000D03*
X93000D03*
X124606Y132106D03*
X102606Y132000D03*
X123000Y172500D03*
X113000D03*
X103000D03*
X93000D03*
X123000Y162500D03*
X113000D03*
X103000D03*
X93000D03*
Y192500D03*
X103000D03*
X113000D03*
X123000D03*
X93000Y182500D03*
X103000D03*
X113000D03*
X123000D03*
X93000Y222500D03*
X103000D03*
X113000D03*
X123000D03*
X91500Y212500D03*
X103000D03*
X113000D03*
X124000D03*
X91500Y202500D03*
X103000D03*
X113000D03*
X123000D03*
Y232500D03*
X113000D03*
X103000D03*
X93000D03*
X165931Y13500D03*
X145931Y3500D03*
X155931D03*
X165931D03*
X135931D03*
X146000Y9069D03*
X155931D03*
X155500Y66000D03*
X129449Y49120D03*
X150000Y45000D03*
X161000Y57000D03*
X139000Y27000D03*
X160984Y38984D03*
Y43484D03*
X144000Y34500D03*
Y37500D03*
X141535Y45000D03*
X155500Y61000D03*
X136000Y27000D03*
X137500Y44500D03*
X133000D03*
Y40000D03*
X140106Y63000D03*
X129449Y53621D03*
X133500Y81000D03*
X129500Y87000D03*
X145000Y86500D03*
X166000Y89567D03*
X145000Y90551D03*
X171500Y83000D03*
X166500Y99500D03*
X144500Y102000D03*
X132456Y102044D03*
X129500Y80970D03*
X169106Y72394D03*
X171500Y99500D03*
X166500Y78000D03*
X139500Y102000D03*
X138000Y81000D03*
X147106Y71894D03*
X172094Y143288D03*
X156000Y115500D03*
X144500Y115620D03*
X163000Y152500D03*
X153000D03*
X143000D03*
X133000D03*
X172094Y126788D03*
X163000Y172500D03*
X153000D03*
X143000D03*
X163000Y162500D03*
X153000D03*
X143000D03*
X133000Y172500D03*
Y162500D03*
X143500Y192500D03*
X153000D03*
X163000D03*
X143000Y182500D03*
X153000D03*
X163000D03*
X133000Y192500D03*
Y182500D03*
X143000Y222500D03*
X153000D03*
X163000D03*
X133000D03*
X153000Y212500D03*
X143500Y202500D03*
X153000D03*
X163000D03*
X133000Y212500D03*
Y202500D03*
X163000Y232500D03*
X153000D03*
X143000D03*
X133000D03*
X208300Y24719D03*
X175931Y3500D03*
X213700Y59891D03*
Y49891D03*
Y39891D03*
X208300Y34719D03*
Y44719D03*
Y54719D03*
Y64719D03*
X193000Y27000D03*
Y37000D03*
Y47000D03*
Y57000D03*
Y67000D03*
X173000Y47000D03*
X183000D03*
Y57000D03*
Y67000D03*
X173000Y94000D03*
X177000Y89567D03*
Y94000D03*
X214950Y99806D03*
X213750Y89878D03*
X214077Y79884D03*
X208300Y84719D03*
Y94719D03*
Y104719D03*
X213700Y69891D03*
X208300Y74719D03*
X175500Y83000D03*
X208100Y155500D03*
X211600D03*
X183000Y152500D03*
X173000D03*
X193000Y157000D03*
X208911Y114700D03*
X215500Y145500D03*
X208100Y166000D03*
Y162500D03*
Y159000D03*
X211600Y166000D03*
Y162500D03*
Y159000D03*
X215100Y166000D03*
Y162500D03*
Y159000D03*
X215500Y188600D03*
X208000Y196900D03*
X213500Y199900D03*
X210000D03*
X183000Y162500D03*
Y172500D03*
Y182500D03*
Y192500D03*
X173000Y162500D03*
Y172500D03*
Y182500D03*
Y192500D03*
X193000Y187000D03*
Y197000D03*
Y167000D03*
Y177000D03*
X208400Y206900D03*
X183000Y202500D03*
X173000D03*
X183000Y232500D03*
X193000D03*
Y217000D03*
Y227000D03*
Y207000D03*
X251500Y16500D03*
X227350Y24716D03*
X247201Y7560D03*
X254450Y24343D03*
X217232Y20222D03*
X229382Y16500D03*
X246500D03*
X233170Y3300D03*
X253170D03*
X236000Y7560D03*
X256500D03*
X218350Y25216D03*
X255850Y63294D03*
X227350Y34716D03*
X255850Y49894D03*
X218350Y29716D03*
Y43216D03*
Y56716D03*
X246850Y68216D03*
Y49816D03*
X227350Y43116D03*
Y52216D03*
X255850Y36494D03*
Y54894D03*
Y41494D03*
X233524Y53043D03*
Y63328D03*
X236124Y33928D03*
X234500Y40500D03*
X227350Y38717D03*
X246850Y40917D03*
X227350Y61516D03*
X246850Y54316D03*
Y63216D03*
X227350Y29716D03*
Y56516D03*
Y48116D03*
Y65716D03*
X246850Y36416D03*
X218350Y65716D03*
Y38717D03*
Y52216D03*
X246850Y76616D03*
X218350Y83716D03*
Y70216D03*
X227350Y69916D03*
X246850Y81616D03*
X227350Y83316D03*
Y88316D03*
X255850Y76694D03*
X236350Y88394D03*
X253024Y83500D03*
X233524Y76728D03*
X255000Y70000D03*
X238211Y94700D03*
X228211D03*
X250411D03*
X260411D03*
X250411Y104700D03*
X260411D03*
X217396Y109503D03*
X227350Y74916D03*
Y79216D03*
X218350D03*
X222100Y155500D03*
X225600D03*
X229100D03*
X252500Y156500D03*
X260000Y157000D03*
X218911Y114700D03*
X228911D03*
X238911D03*
X248911D03*
X258911D03*
X252830Y151000D03*
X216867Y153367D03*
X223500Y142500D03*
X237767Y134000D03*
X247000Y149500D03*
X231500Y144818D03*
X243000Y153500D03*
X227500Y142000D03*
X238000Y138500D03*
X217000Y150000D03*
X225000Y187800D03*
X225100Y180400D03*
Y183900D03*
X239800Y174300D03*
X234900Y175200D03*
X218600Y166000D03*
Y162500D03*
Y159000D03*
X222100Y166000D03*
Y162500D03*
Y159000D03*
X225600Y166000D03*
Y162500D03*
Y159000D03*
X229100D03*
Y162500D03*
Y166000D03*
X228000Y169900D03*
X231300D03*
X228000Y173400D03*
X231500D03*
X228000Y176900D03*
X231500D03*
X247300Y179800D03*
X218600Y180400D03*
X222100D03*
X228000D03*
X231100D03*
X218600Y183900D03*
X222100D03*
X228000D03*
X231100D03*
X231000Y187800D03*
X227900D03*
X222000D03*
X218500D03*
X234500D03*
X238000D03*
X217500Y191300D03*
X217000Y199900D03*
X239500D03*
X236000D03*
X232500D03*
X224500D03*
X253400Y198300D03*
X250000Y199900D03*
X246500D03*
X243000D03*
X221000Y191300D03*
X224500D03*
X228000D03*
X234500D03*
X238000D03*
X244500D03*
X250100Y177600D03*
X259800Y176600D03*
X228000Y208500D03*
X245500Y219500D03*
X258196Y211015D03*
X236000Y214000D03*
X254899Y202574D03*
X244000Y205500D03*
X291000Y21500D03*
X286000Y16500D03*
X302500Y15500D03*
X299500Y21500D03*
X290882Y16500D03*
X270382D03*
X283170Y3300D03*
X300906D03*
X297500Y7560D03*
X273170Y3300D03*
X263170D03*
X277000Y7560D03*
X262000Y59000D03*
X285850Y63216D03*
Y49816D03*
X283000Y39500D03*
X260600Y50000D03*
X266366Y41500D03*
X266500Y54500D03*
X294850Y54894D03*
Y68294D03*
X275350Y62194D03*
X276350Y40000D03*
X290500Y30500D03*
X291850Y47217D03*
X274350Y32500D03*
X294850Y63294D03*
X275350Y56594D03*
X285850Y68216D03*
Y54816D03*
X294850Y49894D03*
X262350Y70866D03*
X276850Y74216D03*
X272524Y76728D03*
X272911Y94700D03*
X298000Y95500D03*
X285735Y106929D03*
X295201Y104820D03*
X282500Y100000D03*
X294940Y90879D03*
X282761Y86942D03*
X276454Y110653D03*
X266350Y74916D03*
X278911Y114700D03*
X288911D03*
X298911D03*
X268911D03*
X282500Y151000D03*
X262000Y165500D03*
X293650Y169000D03*
X290900Y181000D03*
X293600Y187300D03*
X284700Y174300D03*
Y170000D03*
X261850Y170117D03*
Y184617D03*
Y192117D03*
X276850D03*
X269350D03*
X276850Y184617D03*
X269350D03*
X276850Y199617D03*
X269350D03*
X261850D03*
X299300Y176900D03*
X296300Y192400D03*
X294900Y180800D03*
X290900Y184900D03*
X279350Y170500D03*
X290866Y193017D03*
X295700Y162000D03*
X263759Y159600D03*
X288800Y195800D03*
X295200Y197000D03*
X276750Y162000D03*
X280700Y180500D03*
X279900Y165000D03*
X277000Y157900D03*
X279500Y175100D03*
X263000Y219500D03*
X273720Y221500D03*
X265200Y207755D03*
X268500Y218601D03*
X267950Y214616D03*
X283850Y203074D03*
X273104Y212500D03*
X284500Y206500D03*
X328000Y25500D03*
X320500Y16500D03*
X311382D03*
X331882D03*
X310906Y3300D03*
X338069Y7560D03*
X318000D03*
Y58000D03*
X314350Y61594D03*
X315500Y30500D03*
X333000D03*
X328000D03*
X311350Y54500D03*
X305350Y61516D03*
Y56516D03*
X319000Y106000D03*
Y95500D03*
X309000Y106000D03*
Y95500D03*
X337000Y157500D03*
Y152000D03*
X308911Y114700D03*
X318911D03*
X312000Y187000D03*
X318000Y187500D03*
X326000Y163500D03*
X327600Y167400D03*
X321000Y171500D03*
X324000D03*
X313500Y175000D03*
X333600Y182500D03*
X327500Y181000D03*
X322000Y190000D03*
X316500Y178000D03*
X333260Y196708D03*
X316500Y164000D03*
X313000Y160500D03*
X311732Y191268D03*
X333142Y191589D03*
Y201826D03*
X327500Y211000D03*
X320484Y205484D03*
Y210484D03*
X355689Y18814D03*
X358700Y28350D03*
X350500Y170500D03*
Y176500D03*
G54D23*
X243716Y39300D03*
Y36000D03*
X259350Y66566D03*
X246784Y43766D03*
Y47067D03*
X252350Y60066D03*
Y63366D03*
Y55866D03*
Y52566D03*
X258650Y39434D03*
Y36133D03*
X259850Y43566D03*
Y46867D03*
X259350Y69866D03*
Y80866D03*
Y77566D03*
X249784Y78200D03*
Y81500D03*
X230284Y84700D03*
Y88000D03*
X232500Y151150D03*
Y147850D03*
X248350Y190426D03*
Y187122D03*
X251850Y194968D03*
Y191665D03*
X230850Y190924D03*
Y194224D03*
X240850Y190924D03*
Y194224D03*
X243850Y211924D03*
Y215224D03*
X259350Y218224D03*
Y214924D03*
X291850Y53866D03*
Y50566D03*
X266650Y61000D03*
Y57700D03*
X297716Y57066D03*
Y60366D03*
X294650Y42634D03*
Y45934D03*
X283000Y33350D03*
Y36650D03*
X293600Y174350D03*
Y177650D03*
X271850Y215467D03*
Y218767D03*
X291850Y214967D03*
Y218267D03*
X264000Y215150D03*
Y211850D03*
X311350Y60866D03*
Y57566D03*
X318000Y49350D03*
Y52650D03*
X323000Y49350D03*
Y52650D03*
X320000Y166650D03*
Y163350D03*
X319500Y199150D03*
Y195850D03*
X311500D03*
Y199150D03*
X315500Y195850D03*
Y199150D03*
X313000Y177850D03*
Y181150D03*
X313500Y163350D03*
Y166650D03*
G54D32*
X269350Y192117D03*
G54D42*
G01X-45775Y-237579D02*
Y-233579D01*
X-46902Y-236912D01*
X-48028Y-233579D01*
Y-237579D01*
G01X-49218D02*
X-50302Y-233579D01*
X-51385Y-237579D01*
G01X-50995Y-236179D02*
X-49608D01*
G01X-54655Y-233912D02*
X-54395Y-233712D01*
X-54092Y-233579D01*
X-53745D01*
X-53355Y-233779D01*
X-53052Y-234112D01*
X-52835Y-234512D01*
X-52662Y-235179D01*
X-52618Y-235779D01*
X-52705Y-236379D01*
X-52835Y-236779D01*
X-53095Y-237179D01*
X-53398Y-237446D01*
X-53702Y-237579D01*
X-54005D01*
X-54308Y-237446D01*
X-54568Y-237246D01*
X-54785Y-236979D01*
G01X-56192Y-237579D02*
Y-233579D01*
G01X-58012D02*
Y-237579D01*
G01Y-235579D02*
X-56192D01*
G01X-63078Y-237579D02*
Y-233579D01*
X-64725D01*
G01X-64118Y-235512D02*
X-63078D01*
G01X-66782Y-233579D02*
X-67822D01*
G01X-67302D02*
Y-237579D01*
G01X-66782D02*
X-67822D01*
G01X-69705D02*
Y-233579D01*
X-71698Y-237579D01*
Y-233579D01*
G01X-73582D02*
X-74622D01*
G01X-74102D02*
Y-237579D01*
G01X-73582D02*
X-74622D01*
G01X-76592Y-237046D02*
X-76938Y-237379D01*
X-77328Y-237579D01*
X-77675D01*
X-78022Y-237379D01*
X-78282Y-237046D01*
X-78412Y-236579D01*
X-78325Y-236112D01*
X-78108Y-235712D01*
X-77718Y-235446D01*
X-77198Y-235312D01*
X-76895Y-235046D01*
X-76765Y-234579D01*
X-76852Y-234112D01*
X-77068Y-233779D01*
X-77372Y-233579D01*
X-77675D01*
X-77978Y-233712D01*
X-78238Y-234046D01*
G01X-79992Y-237579D02*
Y-233579D01*
G01X-81812D02*
Y-237579D01*
G01Y-235579D02*
X-79992D01*
G01X461098Y-249579D02*
Y-174579D01*
X-83902D01*
Y-249579D01*
X461098D01*
G01X-66402Y-238579D02*
X-64102Y-243079D01*
X-62602Y-240879D01*
G01X-10192Y-194046D02*
X-10538Y-194379D01*
X-10928Y-194579D01*
X-11275D01*
X-11622Y-194379D01*
X-11882Y-194046D01*
X-12012Y-193579D01*
X-11925Y-193112D01*
X-11708Y-192712D01*
X-11318Y-192446D01*
X-10798Y-192312D01*
X-10495Y-192046D01*
X-10365Y-191579D01*
X-10452Y-191112D01*
X-10668Y-190779D01*
X-10972Y-190579D01*
X-11275D01*
X-11578Y-190712D01*
X-11838Y-191046D01*
G01X-13635Y-194579D02*
Y-190579D01*
X-14675D01*
X-15022Y-190779D01*
X-15282Y-191246D01*
X-15368Y-191779D01*
X-15282Y-192312D01*
X-15065Y-192712D01*
X-14675Y-192912D01*
X-13635D01*
G01X-18768Y-194579D02*
X-17035D01*
Y-190579D01*
X-18768D01*
G01X-18075Y-192512D02*
X-17035D01*
G01X-22255Y-190912D02*
X-21995Y-190712D01*
X-21692Y-190579D01*
X-21345D01*
X-20955Y-190779D01*
X-20652Y-191112D01*
X-20435Y-191512D01*
X-20262Y-192179D01*
X-20218Y-192779D01*
X-20305Y-193379D01*
X-20435Y-193779D01*
X-20695Y-194179D01*
X-20998Y-194446D01*
X-21302Y-194579D01*
X-21605D01*
X-21908Y-194446D01*
X-22168Y-194246D01*
X-22385Y-193979D01*
G01X-24182Y-190579D02*
X-25222D01*
G01X-24702D02*
Y-194579D01*
G01X-24182D02*
X-25222D01*
G01X-27278D02*
Y-190579D01*
X-28925D01*
G01X-28318Y-192512D02*
X-27278D01*
G01X-30982Y-190579D02*
X-32021D01*
G01X-31502D02*
Y-194579D01*
G01X-30982D02*
X-32021D01*
G01X-35768D02*
X-34035D01*
Y-190579D01*
X-35768D01*
G01X-35075Y-192512D02*
X-34035D01*
G01X-37348Y-194579D02*
Y-190579D01*
X-38215D01*
X-38562Y-190779D01*
X-38822Y-191046D01*
X-39038Y-191446D01*
X-39212Y-191912D01*
X-39255Y-192579D01*
X-39212Y-193246D01*
X-39038Y-193712D01*
X-38822Y-194112D01*
X-38562Y-194379D01*
X-38215Y-194579D01*
X-37348D01*
G01X-44148D02*
Y-190579D01*
X-45015D01*
X-45362Y-190779D01*
X-45622Y-191046D01*
X-45838Y-191446D01*
X-46012Y-191912D01*
X-46055Y-192579D01*
X-46012Y-193246D01*
X-45838Y-193712D01*
X-45622Y-194112D01*
X-45362Y-194379D01*
X-45015Y-194579D01*
X-44148D01*
G01X-47982Y-190579D02*
X-49022D01*
G01X-48502D02*
Y-194579D01*
G01X-47982D02*
X-49022D01*
G01X-50775D02*
Y-190579D01*
X-51902Y-193912D01*
X-53028Y-190579D01*
Y-194579D01*
G01X-56168D02*
X-54435D01*
Y-190579D01*
X-56168D01*
G01X-55475Y-192512D02*
X-54435D01*
G01X-57705Y-194579D02*
Y-190579D01*
X-59698Y-194579D01*
Y-190579D01*
G01X-61192Y-194046D02*
X-61538Y-194379D01*
X-61928Y-194579D01*
X-62275D01*
X-62622Y-194379D01*
X-62882Y-194046D01*
X-63012Y-193579D01*
X-62925Y-193112D01*
X-62708Y-192712D01*
X-62318Y-192446D01*
X-61798Y-192312D01*
X-61495Y-192046D01*
X-61365Y-191579D01*
X-61452Y-191112D01*
X-61668Y-190779D01*
X-61972Y-190579D01*
X-62275D01*
X-62578Y-190712D01*
X-62838Y-191046D01*
G01X-64982Y-190579D02*
X-66022D01*
G01X-65502D02*
Y-194579D01*
G01X-64982D02*
X-66022D01*
G01X-68902D02*
X-68555Y-194512D01*
X-68252Y-194246D01*
X-67992Y-193846D01*
X-67818Y-193379D01*
X-67732Y-192846D01*
Y-192312D01*
X-67818Y-191779D01*
X-67992Y-191312D01*
X-68252Y-190912D01*
X-68555Y-190646D01*
X-68902Y-190579D01*
X-69248Y-190646D01*
X-69552Y-190912D01*
X-69812Y-191312D01*
X-69985Y-191779D01*
X-70072Y-192312D01*
Y-192846D01*
X-69985Y-193379D01*
X-69812Y-193846D01*
X-69552Y-194246D01*
X-69248Y-194512D01*
X-68902Y-194579D01*
G01X-71305D02*
Y-190579D01*
X-73298Y-194579D01*
Y-190579D01*
G01X-74792Y-194046D02*
X-75138Y-194379D01*
X-75528Y-194579D01*
X-75875D01*
X-76222Y-194379D01*
X-76482Y-194046D01*
X-76612Y-193579D01*
X-76525Y-193112D01*
X-76308Y-192712D01*
X-75918Y-192446D01*
X-75398Y-192312D01*
X-75095Y-192046D01*
X-74965Y-191579D01*
X-75052Y-191112D01*
X-75268Y-190779D01*
X-75572Y-190579D01*
X-75875D01*
X-76178Y-190712D01*
X-76438Y-191046D01*
G01X-64748Y-230779D02*
X-65008Y-231246D01*
X-65355Y-231512D01*
X-65745Y-231579D01*
X-66092Y-231512D01*
X-66438Y-231179D01*
X-66655Y-230779D01*
X-66698Y-230379D01*
X-66612Y-229912D01*
X-66308Y-229579D01*
X-66005Y-229446D01*
X-65615D01*
G01X-66005D02*
X-66265Y-229246D01*
X-66482Y-228912D01*
X-66568Y-228512D01*
X-66482Y-228112D01*
X-66265Y-227779D01*
X-65875Y-227579D01*
X-65485Y-227646D01*
X-65095Y-227912D01*
G01X-69102Y-227579D02*
X-68755Y-227712D01*
X-68495Y-228046D01*
X-68322Y-228446D01*
X-68192Y-228979D01*
X-68148Y-229579D01*
X-68192Y-230179D01*
X-68322Y-230712D01*
X-68495Y-231112D01*
X-68755Y-231446D01*
X-69102Y-231579D01*
X-69448Y-231446D01*
X-69708Y-231112D01*
X-69882Y-230712D01*
X-70012Y-230179D01*
X-70055Y-229579D01*
X-70012Y-228979D01*
X-69882Y-228446D01*
X-69708Y-228046D01*
X-69448Y-227712D01*
X-69102Y-227579D01*
G01X-53018Y-225579D02*
X-54102Y-221579D01*
X-55185Y-225579D01*
G01X-54795Y-224179D02*
X-53408D01*
G01X-56505Y-225579D02*
Y-221579D01*
X-58498Y-225579D01*
Y-221579D01*
G01X-61162Y-223579D02*
X-62028D01*
Y-224779D01*
X-61768Y-225179D01*
X-61465Y-225446D01*
X-61032Y-225579D01*
X-60598Y-225446D01*
X-60295Y-225179D01*
X-60035Y-224779D01*
X-59862Y-224312D01*
X-59775Y-223779D01*
Y-223312D01*
X-59862Y-222913D01*
X-60035Y-222446D01*
X-60295Y-222046D01*
X-60555Y-221779D01*
X-60902Y-221579D01*
X-61205D01*
X-61552Y-221712D01*
X-61812Y-221979D01*
G01X-63435Y-221579D02*
Y-225579D01*
X-65168D01*
G01X-68568D02*
X-66835D01*
Y-221579D01*
X-68568D01*
G01X-67875Y-223512D02*
X-66835D01*
G01X-21918Y-202079D02*
X-23002Y-198079D01*
X-24085Y-202079D01*
G01X-23695Y-200679D02*
X-22308D01*
G01X-25535Y-202079D02*
Y-198079D01*
X-26618D01*
X-26965Y-198279D01*
X-27182Y-198546D01*
X-27268Y-199079D01*
X-27182Y-199613D01*
X-26922Y-199946D01*
X-26618Y-200146D01*
X-25535D01*
G01X-26618D02*
X-27268Y-202079D01*
G01X-30668D02*
X-28935D01*
Y-198079D01*
X-30668D01*
G01X-29975Y-200012D02*
X-28935D01*
G01X-36082Y-198079D02*
X-37121D01*
G01X-36602D02*
Y-202079D01*
G01X-36082D02*
X-37121D01*
G01X-39005D02*
Y-198079D01*
X-40998Y-202079D01*
Y-198079D01*
G01X-46282D02*
X-47322D01*
G01X-46802D02*
Y-202079D01*
G01X-46282D02*
X-47322D01*
G01X-49205D02*
Y-198079D01*
X-51198Y-202079D01*
Y-198079D01*
G01X-54555Y-198412D02*
X-54295Y-198212D01*
X-53992Y-198079D01*
X-53645D01*
X-53255Y-198279D01*
X-52952Y-198612D01*
X-52735Y-199012D01*
X-52562Y-199679D01*
X-52518Y-200279D01*
X-52605Y-200879D01*
X-52735Y-201279D01*
X-52995Y-201679D01*
X-53298Y-201946D01*
X-53602Y-202079D01*
X-53905D01*
X-54208Y-201946D01*
X-54468Y-201746D01*
X-54685Y-201479D01*
G01X-56092Y-202079D02*
Y-198079D01*
G01X-57912D02*
Y-202079D01*
G01Y-200079D02*
X-56092D01*
G01X-61268Y-202079D02*
X-59535D01*
Y-198079D01*
X-61268D01*
G01X-60575Y-200012D02*
X-59535D01*
G01X-62892Y-201546D02*
X-63238Y-201879D01*
X-63628Y-202079D01*
X-63975D01*
X-64322Y-201879D01*
X-64582Y-201546D01*
X-64712Y-201079D01*
X-64625Y-200612D01*
X-64408Y-200212D01*
X-64018Y-199946D01*
X-63498Y-199812D01*
X-63195Y-199546D01*
X-63065Y-199079D01*
X-63152Y-198612D01*
X-63368Y-198279D01*
X-63672Y-198079D01*
X-63975D01*
X-64278Y-198212D01*
X-64538Y-198546D01*
G01X-28102Y-213079D02*
Y-217079D01*
G01X-27105Y-213079D02*
X-29098D01*
G01X-31502Y-217079D02*
X-31155Y-217012D01*
X-30852Y-216746D01*
X-30592Y-216346D01*
X-30418Y-215879D01*
X-30332Y-215346D01*
Y-214812D01*
X-30418Y-214279D01*
X-30592Y-213812D01*
X-30852Y-213412D01*
X-31155Y-213146D01*
X-31502Y-213079D01*
X-31848Y-213146D01*
X-32152Y-213412D01*
X-32412Y-213812D01*
X-32585Y-214279D01*
X-32672Y-214812D01*
Y-215346D01*
X-32585Y-215879D01*
X-32412Y-216346D01*
X-32152Y-216746D01*
X-31848Y-217012D01*
X-31502Y-217079D01*
G01X-34035Y-213079D02*
Y-217079D01*
X-35768D01*
G01X-39168D02*
X-37435D01*
Y-213079D01*
X-39168D01*
G01X-38475Y-215012D02*
X-37435D01*
G01X-40835Y-217079D02*
Y-213079D01*
X-41918D01*
X-42265Y-213279D01*
X-42482Y-213546D01*
X-42568Y-214079D01*
X-42482Y-214612D01*
X-42222Y-214946D01*
X-41918Y-215146D01*
X-40835D01*
G01X-41918D02*
X-42568Y-217079D01*
G01X-44018D02*
X-45102Y-213079D01*
X-46185Y-217079D01*
G01X-45795Y-215679D02*
X-44408D01*
G01X-47505Y-217079D02*
Y-213079D01*
X-49498Y-217079D01*
Y-213079D01*
G01X-52855Y-213412D02*
X-52595Y-213212D01*
X-52292Y-213079D01*
X-51945D01*
X-51555Y-213279D01*
X-51252Y-213612D01*
X-51035Y-214012D01*
X-50862Y-214679D01*
X-50818Y-215279D01*
X-50905Y-215879D01*
X-51035Y-216279D01*
X-51295Y-216679D01*
X-51598Y-216946D01*
X-51902Y-217079D01*
X-52205D01*
X-52508Y-216946D01*
X-52768Y-216746D01*
X-52985Y-216479D01*
G01X-56168Y-217079D02*
X-54435D01*
Y-213079D01*
X-56168D01*
G01X-55475Y-215012D02*
X-54435D01*
G01X-57792Y-216546D02*
X-58138Y-216879D01*
X-58528Y-217079D01*
X-58875D01*
X-59222Y-216879D01*
X-59482Y-216546D01*
X-59612Y-216079D01*
X-59525Y-215612D01*
X-59308Y-215212D01*
X-58918Y-214946D01*
X-58398Y-214812D01*
X-58095Y-214546D01*
X-57965Y-214079D01*
X-58052Y-213612D01*
X-58268Y-213279D01*
X-58572Y-213079D01*
X-58875D01*
X-59178Y-213212D01*
X-59438Y-213546D01*
G01X-64902Y-238579D02*
X-67902D01*
G01X-59602Y-228879D02*
X-62602D01*
G01X-59602Y-231079D02*
X-62602D01*
G01X-61102Y-227379D02*
Y-230379D01*
G01X-16948Y-183079D02*
Y-185946D01*
X-17122Y-186546D01*
X-17468Y-186946D01*
X-17902Y-187079D01*
X-18335Y-186946D01*
X-18682Y-186546D01*
X-18855Y-185946D01*
Y-183079D01*
G01X-20305Y-187079D02*
Y-183079D01*
X-22298Y-187079D01*
Y-183079D01*
G01X-23835D02*
Y-187079D01*
X-25568D01*
G01X-28968D02*
X-27235D01*
Y-183079D01*
X-28968D01*
G01X-28275Y-185012D02*
X-27235D01*
G01X-30592Y-186546D02*
X-30938Y-186879D01*
X-31328Y-187079D01*
X-31675D01*
X-32022Y-186879D01*
X-32282Y-186546D01*
X-32412Y-186079D01*
X-32325Y-185612D01*
X-32108Y-185212D01*
X-31718Y-184946D01*
X-31198Y-184812D01*
X-30895Y-184546D01*
X-30765Y-184079D01*
X-30852Y-183612D01*
X-31068Y-183279D01*
X-31372Y-183079D01*
X-31675D01*
X-31978Y-183212D01*
X-32238Y-183546D01*
G01X-33992Y-186546D02*
X-34338Y-186879D01*
X-34728Y-187079D01*
X-35075D01*
X-35422Y-186879D01*
X-35682Y-186546D01*
X-35812Y-186079D01*
X-35725Y-185612D01*
X-35508Y-185212D01*
X-35118Y-184946D01*
X-34598Y-184812D01*
X-34295Y-184546D01*
X-34165Y-184079D01*
X-34252Y-183612D01*
X-34468Y-183279D01*
X-34772Y-183079D01*
X-35075D01*
X-35378Y-183212D01*
X-35638Y-183546D01*
G01X-41702Y-187079D02*
X-41355Y-187012D01*
X-41052Y-186746D01*
X-40792Y-186346D01*
X-40618Y-185879D01*
X-40532Y-185346D01*
Y-184812D01*
X-40618Y-184279D01*
X-40792Y-183812D01*
X-41052Y-183412D01*
X-41355Y-183146D01*
X-41702Y-183079D01*
X-42048Y-183146D01*
X-42352Y-183412D01*
X-42612Y-183812D01*
X-42785Y-184279D01*
X-42872Y-184812D01*
Y-185346D01*
X-42785Y-185879D01*
X-42612Y-186346D01*
X-42352Y-186746D01*
X-42048Y-187012D01*
X-41702Y-187079D01*
G01X-45102Y-183079D02*
Y-187079D01*
G01X-44105Y-183079D02*
X-46098D01*
G01X-47592Y-187079D02*
Y-183079D01*
G01X-49412D02*
Y-187079D01*
G01Y-185079D02*
X-47592D01*
G01X-52768Y-187079D02*
X-51035D01*
Y-183079D01*
X-52768D01*
G01X-52075Y-185012D02*
X-51035D01*
G01X-54435Y-187079D02*
Y-183079D01*
X-55518D01*
X-55865Y-183279D01*
X-56082Y-183546D01*
X-56168Y-184079D01*
X-56082Y-184612D01*
X-55822Y-184946D01*
X-55518Y-185146D01*
X-54435D01*
G01X-55518D02*
X-56168Y-187079D01*
G01X-57402Y-183079D02*
X-58008Y-187079D01*
X-58702Y-183079D01*
X-59395Y-187079D01*
X-60002Y-183079D01*
G01X-61582D02*
X-62622D01*
G01X-62102D02*
Y-187079D01*
G01X-61582D02*
X-62622D01*
G01X-64592Y-186546D02*
X-64938Y-186879D01*
X-65328Y-187079D01*
X-65675D01*
X-66022Y-186879D01*
X-66282Y-186546D01*
X-66412Y-186079D01*
X-66325Y-185612D01*
X-66108Y-185212D01*
X-65718Y-184946D01*
X-65198Y-184812D01*
X-64895Y-184546D01*
X-64765Y-184079D01*
X-64852Y-183612D01*
X-65068Y-183279D01*
X-65372Y-183079D01*
X-65675D01*
X-65978Y-183212D01*
X-66238Y-183546D01*
G01X-69768Y-187079D02*
X-68035D01*
Y-183079D01*
X-69768D01*
G01X-69075Y-185012D02*
X-68035D01*
G01X-28202Y-243212D02*
X-28115Y-243146D01*
Y-243012D01*
X-28202Y-242946D01*
X-28288Y-243012D01*
Y-243146D01*
X-28202Y-243212D01*
G01X-31602Y-239079D02*
X-31255Y-239212D01*
X-30995Y-239546D01*
X-30822Y-239946D01*
X-30692Y-240479D01*
X-30648Y-241079D01*
X-30692Y-241679D01*
X-30822Y-242212D01*
X-30995Y-242612D01*
X-31255Y-242946D01*
X-31602Y-243079D01*
X-31948Y-242946D01*
X-32208Y-242612D01*
X-32382Y-242212D01*
X-32512Y-241679D01*
X-32555Y-241079D01*
X-32512Y-240479D01*
X-32382Y-239946D01*
X-32208Y-239546D01*
X-31948Y-239212D01*
X-31602Y-239079D01*
G01X-35002Y-243079D02*
Y-239079D01*
X-34482Y-239879D01*
G01Y-243079D02*
X-35522D01*
G01X-38402Y-239079D02*
X-38055Y-239212D01*
X-37795Y-239546D01*
X-37622Y-239946D01*
X-37492Y-240479D01*
X-37448Y-241079D01*
X-37492Y-241679D01*
X-37622Y-242212D01*
X-37795Y-242612D01*
X-38055Y-242946D01*
X-38402Y-243079D01*
X-38748Y-242946D01*
X-39008Y-242612D01*
X-39182Y-242212D01*
X-39312Y-241679D01*
X-39355Y-241079D01*
X-39312Y-240479D01*
X-39182Y-239946D01*
X-39008Y-239546D01*
X-38748Y-239212D01*
X-38402Y-239079D01*
G01X-11892Y-243079D02*
X-13712Y-239079D01*
G01X-11892D02*
X-13712Y-243079D01*
G01X-15292D02*
X-17112Y-239079D01*
G01X-15292D02*
X-17112Y-243079D01*
G01X-18692D02*
X-20512Y-239079D01*
G01X-18692D02*
X-20512Y-243079D01*
G01X-20902D02*
X-23902D01*
G01X-24402Y-239379D02*
Y-242379D01*
G01X-22902Y-240879D02*
X-25902D01*
G01X-8902Y-174579D02*
Y-249579D01*
G01X-28202Y-237212D02*
X-28115Y-237146D01*
Y-237012D01*
X-28202Y-236946D01*
X-28288Y-237012D01*
Y-237146D01*
X-28202Y-237212D01*
G01X-31602Y-233079D02*
X-31255Y-233212D01*
X-30995Y-233546D01*
X-30822Y-233946D01*
X-30692Y-234479D01*
X-30648Y-235079D01*
X-30692Y-235679D01*
X-30822Y-236213D01*
X-30995Y-236613D01*
X-31255Y-236946D01*
X-31602Y-237079D01*
X-31948Y-236946D01*
X-32208Y-236613D01*
X-32382Y-236213D01*
X-32512Y-235679D01*
X-32555Y-235079D01*
X-32512Y-234479D01*
X-32382Y-233946D01*
X-32208Y-233546D01*
X-31948Y-233212D01*
X-31602Y-233079D01*
G01X-34048Y-236279D02*
X-34308Y-236746D01*
X-34655Y-237012D01*
X-35045Y-237079D01*
X-35392Y-237012D01*
X-35738Y-236679D01*
X-35955Y-236279D01*
X-35998Y-235879D01*
X-35912Y-235413D01*
X-35608Y-235079D01*
X-35305Y-234946D01*
X-34915D01*
G01X-35305D02*
X-35565Y-234746D01*
X-35782Y-234412D01*
X-35868Y-234012D01*
X-35782Y-233612D01*
X-35565Y-233279D01*
X-35175Y-233079D01*
X-34785Y-233146D01*
X-34395Y-233413D01*
G01X-28202Y-231212D02*
X-28115Y-231146D01*
Y-231012D01*
X-28202Y-230946D01*
X-28288Y-231012D01*
Y-231146D01*
X-28202Y-231212D01*
G01X-31602Y-231079D02*
Y-227079D01*
X-31082Y-227879D01*
G01Y-231079D02*
X-32121D01*
G01X-13248Y-225579D02*
Y-221579D01*
X-14115D01*
X-14462Y-221779D01*
X-14722Y-222046D01*
X-14938Y-222446D01*
X-15112Y-222913D01*
X-15155Y-223579D01*
X-15112Y-224246D01*
X-14938Y-224712D01*
X-14722Y-225112D01*
X-14462Y-225379D01*
X-14115Y-225579D01*
X-13248D01*
G01X-18468D02*
X-16735D01*
Y-221579D01*
X-18468D01*
G01X-17775Y-223512D02*
X-16735D01*
G01X-21955Y-221912D02*
X-21695Y-221712D01*
X-21392Y-221579D01*
X-21045D01*
X-20655Y-221779D01*
X-20352Y-222112D01*
X-20135Y-222513D01*
X-19962Y-223179D01*
X-19918Y-223779D01*
X-20005Y-224379D01*
X-20135Y-224779D01*
X-20395Y-225179D01*
X-20698Y-225446D01*
X-21002Y-225579D01*
X-21305D01*
X-21608Y-225446D01*
X-21868Y-225246D01*
X-22085Y-224979D01*
G01X-23882Y-221579D02*
X-24922D01*
G01X-24402D02*
Y-225579D01*
G01X-23882D02*
X-24922D01*
G01X-26675D02*
Y-221579D01*
X-27802Y-224913D01*
X-28928Y-221579D01*
Y-225579D01*
G01X-30118D02*
X-31202Y-221579D01*
X-32285Y-225579D01*
G01X-31895Y-224179D02*
X-30508D01*
G01X-33735Y-221579D02*
Y-225579D01*
X-35468D01*
G01X-15292Y-237079D02*
X-17112Y-233079D01*
G01X-15292D02*
X-17112Y-237079D01*
G01X-18692D02*
X-20512Y-233079D01*
G01X-18692D02*
X-20512Y-237079D01*
G01X-18692Y-231079D02*
X-20512Y-227079D01*
G01X-18692D02*
X-20512Y-231079D01*
G01X-22902Y-228879D02*
X-25902D01*
G01X-22902Y-231079D02*
X-25902D01*
G01X-24402Y-227379D02*
Y-230379D01*
G01X-22902Y-237079D02*
X-25902D01*
G01X-24402Y-233379D02*
Y-236379D01*
G01X-22902Y-234879D02*
X-25902D01*
G01X-8902Y-227079D02*
X193598D01*
G01X-8902Y-204579D02*
X193598D01*
G01X-28000Y-38000D02*
X390331D01*
G01X-28000Y274220D02*
Y-38000D01*
G01X-8000Y244220D02*
Y-8000D01*
G01X370331D02*
X-8000D01*
G01X0Y47100D02*
Y53100D01*
G03X-4000Y57100I-4000J0D01*
G03X-8000Y53100I0J-4000D01*
G01Y47100D01*
G01Y79900D02*
Y73900D01*
G03X-4000Y69900I4000J0D01*
G03X0Y73900I0J4000D01*
G01Y79900D01*
G01Y163600D02*
Y169600D01*
G03X-4000Y173600I-4000J0D01*
G03X-8000Y169600I0J-4000D01*
G01Y163600D01*
G01Y196400D02*
Y190400D01*
G03X-4000Y186400I4000J0D01*
G03X0Y190400I0J4000D01*
G01Y196400D01*
G01X390331Y274220D02*
X-28000D01*
G01X-8000Y244220D02*
X204850D01*
G01X26098Y-227079D02*
Y-249579D01*
G01X20232Y-234579D02*
Y-228579D01*
X18565D01*
X18032Y-228879D01*
X17698Y-229279D01*
X17565Y-230079D01*
X17698Y-230879D01*
X18098Y-231379D01*
X18565Y-231679D01*
X20232D01*
G01X18565D02*
X17565Y-234579D01*
G01X12365D02*
X15032D01*
Y-228579D01*
X12365D01*
G01X13432Y-231479D02*
X15032D01*
G01X10165Y-228579D02*
X8498Y-234579D01*
X6832Y-228579D01*
G01X3298Y-234779D02*
X3432Y-234679D01*
Y-234479D01*
X3298Y-234379D01*
X3165Y-234479D01*
Y-234679D01*
X3298Y-234779D01*
G01X0Y236220D02*
Y0D01*
X196850D01*
Y236220D01*
X0D01*
G01X33600Y-8000D02*
X39600D01*
G03X43600Y-4000I0J4000D01*
G03X39600Y0I-4000J0D01*
G01X33600D01*
G01Y236220D02*
X39600D01*
G03X43600Y240220I0J4000D01*
G03X39600Y244220I-4000J0D01*
G01X33600D01*
G01X143618Y-223913D02*
X143192Y-224329D01*
X142712Y-224579D01*
X142285D01*
X141858Y-224329D01*
X141538Y-223913D01*
X141378Y-223329D01*
X141485Y-222746D01*
X141752Y-222246D01*
X142232Y-221912D01*
X142872Y-221746D01*
X143245Y-221412D01*
X143405Y-220829D01*
X143298Y-220246D01*
X143032Y-219829D01*
X142658Y-219579D01*
X142285D01*
X141912Y-219746D01*
X141592Y-220162D01*
G01X137232Y-224579D02*
X139365D01*
Y-219579D01*
X137232D01*
G01X138085Y-221996D02*
X139365D01*
G01X135325Y-224579D02*
Y-219579D01*
X132872Y-224579D01*
Y-219579D01*
G01X131018Y-223913D02*
X130592Y-224329D01*
X130112Y-224579D01*
X129685D01*
X129258Y-224329D01*
X128938Y-223913D01*
X128778Y-223329D01*
X128885Y-222746D01*
X129152Y-222246D01*
X129632Y-221912D01*
X130272Y-221746D01*
X130645Y-221412D01*
X130805Y-220829D01*
X130698Y-220246D01*
X130432Y-219829D01*
X130058Y-219579D01*
X129685D01*
X129312Y-219746D01*
X128992Y-220162D01*
G01X125698Y-224579D02*
X126125Y-224496D01*
X126498Y-224162D01*
X126818Y-223662D01*
X127032Y-223079D01*
X127138Y-222412D01*
Y-221746D01*
X127032Y-221079D01*
X126818Y-220496D01*
X126498Y-219996D01*
X126125Y-219662D01*
X125698Y-219579D01*
X125272Y-219662D01*
X124898Y-219996D01*
X124578Y-220496D01*
X124365Y-221079D01*
X124258Y-221746D01*
Y-222412D01*
X124365Y-223079D01*
X124578Y-223662D01*
X124898Y-224162D01*
X125272Y-224496D01*
X125698Y-224579D01*
G01X122565D02*
Y-219579D01*
X121232D01*
X120805Y-219829D01*
X120538Y-220162D01*
X120432Y-220829D01*
X120538Y-221496D01*
X120858Y-221912D01*
X121232Y-222162D01*
X122565D01*
G01X121232D02*
X120432Y-224579D01*
G01X118418Y-223913D02*
X117992Y-224329D01*
X117512Y-224579D01*
X117085D01*
X116658Y-224329D01*
X116338Y-223913D01*
X116178Y-223329D01*
X116285Y-222746D01*
X116552Y-222246D01*
X117032Y-221912D01*
X117672Y-221746D01*
X118045Y-221412D01*
X118205Y-220829D01*
X118098Y-220246D01*
X117832Y-219829D01*
X117458Y-219579D01*
X117085D01*
X116712Y-219746D01*
X116392Y-220162D01*
G01X114698Y-226246D02*
X111498D01*
G01X107832Y-224579D02*
X109965D01*
Y-219579D01*
X107832D01*
G01X108685Y-221996D02*
X109965D01*
G01X105818Y-224579D02*
X103578Y-219579D01*
G01X105818D02*
X103578Y-224579D01*
G01X101565D02*
Y-219579D01*
X100285D01*
X99858Y-219829D01*
X99538Y-220412D01*
X99432Y-221079D01*
X99538Y-221746D01*
X99805Y-222246D01*
X100285Y-222496D01*
X101565D01*
G01X96298Y-224579D02*
X96725Y-224496D01*
X97098Y-224162D01*
X97418Y-223662D01*
X97632Y-223079D01*
X97738Y-222412D01*
Y-221746D01*
X97632Y-221079D01*
X97418Y-220496D01*
X97098Y-219996D01*
X96725Y-219662D01*
X96298Y-219579D01*
X95872Y-219662D01*
X95498Y-219996D01*
X95178Y-220496D01*
X94965Y-221079D01*
X94858Y-221746D01*
Y-222412D01*
X94965Y-223079D01*
X95178Y-223662D01*
X95498Y-224162D01*
X95872Y-224496D01*
X96298Y-224579D01*
G01X93698Y-226246D02*
X90498D01*
G01X89072Y-224579D02*
Y-219579D01*
X88005D01*
X87578Y-219829D01*
X87258Y-220162D01*
X86992Y-220662D01*
X86778Y-221246D01*
X86725Y-222079D01*
X86778Y-222913D01*
X86992Y-223496D01*
X87258Y-223996D01*
X87578Y-224329D01*
X88005Y-224579D01*
X89072D01*
G01X82632D02*
X84765D01*
Y-219579D01*
X82632D01*
G01X83485Y-221996D02*
X84765D01*
G01X80885Y-224579D02*
Y-219579D01*
X79498Y-223746D01*
X78112Y-219579D01*
Y-224579D01*
G01X75298D02*
X75725Y-224496D01*
X76098Y-224162D01*
X76418Y-223662D01*
X76632Y-223079D01*
X76738Y-222412D01*
Y-221746D01*
X76632Y-221079D01*
X76418Y-220496D01*
X76098Y-219996D01*
X75725Y-219662D01*
X75298Y-219579D01*
X74872Y-219662D01*
X74498Y-219996D01*
X74178Y-220496D01*
X73965Y-221079D01*
X73858Y-221746D01*
Y-222412D01*
X73965Y-223079D01*
X74178Y-223662D01*
X74498Y-224162D01*
X74872Y-224496D01*
X75298Y-224579D01*
G01X72698Y-226246D02*
X69498D01*
G01X67965Y-219579D02*
Y-224579D01*
X65832D01*
G01X61632D02*
X63765D01*
Y-219579D01*
X61632D01*
G01X62485Y-221996D02*
X63765D01*
G01X59672Y-224579D02*
Y-219579D01*
X58605D01*
X58178Y-219829D01*
X57858Y-220162D01*
X57592Y-220662D01*
X57378Y-221246D01*
X57325Y-222079D01*
X57378Y-222913D01*
X57592Y-223496D01*
X57858Y-223996D01*
X58178Y-224329D01*
X58605Y-224579D01*
X59672D01*
G01X55898Y-226246D02*
X52698D01*
G01X51485Y-224579D02*
Y-219579D01*
X50098Y-223746D01*
X48712Y-219579D01*
Y-224579D01*
G01X44725Y-219996D02*
X45045Y-219746D01*
X45418Y-219579D01*
X45845D01*
X46325Y-219829D01*
X46698Y-220246D01*
X46965Y-220746D01*
X47178Y-221579D01*
X47232Y-222329D01*
X47125Y-223079D01*
X46965Y-223579D01*
X46645Y-224079D01*
X46272Y-224412D01*
X45898Y-224579D01*
X45525D01*
X45152Y-224412D01*
X44832Y-224162D01*
X44565Y-223829D01*
G01X42872Y-219579D02*
Y-223162D01*
X42658Y-223913D01*
X42232Y-224412D01*
X41698Y-224579D01*
X41165Y-224412D01*
X40738Y-223913D01*
X40525Y-223162D01*
Y-219579D01*
G01X66400Y0D02*
X60400D01*
G03X56400Y-4000I0J-4000D01*
G03X60400Y-8000I4000J0D01*
G01X66400D01*
G01Y244220D02*
X60400D01*
G03X56400Y240220I0J-4000D01*
G03X60400Y236220I4000J0D01*
G01X66400D01*
G01X190432Y-234579D02*
Y-228579D01*
X188832D01*
X188298Y-228879D01*
X187898Y-229579D01*
X187765Y-230379D01*
X187898Y-231179D01*
X188232Y-231779D01*
X188832Y-232079D01*
X190432D01*
G01X185232Y-234579D02*
Y-228579D01*
X183565D01*
X183032Y-228879D01*
X182698Y-229279D01*
X182565Y-230079D01*
X182698Y-230879D01*
X183098Y-231379D01*
X183565Y-231679D01*
X185232D01*
G01X183565D02*
X182565Y-234579D01*
G01X178698D02*
X179232Y-234479D01*
X179698Y-234079D01*
X180098Y-233479D01*
X180365Y-232779D01*
X180498Y-231979D01*
Y-231179D01*
X180365Y-230379D01*
X180098Y-229679D01*
X179698Y-229079D01*
X179232Y-228679D01*
X178698Y-228579D01*
X178165Y-228679D01*
X177698Y-229079D01*
X177298Y-229679D01*
X177032Y-230379D01*
X176898Y-231179D01*
Y-231979D01*
X177032Y-232779D01*
X177298Y-233479D01*
X177698Y-234079D01*
X178165Y-234479D01*
X178698Y-234579D01*
G01X174832Y-233379D02*
X174498Y-233979D01*
X174098Y-234379D01*
X173632Y-234579D01*
X173098Y-234379D01*
X172698Y-233979D01*
X172298Y-233379D01*
X172165Y-232579D01*
Y-228579D01*
G01X166965Y-234579D02*
X169632D01*
Y-228579D01*
X166965D01*
G01X168032Y-231479D02*
X169632D01*
G01X161632Y-229079D02*
X162032Y-228779D01*
X162498Y-228579D01*
X163032D01*
X163632Y-228879D01*
X164098Y-229379D01*
X164432Y-229979D01*
X164698Y-230979D01*
X164765Y-231879D01*
X164632Y-232779D01*
X164432Y-233379D01*
X164032Y-233979D01*
X163565Y-234379D01*
X163098Y-234579D01*
X162632D01*
X162165Y-234379D01*
X161765Y-234079D01*
X161432Y-233679D01*
G01X157898Y-228579D02*
Y-234579D01*
G01X159432Y-228579D02*
X156365D01*
G01X149032Y-234579D02*
Y-228579D01*
X145965Y-234579D01*
Y-228579D01*
G01X143765D02*
Y-232879D01*
X143498Y-233779D01*
X142965Y-234379D01*
X142298Y-234579D01*
X141632Y-234379D01*
X141098Y-233779D01*
X140832Y-232879D01*
Y-228579D01*
G01X138832Y-234579D02*
Y-228579D01*
X137098Y-233579D01*
X135365Y-228579D01*
Y-234579D01*
G01X131365Y-231379D02*
X131098Y-231079D01*
X130898Y-230579D01*
X130765Y-229879D01*
X130898Y-229279D01*
X131165Y-228879D01*
X131632Y-228579D01*
X133432D01*
Y-234579D01*
X131232D01*
X130765Y-234179D01*
X130498Y-233579D01*
X130365Y-232879D01*
X130498Y-232179D01*
X130898Y-231579D01*
X131365Y-231379D01*
X133432D01*
G01X125365Y-234579D02*
X128032D01*
Y-228579D01*
X125365D01*
G01X126432Y-231479D02*
X128032D01*
G01X122832Y-234579D02*
Y-228579D01*
X121165D01*
X120632Y-228879D01*
X120298Y-229279D01*
X120165Y-230079D01*
X120298Y-230879D01*
X120698Y-231379D01*
X121165Y-231679D01*
X122832D01*
G01X121165D02*
X120165Y-234579D01*
G01X116298Y-234779D02*
X116432Y-234679D01*
Y-234479D01*
X116298Y-234379D01*
X116165Y-234479D01*
Y-234679D01*
X116298Y-234779D01*
G01Y-232079D02*
X116432Y-231979D01*
Y-231779D01*
X116298Y-231679D01*
X116165Y-231779D01*
Y-231979D01*
X116298Y-232079D01*
G01X190432Y-212079D02*
Y-206079D01*
X188832D01*
X188298Y-206379D01*
X187898Y-207079D01*
X187765Y-207879D01*
X187898Y-208679D01*
X188232Y-209279D01*
X188832Y-209579D01*
X190432D01*
G01X185232Y-212079D02*
Y-206079D01*
X183565D01*
X183032Y-206379D01*
X182698Y-206779D01*
X182565Y-207579D01*
X182698Y-208379D01*
X183098Y-208879D01*
X183565Y-209179D01*
X185232D01*
G01X183565D02*
X182565Y-212079D01*
G01X178698D02*
X179232Y-211979D01*
X179698Y-211579D01*
X180098Y-210979D01*
X180365Y-210279D01*
X180498Y-209479D01*
Y-208679D01*
X180365Y-207879D01*
X180098Y-207179D01*
X179698Y-206579D01*
X179232Y-206179D01*
X178698Y-206079D01*
X178165Y-206179D01*
X177698Y-206579D01*
X177298Y-207179D01*
X177032Y-207879D01*
X176898Y-208679D01*
Y-209479D01*
X177032Y-210279D01*
X177298Y-210979D01*
X177698Y-211579D01*
X178165Y-211979D01*
X178698Y-212079D01*
G01X174832Y-210879D02*
X174498Y-211479D01*
X174098Y-211879D01*
X173632Y-212079D01*
X173098Y-211879D01*
X172698Y-211479D01*
X172298Y-210879D01*
X172165Y-210079D01*
Y-206079D01*
G01X166965Y-212079D02*
X169632D01*
Y-206079D01*
X166965D01*
G01X168032Y-208979D02*
X169632D01*
G01X161632Y-206579D02*
X162032Y-206279D01*
X162498Y-206079D01*
X163032D01*
X163632Y-206379D01*
X164098Y-206879D01*
X164432Y-207479D01*
X164698Y-208479D01*
X164765Y-209379D01*
X164632Y-210279D01*
X164432Y-210879D01*
X164032Y-211479D01*
X163565Y-211879D01*
X163098Y-212079D01*
X162632D01*
X162165Y-211879D01*
X161765Y-211579D01*
X161432Y-211179D01*
G01X157898Y-206079D02*
Y-212079D01*
G01X159432Y-206079D02*
X156365D01*
G01X149032Y-212079D02*
Y-206079D01*
X145965Y-212079D01*
Y-206079D01*
G01X143965Y-212079D02*
X142298Y-206079D01*
X140632Y-212079D01*
G01X141232Y-209979D02*
X143365D01*
G01X138832Y-212079D02*
Y-206079D01*
X137098Y-211079D01*
X135365Y-206079D01*
Y-212079D01*
G01X130565D02*
X133232D01*
Y-206079D01*
X130565D01*
G01X131632Y-208979D02*
X133232D01*
G01X126698Y-212279D02*
X126832Y-212179D01*
Y-211979D01*
X126698Y-211879D01*
X126565Y-211979D01*
Y-212179D01*
X126698Y-212279D01*
G01Y-209579D02*
X126832Y-209479D01*
Y-209279D01*
X126698Y-209179D01*
X126565Y-209279D01*
Y-209479D01*
X126698Y-209579D01*
G01X187632Y-176579D02*
X188032Y-176279D01*
X188498Y-176079D01*
X189032D01*
X189632Y-176379D01*
X190098Y-176879D01*
X190432Y-177479D01*
X190698Y-178479D01*
X190765Y-179379D01*
X190632Y-180279D01*
X190432Y-180879D01*
X190032Y-181479D01*
X189565Y-181879D01*
X189098Y-182079D01*
X188632D01*
X188165Y-181879D01*
X187765Y-181579D01*
X187432Y-181179D01*
G01X183898Y-182079D02*
X184432Y-181979D01*
X184898Y-181579D01*
X185298Y-180979D01*
X185565Y-180279D01*
X185698Y-179479D01*
Y-178679D01*
X185565Y-177879D01*
X185298Y-177179D01*
X184898Y-176579D01*
X184432Y-176179D01*
X183898Y-176079D01*
X183365Y-176179D01*
X182898Y-176579D01*
X182498Y-177179D01*
X182232Y-177879D01*
X182098Y-178679D01*
Y-179479D01*
X182232Y-180279D01*
X182498Y-180979D01*
X182898Y-181579D01*
X183365Y-181979D01*
X183898Y-182079D01*
G01X180432D02*
Y-176079D01*
X178698Y-181079D01*
X176965Y-176079D01*
Y-182079D01*
G01X174832D02*
Y-176079D01*
X173232D01*
X172698Y-176379D01*
X172298Y-177079D01*
X172165Y-177879D01*
X172298Y-178679D01*
X172632Y-179279D01*
X173232Y-179579D01*
X174832D01*
G01X169965Y-182079D02*
X168298Y-176079D01*
X166632Y-182079D01*
G01X167232Y-179979D02*
X169365D01*
G01X164632Y-182079D02*
Y-176079D01*
X161565Y-182079D01*
Y-176079D01*
G01X157898Y-182079D02*
Y-179379D01*
X159232Y-176079D01*
G01X156565D02*
X157898Y-179379D01*
G01X149032Y-182079D02*
Y-176079D01*
X145965Y-182079D01*
Y-176079D01*
G01X143965Y-182079D02*
X142298Y-176079D01*
X140632Y-182079D01*
G01X141232Y-179979D02*
X143365D01*
G01X138832Y-182079D02*
Y-176079D01*
X137098Y-181079D01*
X135365Y-176079D01*
Y-182079D01*
G01X130565D02*
X133232D01*
Y-176079D01*
X130565D01*
G01X131632Y-178979D02*
X133232D01*
G01X126698Y-182279D02*
X126832Y-182179D01*
Y-181979D01*
X126698Y-181879D01*
X126565Y-181979D01*
Y-182179D01*
X126698Y-182279D01*
G01Y-179579D02*
X126832Y-179479D01*
Y-179279D01*
X126698Y-179179D01*
X126565Y-179279D01*
Y-179479D01*
X126698Y-179579D01*
G01X162900Y0D02*
X156900D01*
G03X152900Y-4000I0J-4000D01*
G03X156900Y-8000I4000J0D01*
G01X162900D01*
G01X130100D02*
X136100D01*
G03X140100Y-4000I0J4000D01*
G03X136100Y0I-4000J0D01*
G01X130100D01*
G01Y236220D02*
X136100D01*
G03X140100Y240220I0J4000D01*
G03X136100Y244220I-4000J0D01*
G01X130100D01*
G01X162900D02*
X156900D01*
G03X152900Y240220I0J-4000D01*
G03X156900Y236220I4000J0D01*
G01X162900D01*
G01X193598Y-174579D02*
Y-249579D01*
G01X272065Y-224579D02*
Y-219579D01*
X270732D01*
X270305Y-219829D01*
X270038Y-220162D01*
X269932Y-220829D01*
X270038Y-221496D01*
X270358Y-221912D01*
X270732Y-222162D01*
X272065D01*
G01X270732D02*
X269932Y-224579D01*
G01X266798D02*
X267225Y-224496D01*
X267598Y-224162D01*
X267918Y-223662D01*
X268132Y-223079D01*
X268238Y-222412D01*
Y-221746D01*
X268132Y-221079D01*
X267918Y-220496D01*
X267598Y-219996D01*
X267225Y-219662D01*
X266798Y-219579D01*
X266372Y-219662D01*
X265998Y-219996D01*
X265678Y-220496D01*
X265465Y-221079D01*
X265358Y-221746D01*
Y-222412D01*
X265465Y-223079D01*
X265678Y-223662D01*
X265998Y-224162D01*
X266372Y-224496D01*
X266798Y-224579D01*
G01X263718D02*
Y-219579D01*
G01X261478D02*
Y-224579D01*
G01Y-222079D02*
X263718D01*
G01X259785Y-224579D02*
Y-219579D01*
X258398Y-223746D01*
X257012Y-219579D01*
Y-224579D01*
G01X251118Y-223913D02*
X250692Y-224329D01*
X250212Y-224579D01*
X249785D01*
X249358Y-224329D01*
X249038Y-223913D01*
X248878Y-223329D01*
X248985Y-222746D01*
X249252Y-222246D01*
X249732Y-221912D01*
X250372Y-221746D01*
X250745Y-221412D01*
X250905Y-220829D01*
X250798Y-220246D01*
X250532Y-219829D01*
X250158Y-219579D01*
X249785D01*
X249412Y-219746D01*
X249092Y-220162D01*
G01X244732Y-224579D02*
X246865D01*
Y-219579D01*
X244732D01*
G01X245585Y-221996D02*
X246865D01*
G01X242985Y-224579D02*
Y-219579D01*
X241598Y-223746D01*
X240212Y-219579D01*
Y-224579D01*
G01X238038Y-219579D02*
X236758D01*
G01X237398D02*
Y-224579D01*
G01X238038D02*
X236758D01*
G01X232025Y-219996D02*
X232345Y-219746D01*
X232718Y-219579D01*
X233145D01*
X233625Y-219829D01*
X233998Y-220246D01*
X234265Y-220746D01*
X234478Y-221579D01*
X234532Y-222329D01*
X234425Y-223079D01*
X234265Y-223579D01*
X233945Y-224079D01*
X233572Y-224412D01*
X233198Y-224579D01*
X232825D01*
X232452Y-224412D01*
X232132Y-224162D01*
X231865Y-223829D01*
G01X228998Y-224579D02*
X229425Y-224496D01*
X229798Y-224162D01*
X230118Y-223662D01*
X230332Y-223079D01*
X230438Y-222412D01*
Y-221746D01*
X230332Y-221079D01*
X230118Y-220496D01*
X229798Y-219996D01*
X229425Y-219662D01*
X228998Y-219579D01*
X228572Y-219662D01*
X228198Y-219996D01*
X227878Y-220496D01*
X227665Y-221079D01*
X227558Y-221746D01*
Y-222412D01*
X227665Y-223079D01*
X227878Y-223662D01*
X228198Y-224162D01*
X228572Y-224496D01*
X228998Y-224579D01*
G01X226025D02*
Y-219579D01*
X223572Y-224579D01*
Y-219579D01*
G01X221772Y-224579D02*
Y-219579D01*
X220705D01*
X220278Y-219829D01*
X219958Y-220162D01*
X219692Y-220662D01*
X219478Y-221246D01*
X219425Y-222079D01*
X219478Y-222913D01*
X219692Y-223496D01*
X219958Y-223996D01*
X220278Y-224329D01*
X220705Y-224579D01*
X221772D01*
G01X217572Y-219579D02*
Y-223162D01*
X217358Y-223913D01*
X216932Y-224412D01*
X216398Y-224579D01*
X215865Y-224412D01*
X215438Y-223913D01*
X215225Y-223162D01*
Y-219579D01*
G01X211025Y-219996D02*
X211345Y-219746D01*
X211718Y-219579D01*
X212145D01*
X212625Y-219829D01*
X212998Y-220246D01*
X213265Y-220746D01*
X213478Y-221579D01*
X213532Y-222329D01*
X213425Y-223079D01*
X213265Y-223579D01*
X212945Y-224079D01*
X212572Y-224412D01*
X212198Y-224579D01*
X211825D01*
X211452Y-224412D01*
X211132Y-224162D01*
X210865Y-223829D01*
G01X207998Y-219579D02*
Y-224579D01*
G01X209225Y-219579D02*
X206772D01*
G01X203798Y-224579D02*
X204225Y-224496D01*
X204598Y-224162D01*
X204918Y-223662D01*
X205132Y-223079D01*
X205238Y-222412D01*
Y-221746D01*
X205132Y-221079D01*
X204918Y-220496D01*
X204598Y-219996D01*
X204225Y-219662D01*
X203798Y-219579D01*
X203372Y-219662D01*
X202998Y-219996D01*
X202678Y-220496D01*
X202465Y-221079D01*
X202358Y-221746D01*
Y-222412D01*
X202465Y-223079D01*
X202678Y-223662D01*
X202998Y-224162D01*
X203372Y-224496D01*
X203798Y-224579D01*
G01X200665D02*
Y-219579D01*
X199332D01*
X198905Y-219829D01*
X198638Y-220162D01*
X198532Y-220829D01*
X198638Y-221496D01*
X198958Y-221912D01*
X199332Y-222162D01*
X200665D01*
G01X199332D02*
X198532Y-224579D01*
G01X193598Y-226579D02*
X311098D01*
G01X193598Y-237579D02*
X311098D01*
G01X193598Y-215579D02*
X311098D01*
G01X193598Y-204579D02*
X311098D01*
G01X204850Y0D02*
X362331D01*
Y118110D01*
X204850D01*
Y0D01*
G01Y47100D02*
Y53100D01*
G03X200850Y57100I-4000J0D01*
G03X196850Y53100I0J-4000D01*
G01Y47100D01*
G01Y79900D02*
Y73900D01*
G03X200850Y69900I4000J0D01*
G03X204850Y73900I0J4000D01*
G01Y79900D01*
G01Y224535D02*
Y126110D01*
G01D02*
X354457D01*
G01X204850Y141200D02*
Y147200D01*
G03X200850Y151200I-4000J0D01*
G03X196850Y147200I0J-4000D01*
G01Y141200D01*
G01Y174000D02*
Y168000D01*
G03X200850Y164000I4000J0D01*
G03X204850Y168000I0J4000D01*
G01Y174000D01*
G01Y232535D02*
X362457D01*
G01X204850Y244220D02*
Y232483D01*
G01X354457Y224535D02*
X204850D01*
G01X265565Y-213579D02*
Y-208579D01*
X264285D01*
X263858Y-208829D01*
X263538Y-209412D01*
X263432Y-210079D01*
X263538Y-210746D01*
X263805Y-211246D01*
X264285Y-211496D01*
X265565D01*
G01X260298Y-208579D02*
Y-213579D01*
G01X261525Y-208579D02*
X259072D01*
G01X255032Y-213579D02*
X257165D01*
Y-208579D01*
X255032D01*
G01X255885Y-210996D02*
X257165D01*
G01X250725Y-208996D02*
X251045Y-208746D01*
X251418Y-208579D01*
X251845D01*
X252325Y-208829D01*
X252698Y-209246D01*
X252965Y-209746D01*
X253178Y-210579D01*
X253232Y-211329D01*
X253125Y-212079D01*
X252965Y-212579D01*
X252645Y-213079D01*
X252272Y-213412D01*
X251898Y-213579D01*
X251525D01*
X251152Y-213412D01*
X250832Y-213162D01*
X250565Y-212829D01*
G01X278512Y-231412D02*
X278192Y-230912D01*
X277818Y-230662D01*
X277392Y-230579D01*
X276858Y-230746D01*
X276485Y-231163D01*
X276378Y-231662D01*
X276432Y-232163D01*
X276645Y-232579D01*
X277712Y-233412D01*
X278192Y-233996D01*
X278512Y-234829D01*
X278618Y-235579D01*
X276378D01*
G01X273298Y-230579D02*
X273725Y-230746D01*
X274045Y-231163D01*
X274258Y-231662D01*
X274418Y-232329D01*
X274472Y-233079D01*
X274418Y-233829D01*
X274258Y-234496D01*
X274045Y-234996D01*
X273725Y-235413D01*
X273298Y-235579D01*
X272872Y-235413D01*
X272552Y-234996D01*
X272338Y-234496D01*
X272178Y-233829D01*
X272125Y-233079D01*
X272178Y-232329D01*
X272338Y-231662D01*
X272552Y-231163D01*
X272872Y-230746D01*
X273298Y-230579D01*
G01X269098Y-235579D02*
Y-230579D01*
X269738Y-231579D01*
G01Y-235579D02*
X268458D01*
G01X265912Y-233496D02*
X265538Y-232912D01*
X265218Y-232579D01*
X264792Y-232412D01*
X264418Y-232579D01*
X264152Y-232912D01*
X263938Y-233412D01*
X263885Y-233996D01*
X263938Y-234496D01*
X264152Y-234996D01*
X264472Y-235413D01*
X264845Y-235579D01*
X265272Y-235413D01*
X265645Y-234913D01*
X265858Y-234162D01*
X265912Y-233329D01*
X265805Y-232246D01*
X265645Y-231662D01*
X265378Y-231079D01*
X265005Y-230662D01*
X264632Y-230579D01*
X264258Y-230746D01*
X263992Y-231163D01*
G01X261392Y-233912D02*
X260005D01*
G01X256498Y-230579D02*
X256925Y-230746D01*
X257245Y-231163D01*
X257458Y-231662D01*
X257618Y-232329D01*
X257672Y-233079D01*
X257618Y-233829D01*
X257458Y-234496D01*
X257245Y-234996D01*
X256925Y-235413D01*
X256498Y-235579D01*
X256072Y-235413D01*
X255752Y-234996D01*
X255538Y-234496D01*
X255378Y-233829D01*
X255325Y-233079D01*
X255378Y-232329D01*
X255538Y-231662D01*
X255752Y-231163D01*
X256072Y-230746D01*
X256498Y-230579D01*
G01X253472Y-234829D02*
X253152Y-235246D01*
X252778Y-235496D01*
X252298Y-235579D01*
X251818Y-235413D01*
X251445Y-235079D01*
X251178Y-234496D01*
X251125Y-233829D01*
X251232Y-233162D01*
X251498Y-232746D01*
X251872Y-232412D01*
X252245Y-232329D01*
X252618Y-232412D01*
X253098Y-232746D01*
X252938Y-230579D01*
X251498D01*
G01X248792Y-233912D02*
X247405D01*
G01X243898Y-235579D02*
Y-230579D01*
X244538Y-231579D01*
G01Y-235579D02*
X243258D01*
G01X240712Y-231412D02*
X240392Y-230912D01*
X240018Y-230662D01*
X239592Y-230579D01*
X239058Y-230746D01*
X238685Y-231163D01*
X238578Y-231662D01*
X238632Y-232163D01*
X238845Y-232579D01*
X239912Y-233412D01*
X240392Y-233996D01*
X240712Y-234829D01*
X240818Y-235579D01*
X238578D01*
G01X304848Y-198579D02*
X304182Y-199204D01*
X303432Y-199579D01*
X302765D01*
X302098Y-199204D01*
X301598Y-198579D01*
X301348Y-197704D01*
X301515Y-196829D01*
X301932Y-196079D01*
X302682Y-195579D01*
X303682Y-195329D01*
X304265Y-194829D01*
X304515Y-193954D01*
X304348Y-193079D01*
X303932Y-192454D01*
X303348Y-192079D01*
X302765D01*
X302182Y-192329D01*
X301682Y-192954D01*
G01X294932Y-199579D02*
X298265D01*
Y-192079D01*
X294932D01*
G01X296265Y-195704D02*
X298265D01*
G01X288265Y-192704D02*
X288765Y-192329D01*
X289348Y-192079D01*
X290015D01*
X290765Y-192454D01*
X291348Y-193079D01*
X291765Y-193829D01*
X292099Y-195079D01*
X292182Y-196204D01*
X292015Y-197329D01*
X291765Y-198079D01*
X291265Y-198829D01*
X290682Y-199329D01*
X290099Y-199579D01*
X289515D01*
X288932Y-199329D01*
X288432Y-198954D01*
X288015Y-198454D01*
G01X283598Y-199579D02*
X284265Y-199454D01*
X284848Y-198954D01*
X285348Y-198204D01*
X285682Y-197329D01*
X285849Y-196329D01*
Y-195329D01*
X285682Y-194329D01*
X285348Y-193454D01*
X284848Y-192704D01*
X284265Y-192204D01*
X283598Y-192079D01*
X282932Y-192204D01*
X282348Y-192704D01*
X281848Y-193454D01*
X281515Y-194329D01*
X281348Y-195329D01*
Y-196329D01*
X281515Y-197329D01*
X281848Y-198204D01*
X282348Y-198954D01*
X282932Y-199454D01*
X283598Y-199579D01*
G01X279015D02*
Y-192079D01*
X275182Y-199579D01*
Y-192079D01*
G01X272432Y-199579D02*
Y-192079D01*
X270765D01*
X270098Y-192454D01*
X269598Y-192954D01*
X269182Y-193704D01*
X268848Y-194579D01*
X268765Y-195829D01*
X268848Y-197079D01*
X269182Y-197954D01*
X269598Y-198704D01*
X270098Y-199204D01*
X270765Y-199579D01*
X272432D01*
G01X266182D02*
X264098Y-192079D01*
X262015Y-199579D01*
G01X262765Y-196954D02*
X265432D01*
G01X259265Y-199579D02*
Y-192079D01*
X257182D01*
X256515Y-192454D01*
X256098Y-192954D01*
X255932Y-193954D01*
X256098Y-194954D01*
X256598Y-195579D01*
X257182Y-195954D01*
X259265D01*
G01X257182D02*
X255932Y-199579D01*
G01X251099D02*
Y-196204D01*
X252765Y-192079D01*
G01X249432D02*
X251099Y-196204D01*
G01X245682Y-197079D02*
X243515D01*
G01X239848Y-198579D02*
X239182Y-199204D01*
X238432Y-199579D01*
X237765D01*
X237098Y-199204D01*
X236598Y-198579D01*
X236348Y-197704D01*
X236515Y-196829D01*
X236932Y-196079D01*
X237682Y-195579D01*
X238682Y-195329D01*
X239265Y-194829D01*
X239515Y-193954D01*
X239348Y-193079D01*
X238932Y-192454D01*
X238348Y-192079D01*
X237765D01*
X237182Y-192329D01*
X236682Y-192954D01*
G01X232598Y-192079D02*
X230599D01*
G01X231598D02*
Y-199579D01*
G01X232598D02*
X230599D01*
G01X226932D02*
Y-192079D01*
X225265D01*
X224598Y-192454D01*
X224098Y-192954D01*
X223682Y-193704D01*
X223348Y-194579D01*
X223265Y-195829D01*
X223348Y-197079D01*
X223682Y-197954D01*
X224098Y-198704D01*
X224598Y-199204D01*
X225265Y-199579D01*
X226932D01*
G01X216932D02*
X220265D01*
Y-192079D01*
X216932D01*
G01X218265Y-195704D02*
X220265D01*
G01X303848Y-186079D02*
X303182Y-186704D01*
X302432Y-187079D01*
X301765D01*
X301098Y-186704D01*
X300598Y-186079D01*
X300348Y-185204D01*
X300515Y-184329D01*
X300932Y-183579D01*
X301682Y-183079D01*
X302682Y-182829D01*
X303265Y-182329D01*
X303515Y-181454D01*
X303348Y-180579D01*
X302932Y-179954D01*
X302348Y-179579D01*
X301765D01*
X301182Y-179829D01*
X300682Y-180454D01*
G01X295598Y-187079D02*
X296265Y-186954D01*
X296848Y-186454D01*
X297348Y-185704D01*
X297682Y-184829D01*
X297848Y-183829D01*
Y-182829D01*
X297682Y-181829D01*
X297348Y-180954D01*
X296848Y-180204D01*
X296265Y-179704D01*
X295598Y-179579D01*
X294932Y-179704D01*
X294348Y-180204D01*
X293848Y-180954D01*
X293515Y-181829D01*
X293348Y-182829D01*
Y-183829D01*
X293515Y-184829D01*
X293848Y-185704D01*
X294348Y-186454D01*
X294932Y-186954D01*
X295598Y-187079D01*
G01X290765Y-179579D02*
Y-187079D01*
X287432D01*
G01X284432D02*
Y-179579D01*
X282765D01*
X282098Y-179954D01*
X281598Y-180454D01*
X281182Y-181204D01*
X280848Y-182079D01*
X280765Y-183329D01*
X280848Y-184579D01*
X281182Y-185454D01*
X281598Y-186204D01*
X282098Y-186704D01*
X282765Y-187079D01*
X284432D01*
G01X274432D02*
X277765D01*
Y-179579D01*
X274432D01*
G01X275765Y-183204D02*
X277765D01*
G01X271265Y-187079D02*
Y-179579D01*
X269182D01*
X268515Y-179954D01*
X268098Y-180454D01*
X267932Y-181454D01*
X268098Y-182454D01*
X268598Y-183079D01*
X269182Y-183454D01*
X271265D01*
G01X269182D02*
X267932Y-187079D01*
G01X265265D02*
Y-179579D01*
X263099Y-185829D01*
X260932Y-179579D01*
Y-187079D01*
G01X258682D02*
X256598Y-179579D01*
X254515Y-187079D01*
G01X255265Y-184454D02*
X257932D01*
G01X251848Y-186079D02*
X251182Y-186704D01*
X250432Y-187079D01*
X249765D01*
X249098Y-186704D01*
X248598Y-186079D01*
X248348Y-185204D01*
X248515Y-184329D01*
X248932Y-183579D01*
X249682Y-183079D01*
X250682Y-182829D01*
X251265Y-182329D01*
X251515Y-181454D01*
X251348Y-180579D01*
X250932Y-179954D01*
X250348Y-179579D01*
X249765D01*
X249182Y-179829D01*
X248682Y-180454D01*
G01X245432Y-187079D02*
Y-179579D01*
G01X242265D02*
X245432Y-184204D01*
G01X241765Y-187079D02*
X244015Y-182079D01*
G01X260400Y0D02*
X254400D01*
G03X250400Y-4000I0J-4000D01*
G03X254400Y-8000I4000J0D01*
G01X260400D01*
G01X227600D02*
X233600D01*
G03X237600Y-4000I0J4000D01*
G03X233600Y0I-4000J0D01*
G01X227600D01*
G01Y118110D02*
X233600D01*
G03X237600Y122110I0J4000D01*
G03X233600Y126110I-4000J0D01*
G01X227600D01*
G01X260400D02*
X254400D01*
G03X250400Y122110I0J-4000D01*
G03X254400Y118110I4000J0D01*
G01X260400D01*
G01Y232535D02*
X254400D01*
G03X250400Y228535I0J-4000D01*
G03X254400Y224535I4000J0D01*
G01X260400D01*
G01X227600D02*
X233600D01*
G03X237600Y228535I0J4000D01*
G03X233600Y232535I-4000J0D01*
G01X227600D01*
G01X305565Y-245579D02*
X305298Y-246079D01*
X304978Y-246412D01*
X304605Y-246579D01*
X304178Y-246412D01*
X303858Y-246079D01*
X303538Y-245579D01*
X303432Y-244912D01*
Y-241579D01*
G01X300298Y-246579D02*
X300725Y-246496D01*
X301098Y-246163D01*
X301418Y-245662D01*
X301632Y-245079D01*
X301738Y-244412D01*
Y-243746D01*
X301632Y-243079D01*
X301418Y-242496D01*
X301098Y-241996D01*
X300725Y-241662D01*
X300298Y-241579D01*
X299872Y-241662D01*
X299498Y-241996D01*
X299178Y-242496D01*
X298965Y-243079D01*
X298858Y-243746D01*
Y-244412D01*
X298965Y-245079D01*
X299178Y-245662D01*
X299498Y-246163D01*
X299872Y-246496D01*
X300298Y-246579D01*
G01X295672Y-243912D02*
X295458Y-243662D01*
X295298Y-243246D01*
X295192Y-242662D01*
X295298Y-242162D01*
X295512Y-241829D01*
X295885Y-241579D01*
X297325D01*
Y-246579D01*
X295565D01*
X295192Y-246246D01*
X294978Y-245746D01*
X294872Y-245162D01*
X294978Y-244579D01*
X295298Y-244079D01*
X295672Y-243912D01*
X297325D01*
G01X292965Y-248246D02*
X291898Y-241579D01*
G01X290832D02*
X291898Y-248246D01*
G01X293498Y-245746D02*
X290298D01*
G01Y-244079D02*
X293498D01*
G01X287698Y-246746D02*
X287805Y-246662D01*
Y-246496D01*
X287698Y-246412D01*
X287592Y-246496D01*
Y-246662D01*
X287698Y-246746D01*
G01Y-244496D02*
X287805Y-244412D01*
Y-244246D01*
X287698Y-244163D01*
X287592Y-244246D01*
Y-244412D01*
X287698Y-244496D01*
G01X305672Y-213579D02*
Y-208579D01*
X304605D01*
X304178Y-208829D01*
X303858Y-209162D01*
X303592Y-209662D01*
X303378Y-210246D01*
X303325Y-211079D01*
X303378Y-211912D01*
X303592Y-212496D01*
X303858Y-212996D01*
X304178Y-213329D01*
X304605Y-213579D01*
X305672D01*
G01X299232D02*
X301365D01*
Y-208579D01*
X299232D01*
G01X300085Y-210996D02*
X301365D01*
G01X297218Y-212913D02*
X296792Y-213329D01*
X296312Y-213579D01*
X295885D01*
X295458Y-213329D01*
X295138Y-212913D01*
X294978Y-212329D01*
X295085Y-211746D01*
X295352Y-211246D01*
X295832Y-210912D01*
X296472Y-210746D01*
X296845Y-210413D01*
X297005Y-209829D01*
X296898Y-209246D01*
X296632Y-208829D01*
X296258Y-208579D01*
X295885D01*
X295512Y-208746D01*
X295192Y-209162D01*
G01X292538Y-208579D02*
X291258D01*
G01X291898D02*
Y-213579D01*
G01X292538D02*
X291258D01*
G01X287378Y-211079D02*
X286312D01*
Y-212579D01*
X286632Y-213079D01*
X287005Y-213412D01*
X287538Y-213579D01*
X288072Y-213412D01*
X288445Y-213079D01*
X288765Y-212579D01*
X288978Y-211996D01*
X289085Y-211329D01*
Y-210746D01*
X288978Y-210246D01*
X288765Y-209662D01*
X288445Y-209162D01*
X288125Y-208829D01*
X287698Y-208579D01*
X287325D01*
X286898Y-208746D01*
X286578Y-209079D01*
G01X284725Y-213579D02*
Y-208579D01*
X282272Y-213579D01*
Y-208579D01*
G01X278232Y-213579D02*
X280365D01*
Y-208579D01*
X278232D01*
G01X279085Y-210996D02*
X280365D01*
G01X276165Y-213579D02*
Y-208579D01*
X274832D01*
X274405Y-208829D01*
X274138Y-209162D01*
X274032Y-209829D01*
X274138Y-210496D01*
X274458Y-210912D01*
X274832Y-211162D01*
X276165D01*
G01X274832D02*
X274032Y-213579D01*
G01X270898Y-213746D02*
X271005Y-213662D01*
Y-213496D01*
X270898Y-213412D01*
X270792Y-213496D01*
Y-213662D01*
X270898Y-213746D01*
G01Y-211496D02*
X271005Y-211412D01*
Y-211246D01*
X270898Y-211162D01*
X270792Y-211246D01*
Y-211412D01*
X270898Y-211496D01*
G01X303325Y-219996D02*
X303645Y-219746D01*
X304018Y-219579D01*
X304445D01*
X304925Y-219829D01*
X305298Y-220246D01*
X305565Y-220746D01*
X305778Y-221579D01*
X305832Y-222329D01*
X305725Y-223079D01*
X305565Y-223579D01*
X305245Y-224079D01*
X304872Y-224412D01*
X304498Y-224579D01*
X304125D01*
X303752Y-224412D01*
X303432Y-224162D01*
X303165Y-223829D01*
G01X301418Y-224579D02*
Y-219579D01*
G01X299178D02*
Y-224579D01*
G01Y-222079D02*
X301418D01*
G01X295032Y-224579D02*
X297165D01*
Y-219579D01*
X295032D01*
G01X295885Y-221996D02*
X297165D01*
G01X290725Y-219996D02*
X291045Y-219746D01*
X291418Y-219579D01*
X291845D01*
X292325Y-219829D01*
X292698Y-220246D01*
X292965Y-220746D01*
X293178Y-221579D01*
X293232Y-222329D01*
X293125Y-223079D01*
X292965Y-223579D01*
X292645Y-224079D01*
X292272Y-224412D01*
X291898Y-224579D01*
X291525D01*
X291152Y-224412D01*
X290832Y-224162D01*
X290565Y-223829D01*
G01X288872Y-224579D02*
Y-219579D01*
G01X286845D02*
X288872Y-222662D01*
G01X286525Y-224579D02*
X287965Y-221246D01*
G01X282432Y-224579D02*
X284565D01*
Y-219579D01*
X282432D01*
G01X283285Y-221996D02*
X284565D01*
G01X280365Y-224579D02*
Y-219579D01*
X279032D01*
X278605Y-219829D01*
X278338Y-220162D01*
X278232Y-220829D01*
X278338Y-221496D01*
X278658Y-221912D01*
X279032Y-222162D01*
X280365D01*
G01X279032D02*
X278232Y-224579D01*
G01X275098Y-224746D02*
X275205Y-224662D01*
Y-224496D01*
X275098Y-224412D01*
X274992Y-224496D01*
Y-224662D01*
X275098Y-224746D01*
G01Y-222496D02*
X275205Y-222412D01*
Y-222246D01*
X275098Y-222162D01*
X274992Y-222246D01*
Y-222412D01*
X275098Y-222496D01*
G01X304672Y-235579D02*
Y-230579D01*
X303605D01*
X303178Y-230829D01*
X302858Y-231163D01*
X302592Y-231662D01*
X302378Y-232246D01*
X302325Y-233079D01*
X302378Y-233912D01*
X302592Y-234496D01*
X302858Y-234996D01*
X303178Y-235329D01*
X303605Y-235579D01*
X304672D01*
G01X300632D02*
X299298Y-230579D01*
X297965Y-235579D01*
G01X298445Y-233829D02*
X300152D01*
G01X295098Y-230579D02*
Y-235579D01*
G01X296325Y-230579D02*
X293872D01*
G01X289832Y-235579D02*
X291965D01*
Y-230579D01*
X289832D01*
G01X290685Y-232996D02*
X291965D01*
G01X286698Y-235746D02*
X286805Y-235662D01*
Y-235496D01*
X286698Y-235413D01*
X286592Y-235496D01*
Y-235662D01*
X286698Y-235746D01*
G01Y-233496D02*
X286805Y-233412D01*
Y-233246D01*
X286698Y-233162D01*
X286592Y-233246D01*
Y-233412D01*
X286698Y-233496D01*
G01X311098Y-174579D02*
Y-249579D01*
G01X346663Y-225229D02*
G03I-355J0D01*
G01X346804Y-223439D02*
G03I-355J0D01*
G01X346673Y-223329D02*
G03I-355J0D01*
G01X346654Y-222149D02*
G03I-355J0D01*
G01X346784Y-222049D02*
G03I-355J0D01*
G01X346913Y-221979D02*
G03I-355J0D01*
G01X346563Y-223199D02*
G03I-355J0D01*
G01X346493Y-223049D02*
G03I-355J0D01*
G01X346443Y-222889D02*
G03I-355J0D01*
G01X346424Y-222719D02*
G03I-355J0D01*
G01X346443Y-222559D02*
G03I-355J0D01*
G01X346484Y-222409D02*
G03I-355J0D01*
G01X346554Y-222279D02*
G03I-355J0D01*
G01X346584Y-206559D02*
G03I-355J0D01*
G01X346913Y-205909D02*
G03I-355J0D01*
G01X346634Y-206389D02*
G03I-355J0D01*
G01X346424Y-209339D02*
G03I-355J0D01*
G01Y-208649D02*
G03I-355J0D01*
G01Y-207949D02*
G03I-355J0D01*
G01X346443Y-207259D02*
G03I-355J0D01*
G01X346424Y-207469D02*
G03I-355J0D01*
G01X346473Y-206919D02*
G03I-355J0D01*
G01X346424Y-217429D02*
G03I-355J0D01*
G01Y-216979D02*
G03I-355J0D01*
G01Y-216279D02*
G03I-355J0D01*
G01Y-215589D02*
G03I-355J0D01*
G01Y-214889D02*
G03I-355J0D01*
G01Y-214199D02*
G03I-355J0D01*
G01Y-213499D02*
G03I-355J0D01*
G01Y-212809D02*
G03I-355J0D01*
G01Y-212119D02*
G03I-355J0D01*
G01Y-211419D02*
G03I-355J0D01*
G01Y-210729D02*
G03I-355J0D01*
G01Y-210029D02*
G03I-355J0D01*
G01X347113Y-223559D02*
G03I-355J0D01*
G01X346954Y-223509D02*
G03I-355J0D01*
G01X347063Y-221939D02*
G03I-355J0D01*
G01X346954Y-205869D02*
G03I-355J0D01*
G01X307600Y-8000D02*
X313600D01*
G03X317600Y-4000I0J4000D01*
G03X313600Y0I-4000J0D01*
G01X307600D01*
G01X340400D02*
X334400D01*
G03X330400Y-4000I0J-4000D01*
G03X334400Y-8000I4000J0D01*
G01X340400D01*
G01X307600Y118110D02*
X313600D01*
G03X317600Y122110I0J4000D01*
G03X313600Y126110I-4000J0D01*
G01X307600D01*
G01X340400D02*
X334400D01*
G03X330400Y122110I0J-4000D01*
G03X334400Y118110I4000J0D01*
G01X336000D01*
G01X340400Y232535D02*
X334400D01*
G03X330400Y228535I0J-4000D01*
G03X334400Y224535I4000J0D01*
G01X336000D01*
G01X307600D02*
X313600D01*
G03X317600Y228535I0J4000D01*
G03X313600Y232535I-4000J0D01*
G01X307600D01*
G01X391004Y-225079D02*
G03I-355J0D01*
G01X391063Y-222099D02*
G03I-355J0D01*
G01X390824Y-225159D02*
G03I-355J0D01*
G01X390643Y-225209D02*
G03I-355J0D01*
G01X390454Y-225229D02*
G03I-355J0D01*
G01Y-221919D02*
G03I-355J0D01*
G01X390663Y-221939D02*
G03I-355J0D01*
G01X390873Y-221999D02*
G03I-355J0D01*
G01X388704Y-225229D02*
G03I-355J0D01*
G01Y-221919D02*
G03I-355J0D01*
G01X391024Y-205869D02*
G03I-355J0D01*
G01X390373Y-205659D02*
G03I-355J0D01*
G01X390923Y-205809D02*
G03I-355J0D01*
G01X390793Y-204209D02*
G03I-355J0D01*
G01X389804Y-205619D02*
G03I-355J0D01*
G01X387813Y-205649D02*
G03I-355J0D01*
G01X388354Y-205619D02*
G03I-355J0D01*
G01X387684Y-204209D02*
G03I-355J0D01*
G01X387104Y-205869D02*
G03I-355J0D01*
G01X386813Y-206009D02*
G03I-355J0D01*
G01X387293Y-205779D02*
G03I-355J0D01*
G01X386824Y-204239D02*
G03I-355J0D01*
G01X390473Y-217429D02*
G03I-355J0D01*
G01X387724D02*
G03I-355J0D01*
G01X386813Y-217399D02*
G03I-355J0D01*
G01X390913Y-215819D02*
G03I-355J0D01*
G01X390443Y-215969D02*
G03I-355J0D01*
G01X389963Y-216019D02*
G03I-355J0D01*
G01X388354D02*
G03I-355J0D01*
G01X387754Y-215979D02*
G03I-355J0D01*
G01X387184Y-215819D02*
G03I-355J0D01*
G01X385943Y-225059D02*
G03I-355J0D01*
G01X386123Y-224929D02*
G03I-355J0D01*
G01X386284Y-224769D02*
G03I-355J0D01*
G01X386413Y-224579D02*
G03I-355J0D01*
G01X386504Y-224379D02*
G03I-355J0D01*
G01X386563Y-224159D02*
G03I-355J0D01*
G01X386584Y-223939D02*
G03I-355J0D01*
G01Y-223189D02*
G03I-355J0D01*
G01X386563Y-222969D02*
G03I-355J0D01*
G01X386504Y-222759D02*
G03I-355J0D01*
G01X386413Y-222549D02*
G03I-355J0D01*
G01X386284Y-222369D02*
G03I-355J0D01*
G01X386134Y-222219D02*
G03I-355J0D01*
G01X385943Y-222089D02*
G03I-355J0D01*
G01X385293Y-225229D02*
G03I-355J0D01*
G01X385513Y-225209D02*
G03I-355J0D01*
G01X385734Y-225149D02*
G03I-355J0D01*
G01X385743Y-221999D02*
G03I-355J0D01*
G01X385534Y-221939D02*
G03I-355J0D01*
G01X385313Y-221919D02*
G03I-355J0D01*
G01X384184Y-225169D02*
G03I-355J0D01*
G01X384384Y-225209D02*
G03I-355J0D01*
G01X384593Y-225229D02*
G03I-355J0D01*
G01X384573Y-221919D02*
G03I-355J0D01*
G01X384343Y-221939D02*
G03I-355J0D01*
G01X384134Y-221999D02*
G03I-355J0D01*
G01X383413Y-224509D02*
G03I-355J0D01*
G01X383524Y-224689D02*
G03I-355J0D01*
G01X383663Y-224839D02*
G03I-355J0D01*
G01X383813Y-224979D02*
G03I-355J0D01*
G01X383993Y-225089D02*
G03I-355J0D01*
G01X383273Y-223909D02*
G03I-355J0D01*
G01X383293Y-224119D02*
G03I-355J0D01*
G01X383334Y-224319D02*
G03I-355J0D01*
G01X383273Y-223909D02*
G03I-355J0D01*
G01X383443Y-222569D02*
G03I-355J0D01*
G01X383354Y-222779D02*
G03I-355J0D01*
G01X383293Y-222989D02*
G03I-355J0D01*
G01X383273Y-223219D02*
G03I-355J0D01*
G01X383924Y-222089D02*
G03I-355J0D01*
G01X383734Y-222219D02*
G03I-355J0D01*
G01X383573Y-222379D02*
G03I-355J0D01*
G01X380913Y-225229D02*
G03I-355J0D01*
G01Y-221919D02*
G03I-355J0D01*
G01X380434D02*
G03I-355J0D01*
G01X378154Y-225229D02*
G03I-355J0D01*
G01X377604D02*
G03I-355J0D01*
G01Y-221919D02*
G03I-355J0D01*
G01X375243Y-225229D02*
G03I-355J0D01*
G01Y-221919D02*
G03I-355J0D01*
G01X373484Y-225229D02*
G03I-355J0D01*
G01X373284Y-225209D02*
G03I-355J0D01*
G01X373084Y-225169D02*
G03I-355J0D01*
G01X373023Y-221999D02*
G03I-355J0D01*
G01X373243Y-221939D02*
G03I-355J0D01*
G01X373463Y-221919D02*
G03I-355J0D01*
G01X372893Y-225089D02*
G03I-355J0D01*
G01X372713Y-224979D02*
G03I-355J0D01*
G01X372554Y-224849D02*
G03I-355J0D01*
G01X372423Y-224689D02*
G03I-355J0D01*
G01X372313Y-224509D02*
G03I-355J0D01*
G01X372234Y-224319D02*
G03I-355J0D01*
G01X372193Y-224119D02*
G03I-355J0D01*
G01X372173Y-223919D02*
G03I-355J0D01*
G01Y-223209D02*
G03I-355J0D01*
G01X372193Y-222989D02*
G03I-355J0D01*
G01X372254Y-222769D02*
G03I-355J0D01*
G01X372343Y-222559D02*
G03I-355J0D01*
G01X372173Y-223209D02*
G03I-355J0D01*
G01X372473Y-222379D02*
G03I-355J0D01*
G01X372634Y-222219D02*
G03I-355J0D01*
G01X372813Y-222089D02*
G03I-355J0D01*
G01X369743Y-224409D02*
G03I-355J0D01*
G01X369643Y-224609D02*
G03I-355J0D01*
G01X369804Y-223989D02*
G03I-355J0D01*
G01X369813D02*
G03I-355J0D01*
G01X369793Y-224209D02*
G03I-355J0D01*
G01X369804Y-221919D02*
G03I-355J0D01*
G01X369524Y-224789D02*
G03I-355J0D01*
G01X369373Y-224939D02*
G03I-355J0D01*
G01X369193Y-225059D02*
G03I-355J0D01*
G01X368993Y-225159D02*
G03I-355J0D01*
G01X368793Y-225209D02*
G03I-355J0D01*
G01X368573Y-225229D02*
G03I-355J0D01*
G01X368054D02*
G03I-355J0D01*
G01X367823Y-225209D02*
G03I-355J0D01*
G01X367604Y-225149D02*
G03I-355J0D01*
G01X367393Y-225049D02*
G03I-355J0D01*
G01X367213Y-224919D02*
G03I-355J0D01*
G01X367054Y-224759D02*
G03I-355J0D01*
G01X366924Y-224569D02*
G03I-355J0D01*
G01X366824Y-224369D02*
G03I-355J0D01*
G01X366763Y-224149D02*
G03I-355J0D01*
G01X366743Y-223919D02*
G03I-355J0D01*
G01X366734D02*
G03I-355J0D01*
G01Y-221919D02*
G03I-355J0D01*
G01X364593Y-224349D02*
G03I-355J0D01*
G01X364554Y-224529D02*
G03I-355J0D01*
G01X364613Y-224159D02*
G03I-355J0D01*
G01X364593Y-222779D02*
G03I-355J0D01*
G01X364613Y-222959D02*
G03I-355J0D01*
G01X364554Y-222599D02*
G03I-355J0D01*
G01X364473Y-224689D02*
G03I-355J0D01*
G01X364363Y-224849D02*
G03I-355J0D01*
G01X364234Y-224979D02*
G03I-355J0D01*
G01X364084Y-225089D02*
G03I-355J0D01*
G01X363913Y-225169D02*
G03I-355J0D01*
G01X363734Y-225209D02*
G03I-355J0D01*
G01X363754Y-221939D02*
G03I-355J0D01*
G01X363934Y-221979D02*
G03I-355J0D01*
G01X364093Y-222059D02*
G03I-355J0D01*
G01X364243Y-222159D02*
G03I-355J0D01*
G01X364373Y-222289D02*
G03I-355J0D01*
G01X364473Y-222439D02*
G03I-355J0D01*
G01X363543Y-225229D02*
G03I-355J0D01*
G01X363573Y-221919D02*
G03I-355J0D01*
G01X361773Y-225229D02*
G03I-355J0D01*
G01Y-221919D02*
G03I-355J0D01*
G01X386134Y-206559D02*
G03I-355J0D01*
G01X386054Y-206629D02*
G03I-355J0D01*
G01X386384Y-206329D02*
G03I-355J0D01*
G01X385973Y-204399D02*
G03I-355J0D01*
G01X385634Y-209339D02*
G03I-355J0D01*
G01Y-208649D02*
G03I-355J0D01*
G01X385723Y-207259D02*
G03I-355J0D01*
G01X385634Y-207949D02*
G03I-355J0D01*
G01Y-207869D02*
G03I-355J0D01*
G01X385673Y-207419D02*
G03I-355J0D01*
G01X385813Y-206999D02*
G03I-355J0D01*
G01X385163Y-204679D02*
G03I-355J0D01*
G01X385734Y-204479D02*
G03I-355J0D01*
G01X384163Y-205179D02*
G03I-355J0D01*
G01X384534Y-204949D02*
G03I-355J0D01*
G01X383324Y-205869D02*
G03I-355J0D01*
G01X383434Y-205739D02*
G03I-355J0D01*
G01X383954Y-205299D02*
G03I-355J0D01*
G01X382563Y-209339D02*
G03I-355J0D01*
G01Y-208649D02*
G03I-355J0D01*
G01X382613Y-207259D02*
G03I-355J0D01*
G01X382563Y-207949D02*
G03I-355J0D01*
G01X382613Y-207279D02*
G03I-355J0D01*
G01X382563Y-207869D02*
G03I-355J0D01*
G01X382854Y-206559D02*
G03I-355J0D01*
G01X382773Y-206709D02*
G03I-355J0D01*
G01X383054Y-206189D02*
G03I-355J0D01*
G01X379254Y-209339D02*
G03I-355J0D01*
G01Y-208649D02*
G03I-355J0D01*
G01Y-207949D02*
G03I-355J0D01*
G01Y-207259D02*
G03I-355J0D01*
G01Y-206559D02*
G03I-355J0D01*
G01Y-205869D02*
G03I-355J0D01*
G01Y-204679D02*
G03I-355J0D01*
G01Y-205179D02*
G03I-355J0D01*
G01X375893Y-209339D02*
G03I-355J0D01*
G01X375954Y-209069D02*
G03I-355J0D01*
G01X375923Y-209279D02*
G03I-355J0D01*
G01X375843Y-209469D02*
G03I-355J0D01*
G01X375954Y-208649D02*
G03I-355J0D01*
G01Y-207949D02*
G03I-355J0D01*
G01Y-207259D02*
G03I-355J0D01*
G01Y-206559D02*
G03I-355J0D01*
G01Y-205869D02*
G03I-355J0D01*
G01Y-204679D02*
G03I-355J0D01*
G01D02*
G03I-355J0D01*
G01Y-205179D02*
G03I-355J0D01*
G01X368913Y-209339D02*
G03I-355J0D01*
G01X368973Y-209479D02*
G03I-355J0D01*
G01X368893Y-209289D02*
G03I-355J0D01*
G01X368863Y-209089D02*
G03I-355J0D01*
G01Y-208649D02*
G03I-355J0D01*
G01Y-207259D02*
G03I-355J0D01*
G01Y-207949D02*
G03I-355J0D01*
G01Y-206559D02*
G03I-355J0D01*
G01Y-205869D02*
G03I-355J0D01*
G01Y-205179D02*
G03I-355J0D01*
G01Y-204679D02*
G03I-355J0D01*
G01X365554Y-209339D02*
G03I-355J0D01*
G01Y-208649D02*
G03I-355J0D01*
G01Y-207259D02*
G03I-355J0D01*
G01Y-207949D02*
G03I-355J0D01*
G01Y-206559D02*
G03I-355J0D01*
G01Y-205869D02*
G03I-355J0D01*
G01Y-205179D02*
G03I-355J0D01*
G01Y-204679D02*
G03I-355J0D01*
G01X362013Y-209339D02*
G03I-355J0D01*
G01Y-208649D02*
G03I-355J0D01*
G01Y-207949D02*
G03I-355J0D01*
G01Y-206559D02*
G03I-355J0D01*
G01Y-207259D02*
G03I-355J0D01*
G01Y-205869D02*
G03I-355J0D01*
G01Y-205179D02*
G03I-355J0D01*
G01Y-204679D02*
G03I-355J0D01*
G01X385913Y-217259D02*
G03I-355J0D01*
G01X386713Y-215589D02*
G03I-355J0D01*
G01X386013Y-214889D02*
G03I-355J0D01*
G01X386654Y-215559D02*
G03I-355J0D01*
G01X386184Y-215189D02*
G03I-355J0D01*
G01X385884Y-214679D02*
G03I-355J0D01*
G01X384993Y-216979D02*
G03I-355J0D01*
G01X385043Y-216999D02*
G03I-355J0D01*
G01X385723Y-214199D02*
G03I-355J0D01*
G01X385693Y-214119D02*
G03I-355J0D01*
G01X385634Y-213499D02*
G03I-355J0D01*
G01Y-213539D02*
G03I-355J0D01*
G01Y-212809D02*
G03I-355J0D01*
G01Y-211419D02*
G03I-355J0D01*
G01Y-212119D02*
G03I-355J0D01*
G01Y-210729D02*
G03I-355J0D01*
G01Y-210029D02*
G03I-355J0D01*
G01X384463Y-216729D02*
G03I-355J0D01*
G01X383834Y-216279D02*
G03I-355J0D01*
G01X383473Y-215939D02*
G03I-355J0D01*
G01X383934Y-216379D02*
G03I-355J0D01*
G01X382734Y-214889D02*
G03I-355J0D01*
G01X383124Y-215589D02*
G03I-355J0D01*
G01X382793Y-215079D02*
G03I-355J0D01*
G01X383084Y-215549D02*
G03I-355J0D01*
G01X382584Y-214199D02*
G03I-355J0D01*
G01X382613Y-214559D02*
G03I-355J0D01*
G01X382563Y-213499D02*
G03I-355J0D01*
G01Y-214009D02*
G03I-355J0D01*
G01Y-212809D02*
G03I-355J0D01*
G01Y-212119D02*
G03I-355J0D01*
G01Y-210729D02*
G03I-355J0D01*
G01Y-211419D02*
G03I-355J0D01*
G01Y-210029D02*
G03I-355J0D01*
G01X379254Y-217429D02*
G03I-355J0D01*
G01X375954D02*
G03I-355J0D01*
G01X368863D02*
G03I-355J0D01*
G01X365554D02*
G03I-355J0D01*
G01X362013D02*
G03I-355J0D01*
G01X379254Y-216979D02*
G03I-355J0D01*
G01Y-216279D02*
G03I-355J0D01*
G01Y-215589D02*
G03I-355J0D01*
G01Y-214889D02*
G03I-355J0D01*
G01Y-214199D02*
G03I-355J0D01*
G01Y-213499D02*
G03I-355J0D01*
G01Y-212809D02*
G03I-355J0D01*
G01Y-212119D02*
G03I-355J0D01*
G01Y-210729D02*
G03I-355J0D01*
G01Y-211419D02*
G03I-355J0D01*
G01Y-210029D02*
G03I-355J0D01*
G01X375954Y-216979D02*
G03I-355J0D01*
G01Y-216279D02*
G03I-355J0D01*
G01Y-215589D02*
G03I-355J0D01*
G01Y-214889D02*
G03I-355J0D01*
G01Y-214199D02*
G03I-355J0D01*
G01Y-213499D02*
G03I-355J0D01*
G01Y-212809D02*
G03I-355J0D01*
G01Y-212309D02*
G03I-355J0D01*
G01X375923Y-212119D02*
G03I-355J0D01*
G01X375723Y-211759D02*
G03I-355J0D01*
G01X375843Y-211919D02*
G03I-355J0D01*
G01X375923Y-212109D02*
G03I-355J0D01*
G01X375713Y-209639D02*
G03I-355J0D01*
G01X375173Y-211529D02*
G03I-355J0D01*
G01X375373Y-211549D02*
G03I-355J0D01*
G01X375563Y-211629D02*
G03I-355J0D01*
G01X375543Y-209769D02*
G03I-355J0D01*
G01X375354Y-209849D02*
G03I-355J0D01*
G01X375143Y-209869D02*
G03I-355J0D01*
G01X369693Y-211529D02*
G03I-355J0D01*
G01X369643Y-209869D02*
G03I-355J0D01*
G01X368863Y-216979D02*
G03I-355J0D01*
G01Y-216279D02*
G03I-355J0D01*
G01Y-215589D02*
G03I-355J0D01*
G01Y-214199D02*
G03I-355J0D01*
G01Y-214889D02*
G03I-355J0D01*
G01Y-213499D02*
G03I-355J0D01*
G01Y-212809D02*
G03I-355J0D01*
G01X368904Y-212119D02*
G03I-355J0D01*
G01X368863Y-212359D02*
G03I-355J0D01*
G01X368893Y-212139D02*
G03I-355J0D01*
G01X368973Y-211939D02*
G03I-355J0D01*
G01X369104Y-211769D02*
G03I-355J0D01*
G01X369273Y-211639D02*
G03I-355J0D01*
G01X369484Y-211559D02*
G03I-355J0D01*
G01X369443Y-209849D02*
G03I-355J0D01*
G01X369254Y-209769D02*
G03I-355J0D01*
G01X369093Y-209649D02*
G03I-355J0D01*
G01X365554Y-216979D02*
G03I-355J0D01*
G01Y-216279D02*
G03I-355J0D01*
G01Y-214889D02*
G03I-355J0D01*
G01Y-215589D02*
G03I-355J0D01*
G01Y-214199D02*
G03I-355J0D01*
G01Y-213499D02*
G03I-355J0D01*
G01Y-212809D02*
G03I-355J0D01*
G01Y-212119D02*
G03I-355J0D01*
G01Y-210729D02*
G03I-355J0D01*
G01Y-211419D02*
G03I-355J0D01*
G01Y-210029D02*
G03I-355J0D01*
G01X362013Y-216979D02*
G03I-355J0D01*
G01Y-216279D02*
G03I-355J0D01*
G01Y-215589D02*
G03I-355J0D01*
G01Y-214199D02*
G03I-355J0D01*
G01Y-214889D02*
G03I-355J0D01*
G01Y-213499D02*
G03I-355J0D01*
G01Y-212809D02*
G03I-355J0D01*
G01Y-212119D02*
G03I-355J0D01*
G01Y-210729D02*
G03I-355J0D01*
G01Y-211419D02*
G03I-355J0D01*
G01Y-210029D02*
G03I-355J0D01*
G01X354384Y-224979D02*
G03I-355J0D01*
G01X354543Y-224849D02*
G03I-355J0D01*
G01X354673Y-224689D02*
G03I-355J0D01*
G01X354784Y-224509D02*
G03I-355J0D01*
G01X354763Y-222559D02*
G03I-355J0D01*
G01X354634Y-222379D02*
G03I-355J0D01*
G01X354473Y-222219D02*
G03I-355J0D01*
G01X359884Y-221919D02*
G03I-355J0D01*
G01X358473Y-225229D02*
G03I-355J0D01*
G01Y-221919D02*
G03I-355J0D01*
G01D02*
G03I-355J0D01*
G01X357054D02*
G03I-355J0D01*
G01X354863Y-224319D02*
G03I-355J0D01*
G01X354904Y-224119D02*
G03I-355J0D01*
G01X354923Y-223919D02*
G03I-355J0D01*
G01Y-223209D02*
G03I-355J0D01*
G01X354934D02*
G03I-355J0D01*
G01X354913Y-222989D02*
G03I-355J0D01*
G01X354854Y-222769D02*
G03I-355J0D01*
G01X354284Y-222089D02*
G03I-355J0D01*
G01X353613Y-225229D02*
G03I-355J0D01*
G01X353813Y-225209D02*
G03I-355J0D01*
G01X354013Y-225169D02*
G03I-355J0D01*
G01X354204Y-225089D02*
G03I-355J0D01*
G01X354084Y-221999D02*
G03I-355J0D01*
G01X353863Y-221939D02*
G03I-355J0D01*
G01X353643Y-221919D02*
G03I-355J0D01*
G01X352693Y-225209D02*
G03I-355J0D01*
G01X352924Y-225229D02*
G03I-355J0D01*
G01X352904Y-221919D02*
G03I-355J0D01*
G01X352684Y-221939D02*
G03I-355J0D01*
G01X351793Y-224579D02*
G03I-355J0D01*
G01X351924Y-224769D02*
G03I-355J0D01*
G01X352084Y-224929D02*
G03I-355J0D01*
G01X352273Y-225059D02*
G03I-355J0D01*
G01X352484Y-225149D02*
G03I-355J0D01*
G01X351704Y-224369D02*
G03I-355J0D01*
G01X352463Y-221999D02*
G03I-355J0D01*
G01X352263Y-222089D02*
G03I-355J0D01*
G01X352084Y-222219D02*
G03I-355J0D01*
G01X351924Y-222379D02*
G03I-355J0D01*
G01X351793Y-222559D02*
G03I-355J0D01*
G01X351704Y-222759D02*
G03I-355J0D01*
G01X351624Y-223929D02*
G03I-355J0D01*
G01X351643Y-224159D02*
G03I-355J0D01*
G01X351624Y-223929D02*
G03I-355J0D01*
G01X351643Y-222979D02*
G03I-355J0D01*
G01X351624Y-223199D02*
G03I-355J0D01*
G01X349493Y-225229D02*
G03I-355J0D01*
G01Y-223579D02*
G03I-355J0D01*
G01D02*
G03I-355J0D01*
G01Y-221919D02*
G03I-355J0D01*
G01D02*
G03I-355J0D01*
G01X347563Y-223579D02*
G03I-355J0D01*
G01D02*
G03I-355J0D01*
G01X347284D02*
G03I-355J0D01*
G01X347224Y-221919D02*
G03I-355J0D01*
G01X360463Y-204479D02*
G03I-355J0D01*
G01X358943Y-209339D02*
G03I-355J0D01*
G01Y-208649D02*
G03I-355J0D01*
G01Y-207259D02*
G03I-355J0D01*
G01Y-207949D02*
G03I-355J0D01*
G01X358924Y-206559D02*
G03I-355J0D01*
G01X358913Y-206469D02*
G03I-355J0D01*
G01X358943Y-206689D02*
G03I-355J0D01*
G01X358524Y-205969D02*
G03I-355J0D01*
G01X358704Y-206099D02*
G03I-355J0D01*
G01X358834Y-206269D02*
G03I-355J0D01*
G01X359073Y-204299D02*
G03I-355J0D01*
G01X358193Y-205869D02*
G03I-355J0D01*
G01X358113Y-205859D02*
G03I-355J0D01*
G01X358334Y-205889D02*
G03I-355J0D01*
G01X356593Y-205869D02*
G03I-355J0D01*
G01X355984Y-206259D02*
G03I-355J0D01*
G01X356104Y-206089D02*
G03I-355J0D01*
G01X356273Y-205969D02*
G03I-355J0D01*
G01X356463Y-205889D02*
G03I-355J0D01*
G01X356673Y-205859D02*
G03I-355J0D01*
G01X356104Y-204209D02*
G03I-355J0D01*
G01X355873Y-209339D02*
G03I-355J0D01*
G01Y-208649D02*
G03I-355J0D01*
G01Y-207949D02*
G03I-355J0D01*
G01Y-207259D02*
G03I-355J0D01*
G01X355884Y-206559D02*
G03I-355J0D01*
G01X355873Y-206659D02*
G03I-355J0D01*
G01X355893Y-206449D02*
G03I-355J0D01*
G01X352563Y-209339D02*
G03I-355J0D01*
G01Y-208649D02*
G03I-355J0D01*
G01Y-207949D02*
G03I-355J0D01*
G01Y-207259D02*
G03I-355J0D01*
G01Y-206669D02*
G03I-355J0D01*
G01X352554Y-206559D02*
G03I-355J0D01*
G01X352534Y-206459D02*
G03I-355J0D01*
G01X351834Y-205869D02*
G03I-355J0D01*
G01X351754Y-205859D02*
G03I-355J0D01*
G01X351963Y-205889D02*
G03I-355J0D01*
G01X352154Y-205969D02*
G03I-355J0D01*
G01X352324Y-206099D02*
G03I-355J0D01*
G01X352454Y-206259D02*
G03I-355J0D01*
G01X351773Y-204209D02*
G03I-355J0D01*
G01X350913Y-205869D02*
G03I-355J0D01*
G01X350993Y-205859D02*
G03I-355J0D01*
G01X350004Y-206099D02*
G03I-355J0D01*
G01X350484Y-205929D02*
G03I-355J0D01*
G01X350613Y-204269D02*
G03I-355J0D01*
G01X349493Y-209339D02*
G03I-355J0D01*
G01Y-208649D02*
G03I-355J0D01*
G01Y-207949D02*
G03I-355J0D01*
G01Y-207259D02*
G03I-355J0D01*
G01X349613Y-206559D02*
G03I-355J0D01*
G01X349493Y-207119D02*
G03I-355J0D01*
G01X349524Y-206819D02*
G03I-355J0D01*
G01X349624Y-206539D02*
G03I-355J0D01*
G01X349784Y-206299D02*
G03I-355J0D01*
G01X349313Y-204479D02*
G03I-355J0D01*
G01X349454Y-204439D02*
G03I-355J0D01*
G01X348673Y-204659D02*
G03I-355J0D01*
G01X347943Y-205019D02*
G03I-355J0D01*
G01D02*
G03I-355J0D01*
G01X347734Y-205179D02*
G03I-355J0D01*
G01X347293Y-205499D02*
G03I-355J0D01*
G01X358943Y-217429D02*
G03I-355J0D01*
G01X355873D02*
G03I-355J0D01*
G01X358943Y-216979D02*
G03I-355J0D01*
G01Y-216279D02*
G03I-355J0D01*
G01Y-214889D02*
G03I-355J0D01*
G01Y-215589D02*
G03I-355J0D01*
G01Y-214199D02*
G03I-355J0D01*
G01Y-213499D02*
G03I-355J0D01*
G01Y-212809D02*
G03I-355J0D01*
G01Y-211419D02*
G03I-355J0D01*
G01Y-212119D02*
G03I-355J0D01*
G01Y-210729D02*
G03I-355J0D01*
G01Y-210029D02*
G03I-355J0D01*
G01X355873Y-216979D02*
G03I-355J0D01*
G01Y-216279D02*
G03I-355J0D01*
G01Y-215589D02*
G03I-355J0D01*
G01Y-214889D02*
G03I-355J0D01*
G01Y-214199D02*
G03I-355J0D01*
G01Y-213499D02*
G03I-355J0D01*
G01Y-212809D02*
G03I-355J0D01*
G01Y-212119D02*
G03I-355J0D01*
G01Y-211419D02*
G03I-355J0D01*
G01Y-210729D02*
G03I-355J0D01*
G01Y-210029D02*
G03I-355J0D01*
G01X352563Y-217429D02*
G03I-355J0D01*
G01X349493D02*
G03I-355J0D01*
G01X352563Y-216979D02*
G03I-355J0D01*
G01Y-216279D02*
G03I-355J0D01*
G01Y-215589D02*
G03I-355J0D01*
G01Y-214889D02*
G03I-355J0D01*
G01Y-214199D02*
G03I-355J0D01*
G01Y-213499D02*
G03I-355J0D01*
G01Y-212809D02*
G03I-355J0D01*
G01Y-212119D02*
G03I-355J0D01*
G01Y-211419D02*
G03I-355J0D01*
G01Y-210729D02*
G03I-355J0D01*
G01Y-210029D02*
G03I-355J0D01*
G01X349493Y-216979D02*
G03I-355J0D01*
G01Y-216279D02*
G03I-355J0D01*
G01Y-215589D02*
G03I-355J0D01*
G01Y-214889D02*
G03I-355J0D01*
G01Y-214199D02*
G03I-355J0D01*
G01Y-213499D02*
G03I-355J0D01*
G01Y-212809D02*
G03I-355J0D01*
G01Y-212119D02*
G03I-355J0D01*
G01Y-211419D02*
G03I-355J0D01*
G01Y-210729D02*
G03I-355J0D01*
G01Y-210029D02*
G03I-355J0D01*
G01X390331Y274220D02*
Y-38000D01*
G01X370331Y126110D02*
Y-8000D01*
G01Y47100D02*
Y53100D01*
G03X366331Y57100I-4000J0D01*
G03X362331Y53100I0J-4000D01*
G01Y47100D01*
G01Y79900D02*
Y73900D01*
G03X366331Y69900I4000J0D01*
G03X370331Y73900I0J4000D01*
G01Y79900D01*
G01X362457Y126110D02*
X370331D01*
G01X362457D02*
Y232535D01*
G01X354457Y126110D02*
Y224535D01*
G01X362457Y141200D02*
Y147200D01*
G03X358457Y151200I-4000J0D01*
G03X354457Y147200I0J-4000D01*
G01Y141200D01*
G01Y174000D02*
Y168000D01*
G03X358457Y164000I4000J0D01*
G03X362457Y168000I0J4000D01*
G01Y174000D01*
G01X405243Y-225169D02*
G03I-355J0D01*
G01X405063Y-225209D02*
G03I-355J0D01*
G01X404884Y-225229D02*
G03I-355J0D01*
G01X405123Y-221939D02*
G03I-355J0D01*
G01X404923Y-221919D02*
G03I-355J0D01*
G01X411384Y-225229D02*
G03I-355J0D01*
G01X410663Y-223549D02*
G03I-355J0D01*
G01X410834Y-223499D02*
G03I-355J0D01*
G01X410984Y-223419D02*
G03I-355J0D01*
G01X411123Y-223309D02*
G03I-355J0D01*
G01X411234Y-223169D02*
G03I-355J0D01*
G01X411313Y-223019D02*
G03I-355J0D01*
G01X411363Y-222849D02*
G03I-355J0D01*
G01X411384Y-222679D02*
G03I-355J0D01*
G01X411363Y-222509D02*
G03I-355J0D01*
G01X411304Y-222349D02*
G03I-355J0D01*
G01X411213Y-222209D02*
G03I-355J0D01*
G01X411093Y-222089D02*
G03I-355J0D01*
G01X410954Y-221999D02*
G03I-355J0D01*
G01X410793Y-221939D02*
G03I-355J0D01*
G01X410624Y-221919D02*
G03I-355J0D01*
G01X410493Y-223579D02*
G03I-355J0D01*
G01Y-223569D02*
G03I-355J0D01*
G01X408934Y-225229D02*
G03I-355J0D01*
G01X408873Y-223569D02*
G03I-355J0D01*
G01Y-223579D02*
G03I-355J0D01*
G01X408763Y-225209D02*
G03I-355J0D01*
G01X408604Y-225159D02*
G03I-355J0D01*
G01X408454Y-225089D02*
G03I-355J0D01*
G01X408324Y-224979D02*
G03I-355J0D01*
G01X408213Y-224849D02*
G03I-355J0D01*
G01X408143Y-224699D02*
G03I-355J0D01*
G01X408093Y-224539D02*
G03I-355J0D01*
G01X408073Y-224369D02*
G03I-355J0D01*
G01X408093Y-224209D02*
G03I-355J0D01*
G01X408134Y-224059D02*
G03I-355J0D01*
G01X408204Y-223929D02*
G03I-355J0D01*
G01X408304Y-223799D02*
G03I-355J0D01*
G01X408434Y-223699D02*
G03I-355J0D01*
G01X408563Y-223629D02*
G03I-355J0D01*
G01X408713Y-223589D02*
G03I-355J0D01*
G01X408073Y-221919D02*
G03I-355J0D01*
G01X405923Y-224349D02*
G03I-355J0D01*
G01X405884Y-224529D02*
G03I-355J0D01*
G01X405804Y-224699D02*
G03I-355J0D01*
G01X405693Y-224849D02*
G03I-355J0D01*
G01X405563Y-224979D02*
G03I-355J0D01*
G01X405954Y-223579D02*
G03I-355J0D01*
G01D02*
G03I-355J0D01*
G01Y-224169D02*
G03I-355J0D01*
G01X405943D02*
G03I-355J0D01*
G01X405954Y-222939D02*
G03I-355J0D01*
G01X405943D02*
G03I-355J0D01*
G01X405923Y-222739D02*
G03I-355J0D01*
G01X405863Y-222549D02*
G03I-355J0D01*
G01X405773Y-222369D02*
G03I-355J0D01*
G01X405643Y-222219D02*
G03I-355J0D01*
G01X405493Y-222089D02*
G03I-355J0D01*
G01X405413Y-225089D02*
G03I-355J0D01*
G01X405313Y-221999D02*
G03I-355J0D01*
G01X403113Y-225229D02*
G03I-355J0D01*
G01Y-223579D02*
G03I-355J0D01*
G01Y-221919D02*
G03I-355J0D01*
G01X400754Y-225229D02*
G03I-355J0D01*
G01Y-221919D02*
G03I-355J0D01*
G01X400204D02*
G03I-355J0D01*
G01X398663Y-225229D02*
G03I-355J0D01*
G01X397254Y-221919D02*
G03I-355J0D01*
G01X396734Y-225229D02*
G03I-355J0D01*
G01Y-221919D02*
G03I-355J0D01*
G01X394143Y-225229D02*
G03I-355J0D01*
G01Y-221919D02*
G03I-355J0D01*
G01X391524Y-224329D02*
G03I-355J0D01*
G01X391473Y-224509D02*
G03I-355J0D01*
G01X391393Y-224679D02*
G03I-355J0D01*
G01X391284Y-224839D02*
G03I-355J0D01*
G01X391154Y-224969D02*
G03I-355J0D01*
G01X391543Y-224139D02*
G03I-355J0D01*
G01X391463Y-222589D02*
G03I-355J0D01*
G01X391524Y-222799D02*
G03I-355J0D01*
G01X391543Y-223009D02*
G03I-355J0D01*
G01X391224Y-222239D02*
G03I-355J0D01*
G01X391363Y-222399D02*
G03I-355J0D01*
G01X411384Y-209339D02*
G03I-355J0D01*
G01Y-208649D02*
G03I-355J0D01*
G01Y-207259D02*
G03I-355J0D01*
G01Y-207949D02*
G03I-355J0D01*
G01Y-206559D02*
G03I-355J0D01*
G01Y-205869D02*
G03I-355J0D01*
G01Y-205179D02*
G03I-355J0D01*
G01Y-204679D02*
G03I-355J0D01*
G01D02*
G03I-355J0D01*
G01X410043Y-204479D02*
G03I-355J0D01*
G01X409143Y-204349D02*
G03I-355J0D01*
G01X408073Y-209339D02*
G03I-355J0D01*
G01Y-208649D02*
G03I-355J0D01*
G01Y-207949D02*
G03I-355J0D01*
G01Y-206559D02*
G03I-355J0D01*
G01Y-207259D02*
G03I-355J0D01*
G01Y-206399D02*
G03I-355J0D01*
G01X408054Y-206199D02*
G03I-355J0D01*
G01X407863Y-205869D02*
G03I-355J0D01*
G01X407973Y-206009D02*
G03I-355J0D01*
G01X407853Y-205849D02*
G03I-355J0D01*
G01X407684Y-205729D02*
G03I-355J0D01*
G01X407504Y-205649D02*
G03I-355J0D01*
G01X407304Y-205619D02*
G03I-355J0D01*
G01X406893Y-204209D02*
G03I-355J0D01*
G01X404454Y-205619D02*
G03I-355J0D01*
G01X403763Y-205649D02*
G03I-355J0D01*
G01X403863Y-204209D02*
G03I-355J0D01*
G01X402954Y-205869D02*
G03I-355J0D01*
G01X403084Y-205809D02*
G03I-355J0D01*
G01X402134Y-206409D02*
G03I-355J0D01*
G01X402034Y-206559D02*
G03I-355J0D01*
G01X402443Y-206099D02*
G03I-355J0D01*
G01X402193Y-204329D02*
G03I-355J0D01*
G01X401793Y-209339D02*
G03I-355J0D01*
G01X401743Y-209169D02*
G03I-355J0D01*
G01X401693Y-208649D02*
G03I-355J0D01*
G01Y-208729D02*
G03I-355J0D01*
G01Y-207949D02*
G03I-355J0D01*
G01X401743Y-207259D02*
G03I-355J0D01*
G01X401753Y-207189D02*
G03I-355J0D01*
G01X401693Y-207629D02*
G03I-355J0D01*
G01X401903Y-206779D02*
G03I-355J0D01*
G01X401473Y-204479D02*
G03I-355J0D01*
G01X400554Y-204679D02*
G03I-355J0D01*
G01X399763Y-205179D02*
G03I-355J0D01*
G01X399513Y-205379D02*
G03I-355J0D01*
G01X400003Y-204979D02*
G03I-355J0D01*
G01X398634Y-209339D02*
G03I-355J0D01*
G01X398623Y-209279D02*
G03I-355J0D01*
G01Y-208649D02*
G03I-355J0D01*
G01Y-207949D02*
G03I-355J0D01*
G01Y-207259D02*
G03I-355J0D01*
G01X398724Y-206559D02*
G03I-355J0D01*
G01X398623Y-207279D02*
G03I-355J0D01*
G01X398643Y-206899D02*
G03I-355J0D01*
G01X398734Y-206519D02*
G03I-355J0D01*
G01X399093Y-205869D02*
G03I-355J0D01*
G01X398884Y-206169D02*
G03I-355J0D01*
G01X399104Y-205859D02*
G03I-355J0D01*
G01X395554Y-209339D02*
G03I-355J0D01*
G01Y-208649D02*
G03I-355J0D01*
G01Y-207949D02*
G03I-355J0D01*
G01X395523Y-207259D02*
G03I-355J0D01*
G01X395554Y-207589D02*
G03I-355J0D01*
G01X395334Y-206559D02*
G03I-355J0D01*
G01X395384Y-206649D02*
G03I-355J0D01*
G01X395513Y-207109D02*
G03I-355J0D01*
G01X395384Y-206649D02*
G03I-355J0D01*
G01X394873Y-205869D02*
G03I-355J0D01*
G01X395154Y-206229D02*
G03I-355J0D01*
G01X394863Y-205849D02*
G03I-355J0D01*
G01X394493Y-205539D02*
G03I-355J0D01*
G01X394043Y-205179D02*
G03I-355J0D01*
G01X393863Y-205029D02*
G03I-355J0D01*
G01X393154Y-204639D02*
G03I-355J0D01*
G01X392684Y-204479D02*
G03I-355J0D01*
G01X392484Y-209339D02*
G03I-355J0D01*
G01Y-208649D02*
G03I-355J0D01*
G01Y-207949D02*
G03I-355J0D01*
G01X392373Y-207259D02*
G03I-355J0D01*
G01X392443Y-207499D02*
G03I-355J0D01*
G01X392484Y-207909D02*
G03I-355J0D01*
G01X392124Y-206759D02*
G03I-355J0D01*
G01X392324Y-207109D02*
G03I-355J0D01*
G01X391954Y-206559D02*
G03I-355J0D01*
G01X391854Y-206449D02*
G03I-355J0D01*
G01D02*
G03I-355J0D01*
G01X392393Y-204379D02*
G03I-355J0D01*
G01X391424Y-206079D02*
G03I-355J0D01*
G01X391593Y-204239D02*
G03I-355J0D01*
G01X411384Y-217429D02*
G03I-355J0D01*
G01X408073D02*
G03I-355J0D01*
G01X404863Y-213499D02*
G03I-355J0D01*
G01X411384Y-216979D02*
G03I-355J0D01*
G01Y-216279D02*
G03I-355J0D01*
G01Y-214889D02*
G03I-355J0D01*
G01Y-215589D02*
G03I-355J0D01*
G01Y-214199D02*
G03I-355J0D01*
G01Y-213499D02*
G03I-355J0D01*
G01Y-212809D02*
G03I-355J0D01*
G01Y-211419D02*
G03I-355J0D01*
G01Y-212119D02*
G03I-355J0D01*
G01Y-210729D02*
G03I-355J0D01*
G01Y-210029D02*
G03I-355J0D01*
G01X408073Y-216979D02*
G03I-355J0D01*
G01Y-216279D02*
G03I-355J0D01*
G01Y-215589D02*
G03I-355J0D01*
G01Y-214199D02*
G03I-355J0D01*
G01Y-214889D02*
G03I-355J0D01*
G01Y-213499D02*
G03I-355J0D01*
G01Y-212809D02*
G03I-355J0D01*
G01Y-212119D02*
G03I-355J0D01*
G01Y-210729D02*
G03I-355J0D01*
G01Y-211419D02*
G03I-355J0D01*
G01Y-210029D02*
G03I-355J0D01*
G01X405463Y-212809D02*
G03I-355J0D01*
G01X405954Y-212119D02*
G03I-355J0D01*
G01Y-211419D02*
G03I-355J0D01*
G01Y-212239D02*
G03I-355J0D01*
G01Y-210819D02*
G03I-355J0D01*
G01X401504Y-217429D02*
G03I-355J0D01*
G01X397843D02*
G03I-355J0D01*
G01X392524Y-217199D02*
G03I-355J0D01*
G01X391504Y-217369D02*
G03I-355J0D01*
G01X404273Y-214199D02*
G03I-355J0D01*
G01X404173Y-210819D02*
G03I-355J0D01*
G01X403084Y-215589D02*
G03I-355J0D01*
G01X403673Y-214889D02*
G03I-355J0D01*
G01X403404Y-210729D02*
G03I-355J0D01*
G01X403034Y-210629D02*
G03I-355J0D01*
G01X403593Y-210779D02*
G03I-355J0D01*
G01X402484Y-216279D02*
G03I-355J0D01*
G01X402054Y-212809D02*
G03I-355J0D01*
G01X402293Y-212549D02*
G03I-355J0D01*
G01Y-212119D02*
G03I-355J0D01*
G01Y-212039D02*
G03I-355J0D01*
G01X402104Y-210029D02*
G03I-355J0D01*
G01X402054Y-209989D02*
G03I-355J0D01*
G01X402513Y-210359D02*
G03I-355J0D01*
G01X401893Y-216979D02*
G03I-355J0D01*
G01X401424Y-213499D02*
G03I-355J0D01*
G01X401593Y-212029D02*
G03I-355J0D01*
G01X401863Y-209589D02*
G03I-355J0D01*
G01X400784Y-214199D02*
G03I-355J0D01*
G01X400913Y-211909D02*
G03I-355J0D01*
G01X399524Y-215589D02*
G03I-355J0D01*
G01X400153Y-214889D02*
G03I-355J0D01*
G01X399813Y-211419D02*
G03I-355J0D01*
G01X400254Y-211669D02*
G03I-355J0D01*
G01X399654Y-211329D02*
G03I-355J0D01*
G01X398893Y-216279D02*
G03I-355J0D01*
G01X399063Y-210729D02*
G03I-355J0D01*
G01X399293Y-211019D02*
G03I-355J0D01*
G01X399004Y-210639D02*
G03I-355J0D01*
G01X398734Y-210029D02*
G03I-355J0D01*
G01X398784Y-210219D02*
G03I-355J0D01*
G01X398663Y-209759D02*
G03I-355J0D01*
G01X398254Y-216979D02*
G03I-355J0D01*
G01X395484Y-214889D02*
G03I-355J0D01*
G01X395384Y-215239D02*
G03I-355J0D01*
G01X395554Y-214199D02*
G03I-355J0D01*
G01X395523Y-214769D02*
G03I-355J0D01*
G01X395554Y-214279D02*
G03I-355J0D01*
G01Y-213499D02*
G03I-355J0D01*
G01Y-212809D02*
G03I-355J0D01*
G01Y-212119D02*
G03I-355J0D01*
G01Y-211419D02*
G03I-355J0D01*
G01Y-210729D02*
G03I-355J0D01*
G01Y-210029D02*
G03I-355J0D01*
G01Y-210349D02*
G03I-355J0D01*
G01D02*
G03I-355J0D01*
G01D02*
G03I-355J0D01*
G01X394524Y-216279D02*
G03I-355J0D01*
G01X394454Y-216329D02*
G03I-355J0D01*
G01X394843Y-216039D02*
G03I-355J0D01*
G01X395204Y-215589D02*
G03I-355J0D01*
G01X395154Y-215669D02*
G03I-355J0D01*
G01X393854Y-216709D02*
G03I-355J0D01*
G01X393263Y-216979D02*
G03I-355J0D01*
G01X393204Y-216999D02*
G03I-355J0D01*
G01X392063Y-214889D02*
G03I-355J0D01*
G01X392043Y-214919D02*
G03I-355J0D01*
G01X392393Y-214199D02*
G03I-355J0D01*
G01X392454Y-214029D02*
G03I-355J0D01*
G01X392304Y-214499D02*
G03I-355J0D01*
G01X392484Y-213499D02*
G03I-355J0D01*
G01Y-213539D02*
G03I-355J0D01*
G01Y-212809D02*
G03I-355J0D01*
G01Y-212119D02*
G03I-355J0D01*
G01Y-211419D02*
G03I-355J0D01*
G01Y-210729D02*
G03I-355J0D01*
G01Y-210029D02*
G03I-355J0D01*
G01Y-210349D02*
G03I-355J0D01*
G01D02*
G03I-355J0D01*
G01D02*
G03I-355J0D01*
G01X391323Y-215589D02*
G03I-355J0D01*
G01X391693Y-215269D02*
G03I-355J0D01*
G01X391334Y-215589D02*
G03I-355J0D01*
G54D15*
X26000Y73500D03*
X94500Y47000D03*
G54D33*
X286772Y216617D03*
X276929D03*
G54D24*
X242350Y146117D03*
Y136117D03*
X237500Y153000D03*
X255350Y145117D03*
X248850D03*
X252350Y137117D03*
X237500Y159500D03*
X224850Y218117D03*
X239850D03*
X232350D03*
X290350Y157617D03*
Y151117D03*
X291850Y143617D03*
X285350D03*
X274850Y145117D03*
X268350D03*
X262350Y137117D03*
X282350D03*
X292350D03*
X272350D03*
X261850Y145117D03*
X273500Y151500D03*
G54D34*
X313118Y133991D03*
X342646Y163676D03*
X313118Y216668D03*
G54D25*
X257814Y183456D03*
Y185030D03*
Y186605D03*
Y188180D03*
Y189755D03*
Y191330D03*
Y192904D03*
Y194479D03*
Y196054D03*
Y197629D03*
Y199204D03*
Y200778D03*
X280887D03*
Y199204D03*
Y197629D03*
Y196054D03*
Y194479D03*
Y192904D03*
Y191330D03*
Y189755D03*
Y188180D03*
Y186605D03*
Y185030D03*
Y183456D03*
G54D16*
X20106Y62620D03*
Y40620D03*
Y106620D03*
Y84621D03*
X235850Y27217D03*
Y69216D03*
Y48216D03*
X306450Y27217D03*
X271150D03*
X306450Y69216D03*
Y48216D03*
X271150Y69216D03*
Y48216D03*
X341750Y27217D03*
Y69216D03*
Y48216D03*
G54D35*
X327350Y154617D03*
X315350D03*
G54D26*
X249291Y211270D03*
Y217963D03*
X254410Y211270D03*
Y217963D03*
G54D17*
X31106Y214620D03*
X9106D03*
X72606Y35120D03*
X83606Y115620D03*
X61606D03*
X53106Y214620D03*
X75106D03*
X94606Y35120D03*
X116606D03*
X127606Y115620D03*
X105606D03*
X119106Y214620D03*
X97106D03*
X138606Y35120D03*
X149606Y115620D03*
X171606D03*
X163106Y214620D03*
X141106D03*
X185106D03*
X244550Y99716D03*
X222350D03*
X266750D03*
G54D18*
X179606Y25620D03*
Y35620D03*
X328850Y100910D03*
X318850D03*
X342646Y153676D03*
X333118Y133991D03*
X323118D03*
X333118Y216668D03*
X323118D03*
G54D36*
X338115Y186865D03*
Y206550D03*
G54D27*
X286000Y100442D03*
Y102410D03*
Y104379D03*
X291700Y100442D03*
Y102410D03*
Y104379D03*
X286000Y86942D03*
Y88910D03*
Y90879D03*
X291700Y86942D03*
Y88910D03*
Y90879D03*
G54D28*
X303276Y151865D03*
Y201865D03*
Y191865D03*
Y181865D03*
Y171865D03*
Y161865D03*
Y211865D03*
G54D37*
X348745Y182928D03*
Y210487D03*
G54D19*
X215380Y181317D03*
X212080D03*
X215380Y185817D03*
X212080D03*
X221200Y25216D03*
X224500D03*
X255366Y44650D03*
X252067D03*
X236500Y37716D03*
X233200D03*
X221200Y65716D03*
X224500D03*
X221200Y29716D03*
X224500D03*
X240700Y61216D03*
X244000D03*
X221200Y56716D03*
X224500D03*
X221200Y43216D03*
X224500D03*
X221200Y38717D03*
X224500D03*
X221200Y52216D03*
X224500D03*
X221200Y47716D03*
X224500D03*
X258700Y61716D03*
X248300Y57284D03*
X245000D03*
X252300Y30283D03*
X249000D03*
X221200Y61216D03*
X224500D03*
X221200Y34217D03*
X224500D03*
X221200Y83716D03*
X224500D03*
X241350Y79000D03*
X244650D03*
X221200Y70216D03*
X224500D03*
X221200Y79216D03*
X224500D03*
X256700Y73716D03*
X260000D03*
X250500Y72716D03*
X247200D03*
X221200Y74716D03*
X224500D03*
X228150Y150500D03*
X224850D03*
X228150Y147000D03*
X224850D03*
X231150Y138500D03*
X227850D03*
X234199Y195574D03*
X237502D03*
X244700Y195568D03*
X248000D03*
X246200Y183074D03*
X249500D03*
X240950Y187074D03*
X244250D03*
X223000Y195574D03*
X226300D03*
X248200Y204074D03*
X251500D03*
X277650Y37000D03*
X274350D03*
X291850Y61784D03*
X288550D03*
X288800Y46784D03*
X285500D03*
X269650Y38500D03*
X266350D03*
X278434Y59350D03*
X275134D03*
X282566Y57650D03*
X285866D03*
X262000Y61716D03*
X280000Y77216D03*
X276700D03*
X282566Y71150D03*
X285866D03*
X321434Y63850D03*
X318134D03*
X316850Y181000D03*
X320150D03*
X340350Y198000D03*
X343650D03*
X316650Y170500D03*
X313350D03*
X321650Y175000D03*
X318350D03*
G54D29*
X303276Y141865D03*
G54D38*
X332350Y166117D03*
Y178117D03*
X327500Y194500D03*
Y206500D03*
G54D39*
X317272Y209000D03*
X313728D03*
X317272Y205000D03*
X313728D03*
M02*
